<?xml version="1.0" encoding="UTF-8"?>
<svg xmlns="http://www.w3.org/2000/svg" version="1.1" viewBox="0 0 176.9 64.1">
  <defs>
    <style>
      .cls-1 {
        fill: #4285f4;
      }

      .cls-2 {
        fill: #fbbc05;
      }

      .cls-3 {
        fill: #34a853;
      }

      .cls-4 {
        fill: #ea4335;
      }

      .cls-5 {
        fill: #5f6368;
      }
    </style>
  </defs>
  <!-- Generator: Adobe Illustrator 28.7.1, SVG Export Plug-In . SVG Version: 1.2.0 Build 142)  -->
  <g>
    <g id="Layer_1">
      <g>
        <path class="cls-4" d="M20.8,24.7h1l2.9-2.8v-1.2c-5.2-4.7-13.3-4.2-17.9,1.1-1.3,1.5-2.2,3.2-2.8,5.1.3-.1.7-.2,1,0l5.7-.9s.3-.5.4-.4c2.5-2.8,6.8-3.1,9.7-.7h0Z"/>
        <path class="cls-1" d="M28.7,26.9c-.7-2.4-2-4.6-3.9-6.2l-4,4c1.7,1.4,2.7,3.5,2.6,5.6v.7c2,0,3.6,1.6,3.6,3.6s-1.6,3.6-3.6,3.6h-7.1l-.7.7v4.3l.7.7h7.1c5.1,0,9.3-4.1,9.3-9.2,0-3.1-1.5-6-4.1-7.7Z"/>
        <path class="cls-3" d="M9.2,43.8h7.1v-5.7h-7.1c-.5,0-1-.1-1.5-.3l-1,.3-2.9,2.8-.2,1c1.6,1.2,3.6,1.9,5.6,1.9Z"/>
        <path class="cls-2" d="M9.2,25.3C4.1,25.3,0,29.5,0,34.6c0,2.9,1.4,5.5,3.6,7.3l4.1-4.1c-1.8-.8-2.6-2.9-1.8-4.7s2.9-2.6,4.7-1.8c.8.4,1.4,1,1.8,1.8l4.1-4.1c-1.8-2.3-4.5-3.6-7.4-3.6Z"/>
        <path class="cls-5" d="M51.7,39.8c-2.5,0-4.9-.9-6.6-2.7-1.8-1.7-2.8-4.1-2.8-6.5,0-2.5,1-4.8,2.8-6.5,1.7-1.8,4.1-2.8,6.6-2.8,2.4,0,4.6.9,6.3,2.6l-1.8,1.8c-1.2-1.2-2.9-1.8-4.5-1.8-1.8,0-3.5.7-4.7,2-1.3,1.3-2,3-1.9,4.8,0,1.8.7,3.5,1.9,4.7,2.6,2.6,6.7,2.6,9.4.1.8-.9,1.3-2,1.4-3.1h-6v-2.6h8.5c0,.5.1,1,.1,1.6.1,2.2-.7,4.3-2.2,5.9-1.7,1.7-4,2.7-6.4,2.6ZM71.5,38.1c-2.4,2.3-6.1,2.3-8.5,0-1.1-1.1-1.8-2.7-1.7-4.2,0-1.6.6-3.1,1.7-4.2,2.4-2.3,6.1-2.3,8.5,0,1.1,1.1,1.8,2.7,1.7,4.2,0,1.6-.6,3.1-1.7,4.2h0ZM64.9,36.4c1.2,1.3,3.3,1.4,4.6.2,0,0,.1,0,.2-.2.7-.7,1-1.6,1-2.6,0-1-.3-1.9-1-2.6-1.3-1.3-3.3-1.4-4.7,0,0,0,0,0,0,0-.7.7-1,1.6-1,2.6,0,1,.3,1.9,1,2.6h0ZM84.5,38.1c-2.4,2.3-6.1,2.3-8.5,0-1.1-1.1-1.8-2.7-1.7-4.2,0-1.6.6-3.1,1.7-4.2,2.4-2.3,6.1-2.3,8.5,0,1.1,1.1,1.8,2.7,1.7,4.2,0,1.6-.6,3.1-1.7,4.2ZM77.9,36.4c1.2,1.3,3.3,1.4,4.6.2,0,0,.1,0,.2-.2.7-.7,1-1.6,1-2.6,0-1-.3-1.9-1-2.6-1.3-1.3-3.3-1.4-4.7,0,0,0,0,0,0,0-.7.7-1,1.6-1,2.6,0,1,.3,1.9,1,2.6h0ZM93.1,45.1c-1.2,0-2.4-.3-3.3-1.1-.8-.6-1.5-1.5-1.9-2.5l2.3-1c.2.6.6,1.1,1.1,1.5.5.4,1.2.6,1.9.6.9,0,1.7-.3,2.3-.9.6-.7.9-1.7.8-2.6v-.9h0c-.8.9-1.9,1.4-3.1,1.4-1.5,0-3-.6-4-1.7-1.1-1.1-1.7-2.6-1.7-4.2,0-1.6.6-3.1,1.7-4.2,1-1.1,2.5-1.8,4-1.8.6,0,1.3.1,1.8.4.5.2.9.5,1.3.9h0v-.9h2.5v10.6c.1,1.7-.4,3.4-1.6,4.6-1.1,1-2.6,1.6-4.1,1.5ZM93.2,37.4c.9,0,1.7-.3,2.3-1,.6-.7.9-1.6.9-2.6,0-1-.3-1.9-.9-2.6-.6-.7-1.4-1-2.3-1-.9,0-1.7.3-2.3,1-.7.7-1,1.6-1,2.6,0,1,.3,1.9,1,2.6.6.7,1.4,1,2.3,1ZM103.1,21.9v17.5h-2.6v-17.5h2.6ZM110.3,39.8c-1.6,0-3.1-.6-4.2-1.7-1.1-1.1-1.7-2.7-1.7-4.2,0-1.6.5-3.1,1.6-4.3,1-1.1,2.5-1.7,4-1.7.7,0,1.4.1,2,.4.6.2,1.1.6,1.5,1,.4.4.7.8,1,1.2.2.4.4.8.6,1.2l.3.7-8,3.3c.5,1.1,1.6,1.9,2.9,1.8,1.2,0,2.3-.6,2.9-1.6l2,1.4c-.5.7-1.2,1.3-1.9,1.8-.9.6-1.9.9-3,.8ZM107,33.7l5.3-2.2c-.2-.4-.5-.7-.8-.9-.4-.2-.9-.4-1.4-.4-.8,0-1.6.4-2.2.9-.7.7-1,1.6-1,2.5Z"/>
        <path class="cls-5" d="M129.1,39.8c-4.6,0-8.3-3.5-8.4-8.1,0-.1,0-.2,0-.3-.1-4.5,3.5-8.3,8-8.4.1,0,.2,0,.3,0,2.3,0,4.5.9,5.9,2.6l-1.4,1.4c-1.1-1.4-2.7-2.1-4.5-2.1-1.7,0-3.3.6-4.4,1.8-1.2,1.2-1.9,2.9-1.8,4.7,0,1.7.6,3.4,1.8,4.7,1.2,1.2,2.8,1.8,4.4,1.8,1.9,0,3.8-.8,5-2.3l1.4,1.4c-.8.9-1.7,1.6-2.8,2.1-1.2.5-2.4.8-3.7.8Z"/>
        <path class="cls-5" d="M139.4,39.4h-2.1v-16.1h2.1v16.1Z"/>
        <path class="cls-5" d="M142.8,29.7c2.3-2.2,5.9-2.2,8.2,0,1.1,1.1,1.6,2.6,1.6,4.2,0,1.6-.5,3.1-1.6,4.2-2.3,2.2-5.9,2.2-8.2,0-1.1-1.1-1.6-2.6-1.6-4.2,0-1.6.5-3.1,1.6-4.2ZM144.3,36.8c1.3,1.4,3.5,1.5,4.9.1,0,0,0,0,.1-.1.7-.8,1.1-1.8,1.1-2.9,0-1.1-.3-2.1-1.1-2.9-1.3-1.4-3.5-1.5-4.9-.1,0,0,0,0-.1.1-.7.8-1.1,1.8-1.1,2.9,0,1.1.3,2.1,1.1,2.9h0Z"/>
        <path class="cls-5" d="M164,39.4h-2v-1.5h0c-.4.6-.9,1.1-1.5,1.4-.6.4-1.3.6-2.1.5-1.2,0-2.3-.4-3.1-1.3-.8-1-1.1-2.2-1.1-3.4v-6.8h2.1v6.4c0,2.1.9,3.1,2.7,3.1.8,0,1.6-.3,2.1-1,.5-.7.8-1.5.8-2.4v-6.1h2.1v11Z"/>
        <path class="cls-5" d="M171,39.8c-1.4,0-2.8-.6-3.7-1.7-1-1.1-1.6-2.6-1.6-4.2,0-1.5.5-3,1.6-4.2.9-1.1,2.3-1.7,3.7-1.7.8,0,1.6.2,2.3.5.6.3,1.1.8,1.5,1.4h0v-1.5c0,0,0-5.1,0-5.1h2.1v16.1h-2v-1.5h0c-.4.6-.9,1-1.5,1.4-.7.4-1.5.5-2.2.5ZM171.4,37.9c.9,0,1.9-.4,2.5-1.1.7-.8,1.1-1.8,1-2.9,0-1.1-.3-2.1-1-2.9-1.3-1.4-3.4-1.5-4.8-.2,0,0-.2.1-.2.2-.7.8-1.1,1.8-1,2.9,0,1.1.3,2.1,1,2.9.6.7,1.6,1.1,2.5,1.1Z"/>
      </g>
    </g>
  </g>
</svg>