<?xml version="1.0" encoding="UTF-8"?>
<svg xmlns="http://www.w3.org/2000/svg" version="1.1" viewBox="0 0 176.9 64.1">
  <defs>
    <style>
      .cls-1 {
        fill: #0089d6;
      }
    </style>
  </defs>
  <!-- Generator: Adobe Illustrator 28.7.1, SVG Export Plug-In . SVG Version: 1.2.0 Build 142)  -->
  <g>
    <g id="Layer_1">
      <g id="layer1">
        <g id="layer1-1">
          <path id="path21" class="cls-1" d="M52.4,45.4c5.2-.9,9.6-1.7,9.6-1.7h0s-5-5.9-5-5.9c-2.7-3.2-5-5.9-5-5.9,0,0,5.1-14.1,5.1-14.2,0,0,3.5,6,8.4,14.6,4.6,8,8.4,14.6,8.5,14.7h0c0,.1-15.7.1-15.7.1h-15.7s9.5-1.7,9.5-1.7ZM112.8,44c-2.4-.2-3.8-1.5-4.2-4.1,0-.7,0-.7-.1-5.1v-4.3s1.1,0,1.1,0h1.1v4.1c0,3.7,0,4.2,0,4.4.1,1.1.4,1.8.9,2.3.4.4.8.7,1.5.8.3,0,1.2,0,1.4,0,.6-.1,1.2-.4,1.6-.9.5-.5.9-1.3,1.1-2.1v-.3c0,0,0-4.2,0-4.2v-4.2h2.2v13.1h-2.1v-1c0-.7,0-1,0-1,0,0,0,0-.1.2-.4.7-1,1.3-1.7,1.7-.8.4-1.6.6-2.7.5h0ZM137.1,44c-.8,0-1.7-.4-2.5-.8-1.5-.9-2.4-2.5-2.7-4.7,0-.7-.1-1.7,0-2.4.2-1.4.7-2.8,1.5-3.8.2-.3.7-.7.9-.9.7-.5,1.5-.9,2.3-1.1.5-.1,1.4-.2,1.9-.1,1.3.1,2.5.7,3.4,1.7.8,1,1.3,2.4,1.4,4.1,0,.3,0,.7,0,1v.6s-4.7,0-4.7,0h-4.6v.2c0,.6.2,1.3.4,2,.2.5.6,1.1.9,1.4.7.6,1.5.9,2.4,1,.3,0,1.2,0,1.5,0,1.1-.2,2.1-.6,2.9-1.2,0,0,.2-.1.2-.1,0,0,0,.2,0,1v1s-.2.1-.2.1c-.9.6-2,.9-3.1,1.1-.3,0-1.6,0-2,0h0ZM141.1,35.7c0-1.1-.4-2.2-1.1-2.8-.4-.4-1-.7-1.6-.8-.3,0-.9,0-1.3,0-.7.1-1.2.4-1.7.9-.5.5-.9,1.1-1.1,1.8,0,.3-.2.7-.2.9h0c0,.1,3.6.1,3.6.1h3.6v-.2ZM78.2,43.6s1.6-4.2,3.5-9.2l3.5-9.2h1.1s1.1,0,1.1,0v.2c.4.7,7.1,18.1,7.1,18.1s-.5,0-1.2,0h-1.2s-1-2.6-1-2.6l-1-2.6h-3.9s-3.9,0-3.9,0h0c0,.1-.4,1.3-.9,2.7l-.9,2.5h-1.2c-.9,0-1.2,0-1.2,0h0ZM89.5,36.6s-.7-1.8-1.4-3.9c-1.5-4-1.6-4.3-1.7-4.9,0-.3,0-.3-.1,0,0,.2-.1.6-.2.9,0,.1-.7,2-1.5,4.1-.8,2.1-1.4,3.9-1.4,3.9s1.4,0,3.2,0,3.2,0,3.2,0ZM95.2,43.3v-.3l3.9-5.3,3.9-5.3h-3.5s-3.5,0-3.5,0v-.9s0-.9,0-.9h10.2v.6l-3.9,5.4c-2.1,2.9-3.9,5.4-3.9,5.4s1.7,0,3.8,0h3.8v1.8h-10.8v-.3ZM123.7,43.6s0-3,0-6.6v-6.6h2.1v1.4c0,.7,0,1.4,0,1.4s0-.1.1-.3c.2-.7.7-1.3,1.2-1.8.5-.5,1-.7,1.7-.8.2,0,.3,0,.7,0,.5,0,.7,0,1,.1h0v2.2h-.3c-.4-.3-.9-.4-1.4-.4-.3,0-.6,0-.8.2-.6.2-1,.6-1.3,1.1-.5.7-.8,1.7-.9,2.5,0,.2,0,1.4,0,3.9v3.7h-1c-.6,0-1.1,0-1.1,0ZM33.6,43.6s2.3-4.1,5.2-9l5.2-9,6-5.1c3.3-2.8,6.1-5.1,6.1-5.1,0,0,0,.1,0,.2,0,.1-3,6.5-6.6,14.1l-6.4,13.8h-4.7c-2.6,0-4.7,0-4.7,0Z"/>
        </g>
      </g>
    </g>
  </g>
</svg>