<?xml version="1.0" encoding="UTF-8"?>
<svg xmlns="http://www.w3.org/2000/svg" version="1.1" viewBox="0 0 176.9 64.1">
  <defs>
    <style>
      .cls-1 {
        fill: #f90;
        fill-rule: evenodd;
      }

      .cls-2 {
        fill: #252f3e;
      }
    </style>
  </defs>
  <!-- Generator: Adobe Illustrator 28.7.1, SVG Export Plug-In . SVG Version: 1.2.0 Build 142)  -->
  <g>
    <g id="Layer_1">
      <g>
        <path class="cls-2" d="M72.4,26.3c0,.8,0,1.4.2,1.8.2.4.4.9.7,1.5.1.2.1.3.1.5,0,.2-.1.4-.4.6l-1.3.9c-.2.1-.4.2-.5.2s-.4-.1-.6-.3c-.3-.3-.5-.6-.7-1-.2-.3-.4-.7-.6-1.2-1.6,1.9-3.6,2.8-6,2.8s-3.1-.5-4.1-1.5c-1-1-1.5-2.3-1.5-3.9s.6-3.1,1.8-4.2c1.2-1.1,2.9-1.6,5-1.6s1.4,0,2.2.2,1.5.3,2.3.4v-1.5c0-1.5-.3-2.6-1-3.3-.7-.6-1.7-.9-3.3-.9s-1.4,0-2.2.3-1.5.4-2.2.7c-.3.1-.6.2-.7.3-.1,0-.2,0-.3,0-.3,0-.4-.2-.4-.6v-1c0-.3,0-.6.1-.7s.3-.3.6-.4c.7-.4,1.6-.7,2.6-.9,1-.3,2.1-.4,3.2-.4,2.4,0,4.2.5,5.3,1.6,1.1,1.1,1.7,2.8,1.7,5v6.6h0ZM64.2,29.4c.7,0,1.4-.1,2.1-.4.7-.2,1.4-.7,1.9-1.3.3-.4.6-.8.7-1.3s.2-1.1.2-1.8v-.9c-.6-.1-1.2-.3-1.9-.3s-1.3-.1-1.9-.1c-1.4,0-2.4.3-3,.8-.7.5-1,1.3-1,2.3s.2,1.7.8,2.2c.5.5,1.2.8,2.1.8ZM80.5,31.6c-.4,0-.6,0-.8-.2-.2-.1-.3-.4-.4-.8l-4.8-15.7c-.1-.4-.2-.7-.2-.8,0-.3.2-.5.5-.5h2c.4,0,.7,0,.8.2.2.1.3.4.4.8l3.4,13.5,3.2-13.5c.1-.4.2-.7.4-.8.2-.1.4-.2.8-.2h1.6c.4,0,.7,0,.8.2.2.1.3.4.4.8l3.2,13.6,3.5-13.6c.1-.4.3-.7.4-.8.2-.1.4-.2.8-.2h1.9c.3,0,.5.2.5.5s0,.2,0,.3c0,.1,0,.3-.1.5l-4.9,15.7c-.1.4-.3.7-.4.8s-.4.2-.8.2h-1.7c-.4,0-.7,0-.8-.2s-.3-.4-.4-.8l-3.2-13.1-3.1,13.1c-.1.4-.2.7-.4.8-.2.1-.4.2-.8.2h-1.7ZM106.6,32.1c-1.1,0-2.1-.1-3.1-.4-1-.2-1.8-.5-2.3-.8-.3-.2-.5-.4-.6-.6,0-.2-.1-.4-.1-.6v-1c0-.4.2-.6.5-.6s.2,0,.4,0c.1,0,.3.1.5.2.7.3,1.4.5,2.2.7.8.2,1.6.2,2.4.2,1.3,0,2.3-.2,3-.7.7-.4,1.1-1.1,1.1-1.9s-.2-1-.5-1.4c-.4-.4-1.1-.7-2.1-1.1l-2.9-.9c-1.5-.5-2.6-1.2-3.3-2.1-.7-.9-1-1.9-1-2.9s.2-1.6.5-2.3c.4-.7.9-1.2,1.5-1.7.6-.5,1.3-.8,2.1-1.1.8-.2,1.7-.3,2.6-.3s.9,0,1.4,0c.5,0,.9.1,1.3.2.4.1.8.2,1.2.3.4.1.7.2.9.4.3.2.5.3.6.5.1.2.2.4.2.7v1c0,.4-.2.7-.5.7s-.4,0-.8-.2c-1.2-.5-2.5-.8-3.9-.8s-2.1.2-2.7.6-1,1-1,1.8.2,1.1.6,1.4c.4.4,1.2.8,2.2,1.1l2.9.9c1.5.5,2.5,1.1,3.2,2,.6.8.9,1.8.9,2.8s-.2,1.7-.5,2.4c-.4.7-.9,1.3-1.5,1.8-.6.5-1.4.9-2.3,1.1-.9.3-1.9.4-2.9.4Z"/>
        <g>
          <path class="cls-1" d="M110.5,42c-6.7,4.9-16.4,7.6-24.8,7.6s-22.3-4.3-30.2-11.5c-.6-.6,0-1.3.7-.9,8.6,5,19.3,8,30.2,8s15.6-1.5,23.1-4.7c1.1-.5,2.1.7,1,1.5Z"/>
          <path class="cls-1" d="M113.3,38.8c-.9-1.1-5.7-.5-7.8-.3-.7,0-.8-.5-.2-.9,3.8-2.7,10.1-1.9,10.8-1,.7.9-.2,7.2-3.8,10.2-.5.5-1.1.2-.8-.4.8-2,2.6-6.5,1.8-7.6Z"/>
        </g>
      </g>
    </g>
  </g>
</svg>