<svg width="54" height="60" viewBox="0 0 54 60" fill="none" xmlns="http://www.w3.org/2000/svg">
    <g clip-path="url(#clip0_337_300)">
        <path d="M27.2231 0C27.3859 0.0563454 27.5455 0.118951 27.7099 0.169036C29.7759 0.795096 31.0295 2.81883 30.6445 4.94431C30.5819 5.29333 30.621 5.49993 30.9622 5.69558C35.8502 8.50189 40.7288 11.3254 45.6105 14.1427C45.6433 14.1615 45.684 14.1662 45.6715 14.0613C46.4541 13.7029 47.2054 13.2083 48.0271 13.0111C50.1385 12.504 52.2545 13.8109 52.8743 15.88C53.5051 17.9883 52.4439 20.2155 50.3811 20.9902C49.9021 21.1702 49.7879 21.3972 49.7894 21.8683C49.8051 27.2962 49.8051 32.7241 49.7879 38.1521C49.7879 38.6169 49.9225 38.8094 50.3607 38.9847C52.0182 39.6484 52.9526 40.9067 53.034 42.6941C53.1138 44.4534 52.3328 45.8072 50.7676 46.6117C49.1775 47.4287 47.6186 47.2472 46.2225 46.1312C45.8484 45.8323 45.6183 45.8213 45.2208 46.053C40.5175 48.7888 35.8048 51.5106 31.0843 54.2152C30.6758 54.45 30.5882 54.6707 30.657 55.1324C30.9184 56.8791 30.2783 58.2799 28.8336 59.2785C27.436 60.2442 25.6094 60.2426 24.2055 59.2753C22.7593 58.2783 22.1223 56.876 22.3837 55.1308C22.4525 54.6691 22.3664 54.4515 21.9564 54.2152C17.2171 51.5012 12.4904 48.7669 7.7683 46.0232C7.40988 45.815 7.20015 45.8307 6.86677 46.0999C5.45814 47.2378 3.88517 47.4397 2.27306 46.6101C0.709477 45.8057 -0.0746624 44.4534 0.00672536 42.691C0.0928086 40.8754 1.05381 39.6186 2.73478 38.9581C3.14172 38.7985 3.24971 38.6169 3.24971 38.2084C3.23719 32.7226 3.24032 27.2352 3.24502 21.7493C3.24502 21.4128 3.21215 21.2046 2.81773 21.0575C1.07885 20.4064 0.0834177 19.1324 0.00672536 17.2652C-0.0668367 15.4793 0.745476 14.1223 2.34975 13.3366C4.00568 12.5243 5.56927 12.8014 6.98729 13.9611C7.0765 14.0347 7.16259 14.1145 7.28467 14.2209C8.09385 13.7561 8.9046 13.2959 9.71222 12.8295C13.816 10.4599 17.9199 8.08869 22.0252 5.72062C22.2882 5.5688 22.4823 5.45611 22.4212 5.06013C22.0393 2.57624 23.2398 0.765358 25.672 0.0907787C25.7253 0.0766923 25.7691 0.031303 25.8176 0.00156515C26.2856 0.00156515 26.7551 0.00156515 27.2231 0.00156515V0ZM5.11694 29.9617C5.11694 32.7132 5.12163 35.4663 5.11068 38.2178C5.10911 38.5888 5.17485 38.7907 5.58022 38.9409C6.08107 39.1256 6.54592 39.4402 6.9779 39.7642C7.22676 39.9504 7.38327 39.9661 7.64152 39.8174C10.4744 38.1724 13.3152 36.5431 16.1418 34.8872C16.314 34.7854 16.4752 34.499 16.4768 34.2987C16.4987 31.4298 16.5003 28.5608 16.4752 25.6919C16.4737 25.4806 16.2827 25.1848 16.0949 25.0737C13.2855 23.4272 10.4619 21.8072 7.64622 20.1716C7.3911 20.023 7.22989 20.0308 6.9826 20.2202C6.5694 20.5363 6.12333 20.8509 5.6397 21.0231C5.1952 21.1812 5.10755 21.3987 5.11068 21.8244C5.12789 24.5368 5.12007 27.2508 5.12007 29.9632L5.11694 29.9617ZM47.9206 29.993C47.9206 27.2414 47.9159 24.4883 47.9269 21.7368C47.9269 21.3846 47.8612 21.1984 47.484 21.0544C46.9847 20.8634 46.5104 20.5645 46.0832 20.2358C45.8155 20.0308 45.6449 20.023 45.3694 20.1826C42.5553 21.8197 39.7302 23.4397 36.9223 25.0878C36.7376 25.1958 36.5655 25.5025 36.5624 25.717C36.5389 28.5671 36.5389 31.4157 36.5624 34.2658C36.5639 34.4818 36.7376 34.787 36.9223 34.895C39.7302 36.5431 42.5537 38.163 45.3694 39.8002C45.6433 39.9598 45.8155 39.9583 46.0832 39.747C46.4917 39.4261 46.9456 39.1225 47.4292 38.9503C47.8549 38.7985 47.93 38.5825 47.9285 38.1896C47.9159 35.4569 47.9222 32.7241 47.9222 29.9914L47.9206 29.993ZM36.5217 23.1298C39.245 21.5599 41.912 20.0261 44.5681 18.4719C44.6808 18.4062 44.7371 18.1651 44.7403 18.0055C44.7543 17.4248 44.6808 16.8363 44.7496 16.265C44.7919 15.9238 44.7121 15.7798 44.4397 15.6264C43.3692 15.0254 42.3096 14.4041 41.2468 13.7905C37.5171 11.6369 33.7889 9.48167 30.0529 7.33898C29.8839 7.24195 29.5912 7.16525 29.4487 7.24508C28.7929 7.60976 28.1716 8.03391 27.5001 8.45963V18.3576C27.713 18.3733 27.8867 18.3827 28.0589 18.3983C30.1139 18.5799 32.1095 18.9915 33.9282 20.0198C35.1506 20.7101 36.1539 21.6038 36.5232 23.1298H36.5217ZM27.5377 41.622C27.5017 41.7034 27.4735 41.7378 27.4735 41.7723C27.4673 44.9714 27.4594 48.1706 27.4751 51.3698C27.4751 51.5091 27.6848 51.6828 27.8366 51.7783C28.3125 52.0756 28.8336 52.3057 29.2828 52.636C29.5458 52.83 29.7101 52.8754 29.9919 52.7017C30.7056 52.2619 31.4396 51.8565 32.1643 51.4371C36.1977 49.1066 40.2279 46.7729 44.2691 44.4549C44.6463 44.2389 44.8389 44.0668 44.7215 43.5644C44.6119 43.087 44.662 42.5517 44.745 42.0571C44.8013 41.7175 44.7183 41.5766 44.4413 41.4185C42.7134 40.4356 40.9964 39.4339 39.2748 38.4401C38.3685 37.9173 37.4623 37.3961 36.5232 36.8561C36.146 38.4275 35.0849 39.3447 33.7967 40.0428C31.8544 41.0961 29.7336 41.4796 27.5361 41.622H27.5377ZM25.5609 8.44555C24.9192 8.06365 24.3057 7.76158 23.7704 7.3562C23.4761 7.13239 23.2977 7.14021 23.0129 7.30612C18.2063 10.0905 13.3981 12.8687 8.58374 15.6374C8.29419 15.8049 8.25976 15.963 8.30202 16.2854C8.37088 16.8207 8.38653 17.381 8.29889 17.91C8.23628 18.2856 8.35054 18.4249 8.63539 18.5877C10.7671 19.807 12.8926 21.0372 15.0196 22.2642C15.5064 22.5444 15.9947 22.823 16.5206 23.1235C16.793 21.9277 17.5035 21.0982 18.4395 20.444C19.7073 19.5597 21.1315 19.0416 22.6372 18.7505C23.6045 18.5627 24.5858 18.4484 25.564 18.2997V8.44711L25.5609 8.44555ZM16.5097 36.8546C13.8004 38.4182 11.149 39.9426 8.51018 41.489C8.3834 41.5625 8.30984 41.8177 8.30515 41.9914C8.29106 42.5345 8.40845 43.0948 8.30671 43.616C8.2175 44.0715 8.37245 44.2249 8.71522 44.4205C11.4558 45.9872 14.187 47.5727 16.9213 49.152C19.0796 50.3978 21.2395 51.6437 23.3196 52.8441C23.9535 52.4779 24.4982 52.0929 25.0992 51.8409C25.4701 51.6859 25.5938 51.5388 25.5907 51.1413C25.5734 48.1565 25.5813 45.1702 25.5797 42.1855C25.5797 41.9992 25.564 41.813 25.5547 41.6267C23.509 41.489 21.5729 41.165 19.7667 40.3057C18.2642 39.592 16.9714 38.6592 16.5065 36.8546H16.5097ZM26.5235 27.0207C28.5472 26.9847 30.5428 26.7547 32.3912 25.875C33.047 25.562 33.6747 25.1238 34.199 24.6214C34.8579 23.989 34.8595 23.2284 34.1927 22.6086C33.6324 22.089 32.9688 21.6335 32.2754 21.3126C30.4004 20.4471 28.3891 20.2092 26.3404 20.2296C24.2916 20.2483 22.2929 20.541 20.4382 21.4582C19.8888 21.7305 19.3598 22.0999 18.9169 22.5225C18.175 23.2315 18.1781 24.0063 18.9184 24.72C19.3473 25.1316 19.8591 25.4885 20.3912 25.7545C22.3179 26.7155 24.4011 26.9816 26.5235 27.0207ZM18.3706 26.8987C18.3706 27.6984 18.4301 28.517 18.3565 29.3231C18.2517 30.475 18.7901 31.22 19.7026 31.7788C20.05 31.9916 20.4116 32.192 20.7872 32.3469C23.7328 33.5552 26.7739 33.6632 29.8635 33.0857C31.1735 32.84 32.4585 32.4596 33.5228 31.6301C33.9752 31.2779 34.5057 30.7536 34.5793 30.2465C34.739 29.1462 34.6294 28.0068 34.6294 26.9221C29.214 29.6001 23.8283 29.5938 18.3706 26.9002V26.8987ZM34.6325 33.333C29.1874 35.9984 23.8142 35.9797 18.3691 33.3205C18.3691 34.222 18.3894 35.1329 18.3628 36.0423C18.344 36.7012 18.5506 37.2803 19.0812 37.6246C19.8747 38.1396 20.6917 38.6764 21.576 38.9832C24.3104 39.9332 27.1229 39.9723 29.9449 39.4152C31.2346 39.16 32.5008 38.7844 33.5432 37.958C33.9908 37.6027 34.5073 37.0753 34.5856 36.5635C34.7468 35.5023 34.6341 34.3988 34.6341 33.333H34.6325ZM28.854 4.24625C28.879 2.9863 27.8507 1.91105 26.5908 1.87661C25.298 1.84062 24.2102 2.87518 24.1867 4.1633C24.1632 5.44046 25.2291 6.53293 26.5078 6.54232C27.76 6.55171 28.829 5.5062 28.854 4.24782V4.24625ZM28.854 55.7537C28.8415 54.4954 27.7834 53.4452 26.5251 53.442C25.2432 53.4389 24.1711 54.5204 24.1867 55.8007C24.2008 57.0873 25.2839 58.1343 26.5736 58.1062C27.8335 58.0796 28.8681 57.0137 28.854 55.7522V55.7537ZM6.50679 17.1259C6.51775 15.819 5.48162 14.7672 4.18724 14.7672C2.91947 14.7672 1.88334 15.7955 1.86612 17.0711C1.84891 18.3623 2.90538 19.436 4.19193 19.4329C5.46284 19.4298 6.49583 18.3999 6.50679 17.1259ZM46.5355 17.1165C46.5417 18.3921 47.57 19.4251 48.8394 19.4345C50.1244 19.4423 51.1855 18.3733 51.1746 17.082C51.1636 15.808 50.1306 14.7734 48.8629 14.7687C47.5685 14.7625 46.5292 15.8111 46.5355 17.118V17.1165ZM6.50523 42.8867C6.50523 41.5845 5.45501 40.5358 4.1622 40.5515C2.89599 40.5671 1.86612 41.6111 1.86456 42.8804C1.86456 44.1497 2.8913 45.1968 4.15594 45.214C5.44875 45.2313 6.50366 44.1857 6.50523 42.8851V42.8867ZM46.5355 42.8663C46.5292 44.1701 47.57 45.2219 48.8613 45.2172C50.1244 45.2109 51.1621 44.1732 51.1746 42.9039C51.1871 41.6142 50.1259 40.5452 48.8409 40.553C47.57 40.5608 46.5433 41.5923 46.5355 42.8663Z" fill="#525252" />
    </g>
    <defs>
        <clipPath id="clip0_337_300">
            <rect width="53.0539" height="60" fill="white" />
        </clipPath>
    </defs>
</svg>