<svg width="61" height="60" viewBox="0 0 61 60" fill="none" xmlns="http://www.w3.org/2000/svg">
    <g clip-path="url(#clip0_337_301)">
    <path d="M41.2404 45.4307C40.1077 44.298 39.098 43.29 38.0834 42.2753C29.7085 48.2667 18.8003 46.1709 12.9836 38.8804C7.1303 31.5451 7.65258 21.1825 14.1928 14.456C20.5435 7.92403 30.9527 7.12729 38.293 12.5647C45.798 18.1253 48.1682 29.0667 42.6409 37.5182C43.7005 38.5744 44.755 39.624 45.9144 40.78C46.1073 40.5438 46.3086 40.2494 46.5564 40.0015C47.1602 39.3944 47.6559 39.3977 48.263 40.0032C50.437 42.1722 52.6077 44.3462 54.78 46.5185C56.2188 47.9573 57.6642 49.3861 59.0914 50.8349C60.6815 52.45 61.1606 54.3628 60.3904 56.4952C59.637 58.5794 58.0701 59.7354 55.8745 59.9666C54.3076 60.1313 52.8954 59.6606 51.7743 58.5511C48.0418 54.8585 44.3359 51.1376 40.6283 47.4217C40.1143 46.9077 40.1276 46.437 40.6433 45.9064C40.8296 45.7151 41.0641 45.5687 41.2421 45.429L41.2404 45.4307ZM27.3199 43.8738C36.4467 43.8688 43.8319 36.4836 43.8236 27.3701C43.8153 18.1685 36.4783 10.8199 27.3083 10.8299C18.1699 10.8382 10.8212 18.1835 10.8063 27.3236C10.7913 36.4803 18.1732 43.8788 27.3199 43.8738ZM47.4796 41.8811C45.8479 43.5129 44.2427 45.1196 42.6177 46.7464C42.7324 46.8661 42.8855 47.0325 43.0451 47.1922C45.259 49.4061 47.4729 51.62 49.6869 53.8339C50.7713 54.9184 51.8409 56.0212 52.9453 57.084C54.6469 58.7224 57.3914 58.3216 58.4676 56.299C59.2078 54.9067 58.96 53.3332 57.7707 52.1389C54.434 48.789 51.0874 45.4506 47.7441 42.109C47.6443 42.0092 47.5312 41.9227 47.4813 41.8795L47.4796 41.8811ZM44.3043 42.1057C43.3595 41.1526 42.3898 40.1745 41.4101 39.1848C40.8512 39.772 40.2607 40.3924 39.7817 40.8948C40.7747 41.8944 41.7294 42.8558 42.6293 43.764C43.1749 43.2234 43.7753 42.6296 44.3043 42.1057Z" fill="#525252"/>
    <path d="M42.5466 6.60019C41.3923 7.17571 40.2878 7.70299 39.2083 8.27518C38.6594 8.56626 38.2036 8.53133 37.6331 8.26686C36.2459 7.62481 34.8237 7.05262 33.3916 6.5137C32.8959 6.32741 32.5865 6.07624 32.4268 5.57225C32.0842 4.48609 31.7199 3.40492 31.3357 2.33373C31.2742 2.16074 31.0629 1.91623 30.9182 1.91457C28.4315 1.88962 25.9431 1.89627 23.4315 1.89627C23.0107 3.14211 22.5849 4.35302 22.1973 5.57724C22.0376 6.0829 21.7349 6.33406 21.2392 6.52202C19.7722 7.08256 18.3234 7.69301 16.8863 8.32841C16.4072 8.53965 15.9964 8.57791 15.5306 8.33672C14.5177 7.81443 13.4964 7.30711 12.4651 6.82142C12.3021 6.7449 11.9877 6.72328 11.8863 6.82142C10.1098 8.56294 8.35499 10.3277 6.57688 12.1075C7.15572 13.2585 7.70629 14.3929 8.29345 15.5074C8.56124 16.0164 8.52631 16.4455 8.28679 16.9711C7.65306 18.3633 7.06091 19.7772 6.52698 21.2093C6.32405 21.7532 6.04627 22.0792 5.5007 22.2522C4.2981 22.6315 3.10549 23.0473 1.87129 23.4598C1.87129 25.6721 1.87129 27.871 1.87129 30.0683C1.87129 30.829 2.23279 31.3307 2.95579 31.5736C3.85898 31.878 4.78047 32.1375 5.65539 32.51C5.98639 32.6514 6.30742 33.0074 6.45712 33.3434C7.1158 34.8138 7.68799 36.3241 8.34002 37.7978C8.54461 38.2619 8.56457 38.6461 8.33503 39.0902C7.74454 40.2296 7.17734 41.3806 6.58353 42.5633C8.35333 44.3297 10.1082 46.0945 11.8863 47.8344C11.9894 47.9359 12.3054 47.9242 12.4668 47.8477C13.498 47.3637 14.5227 46.8647 15.5306 46.3307C16.0263 46.0679 16.4422 46.1328 16.9378 46.354C18.3533 46.9844 19.7888 47.5749 21.2342 48.1338C21.7199 48.3218 22.0459 48.5613 22.204 49.0736C22.5366 50.1414 22.9308 51.1894 23.2585 52.2589C23.375 52.6398 23.5396 52.7812 23.9471 52.7778C26.1877 52.7595 28.4298 52.7546 30.6704 52.7812C31.1161 52.7862 31.2758 52.6165 31.3989 52.2256C31.7399 51.1395 32.0859 50.05 32.5084 48.9937C32.6348 48.676 32.9741 48.3583 33.2934 48.2203C34.2216 47.8161 35.193 47.51 36.1411 47.1524C36.7865 46.9096 37.2988 47.0443 37.5217 47.5433C37.7445 48.0406 37.505 48.5513 36.8746 48.8174C36.1311 49.1301 35.3793 49.4295 34.6141 49.6857C34.2598 49.8038 34.0835 49.9901 33.9738 50.3427C33.6211 51.4688 33.2186 52.5816 32.8593 53.706C32.6597 54.3281 32.2805 54.5925 31.6168 54.5876C28.7525 54.5676 25.8899 54.5659 23.0256 54.5876C22.3304 54.5925 21.9628 54.3081 21.7648 53.6544C21.4288 52.545 21.0247 51.4555 20.6787 50.3494C20.5689 50.0001 20.3893 49.8221 20.04 49.6874C18.8806 49.2466 17.7479 48.7343 16.5902 48.2868C16.359 48.197 16.023 48.177 15.8068 48.2785C14.6973 48.7925 13.6078 49.3464 12.52 49.9069C11.9611 50.1947 11.5137 50.1182 11.0679 49.6674C9.03862 47.6165 6.99937 45.5772 4.95013 43.5463C4.50269 43.1022 4.41786 42.6614 4.71394 42.0975C5.27282 41.033 5.81673 39.9601 6.32072 38.869C6.4305 38.6328 6.4305 38.2735 6.33569 38.0257C5.89325 36.8663 5.42086 35.717 4.91188 34.5859C4.79544 34.3264 4.52764 34.052 4.2665 33.9538C3.16038 33.5446 2.0343 33.1837 0.908216 32.8344C0.27781 32.6414 -0.00329431 32.2639 3.23673e-05 31.6052C0.0133391 28.7409 0.0133391 25.8766 3.23673e-05 23.0124C-0.00329431 22.362 0.249533 21.9695 0.888256 21.7748C2.01766 21.4305 3.14042 21.0646 4.24654 20.6554C4.50935 20.5589 4.78047 20.2911 4.89691 20.0333C5.40755 18.9023 5.87994 17.7529 6.32405 16.5935C6.41886 16.344 6.42884 15.9831 6.32072 15.7469C5.82671 14.674 5.29278 13.6195 4.73889 12.5766C4.41953 11.9761 4.48107 11.507 4.97508 11.0214C6.99937 9.02534 9.00037 7.00439 11.0113 4.99507C11.6018 4.40459 11.8397 4.36799 12.6048 4.74723C13.6627 5.27119 14.7106 5.82175 15.7818 6.31743C16.003 6.42055 16.3424 6.4139 16.5752 6.32242C17.7512 5.86666 18.9172 5.38097 20.0716 4.87032C20.2994 4.76886 20.5506 4.54098 20.6321 4.31477C21.0446 3.18702 21.4189 2.04431 21.7765 0.898265C21.9728 0.269522 22.3487 -0.00160201 23.0107 6.13316e-05C25.875 0.0166947 28.7376 0.0183581 31.6018 6.13316e-05C32.2971 -0.00492869 32.668 0.294473 32.871 0.936522C33.2253 2.0626 33.5962 3.18536 34.0087 4.29148C34.0985 4.53266 34.3646 4.77218 34.6075 4.88196C35.7402 5.39095 36.8846 5.86999 38.0439 6.31743C38.2934 6.4139 38.6544 6.41723 38.8923 6.30745C39.9834 5.80678 41.0596 5.26786 42.1225 4.70898C42.688 4.41124 43.1288 4.48775 43.5729 4.93353C45.6055 6.9811 47.6447 9.02202 49.6923 11.053C50.163 11.5204 50.208 11.9927 49.9102 12.5666C49.3646 13.6145 48.829 14.6674 48.335 15.7402C48.2252 15.9781 48.2252 16.3391 48.3184 16.5869C48.7675 17.7662 49.2532 18.9322 49.7638 20.0866C49.8636 20.3128 50.0998 20.5523 50.3277 20.6371C51.4555 21.0496 52.5948 21.4322 53.7425 21.7848C54.3829 21.9811 54.6324 22.382 54.6308 23.0273C54.6208 25.8916 54.6208 28.7559 54.6308 31.6202C54.6324 32.2755 54.348 32.6564 53.7242 32.8527C52.5782 33.2136 51.4372 33.5929 50.3111 34.0087C50.0832 34.0919 49.8586 34.3331 49.7472 34.5593C49.5393 34.9851 49.4345 35.4591 49.2532 35.8983C49.027 36.4455 48.5529 36.6617 48.0473 36.4854C47.5666 36.3174 47.3354 35.8134 47.51 35.2645C47.6281 34.8886 47.846 34.5327 47.8942 34.1518C48.0489 32.9342 48.8041 32.4053 49.9152 32.1408C50.7386 31.9445 51.5419 31.6484 52.332 31.3407C52.5167 31.2692 52.7296 30.9748 52.7312 30.7818C52.7595 28.4781 52.7429 26.1744 52.7562 23.8707C52.7579 23.5446 52.6431 23.3949 52.337 23.2968C51.2326 22.9442 50.1398 22.555 49.0336 22.2057C48.5496 22.0526 48.3134 21.7499 48.1321 21.2808C47.5566 19.7971 46.9445 18.3251 46.2991 16.8697C46.0945 16.4089 46.0629 16.0247 46.2958 15.5772C46.8231 14.5676 47.332 13.5463 47.8144 12.515C47.8959 12.3404 47.9042 11.9994 47.7928 11.8846C46.0679 10.1182 44.3181 8.37664 42.5466 6.60352V6.60019Z" fill="#525252"/>
    <path d="M24.5191 26.3456C24.5191 23.7325 24.5174 21.1194 24.5191 18.5046C24.5191 17.5732 24.8101 17.2837 25.7433 17.2787C26.8211 17.2738 27.9006 17.2704 28.9785 17.2787C29.7935 17.2854 30.1245 17.6048 30.1245 18.3998C30.1295 23.7308 30.1295 29.0618 30.1245 34.3912C30.1245 35.1929 29.7935 35.5156 28.9868 35.5206C27.9089 35.5289 26.8294 35.5256 25.7516 35.5206C24.8101 35.5173 24.5191 35.2328 24.5191 34.3064C24.5157 31.6517 24.5191 28.997 24.5191 26.3423V26.3456ZM28.225 33.636V19.1883H26.4286V33.636H28.225Z" fill="#525252"/>
    <path d="M16.7932 28.9238C16.7932 27.1391 16.7916 25.356 16.7932 23.5712C16.7932 22.6447 17.1026 22.3237 18.0075 22.317C19.0853 22.3104 20.1648 22.3054 21.2427 22.317C22.0377 22.327 22.3904 22.673 22.392 23.4598C22.3987 27.1108 22.3987 30.7618 22.392 34.4129C22.392 35.1846 22.0544 35.5123 21.2926 35.519C20.1931 35.529 19.0936 35.5256 17.9942 35.5206C17.0976 35.5173 16.7966 35.2196 16.7932 34.3347C16.7882 32.53 16.7932 30.7252 16.7932 28.9205V28.9238ZM18.7027 24.2232V33.6111H20.4908V24.2232H18.7027Z" fill="#525252"/>
    <path d="M32.2456 30.2112C32.2456 28.8223 32.2423 27.4334 32.2456 26.0446C32.249 25.1996 32.5584 24.8752 33.4017 24.8669C34.4995 24.8536 35.5989 24.8536 36.6967 24.8669C37.5301 24.8769 37.8494 25.2112 37.8511 26.0529C37.8544 28.8307 37.8561 31.6084 37.8511 34.3879C37.8511 35.1946 37.5268 35.5189 36.7234 35.5256C35.6039 35.5339 34.4845 35.5339 33.3651 35.5256C32.5667 35.5189 32.249 35.1929 32.2456 34.3812C32.239 32.9923 32.244 31.6034 32.244 30.2146L32.2456 30.2112ZM34.1419 33.6144H35.9299V26.7847H34.1419V33.6144Z" fill="#525252"/>
    </g>
    <defs>
    <clipPath id="clip0_337_301">
    <rect width="60.7502" height="60" fill="white"/>
    </clipPath>
    </defs>
    </svg>
    