<svg width="50" height="60" viewBox="0 0 50 60" fill="none" xmlns="http://www.w3.org/2000/svg">
    <g clip-path="url(#clip0_337_308)">
    <path d="M49.8357 5.09715C49.304 2.05401 46.8414 0.00788789 43.7084 0.00473273C37.051 0 30.392 0 23.7347 0H13.1381C10.8301 0.00157758 8.5205 0.00315515 6.2125 0C4.9741 0 3.93448 0.271343 3.01633 0.837694C0.98441 2.08871 -0.00157569 3.91081 1.89004e-06 6.40812C0.00946735 17.9702 0.00788978 29.7263 0.00788978 41.0943V53.5808C0.00788978 53.797 0.0126225 54.0115 0.0205104 54.2198C0.0883462 55.8242 0.706757 57.1746 1.91203 58.3451C2.72448 59.1355 3.75779 59.645 5.25964 60H44.6139C44.6565 59.97 44.7133 59.9337 44.7874 59.918C48.0924 59.2144 49.913 56.9632 49.913 53.5808C49.9161 37.8571 49.9145 22.1318 49.9114 6.40812C49.9114 5.99637 49.9114 5.53099 49.8357 5.09557V5.09715ZM47.8779 53.4957C47.8779 56.2927 46.2214 57.9618 43.4465 57.9618C37.357 57.9618 31.2676 57.9618 25.1781 57.9618C19.0887 57.9618 12.6743 57.9618 6.42074 57.9618C4.10644 57.9618 2.49257 56.706 2.10765 54.6015C2.04612 54.2639 2.04612 53.9216 2.04612 53.5887V53.5603C2.04296 46.9471 2.04296 40.3355 2.04454 33.7223V23.132C2.04454 17.5695 2.04454 12.0069 2.04454 6.4444C2.04454 3.68522 3.701 2.03823 6.47438 2.03823C18.7968 2.03823 31.1193 2.03823 43.4417 2.03823C46.2609 2.03823 47.8795 3.66313 47.8795 6.49804C47.8795 22.1634 47.8795 37.8303 47.8795 53.4957H47.8779Z" fill="#4B4B4B" fill-opacity="0.5"/>
    <path d="M42.3536 11.4327C42.3473 8.97321 40.9338 7.56128 38.4744 7.56128C35.2987 7.56128 32.1246 7.56128 28.9489 7.56128H24.9545H20.8844C19.5639 7.56128 18.2435 7.56128 16.9247 7.56128C15.0363 7.56128 13.1479 7.56128 11.2596 7.56443C9.0762 7.56759 7.59328 9.03316 7.5712 11.2118C7.557 12.6395 7.557 14.1587 7.5712 15.9887C7.58697 18.2005 9.07463 19.6897 11.2722 19.6913C20.5831 19.7039 29.7993 19.7039 38.6652 19.6913C40.8549 19.6881 42.3378 18.1957 42.3552 15.9777C42.3662 14.6635 42.3615 13.3273 42.3584 12.0337V11.4342L42.3536 11.4327ZM40.317 15.8783C40.3138 17.0709 39.7601 17.6262 38.5737 17.6278C36.4724 17.6294 34.3727 17.631 32.2713 17.631C31.0471 17.631 29.8245 17.631 28.6019 17.631H24.934H21.8057C18.3808 17.631 14.9543 17.631 11.5293 17.631C10.0922 17.631 9.60627 17.1451 9.60627 15.7063V14.6304C9.60469 13.5324 9.60311 12.4344 9.60627 11.3364C9.60943 10.2037 10.2026 9.60424 11.3195 9.60266C20.2802 9.59793 29.4585 9.59793 38.6006 9.60266C39.7191 9.60266 40.3138 10.2021 40.317 11.3333C40.3217 12.6994 40.3217 14.1871 40.317 15.8814V15.8783Z" fill="#4B4B4B" fill-opacity="0.5"/>
    <path d="M19.3674 42.0662C19.6766 41.7523 19.7524 41.3784 19.5914 40.954C19.4747 40.6432 19.2065 40.323 18.8074 40.3545C18.4493 40.3845 18.0486 40.5517 17.8104 40.7694C17.1273 41.3957 16.4615 42.0709 15.8179 42.7256C15.5639 42.9828 15.3099 43.2415 15.0543 43.4986L14.8918 43.6611L14.5795 43.3661C14.4896 43.2809 14.4123 43.2084 14.3365 43.1342C14.0747 42.8739 13.8144 42.6105 13.5541 42.3486C12.9924 41.7838 12.4119 41.2001 11.8298 40.6385C11.4022 40.2267 10.8154 40.2094 10.4021 40.5991C9.97454 41.0013 9.9698 41.5929 10.3879 42.0678C10.503 42.1987 10.6292 42.3218 10.7617 42.4511C10.8138 42.5016 10.8643 42.5521 10.9163 42.6026L13.5004 45.1788L13.3001 45.3444C13.2228 45.4075 13.1518 45.4643 13.0855 45.5164C12.9609 45.6142 12.8536 45.6994 12.7621 45.7909C12.0207 46.5229 11.2256 47.3132 10.4273 48.1257C10.0913 48.4664 9.9982 48.8277 10.1433 49.2268C10.2175 49.4335 10.4462 49.9115 10.9526 49.8799C11.3013 49.8579 11.7004 49.6922 11.9449 49.4682C12.6233 48.8435 13.2591 48.1951 13.9311 47.5088C14.1882 47.2454 14.447 46.9819 14.7104 46.7169L14.8776 46.5481L15.892 47.5688C16.5246 48.2061 17.1415 48.8245 17.7599 49.4414C18.0738 49.7553 18.402 49.9194 18.7096 49.9194H18.7175C18.962 49.9178 19.1892 49.8105 19.3927 49.6007C19.8202 49.159 19.7524 48.5485 19.2128 48.0058C18.5976 47.3858 17.9792 46.7705 17.3276 46.1222L16.2643 45.062L16.4615 44.8964C16.5373 44.8333 16.6082 44.7765 16.6745 44.7228C16.7976 44.6235 16.9048 44.5367 16.9979 44.4452C17.9066 43.5428 18.6607 42.7872 19.3706 42.0646L19.3674 42.0662Z" fill="#4B4B4B" fill-opacity="0.5"/>
    <path d="M18.5646 28.9753C18.033 28.9564 17.4982 28.9611 16.9319 28.9658C16.6716 28.9674 16.4049 28.9706 16.1289 28.9706H15.8922V28.7339C15.8922 28.491 15.8922 28.2575 15.8938 28.0272C15.897 27.4687 15.8985 26.9418 15.8843 26.418C15.8765 26.1309 15.8307 25.8943 15.7471 25.7176C15.572 25.3437 15.1098 25.1355 14.6728 25.2333C14.1711 25.3453 13.8745 25.7081 13.8619 26.2287C13.8477 26.7951 13.8508 27.3551 13.854 27.9483C13.854 28.207 13.8572 28.4673 13.8572 28.7339V28.9706H13.6205C13.3539 28.9706 13.092 28.969 12.8365 28.9674C12.2733 28.9642 11.7432 28.9595 11.21 28.9753C10.803 28.9879 10.4527 29.1567 10.2492 29.4375C10.0757 29.6773 10.0284 29.9739 10.1167 30.2705C10.2619 30.7627 10.6421 31.0183 11.2447 31.0293C11.7811 31.0403 12.3096 31.0372 12.8712 31.0356C13.1173 31.0356 13.3681 31.034 13.6221 31.034H13.8587V31.2707C13.8587 31.5467 13.8572 31.8165 13.8556 32.0784C13.8508 32.6574 13.8477 33.2032 13.865 33.749C13.8777 34.1355 14.0512 34.4637 14.3446 34.653C14.6144 34.8265 14.9473 34.8502 15.2596 34.7208C15.6856 34.5426 15.8922 34.2192 15.8922 33.7317C15.8922 33.1685 15.8922 32.6053 15.8922 32.02V31.034H16.1289C16.3892 31.034 16.6432 31.034 16.8908 31.0356C17.4446 31.0372 17.9667 31.0403 18.4905 31.0309C19.0963 31.0214 19.5033 30.7595 19.6342 30.2973C19.7257 29.9771 19.6768 29.6663 19.4986 29.4217C19.3014 29.152 18.9622 28.9895 18.5646 28.9753Z" fill="#4B4B4B" fill-opacity="0.5"/>
    <path d="M31.4053 31.0278C32.2445 31.0436 33.098 31.0405 33.9247 31.0357C34.2828 31.0342 34.6393 31.0326 34.9974 31.0326C35.376 31.0326 35.7515 31.0326 36.1301 31.0357C36.9757 31.0389 37.8513 31.042 38.7095 31.0278C39.3878 31.0168 39.8327 30.6177 39.8406 30.0135C39.8437 29.7311 39.7491 29.4834 39.5661 29.2957C39.3673 29.0937 39.0755 28.9802 38.741 28.9786C37.6099 28.9707 36.4709 28.9675 35.3413 28.9675C33.972 28.9675 32.6169 28.9723 31.3138 28.9786C30.8326 28.9802 30.4997 29.1963 30.3231 29.6206C30.189 29.9409 30.211 30.2643 30.3846 30.5309C30.5865 30.8401 30.9588 31.0231 31.4053 31.031V31.0278Z" fill="#4B4B4B" fill-opacity="0.5"/>
    <path d="M38.7139 40.3149C37.8699 40.2944 37.0101 40.2992 36.1771 40.3039C35.8064 40.3055 35.4309 40.3039 35.0634 40.3086C34.6958 40.3086 34.3282 40.3071 33.9622 40.3055C33.5962 40.3055 33.2239 40.3023 32.85 40.3023C32.3515 40.3023 31.8498 40.3055 31.3529 40.3149C30.6824 40.3276 30.2517 40.733 30.2549 41.3467C30.2581 41.9572 30.6714 42.3563 31.3071 42.3611C33.6909 42.3816 36.2465 42.3942 38.788 42.3421C39.0657 42.3358 39.4758 42.1039 39.6667 41.8436C39.875 41.5597 39.9113 41.2236 39.763 40.9239C39.5831 40.5595 39.1808 40.326 38.7123 40.3149H38.7139Z" fill="#4B4B4B" fill-opacity="0.5"/>
    <path d="M38.635 47.8701C36.6551 47.8606 34.049 47.8543 31.4444 47.8779C31.1699 47.8811 30.8591 47.9726 30.6367 48.1177C30.1492 48.4348 30.217 48.9365 30.2991 49.2094C30.4426 49.678 30.7897 49.9193 31.3324 49.9256C32.2079 49.9367 33.0977 49.9335 33.959 49.932C34.3203 49.932 34.6831 49.9304 35.0444 49.9304H35.281C35.5619 49.932 35.8427 49.9335 36.1235 49.9335C36.9485 49.9351 37.8004 49.9383 38.6381 49.9288C39.3638 49.9209 39.8245 49.5344 39.8387 48.9207C39.845 48.6399 39.7551 48.3954 39.5784 48.214C39.3654 47.9947 39.0294 47.8732 38.635 47.8716V47.8701Z" fill="#4B4B4B" fill-opacity="0.5"/>
    </g>
    <defs>
    <clipPath id="clip0_337_308">
    <rect width="49.9145" height="60" fill="white"/>
    </clipPath>
    </defs>
    </svg>
    