<svg width="60" height="60" viewBox="0 0 60 60" fill="none" xmlns="http://www.w3.org/2000/svg">
    <g clip-path="url(#clip0_337_316)">
    <path d="M21.1905 30.0217C21.1905 27.4808 21.2325 24.9399 21.173 22.4001C21.1423 21.0645 21.729 20.1844 22.8194 19.5515C24.1016 18.8068 25.5162 18.4632 26.9625 18.2642C29.8593 17.8662 32.7397 17.9349 35.5473 18.8294C36.3084 19.0714 37.0449 19.451 37.7261 19.8746C38.5744 20.4019 38.9539 21.2102 38.9498 22.2483C38.9262 27.3916 38.9211 32.5358 38.9519 37.6791C38.9591 38.9049 38.4287 39.744 37.4419 40.3574C36.1258 41.175 34.659 41.5371 33.1418 41.7412C30.2009 42.1361 27.2877 42.0787 24.436 41.1719C23.8852 40.9965 23.3487 40.7524 22.8409 40.4744C21.7352 39.8681 21.1433 38.9798 21.173 37.6432C21.2284 35.1034 21.1894 32.5625 21.1894 30.0217H21.1905ZM23.2225 35.3506V36.8739C23.2225 38.4402 23.3477 38.6187 24.832 39.1603C24.9879 39.2168 25.149 39.2598 25.309 39.306C28.0222 40.0907 30.7764 40.1215 33.5224 39.5942C34.5236 39.4024 35.4775 38.9398 36.4315 38.548C36.6377 38.4638 36.8726 38.1612 36.8859 37.9468C36.9372 37.0862 36.9075 36.2205 36.9075 35.3373C32.3315 36.958 27.8232 36.9775 23.2225 35.3506ZM36.9106 29.9416C32.3181 31.5634 27.8057 31.5839 23.2225 29.956V31.3942C23.2225 33.0313 23.3559 33.219 24.9017 33.7596C24.9602 33.7801 25.0218 33.7924 25.0813 33.8109C27.7226 34.6233 30.4194 34.6992 33.1121 34.2386C34.2384 34.0458 35.3237 33.5657 36.3977 33.1421C36.6326 33.0498 36.8634 32.6487 36.8859 32.3727C36.9516 31.588 36.9085 30.7941 36.9085 29.9427L36.9106 29.9416ZM23.2225 24.5604V26.0796C23.2225 27.6285 23.2923 27.7301 24.7417 28.3014C24.8771 28.3548 25.0166 28.3958 25.1551 28.4389C27.7329 29.2349 30.3692 29.2862 32.9982 28.8697C34.1276 28.6912 35.2139 28.2122 36.3002 27.8183C36.5403 27.7311 36.8552 27.4398 36.8716 27.2223C36.9372 26.3463 36.8983 25.4621 36.8983 24.5583C32.3212 26.1606 27.8303 26.1945 23.2205 24.5604H23.2225ZM23.1497 21.8882C23.6657 22.5714 24.3776 22.8248 25.0854 23.0351C28.0817 23.9244 31.1149 23.9234 34.1451 23.2556C34.9031 23.0884 35.6396 22.753 36.333 22.3919C36.9896 22.0503 36.9701 21.7908 36.3177 21.3989C35.9125 21.1548 35.4724 20.9435 35.0221 20.806C31.9663 19.8705 28.8756 19.8664 25.7808 20.5732C24.8371 20.7886 23.8872 21.0635 23.1497 21.8882Z" fill="#4B4B4B" fill-opacity="0.5"/>
    <path d="M34.423 6.0059C33.6403 6.42852 32.9099 6.8214 32.0944 7.26146C36.1278 9.9449 39.7796 12.9863 43.1257 16.3088C42.6538 16.7838 42.1943 17.2454 41.6937 17.748C35.6375 11.8334 28.8755 6.77319 20.6385 3.69174C20.858 4.76778 21.055 5.73509 21.2632 6.76088C20.6139 6.90551 19.9933 7.04297 19.2886 7.19991C19.065 6.1649 18.8465 5.16066 18.6311 4.15437C18.5049 3.56454 18.3664 2.97677 18.2638 2.38387C18.1664 1.82276 18.3674 1.33962 18.9316 1.20319C20.7052 0.776467 22.4921 0.407186 24.3405 0.000976562C24.4872 0.691327 24.6196 1.3109 24.7652 1.9951C24.2062 2.12332 23.6974 2.24026 23.2224 2.34899C25.8905 3.75534 28.5575 5.16066 31.2225 6.56495C31.0933 6.31363 30.9456 6.02744 30.7578 5.66226C31.6718 5.17297 32.5776 4.68777 33.5162 4.18514C33.8208 4.7965 34.108 5.37094 34.424 6.0059H34.423Z" fill="#4B4B4B" fill-opacity="0.5"/>
    <path d="M56.0715 19.2476C54.978 19.5554 54.0435 19.818 53.0403 20.099C52.8536 19.4466 52.6802 18.8394 52.4853 18.1583C53.1398 17.9634 53.747 17.7798 54.3564 17.6033C55.2149 17.3551 56.0725 17.1058 56.9342 16.8678C57.8666 16.6104 58.3056 16.8483 58.5744 17.7664C59.0175 19.2825 59.4504 20.8007 59.8833 22.3199C59.9161 22.4347 59.9161 22.5578 59.9376 22.723C59.3037 22.9015 58.6934 23.0738 58.0399 23.2585C57.8615 22.6697 57.7004 22.1383 57.485 21.4274C54.4046 29.568 49.5024 36.3331 43.6277 42.4498C43.1825 41.9523 42.7476 41.464 42.2686 40.9275C48.1565 34.7421 53.226 27.7852 56.0735 19.2476H56.0715Z" fill="#4B4B4B" fill-opacity="0.5"/>
    <path d="M40.773 56.0754C40.4663 54.9829 40.2037 54.0484 39.9185 53.037C40.5719 52.8534 41.1987 52.678 41.8829 52.4862C42.3434 54.1233 42.802 55.6948 43.2236 57.2766C43.3733 57.8377 43.121 58.2952 42.5753 58.4624C40.853 58.9917 39.1174 59.4779 37.3181 60C37.1263 59.3302 36.9509 58.7219 36.7581 58.05C37.3499 57.8685 37.8977 57.6992 38.5922 57.4858C30.4485 54.4095 23.6722 49.4919 17.5195 43.5721C17.6119 43.4614 17.6703 43.3793 17.739 43.3075C18.1135 42.9197 18.4909 42.5341 18.9136 42.0991C25.2785 48.1512 32.2323 53.2227 40.7719 56.0744L40.773 56.0754Z" fill="#4B4B4B" fill-opacity="0.5"/>
    <path d="M6.77123 38.755C6.92202 39.4536 7.0523 40.0588 7.19693 40.7307C5.93522 41.0056 4.70428 41.2733 3.47334 41.541C3.10714 41.62 2.74401 41.7134 2.37473 41.7708C1.83825 41.8539 1.35408 41.6631 1.22483 41.14C0.783746 39.35 0.411388 37.5425 -0.000976562 35.6818C0.701684 35.532 1.32228 35.3997 1.99212 35.2571C2.12136 35.811 2.23728 36.3106 2.39627 36.9907C5.7157 29.2337 10.5676 22.7067 16.3397 16.8577C16.8198 17.3367 17.2834 17.7993 17.7789 18.2938C11.8345 24.3848 6.77226 31.1468 3.69389 39.3879C4.28781 39.2638 4.76891 39.1623 5.25102 39.0628C5.73724 38.9622 6.22449 38.8648 6.77123 38.755Z" fill="#4B4B4B" fill-opacity="0.5"/>
    <path d="M56.8374 35.5403C57.377 37.0389 57.9514 38.4853 58.4182 39.9655C59.1588 42.3156 59.6204 44.7272 59.6276 47.2003C59.6368 50.3639 58.9505 53.3089 56.7625 55.741C55.2782 57.3905 53.4031 58.3773 51.2705 58.8717C48.9943 59.3989 46.6966 59.3589 44.3301 58.9835C44.4162 58.3947 44.4686 57.8203 44.6091 57.2684C44.6378 57.1535 44.9927 57.0632 45.1989 57.0612C46.7745 57.0458 48.3717 57.2192 49.9226 57.0232C54.0965 56.497 56.8272 53.6874 57.4242 49.5289C57.8848 46.3223 57.3124 43.2306 56.3461 40.1932C55.944 38.9295 55.4475 37.6955 54.9674 36.3773C55.5408 36.1209 56.1358 35.8552 56.8385 35.5423L56.8374 35.5403Z" fill="#4B4B4B" fill-opacity="0.5"/>
    <path d="M58.9767 15.6955C58.3181 15.5929 57.6904 15.4965 57.0205 15.3919C57.0831 14.5558 57.1641 13.7547 57.198 12.9515C57.2903 10.7994 57.0267 8.70582 55.9609 6.79171C54.5186 4.19956 52.1819 2.96042 49.3343 2.56857C46.1257 2.12646 43.0381 2.76039 40.0038 3.72975C38.8006 4.11442 37.6271 4.59551 36.3736 5.05814C36.111 4.46524 35.8463 3.86721 35.5684 3.2384C38.0466 2.15518 40.5537 1.29352 43.1817 0.80525C45.5307 0.368268 47.8808 0.225684 50.2514 0.655486C55.05 1.52535 58.2658 4.79657 59.0495 9.61774C59.3767 11.6293 59.309 13.6306 58.9767 15.6945V15.6955Z" fill="#4B4B4B" fill-opacity="0.5"/>
    <path d="M13.2965 57.5474C13.3591 58.2603 13.4135 58.8779 13.473 59.5518C11.686 59.7518 9.97914 59.6144 8.29789 59.2092C2.83253 57.888 0.13985 53.5489 0.0598386 48.3492C0.0382972 46.9429 0.178829 45.5345 0.247557 44.0471C1.01894 44.1835 1.65801 44.2964 2.26732 44.4041C2.19962 45.713 2.0714 46.9562 2.08678 48.1974C2.1155 50.5639 2.68379 52.7775 4.28606 54.6086C5.99398 56.5606 8.25378 57.3474 10.7598 57.5372C11.5835 57.5997 12.4164 57.5474 13.2965 57.5474Z" fill="#4B4B4B" fill-opacity="0.5"/>
    <path d="M2.38231 13.3074C1.7494 13.3607 1.13291 13.413 0.519492 13.4643C-0.198555 7.37221 2.6244 1.25958 9.8141 0.19892C11.8451 -0.100608 13.8721 0.00709859 15.9544 0.34971C15.8416 1.00313 15.7339 1.62783 15.6128 2.32536C15.0087 2.25971 14.4393 2.18996 13.869 2.13867C11.7949 1.95198 9.74229 2.0484 7.79125 2.83928C4.6021 4.13279 3.0265 6.65827 2.58131 9.96025C2.43463 11.0445 2.44591 12.1503 2.38231 13.3084V13.3074Z" fill="#4B4B4B" fill-opacity="0.5"/>
    <path d="M23.3096 54.7623C24.4554 54.1888 25.5274 53.6513 26.6639 53.082C26.9778 53.6554 27.2907 54.2268 27.6415 54.8689C26.4762 55.4557 25.3561 56.0188 24.162 56.62C23.8687 55.9819 23.5979 55.3921 23.3086 54.7623H23.3096Z" fill="#4B4B4B" fill-opacity="0.5"/>
    <path d="M8.35938 32.8095C8.95638 32.3982 9.48158 32.0371 10.0437 31.6504C10.7864 32.671 11.5044 33.6589 12.2563 34.6918C11.727 35.1083 11.2264 35.5012 10.6561 35.9494C9.89189 34.9052 9.15025 33.8907 8.35938 32.8095Z" fill="#4B4B4B" fill-opacity="0.5"/>
    <path d="M17.8242 15.4135C18.8018 14.5282 19.724 13.6933 20.6995 12.8101C21.1529 13.3373 21.5796 13.8317 22.033 14.359C21.0852 15.2145 20.1784 16.0331 19.2285 16.8906C18.7597 16.3972 18.3197 15.9346 17.8242 15.4135Z" fill="#4B4B4B" fill-opacity="0.5"/>
    <path d="M3.39844 24.1521C4.0693 23.8495 4.65194 23.5869 5.26023 23.312C5.82031 24.427 6.36807 25.5174 6.94149 26.6602C6.38244 26.9679 5.82441 27.2756 5.16176 27.6408C4.57809 26.4858 4.0057 25.3533 3.39844 24.1511V24.1521Z" fill="#4B4B4B" fill-opacity="0.5"/>
    <path d="M51.9311 26.8775C51.3362 27.2806 50.8089 27.6376 50.2437 28.0192C49.498 26.9883 48.783 26.0005 48.0342 24.9675C48.5696 24.5572 49.0887 24.1592 49.6539 23.7263C50.4222 24.7901 51.1597 25.8107 51.9301 26.8775H51.9311Z" fill="#4B4B4B" fill-opacity="0.5"/>
    <path d="M31.6504 49.9812C32.6936 49.2221 33.663 48.5164 34.699 47.7625C35.1062 48.2856 35.5073 48.8005 35.9505 49.3699C34.9083 50.131 33.8958 50.8706 32.8116 51.6625C32.4187 51.0942 32.0474 50.5577 31.6504 49.9812Z" fill="#4B4B4B" fill-opacity="0.5"/>
    <path d="M37.6152 45.3621C38.5631 44.4953 39.4637 43.6716 40.3418 42.8684C40.8311 43.3228 41.3122 43.7701 41.8404 44.2604C40.8649 45.1528 39.9366 46.0022 38.959 46.8967C38.5036 46.3766 38.0861 45.8975 37.6163 45.3611L37.6152 45.3621Z" fill="#4B4B4B" fill-opacity="0.5"/>
    <path d="M26.8755 8.08521C27.2622 8.65246 27.6223 9.18074 28.0254 9.77159C27.016 10.503 26.0282 11.2179 24.9717 11.9832C24.5644 11.4508 24.1675 10.9328 23.7305 10.3614C24.787 9.59721 25.8087 8.85762 26.8745 8.08521H26.8755Z" fill="#4B4B4B" fill-opacity="0.5"/>
    <path d="M47.2106 20.7043C46.668 21.1638 46.1818 21.5762 45.6576 22.0203C44.8042 21.0807 43.9866 20.1791 43.126 19.2313C43.6235 18.7573 44.0974 18.305 44.6062 17.8208C45.476 18.784 46.3182 19.7164 47.2106 20.7053V20.7043Z" fill="#4B4B4B" fill-opacity="0.5"/>
    <path d="M13.1299 38.957C13.652 38.4985 14.131 38.0779 14.6593 37.6143C15.5117 38.5457 16.3457 39.4566 17.1427 40.3275C16.6811 40.8342 16.237 41.3194 15.761 41.8425C14.8624 40.8568 14.0141 39.9264 13.1309 38.957H13.1299Z" fill="#4B4B4B" fill-opacity="0.5"/>
    <path d="M3.87853 19.8304C3.22306 20.0561 2.63836 20.2582 1.95929 20.4931C1.64541 19.418 1.34075 18.3758 1.0166 17.269C1.69875 17.1049 2.31421 16.9562 2.99944 16.791C3.28871 17.7922 3.57285 18.7728 3.87853 19.8304Z" fill="#4B4B4B" fill-opacity="0.5"/>
    <path d="M17.2642 59.0122C17.096 58.2808 16.9534 57.6622 16.8047 57.0191C17.8202 56.7267 18.7885 56.4477 19.8277 56.1482C20.0431 56.7637 20.2513 57.3596 20.4975 58.0633C19.4286 58.3772 18.3895 58.6819 17.2632 59.0132L17.2642 59.0122Z" fill="#4B4B4B" fill-opacity="0.5"/>
    <path d="M52.6299 31.8443C53.2125 31.5099 53.7644 31.1929 54.3953 30.8308C54.8712 31.7191 55.3349 32.5828 55.8324 33.5091C55.2272 33.8128 54.6445 34.1041 54.0096 34.4221C53.5469 33.5563 53.1028 32.7254 52.6309 31.8433L52.6299 31.8443Z" fill="#4B4B4B" fill-opacity="0.5"/>
    </g>
    <defs>
    <clipPath id="clip0_337_316">
    <rect width="59.9364" height="60" fill="white"/>
    </clipPath>
    </defs>
    </svg>
    