<svg width="61" height="60" viewBox="0 0 61 60" fill="none" xmlns="http://www.w3.org/2000/svg">
    <g clip-path="url(#clip0_337_339)">
    <path d="M60.0012 29.9992C60.0012 32.417 59.9591 34.838 60.0157 37.2541C60.0529 38.8768 59.3741 40.0873 58.1474 41.0473C56.5684 42.2836 54.726 42.9075 52.7801 43.242C49.3797 43.8255 46.0327 43.6477 42.81 42.3273C42.0359 42.0105 41.2925 41.5709 40.6153 41.0764C39.3208 40.1309 38.6711 38.8671 38.6888 37.196C38.7389 32.3992 38.7405 27.6024 38.6888 22.8057C38.6711 21.1345 39.3337 19.8901 40.6056 18.9139C42.1781 17.7083 44.0012 17.0861 45.926 16.758C49.3264 16.1794 52.688 16.3103 55.8913 17.684C56.9418 18.1349 57.9131 18.8428 58.7971 19.5814C59.6601 20.3038 60.0173 21.3414 60.006 22.5002C59.985 24.9988 59.9995 27.499 59.9995 29.9976L60.0012 29.9992ZM49.5527 18.3838C47.665 18.3935 46.01 18.5939 44.4052 19.116C43.2868 19.4796 42.2218 19.9564 41.3717 20.8016C40.4084 21.76 40.3761 22.7749 41.3749 23.6897C41.9147 24.1842 42.5498 24.6351 43.2222 24.9131C47.1995 26.5568 51.2302 26.5794 55.2254 25.0198C56.0917 24.682 56.8949 24.0485 57.5737 23.3939C58.2961 22.6974 58.2977 21.8311 57.5818 21.1297C56.9224 20.4816 56.1305 19.9046 55.2949 19.5103C53.4266 18.6279 51.3967 18.4048 49.5527 18.3838ZM40.646 25.802C40.646 27.0109 40.688 28.2586 40.6331 29.503C40.5894 30.4695 40.966 31.1919 41.6997 31.7414C42.1636 32.0889 42.6597 32.4202 43.1866 32.6529C46.2218 33.9879 49.3862 34.1333 52.6056 33.5677C54.1846 33.2897 55.6925 32.7951 56.9773 31.7834C57.7159 31.2032 58.1313 30.4889 58.0795 29.4966C58.023 28.3911 58.0682 27.2808 58.065 26.1721C58.065 26.0267 58.0359 25.8812 58.0294 25.8198C52.2226 28.8663 46.4803 28.8614 40.646 25.802ZM58.0569 33.5483C52.2032 36.6158 46.4416 36.6125 40.646 33.537C40.646 34.7556 40.6896 36.0065 40.6315 37.2525C40.5862 38.2222 40.9725 38.9398 41.703 39.4893C42.1668 39.8368 42.663 40.1665 43.1915 40.3976C46.2476 41.7374 49.4298 41.8796 52.6686 41.2945C54.2476 41.0085 55.7846 40.5446 57.0113 39.4634C57.4654 39.0626 57.9567 38.4501 58.01 37.8941C58.149 36.4428 58.0569 34.9689 58.0569 33.5499V33.5483Z" fill="#4B4B4B" fill-opacity="0.5"/>
    <path d="M21.285 30.9737H14.5601V29.0472H21.285V28.3345C21.285 22.2464 21.285 16.1583 21.285 10.0719C21.285 7.93046 20.1359 6.77491 18.009 6.77329C16.8648 6.77329 15.7205 6.77329 14.5439 6.77329V4.88238C14.6846 4.86783 14.8365 4.84036 14.9884 4.84036C16.0777 4.83713 17.1654 4.83228 18.2547 4.84036C21.1185 4.85814 23.2114 6.93814 23.2163 9.81329C23.2276 15.9612 23.2195 22.109 23.2195 28.2585C23.2195 28.4961 23.2195 28.7321 23.2195 29.002H31.6914C30.8963 28.4347 30.1949 27.9353 29.4466 27.4004C29.8199 26.8686 30.1722 26.366 30.5569 25.8181C32.2118 26.9834 33.8361 28.0985 35.428 29.2606C35.9888 29.6695 35.9484 30.3822 35.3633 30.8024C33.7957 31.9305 32.2037 33.0262 30.5585 34.1802C30.1868 33.6517 29.8328 33.1523 29.445 32.6012C30.1787 32.0824 30.8801 31.5862 31.6801 31.0206H23.2211V31.7139C23.2211 37.781 23.2211 43.8497 23.2211 49.9167C23.2211 53.149 21.209 55.1628 17.9848 55.1644C16.8583 55.1644 15.7302 55.1644 14.5585 55.1644V53.2282C15.6769 53.2282 16.7985 53.2282 17.9201 53.2282C20.1747 53.2282 21.2866 52.1082 21.2882 49.8375C21.2882 43.7899 21.2882 37.7422 21.2882 31.6961V30.9737H21.285Z" fill="#4B4B4B" fill-opacity="0.5"/>
    <path d="M5.79395 6.76066e-06C8.99071 -0.00484172 11.6057 2.59879 11.6105 5.79233C11.6154 8.98748 9.01011 11.604 5.81819 11.6089C2.62465 11.6154 0.00485524 9.00526 6.7523e-06 5.81657C-0.00484173 2.62142 2.60203 0.00485525 5.79395 6.76066e-06ZM9.67435 5.83273C9.68566 3.6897 7.95475 1.94102 5.81819 1.93617C3.70263 1.93132 1.96041 3.64122 1.93617 5.74708C1.91193 7.89172 3.62991 9.65657 5.76324 9.67435C7.90627 9.69374 9.66304 7.96768 9.67597 5.83273H9.67435Z" fill="#4B4B4B" fill-opacity="0.5"/>
    <path d="M11.6089 29.9879C11.6137 33.183 9.01011 35.7996 5.81657 35.8061C2.62627 35.8109 0.00485524 33.2024 6.75648e-06 30.0121C-0.00484173 26.817 2.60041 24.2004 5.79233 24.1956C8.9891 24.1907 11.604 26.7944 11.6089 29.9879ZM9.67435 29.9733C9.66304 27.8368 7.90789 26.1123 5.76324 26.1301C3.65415 26.1479 1.93778 27.8804 1.93617 29.996C1.93455 32.1341 3.67839 33.8748 5.81657 33.8699C7.95314 33.8651 9.68566 32.1148 9.67435 29.9733Z" fill="#4B4B4B" fill-opacity="0.5"/>
    <path d="M5.83278 48.3911C9.0247 48.404 11.6219 51.0254 11.6089 54.2238C11.596 57.4157 8.97298 60.0145 5.77621 60.0016C2.58752 59.987 -0.0128813 57.3608 4.80058e-05 54.1656C0.0129773 50.9769 2.63762 48.3765 5.83278 48.3895V48.3911ZM5.81338 58.0654C7.95156 58.0622 9.68409 56.3135 9.67439 54.1721C9.6647 52.0598 7.94025 50.3353 5.82631 50.3272C3.6849 50.3175 1.93783 52.0517 1.93621 54.1899C1.93298 56.328 3.6752 58.0703 5.81338 58.067V58.0654Z" fill="#4B4B4B" fill-opacity="0.5"/>
    <path d="M53.2637 29.0618H55.1174V30.9268H53.2637V29.0618Z" fill="#4B4B4B" fill-opacity="0.5"/>
    <path d="M55.1366 36.8179V38.6765H53.2764V36.8179H55.1366Z" fill="#4B4B4B" fill-opacity="0.5"/>
    </g>
    <defs>
    <clipPath id="clip0_337_339">
    <rect width="60.0178" height="60" fill="white"/>
    </clipPath>
    </defs>
    </svg>
    