<svg width="48" height="60" viewBox="0 0 48 60" fill="none" xmlns="http://www.w3.org/2000/svg">
    <g clip-path="url(#clip0_337_347)">
    <path d="M36.1268 60C35.7526 59.6963 35.4098 59.3769 35.6227 58.8243C35.8294 58.2826 36.2802 58.2341 36.7765 58.2388C38.0462 58.2497 39.3159 58.245 40.584 58.2419C43.4599 58.2356 45.4012 56.3116 45.4043 53.4325C45.4106 45.6595 45.4074 37.8881 45.4074 30.1151C45.4074 24.393 45.4137 18.6709 45.4043 12.9503C45.3996 10.4814 43.881 8.64972 41.5217 8.25833C41.0646 8.18161 40.5871 8.20197 40.1205 8.20197C38.0305 8.19883 35.9421 8.20197 33.8521 8.20666C33.8145 8.20666 33.7785 8.22388 33.6971 8.24267V11.9499C34.9464 11.9499 36.1894 11.9452 37.4325 11.9515C37.8615 11.953 38.2982 11.9311 38.7162 12.0078C40.393 12.31 41.5249 13.6564 41.5374 15.391C41.5577 18.2419 41.5452 21.0928 41.5452 23.9436C41.5452 31.0121 41.5405 38.0822 41.5546 45.1507C41.5546 45.719 41.3933 46.1417 40.9988 46.555C38.6959 48.9722 36.4102 51.4067 34.137 53.8536C33.7206 54.3014 33.2869 54.5049 32.6607 54.5033C24.9268 54.4846 17.1945 54.4532 9.46067 54.5143C7.30489 54.5315 5.6 53.0129 5.61096 50.7022C5.65949 39.0434 5.65949 27.3847 5.61096 15.7276C5.60157 13.4059 7.31898 11.82 9.40744 11.9343C10.7476 12.0078 12.0955 11.9483 13.4841 11.9483V8.19883C13.1476 8.19883 12.8219 8.19883 12.4963 8.19883C10.4845 8.19883 8.4728 8.19101 6.46262 8.2004C3.75891 8.21449 1.80509 10.148 1.77534 12.8438C1.75812 14.4454 1.77534 16.047 1.76752 17.647C1.76752 17.8787 1.75656 18.1213 1.68298 18.3374C1.53738 18.7632 1.20078 18.937 0.760862 18.8822C0.341293 18.8305 0.0360091 18.5738 0.0391402 18.1636C0.0532303 15.9405 -0.0876699 13.6939 0.189434 11.5006C0.551078 8.65285 3.22818 6.5049 6.11037 6.45637C8.59022 6.4141 11.0701 6.43758 13.5499 6.44698C13.9194 6.44698 14.1933 6.38592 14.4626 6.08064C15.1108 5.35109 15.9796 5.07868 16.9378 5.0959C17.2806 5.10216 17.4325 5.00979 17.5342 4.64189C18.3155 1.84893 20.7389 0.00470567 23.5757 8.99548e-06C26.4188 -0.00468768 28.8485 1.83015 29.6313 4.61684C29.7409 5.0051 29.9022 5.10216 30.2685 5.09747C31.2971 5.08181 32.1644 5.44658 32.8751 6.21371C33.016 6.36557 33.3151 6.42975 33.5421 6.43132C35.8857 6.44698 38.2294 6.43758 40.5714 6.44228C44.4524 6.45011 47.1609 9.14913 47.1624 13.0411C47.1687 26.4767 47.1671 39.9123 47.1624 53.348C47.1624 56.8282 45.2117 59.1984 41.7847 59.9186C41.7315 59.9296 41.6845 59.9734 41.6344 60.0016H36.1268V60ZM39.7855 44.7358V43.9797C39.7855 40.036 39.7855 36.0924 39.7855 32.1487C39.7855 26.7209 39.7855 21.2932 39.7855 15.8654C39.7855 14.245 39.2376 13.7065 37.5984 13.7049C36.31 13.7049 35.0215 13.7112 33.7331 13.7002C33.42 13.6971 33.2133 13.766 33.0098 14.0478C32.3773 14.926 31.4959 15.3707 30.4031 15.3707C25.8536 15.3707 21.3057 15.3707 16.7562 15.3707C15.6634 15.3707 14.8196 14.8853 14.1323 14.0525C13.9883 13.8771 13.7065 13.7268 13.4841 13.7221C12.1378 13.6924 10.7898 13.7065 9.44345 13.708C7.97965 13.708 7.39257 14.2967 7.39257 15.7683C7.39257 27.4051 7.39257 39.0403 7.39257 50.6771C7.39257 52.1425 7.98748 52.7358 9.44814 52.7358C16.8282 52.7358 24.2082 52.7358 31.5883 52.7358H32.263C32.263 51.2705 32.2536 49.8693 32.2661 48.4681C32.2755 47.308 32.7374 46.3452 33.6219 45.6C34.3358 44.9973 35.1718 44.7264 36.108 44.7358C37.3135 44.7483 38.519 44.739 39.7887 44.739L39.7855 44.7358ZM23.5851 13.6141C25.8098 13.6141 28.0329 13.6188 30.2575 13.6125C31.3127 13.6094 31.8779 13.0427 31.8888 11.9812C31.9014 10.8102 31.9029 9.63915 31.8888 8.46968C31.8763 7.44737 31.319 6.89629 30.2888 6.85089C30.1135 6.84306 29.9382 6.85089 29.7628 6.84619C28.7656 6.81801 28.2834 6.40001 28.0266 5.44189C27.892 4.93934 27.7245 4.42584 27.4677 3.97653C26.5785 2.41097 24.7452 1.53582 23.009 1.79101C21.0677 2.07594 19.6196 3.39257 19.175 5.32134C19.0356 5.92565 18.8243 6.46889 18.2137 6.68494C17.8395 6.81645 17.4153 6.82897 17.0114 6.84306C15.8372 6.88533 15.2939 7.41606 15.2861 8.58083C15.2798 9.67359 15.2814 10.7663 15.2861 11.8591C15.2908 13.0693 15.8294 13.6125 17.0301 13.6141C19.2157 13.6172 21.4012 13.6141 23.5851 13.6141ZM38.627 46.4939C37.8348 46.4939 37.2117 46.4939 36.5902 46.4939C36.3178 46.4939 36.0423 46.4861 35.7714 46.5112C34.9041 46.5926 34.1213 47.2799 34.0571 48.1675C33.982 49.1851 34.0399 50.2137 34.0399 51.3738C35.5898 49.7253 37.0505 48.1722 38.6286 46.4939H38.627Z" fill="#4B4B4B" fill-opacity="0.5"/>
    <path d="M5.54034 60C4.89689 59.7903 4.21431 59.6556 3.61627 59.3566C1.34621 58.2216 0.0702785 56.3633 0.0342707 53.8177C-0.026786 49.5233 0.0123529 45.2259 0.0123529 40.93C0.0123529 34.721 0.0123529 28.5104 0.0123529 22.3014C0.0123529 21.3965 0.286326 20.9801 0.878106 20.9785C1.47772 20.9785 1.76891 21.4028 1.76891 22.2936C1.76891 32.6623 1.76891 43.031 1.77047 53.3997C1.77047 55.7057 2.99004 57.4419 5.05971 58.0368C5.57635 58.1856 6.13682 58.2325 6.67693 58.2325C14.9368 58.245 23.1967 58.2404 31.4566 58.2404C31.5928 58.2404 31.7306 58.2466 31.8668 58.2404C32.3662 58.2137 32.8171 58.292 33.0174 58.8306C33.221 59.3801 32.8859 59.7057 32.4945 60H5.54034Z" fill="#4B4B4B" fill-opacity="0.5"/>
    <path d="M23.5825 49.5969C19.058 49.5938 15.3836 45.91 15.4024 41.3949C15.4212 36.9018 19.0893 33.2603 23.5918 33.2634C28.1179 33.265 31.7922 36.9488 31.7735 41.4638C31.7531 45.957 28.085 49.6016 23.5825 49.5985V49.5969ZM23.548 47.8372C27.0799 47.8623 29.9684 45.0239 30.0138 41.4842C30.0592 37.9758 27.1864 35.056 23.6576 35.0231C20.0975 34.9902 17.1825 37.8521 17.1621 41.4028C17.1418 44.9174 20.0145 47.8122 23.548 47.8372Z" fill="#4B4B4B" fill-opacity="0.5"/>
    <path d="M37.3572 23.4755C37.3572 25.0176 37.3635 26.5581 37.3572 28.1002C37.3494 29.4434 36.7654 30.0243 35.4285 30.0274C34.1009 30.0321 32.7748 30.0352 31.4472 30.0258C30.2981 30.0164 29.6719 29.3965 29.6703 28.2521C29.6641 25.0317 29.6625 21.8129 29.6703 18.5926C29.6735 17.4841 30.295 16.8548 31.4112 16.8407C32.7968 16.8235 34.1823 16.825 35.5678 16.8407C36.7263 16.8532 37.3384 17.4544 37.3525 18.6176C37.3729 20.2364 37.3572 21.8568 37.3572 23.4771V23.4755ZM35.5584 28.238V18.6364H31.466V28.238H35.5584Z" fill="#4B4B4B" fill-opacity="0.5"/>
    <path d="M19.7309 24.7843C19.7309 23.6524 19.7246 22.5221 19.7325 21.3902C19.7418 20.2207 20.3822 19.5741 21.5407 19.5679C22.9058 19.5601 24.271 19.5601 25.6377 19.5679C26.7978 19.5741 27.4397 20.2192 27.4428 21.3918C27.4507 23.6743 27.4522 25.9569 27.4428 28.2395C27.4381 29.3792 26.7994 30.0164 25.6659 30.0258C24.2804 30.0368 22.8964 30.0368 21.5109 30.0258C20.3806 30.0164 19.745 29.373 19.734 28.2379C19.7231 27.0873 19.7325 25.9366 19.7325 24.7843H19.7309ZM21.5188 28.2239H25.6503V21.3542H21.5188V28.2239Z" fill="#4B4B4B" fill-opacity="0.5"/>
    <path d="M17.5094 26.076C17.5094 26.8369 17.5203 27.5977 17.5062 28.3586C17.4859 29.3668 16.8644 30.0087 15.8593 30.0212C14.397 30.04 12.9333 30.04 11.4695 30.0212C10.5145 30.0087 9.86319 29.4154 9.83971 28.4651C9.799 26.8666 9.80057 25.2651 9.83814 23.6666C9.86006 22.7163 10.491 22.1042 11.4507 22.0823C12.9332 22.0494 14.4158 22.0463 15.8984 22.0838C16.9019 22.1089 17.4843 22.7743 17.5094 23.7934C17.5094 23.8326 17.5094 23.8717 17.5094 23.9109C17.5094 24.6326 17.5094 25.3543 17.5094 26.076ZM15.7184 23.8294C14.4237 23.8294 13.1618 23.8232 11.9 23.8404C11.7935 23.8404 11.5994 24.0001 11.5994 24.0862C11.5806 25.4608 11.5853 26.8369 11.5853 28.2271H15.7184V23.8294Z" fill="#4B4B4B" fill-opacity="0.5"/>
    <path d="M22.3073 42.616C23.2889 41.3776 24.2799 40.1283 25.2709 38.879C25.44 38.6645 25.6044 38.4469 25.7828 38.2403C26.1664 37.7956 26.6705 37.7174 27.0666 38.032C27.4564 38.342 27.5065 38.8712 27.148 39.333C26.1899 40.5636 25.2161 41.78 24.2486 43.0027C23.8368 43.5225 23.4345 44.0485 23.0134 44.5589C22.4858 45.1992 21.9065 45.1913 21.4228 44.5307C20.9406 43.87 20.474 43.1968 20.0153 42.5205C19.6631 42.0023 19.732 41.4794 20.1656 41.1835C20.6087 40.8814 21.0736 41.0035 21.465 41.5326C21.7202 41.8771 21.9644 42.2277 22.2149 42.5753C22.2228 42.5863 22.2447 42.5894 22.3089 42.616H22.3073Z" fill="#4B4B4B" fill-opacity="0.5"/>
    </g>
    <defs>
    <clipPath id="clip0_337_347">
    <rect width="47.1656" height="60" fill="white"/>
    </clipPath>
    </defs>
    </svg>
    