<svg width="60" height="49" viewBox="0 0 60 49" fill="none" xmlns="http://www.w3.org/2000/svg">
    <g clip-path="url(#clip0_337_355)">
    <path d="M0 3.84352C0.0704519 3.64625 0.145601 3.45056 0.208225 3.25016C0.821939 1.2775 2.70066 -0.0736072 4.72341 0.0031071C6.80096 0.0829526 8.54191 1.49825 9.0382 3.50848C9.0836 3.69479 9.1337 3.87953 9.18537 4.07993H28.7851C28.9902 2.82588 29.5319 1.77536 30.5339 0.995697C33.197 -1.08029 37.1047 0.305268 37.828 3.60242C37.9235 4.03609 38.0895 4.11437 38.4809 4.11593C40.5302 4.12063 42.5874 4.05018 44.629 4.19421C49.5622 4.54178 53.6374 8.473 54.2777 13.3765C55.0073 18.9547 51.5317 24.0507 46.0803 25.3345C45.2333 25.5333 44.3425 25.6147 43.4704 25.621C39.3889 25.6507 35.3058 25.6335 31.2243 25.6335H30.5135C30.0658 26.7717 29.3346 27.6375 28.2684 28.1886C25.9529 29.3863 23.1771 28.4406 22.028 26.05C21.8792 25.7415 21.7242 25.6226 21.3783 25.6241C18.449 25.6398 15.5182 25.61 12.589 25.6429C8.49181 25.6883 4.95512 28.6958 4.20207 32.7272C3.22044 37.9939 7.00919 42.8395 12.351 43.1322C13.0884 43.1729 13.8305 43.1385 14.6117 43.1385C14.665 42.9459 14.7198 42.7643 14.7636 42.5811C15.2552 40.5192 17.1277 39.0444 19.2428 39.057C21.3501 39.0679 23.199 40.5114 23.6609 42.5655C23.7689 43.0477 23.949 43.1729 24.4296 43.1729C31.6752 43.1573 38.9224 43.1588 46.1679 43.1682C46.5609 43.1682 46.7503 43.0414 46.9836 42.7032C47.3594 42.1584 47.8494 41.6606 48.3833 41.2676C48.6933 41.0406 48.8248 40.8684 48.8216 40.4958C48.7981 36.6882 48.7887 32.8822 48.7809 29.0747C48.7809 28.6645 48.7966 28.2543 48.8248 27.8457C48.8639 27.2774 49.2083 26.9048 49.7156 26.8516C50.2087 26.7999 50.6596 27.1114 50.752 27.6688C50.8162 28.0555 51.0182 28.068 51.3172 28.068C53.758 28.0618 56.2003 28.068 58.6411 28.0618C59.1452 28.0618 59.6243 28.0806 59.892 28.6129C60.1456 29.1185 59.9045 29.5115 59.6258 29.906C59.1875 30.5276 58.7757 31.171 58.3107 31.7722C58.0587 32.0979 58.0853 32.3233 58.3248 32.638C58.8195 33.2909 59.2657 33.9797 59.737 34.6514C59.989 35.0115 60.1033 35.3841 59.881 35.8005C59.6618 36.2138 59.2986 36.3328 58.854 36.3313C56.4132 36.325 53.9709 36.3281 51.5301 36.3281C51.3172 36.3281 51.1027 36.3281 50.8397 36.3281C50.8225 36.5285 50.7958 36.6976 50.7943 36.8667C50.7912 38.0973 50.8005 39.3278 50.7865 40.5584C50.7833 40.884 50.8632 41.0735 51.1857 41.2331C52.4632 41.8672 53.1442 43.1761 52.9486 44.5084C52.7528 45.8376 51.718 46.9272 50.4138 47.1809C49.0518 47.4454 47.6928 46.8129 47.0181 45.5448C46.8396 45.2082 46.6345 45.1299 46.2869 45.1315C38.8848 45.1393 31.4826 45.1393 24.0789 45.1315C23.7204 45.1315 23.5403 45.2348 23.376 45.573C22.5352 47.2904 21.1215 48.2204 19.2224 48.2173C17.3233 48.2141 15.9112 47.2795 15.0751 45.562C14.9076 45.2192 14.7245 45.1205 14.3675 45.1284C12.6266 45.1675 10.906 45.119 9.22451 44.5319C4.5418 42.9005 1.57343 38.1599 2.12452 33.1061C2.64899 28.306 6.56456 24.2761 11.3741 23.7767C13.3859 23.5685 15.429 23.6703 17.4596 23.6468C18.8232 23.6311 20.1868 23.6436 21.5317 23.6436C22.6198 20.5923 23.9959 19.451 26.432 19.5418C28.5659 19.6216 30.047 21.004 30.7922 23.6436C30.9895 23.6436 31.2008 23.6436 31.4122 23.6436C35.4154 23.6436 39.4202 23.6436 43.4234 23.6436C48.0529 23.6421 51.635 20.5594 52.338 15.9769C53.0519 11.3318 49.4432 6.59741 44.7605 6.20601C42.5295 6.0197 40.2735 6.11364 38.0284 6.10581C37.875 6.10581 37.6511 6.28272 37.5759 6.43459C36.7008 8.18806 35.298 9.16186 33.341 9.1556C31.4075 9.14933 30.0078 8.18336 29.1812 6.43459C29.0293 6.11364 28.8258 6.08702 28.5393 6.08702C22.1532 6.09015 15.7656 6.09172 9.3795 6.08389C9.06638 6.08389 8.90669 6.16687 8.76266 6.4659C7.84365 8.37436 6.10427 9.34817 4.0596 9.13681C2.14174 8.93954 0.618411 7.56338 0.111158 5.57507C0.0829767 5.46548 0.0375744 5.35902 0 5.25099C0 4.78288 0 4.3132 0 3.84509V3.84352ZM50.8303 34.285H57.0598C56.7122 33.7825 56.4242 33.3441 56.1126 32.9214C55.7525 32.4329 55.751 31.9648 56.1111 31.4748C56.4289 31.0427 56.7201 30.5902 57.0708 30.0783H50.8319V34.285H50.8303ZM7.17984 4.56996C7.16888 3.13117 5.99468 1.9695 4.56529 1.98515C3.13903 2.00081 1.98048 3.1844 1.99144 4.61693C2.00084 6.04632 3.19069 7.21895 4.61225 7.20173C6.04634 7.18451 7.19236 6.01031 7.1814 4.56996H7.17984ZM21.8151 43.6222C21.8072 42.1866 20.6268 41.0171 19.2052 41.0343C17.7695 41.0531 16.6188 42.2257 16.6314 43.6614C16.6439 45.0939 17.8259 46.2634 19.2459 46.2509C20.6784 46.2384 21.8244 45.0657 21.8151 43.6222ZM26.2034 21.5238C24.7521 21.5097 23.5701 22.6589 23.5638 24.093C23.556 25.5051 24.702 26.6856 26.1032 26.7091C27.5608 26.7326 28.7397 25.61 28.7679 24.1666C28.7976 22.7262 27.6453 21.5379 26.2034 21.5238ZM33.3848 1.98829C31.9601 1.96793 30.7734 3.14057 30.7609 4.58092C30.7484 5.97743 31.9006 7.15789 33.3097 7.1939C34.7234 7.22991 35.9477 6.04945 35.9681 4.62945C35.9884 3.21102 34.8127 2.00864 33.3848 1.98829ZM49.8064 45.2364C50.4765 45.2364 50.99 44.7166 50.9806 44.0497C50.9728 43.4187 50.4608 42.8989 49.8314 42.8817C49.1802 42.8661 48.6353 43.3968 48.6291 44.0528C48.6228 44.7213 49.1348 45.2364 49.8064 45.2364Z" fill="#4B4B4B" fill-opacity="0.5"/>
    </g>
    <defs>
    <clipPath id="clip0_337_355">
    <rect width="60" height="48.2173" fill="white"/>
    </clipPath>
    </defs>
    </svg>
    