<?xml version="1.0" encoding="UTF-8"?>
<svg xmlns="http://www.w3.org/2000/svg" xmlns:xlink="http://www.w3.org/1999/xlink" version="1.1" viewBox="0 0 43.7 560.4">
  <defs>
    <style>
      .cls-1 {
        fill: url(#linear-gradient-7);
      }

      .cls-2 {
        fill: url(#linear-gradient-5);
      }

      .cls-3 {
        fill: url(#linear-gradient-6);
      }

      .cls-4 {
        fill: url(#linear-gradient-4);
      }

      .cls-5 {
        fill: url(#linear-gradient-3);
      }

      .cls-6 {
        fill: url(#linear-gradient-2);
      }

      .cls-7 {
        fill: url(#linear-gradient);
      }

      .cls-8 {
        fill: #1c1d1d;
      }
    </style>
    <linearGradient id="linear-gradient" x1="37.9" y1="53.2" x2="43" y2="53.2" gradientTransform="translate(0 0)" gradientUnits="userSpaceOnUse">
      <stop offset="0" stop-color="#ee3924"/>
      <stop offset="1" stop-color="#fbae53"/>
    </linearGradient>
    <linearGradient id="linear-gradient-2" x1="69" y1="-21.1" x2="74.2" y2="-21.1" gradientTransform="translate(-62.3 148.6)" xlink:href="#linear-gradient"/>
    <linearGradient id="linear-gradient-3" x1="69" y1="-168.9" x2="74.2" y2="-168.9" gradientTransform="translate(-62.3 444.4)" xlink:href="#linear-gradient"/>
    <linearGradient id="linear-gradient-4" x1="68.4" y1="-318.9" x2="73.6" y2="-318.9" gradientTransform="translate(-61.1 744.3)" xlink:href="#linear-gradient"/>
    <linearGradient id="linear-gradient-5" x1="38.4" y1="-95.3" x2="43.5" y2="-95.3" gradientTransform="translate(-.9 297.1)" xlink:href="#linear-gradient"/>
    <linearGradient id="linear-gradient-6" x1="38.5" y1="-246.8" x2="43.6" y2="-246.8" gradientTransform="translate(-1.2 600)" xlink:href="#linear-gradient"/>
    <linearGradient id="linear-gradient-7" x1="37.2" y1="-396.1" x2="42.3" y2="-396.1" gradientTransform="translate(1.5 898.6)" xlink:href="#linear-gradient"/>
  </defs>
  <!-- Generator: Adobe Illustrator 28.6.0, SVG Export Plug-In . SVG Version: 1.2.0 Build 709)  -->
  <g>
    <g id="Layer_1">
      <path class="cls-8" d="M2.5,560.4c-.7,0-1.4-.3-1.9-.9-.9-1.1-.7-2.6.3-3.5l19.9-16.7c10.8-9,17.3-22.2,17.8-36.2.6-14-4.9-27.7-14.9-37.5-10.3-10.1-16.2-23.6-16.4-38.1-.3-14.5,5-28.2,15-38.7l1-1.1c18.5-19.6,18.7-50.4.3-70.2l-1.4-1.5c-20.7-22.2-20.6-57,.1-79.2l1.5-1.6c18.3-19.5,18.2-50.1-.2-69.5l-2.7-2.9c-9.5-10.1-14.5-23.3-14.1-37.2.4-13.9,6.2-26.7,16.4-36.2,10.4-9.8,15.8-23.5,14.7-37.8-1.1-14.2-8.5-27-20.3-35.1L1,4.5C0,3.7-.3,2.1.5,1,1.3,0,2.9-.3,4,.5l16.4,11.9c13,8.9,21.2,23,22.4,38.8,1.2,15.8-4.7,31-16.2,41.8-9.1,8.6-14.4,20.2-14.8,32.7s4.1,24.5,12.7,33.6l2.7,2.9c20.2,21.4,20.2,54.9.2,76.4l-1.5,1.6c-18.9,20.3-19,52-.1,72.4l1.4,1.5c20.2,21.7,20,55.5-.3,77l-1,1.1c-18.5,19.6-17.9,50.9,1.3,69.8,11,10.8,17,25.9,16.4,41.3-.6,15.4-7.8,30-19.6,39.9l-19.9,16.7c-.5.4-1,.6-1.6.6Z"/>
      <rect class="cls-7" x="37.9" y="48.9" width="5.1" height="8.8" rx="2.6" ry="2.6" transform="translate(80.9 106.5) rotate(-180)"/>
      <rect class="cls-6" x="6.7" y="123.2" width="5.1" height="8.8" rx="2.6" ry="2.6" transform="translate(18.6 255.1) rotate(180)"/>
      <rect class="cls-5" x="6.7" y="271.1" width="5.1" height="8.8" rx="2.6" ry="2.6" transform="translate(18.6 550.9) rotate(180)"/>
      <rect class="cls-4" x="7.3" y="421" width="5.1" height="8.8" rx="2.6" ry="2.6" transform="translate(19.8 850.8) rotate(180)"/>
      <rect class="cls-2" x="37.4" y="197.4" width="5.1" height="8.8" rx="2.6" ry="2.6" transform="translate(80 403.6) rotate(180)"/>
      <rect class="cls-3" x="37.3" y="348.9" width="5.1" height="8.8" rx="2.6" ry="2.6" transform="translate(79.7 706.5) rotate(-180)"/>
      <rect class="cls-1" x="38.6" y="498.2" width="5.1" height="8.8" rx="2.6" ry="2.6" transform="translate(82.4 1005.1) rotate(180)"/>
    </g>
  </g>
</svg>