<?xml version="1.0" encoding="UTF-8"?>
<svg id="Layer_1" data-name="Layer 1" xmlns="http://www.w3.org/2000/svg" version="1.1" viewBox="0 0 50 50">
  <defs>
    <style>
      .cls-1 {
        fill: #fff;
        stroke: #6e6e6e;
      }

      .cls-2 {
        fill: #000;
        stroke-width: 0px;
      }
    </style>
  </defs>
  <circle class="cls-1" cx="25" cy="25" r="24.5"/>
  <path class="cls-2" d="M32.9,33c-1,0-2.1,0-3.1,0-.1,0-.2,0-.2-.2,0-1.8,0-3.6,0-5.4,0-.5,0-.9-.2-1.4-.2-.7-.7-1-1.4-1.1-.3,0-.5,0-.8,0-.7.2-1.1.7-1.2,1.4,0,.4-.1.8-.1,1.1,0,1.8,0,3.5,0,5.3,0,.1,0,.2-.2.2-1,0-2,0-3,0-.1,0-.2,0-.2-.2,0-3.5,0-6.9,0-10.4,0-.1,0-.2.2-.2,1,0,1.9,0,2.9,0,.1,0,.2,0,.2.2,0,.4,0,.9,0,1.3,0,0,0,0,0,0,.6-.9,1.4-1.4,2.4-1.6.9-.1,1.7,0,2.5.3.9.4,1.5,1.1,1.7,2.1.2.5.2,1.1.3,1.6,0,0,0,0,0,.1v6.8h0Z"/>
  <path class="cls-2" d="M19.2,17c0,0,.2,0,.3,0,.9.3,1.5,1.2,1.4,2.1-.1,1-.9,1.7-1.9,1.7-.9,0-1.8-.7-1.9-1.6-.2-1,.5-1.9,1.4-2.2,0,0,.1,0,.1,0h.6Z"/>
  <path class="cls-2" d="M17.3,27.6c0-1.7,0-3.4,0-5.2,0-.1,0-.2.2-.2,1,0,2,0,3,0,.1,0,.2,0,.2.2,0,3.5,0,6.9,0,10.4,0,.1,0,.2-.2.2-1,0-2,0-3,0-.1,0-.1,0-.1-.1,0-1.7,0-3.5,0-5.2h0Z"/>
</svg>