<?xml version="1.0" encoding="UTF-8"?>
<svg id="Layer_1" data-name="Layer 1" xmlns="http://www.w3.org/2000/svg" xmlns:xlink="http://www.w3.org/1999/xlink" version="1.1" viewBox="0 0 50 50">
  <defs>
    <style>
      .cls-1 {
        clip-path: url(#clippath);
      }

      .cls-2 {
        fill: none;
      }

      .cls-2, .cls-3 {
        stroke-width: 0px;
      }

      .cls-4 {
        fill: #fff;
        stroke: #6e6e6e;
      }

      .cls-3 {
        fill: #000;
      }
    </style>
    <clipPath id="clippath">
      <rect class="cls-2" x="14" y="17" width="22.4" height="16"/>
    </clipPath>
  </defs>
  <circle class="cls-4" cx="25" cy="25" r="24.5"/>
  <g class="cls-1">
    <path class="cls-3" d="M25.2,33c-2.3,0-4.5,0-6.8,0-2.2,0-3.8-1.3-4.3-3.3,0-.4-.1-.7-.1-1.1,0-2.4,0-4.7,0-7.1,0-2.6,1.8-4.4,4.4-4.4,4.5,0,9,0,13.5,0,2.6,0,4.4,1.8,4.4,4.4,0,2.4,0,4.7,0,7.1,0,2.6-1.8,4.4-4.4,4.4-2.3,0-4.5,0-6.8,0ZM28.5,25c-2-1.2-3.9-2.3-5.9-3.4v6.8c2-1.1,3.9-2.3,5.9-3.4Z"/>
  </g>
</svg>