<?xml version="1.0" encoding="UTF-8"?>
<svg xmlns="http://www.w3.org/2000/svg" xmlns:xlink="http://www.w3.org/1999/xlink" version="1.1" viewBox="0 0 93.5 140.8">
  <defs>
    <style>
      .cls-1 {
        stroke: #d7d7d7;
      }

      .cls-1, .cls-2, .cls-3, .cls-4, .cls-5, .cls-6 {
        fill: none;
      }

      .cls-7 {
        mask: url(#mask);
      }

      .cls-8 {
        stroke: #353535;
      }

      .cls-8, .cls-9 {
        fill: #fff;
      }

      .cls-10 {
        fill: #f90;
        fill-rule: evenodd;
      }

      .cls-11 {
        fill: #252f3e;
      }

      .cls-2 {
        stroke: #fbbc05;
      }

      .cls-2, .cls-3, .cls-4, .cls-6 {
        stroke-width: 2px;
      }

      .cls-3 {
        stroke: #4285f4;
      }

      .cls-12 {
        isolation: isolate;
      }

      .cls-13 {
        mask: url(#mask-2);
      }

      .cls-14 {
        mask: url(#mask-1);
      }

      .cls-15 {
        fill: #848484;
      }

      .cls-4 {
        stroke: #34a853;
      }

      .cls-16 {
        mix-blend-mode: color-dodge;
      }

      .cls-17 {
        fill: #4a4a4a;
      }

      .cls-5 {
        stroke: #848484;
        stroke-miterlimit: 10;
      }

      .cls-6 {
        stroke: #ea4335;
      }
    </style>
    <mask id="mask" x="0" y="8.3" width="93.5" height="109.6" maskUnits="userSpaceOnUse">
      <g id="mask0_0_1">
        <path class="cls-9" d="M93,8.8H.5v108.6h92.5V8.8Z"/>
      </g>
    </mask>
    <mask id="mask-1" x="46.7" y="67.2" width="34.1" height="40.3" maskUnits="userSpaceOnUse">
      <g id="mask1_0_1">
        <path class="cls-9" d="M57.8,67.2l-11.1,32.4,23,7.9,11.1-32.4-23-7.9Z"/>
      </g>
    </mask>
    <mask id="mask-2" x="12.5" y="67.2" width="34.1" height="40.3" maskUnits="userSpaceOnUse">
      <g id="mask2_0_1">
        <path class="cls-9" d="M35.4,67.2l-23,7.9,11.1,32.4,23-7.9-11.1-32.4Z"/>
      </g>
    </mask>
  </defs>
  <!-- Generator: Adobe Illustrator 28.6.0, SVG Export Plug-In . SVG Version: 1.2.0 Build 709)  -->
  <g class="cls-12">
    <g id="Layer_1">
      <g>
        <path class="cls-1" d="M65.5.5H28.3v139.3l19.2-14.1,18,14.1V.5Z"/>
        <path class="cls-8" d="M46.5,9.5c25.3,0,45.7,20.5,45.7,45.8v16.1c0,25.3-20.5,45.8-45.7,45.8S.8,96.6.8,71.3v-16.1C.8,30,21.2,9.5,46.5,9.5Z"/>
        <g class="cls-7">
          <g>
            <path class="cls-4" d="M10.6,26.9C4.6,34.7,1,44.4,1,55v16.1c0,10.6,3.6,20.3,9.6,28.1"/>
            <path class="cls-3" d="M82.9,26.9c-8.4-10.8-21.4-17.7-36.1-17.7s-27.7,6.9-36.1,17.7"/>
            <path class="cls-2" d="M82.9,99.2c6-7.8,9.6-17.5,9.6-28.1v-16.1c0-10.6-3.6-20.3-9.6-28.1"/>
            <path class="cls-6" d="M10.6,99.2c8.4,10.8,21.4,17.7,36.1,17.7s27.7-6.9,36.1-17.7"/>
            <g class="cls-14">
              <g>
                <path class="cls-15" d="M72.2,87.6c.3-.8.7-2.8,0-4.3-.6-1.6-2-2.2-2.6-2.4,0,.7,0,2.2.5,3.7.5,1.5,1.5,2.6,2,3h0Z"/>
                <path class="cls-15" d="M73.1,85.2c.6,0,2.2-.3,3.3-1.9.3-.4.5-.8.7-1.3,0-.2.2-.5.3-.7,0-.2.1-.5.2-.7.1-.5.2-.9.2-1.3,0-.4,0-.7,0-1-.3.1-.8.4-1.3.9-.3.2-.5.5-.8.8-.3.3-.5.6-.8,1-.2.4-.5.8-.7,1.2-.2.4-.4.8-.5,1.2-.3.7-.5,1.4-.7,1.8h0Z"/>
                <path class="cls-15" d="M68.7,93.2c.3-.3.6-.9,1-1.6.2-.4.3-.8.4-1.2,0-.4.2-.8.1-1.3,0-.8-.4-1.5-.7-2-.3-.5-.7-.9-1-1.1,0,.2-.1.4-.2.6,0,.2-.1.6-.2.9-.1.7-.3,1.4-.3,2.2,0,.8.1,1.5.3,2.1.2.6.4,1.1.6,1.4h0Z"/>
                <path class="cls-15" d="M70.3,91.2c.3,0,.8.2,1.5.1.3,0,.7,0,1.1-.2.4-.1.8-.3,1.2-.6.8-.5,1.5-1.4,2-2.2.5-.8.8-1.6,1-2.1-.6,0-2.1.5-3.6,1.6-.2.1-.3.3-.5.4-.2.2-.3.3-.5.5s-.3.3-.4.5c-.2.2-.3.3-.4.5-.1.2-.3.3-.4.4-.1.1-.2.3-.3.4-.2.2-.4.5-.5.6h0Z"/>
                <path class="cls-15" d="M63.6,97.4c.3-.3.9-.6,1.4-1.2.3-.3.5-.6.7-1,.2-.3.4-.8.5-1.2.2-.8.2-1.6,0-2.2-.2-.6-.4-1.1-.6-1.3-.4.5-1.3,1.8-1.8,3.2-.2.8-.3,1.5-.4,2.1,0,.6,0,1.2,0,1.5Z"/>
                <path class="cls-15" d="M65.8,96c.3.2.7.4,1.4.6.6.2,1.4.2,2.4,0,.5-.1.9-.3,1.3-.6.4-.2.9-.5,1.2-.8.7-.6,1.3-1.2,1.6-1.7-.3,0-.8-.1-1.5,0-.7,0-1.5.1-2.3.5-.4.1-.9.3-1.3.5-.2,0-.4.2-.6.3-.2,0-.4.2-.6.3-.4.2-.7.4-.9.6-.3.2-.5.3-.7.4Z"/>
                <path class="cls-15" d="M57.5,99.7c.8-.2,2.7-.9,3.6-2.3.1-.2.2-.3.3-.5,0-.2.1-.4.2-.5.1-.4.2-.7.2-1,0-.6,0-1.1-.1-1.4-.3.2-.7.5-1.2.9-.5.4-1.1,1-1.5,1.5-.2.3-.4.6-.6,1-.2.3-.3.6-.4.9-.2.6-.3,1.1-.4,1.4h0Z"/>
                <path class="cls-15" d="M59.9,99c.2.2.6.7,1.1,1,.5.3,1.3.7,2.3.7,1.9.1,4.1-1,4.9-1.6-.3-.2-.8-.4-1.4-.6-.6-.2-1.5-.4-2.4-.3-.4,0-.9,0-1.3,0-.4,0-.8.2-1.3.2-.8.1-1.5.4-1.9.4h0Z"/>
                <path class="cls-15" d="M50.9,99.8c.8,0,2.8,0,4.2-1,.7-.5,1.1-1.2,1.3-1.7.2-.6.3-1.1.3-1.4-.3.1-.9.2-1.5.5-.3.1-.6.2-1,.4-.2,0-.3.2-.5.3-.2,0-.3.2-.5.3-1.3.9-2.1,2.1-2.4,2.7h0Z"/>
                <path class="cls-15" d="M53.4,100c.2.6.8,2,2.6,2.8,1.8.8,4.2.4,5.1,0-.4-.5-1.6-1.5-3.3-2.1-.2,0-.4-.1-.6-.2-.2,0-.4-.1-.7-.2-.4,0-.9-.1-1.3-.2-.8-.1-1.5-.1-1.9-.2h0Z"/>
                <g class="cls-16">
                  <path class="cls-15" d="M69.8,80.9v.3c.6.2,1.9.9,2.5,2.4.6,1.4.3,3.1,0,4h0c.3-.8.7-2.7,0-4.3-.6-1.6-2-2.2-2.6-2.4h0Z"/>
                </g>
                <g class="cls-16">
                  <path class="cls-15" d="M73.1,85.2h0c.4-.9.9-2.5,1.8-3.8,1-1.5,2.3-2.3,2.9-2.6,0-.1,0-.3,0-.4-.3.2-.8.4-1.3.9-.3.2-.5.5-.8.8-.3.3-.5.6-.8,1-.2.4-.5.8-.7,1.2-.2.4-.4.8-.5,1.2-.3.7-.5,1.4-.7,1.8h0Z"/>
                </g>
                <g class="cls-16">
                  <path class="cls-15" d="M68.5,86c0,0,0,.2,0,.2.2.2.6.6.9,1.1.3.5.6,1.2.7,2,0,.7-.2,1.5-.4,2.2-.3.6-.6,1.2-.9,1.6h0c.3-.3.6-.9,1-1.6.2-.4.3-.8.4-1.2,0-.4.2-.8.1-1.3,0-.8-.4-1.5-.7-2-.3-.5-.7-.9-1-1.1Z"/>
                </g>
                <g class="cls-16">
                  <path class="cls-15" d="M70.3,91.2h0c.2-.2.3-.4.5-.6.2-.2.4-.5.7-.8.5-.5,1.1-1.1,1.7-1.6.4-.3.7-.5,1.1-.7.3-.2.7-.3,1-.5.6-.2,1.2-.3,1.5-.4,0-.1,0-.3.1-.4-.6,0-2.1.5-3.6,1.6-.2.1-.4.3-.5.4-.2.2-.3.3-.5.5-.2.2-.3.3-.4.5-.2.2-.3.3-.4.5-.1.2-.3.3-.4.4-.1.1-.2.3-.3.4-.2.2-.4.5-.5.6h0Z"/>
                </g>
                <g class="cls-16">
                  <path class="cls-15" d="M65.7,90.5c0,0,0,.1-.2.2.2.3.4.7.5,1.3.2.6.2,1.3,0,2.1-.2.7-.6,1.4-1.1,1.9-.5.5-1,.9-1.4,1.2h0c.3-.2.9-.6,1.4-1.2.3-.3.5-.6.7-1,.2-.3.4-.8.5-1.2.2-.8.2-1.6,0-2.2-.2-.6-.4-1-.6-1.3h0Z"/>
                </g>
                <g class="cls-16">
                  <path class="cls-15" d="M65.8,96h0c.2-.1.5-.3.7-.4.3-.2.6-.4.9-.5.7-.3,1.4-.7,2.1-1,.9-.3,1.6-.4,2.3-.4.7,0,1.2,0,1.5.1,0-.1.2-.2.2-.3-.3,0-.8-.1-1.5,0-.7,0-1.5.1-2.3.5-.4.1-.9.3-1.3.5-.2,0-.4.2-.6.3-.2,0-.4.2-.6.3-.4.2-.7.4-.9.6-.3.2-.5.3-.7.4h0Z"/>
                </g>
                <g class="cls-16">
                  <path class="cls-15" d="M61.7,93.8c0,0-.1,0-.2.1,0,.3.1.8,0,1.4,0,.3,0,.6-.2,1-.1.4-.3.7-.5,1-.8,1.3-2.4,1.9-3.3,2.2h0c.8-.2,2.7-.9,3.6-2.3.1-.2.2-.3.3-.5,0-.2.1-.4.2-.5.1-.4.2-.7.2-1,0-.6,0-1.1-.1-1.4h0Z"/>
                </g>
                <g class="cls-16">
                  <path class="cls-15" d="M59.9,99h0c.5,0,1.1-.2,1.8-.4.4,0,.7-.1,1.1-.2.4,0,.8,0,1.2,0,.9,0,1.7.2,2.3.4.6.2,1.1.4,1.4.6.1,0,.2-.1.3-.2-.3-.2-.8-.4-1.4-.6-.6-.2-1.5-.4-2.4-.3-.4,0-.9,0-1.3,0-.4,0-.8.2-1.3.2-.8.1-1.5.4-1.9.4h0Z"/>
                </g>
                <g class="cls-16">
                  <path class="cls-15" d="M56.7,95.7c0,0-.2,0-.2,0,0,.3-.1.8-.4,1.4-.2.6-.6,1.2-1.3,1.7-.3.2-.6.4-1,.6-.3.1-.7.2-1.1.3-.7.2-1.4.2-1.8.1h0c.8.1,2.8,0,4.2-1,.7-.5,1.1-1.2,1.3-1.7.2-.6.3-1.1.3-1.4h0Z"/>
                </g>
                <g class="cls-16">
                  <path class="cls-15" d="M53.4,100h0c.5,0,1.1.1,1.9.3.4,0,.7.1,1.1.2.4,0,.8.2,1.2.3.8.3,1.5.7,2.1,1.1.5.4.9.8,1.1,1,.1,0,.3,0,.4,0-.4-.5-1.6-1.5-3.3-2.1-.2,0-.4-.1-.6-.2-.2,0-.4-.1-.7-.2-.4,0-.9-.1-1.3-.2-.8-.1-1.5-.1-1.9-.2Z"/>
                </g>
                <path class="cls-5" d="M73.8,79.9c0,3.2-.8,6.4-2.3,9.2-.7,1.4-1.7,2.7-2.7,4-.6.6-1.1,1.2-1.7,1.7-.3.3-.6.6-.9.8l-1,.7c-1.3.9-2.7,1.7-4.2,2.3l-.6.2-.6.2c-.4.1-.8.2-1.1.4-.8.2-1.6.4-2.3.5-3.2.5-6.4,0-9.4-.9"/>
                <path class="cls-15" d="M73.8,80.6c0-.2.2-.4.3-.7.1-.3.2-.6.3-1,0-.4.2-.8.2-1.3,0-.5,0-1,0-1.5,0-.5-.2-1-.4-1.4,0-.2-.2-.4-.3-.6-.1-.2-.2-.4-.3-.5-.4-.7-.9-1.1-1.2-1.4,0,.4,0,1,0,1.8,0,.2,0,.4,0,.6,0,.2,0,.4,0,.6,0,.4,0,.9.2,1.3,0,.4.2.9.3,1.3.1.4.2.8.4,1.2.1.4.3.7.4,1,.1.3.2.5.3.7h0Z"/>
                <g class="cls-16">
                  <path class="cls-15" d="M72.5,76.5c0,0,0,.2,0,.2-.2-1.7,0-3.3,0-4.1.1.1.3.3.5.5.2.2.4.5.6.8.4.6.8,1.5,1,2.4,0,0,0-.2,0-.3,0-.5-.2-1-.4-1.4,0-.2-.2-.4-.3-.6-.1-.2-.2-.4-.3-.5-.4-.7-.9-1.1-1.2-1.4,0,.4,0,1,0,1.8,0,.2,0,.4,0,.6,0,.2,0,.4,0,.6,0,.4,0,.9.2,1.3h0Z"/>
                </g>
              </g>
            </g>
            <g class="cls-13">
              <g>
                <path class="cls-15" d="M21,87.6c-.3-.8-.7-2.8,0-4.3.6-1.6,2-2.2,2.6-2.4,0,.7,0,2.2-.5,3.7-.5,1.5-1.5,2.6-2,3h0Z"/>
                <path class="cls-15" d="M20.2,85.2c-.6,0-2.2-.3-3.3-1.9-.3-.4-.5-.8-.7-1.3,0-.2-.2-.5-.3-.7,0-.2-.1-.5-.2-.7-.1-.5-.2-.9-.2-1.3,0-.4,0-.7,0-1,.3.1.8.4,1.3.9.3.2.5.5.8.8.3.3.5.6.8,1,.2.4.5.8.7,1.2.2.4.4.8.5,1.2.3.7.5,1.4.7,1.8h0Z"/>
                <path class="cls-15" d="M24.5,93.2c-.3-.3-.6-.9-1-1.6-.2-.4-.3-.8-.4-1.2,0-.4-.2-.8-.1-1.3,0-.8.4-1.5.7-2,.3-.5.7-.9,1-1.1,0,.2.1.4.2.6,0,.2.1.6.2.9.1.7.3,1.4.3,2.2,0,.8-.1,1.5-.3,2.1-.2.6-.4,1.1-.6,1.4h0Z"/>
                <path class="cls-15" d="M23,91.2c-.3,0-.8.2-1.5.1-.3,0-.7,0-1.1-.2-.4-.1-.8-.3-1.2-.6-.8-.5-1.5-1.4-2-2.2-.5-.8-.8-1.6-1-2.1.6,0,2.1.5,3.6,1.6.2.1.3.3.5.4.2.2.3.3.5.5s.3.3.4.5c.2.2.3.3.4.5.1.2.3.3.4.4.1.1.2.3.3.4.2.2.4.5.5.6h0Z"/>
                <path class="cls-15" d="M29.6,97.4c-.3-.3-.9-.6-1.4-1.2-.3-.3-.5-.6-.7-1-.2-.3-.4-.8-.5-1.2-.2-.8-.2-1.6,0-2.2.2-.6.4-1.1.6-1.3.4.5,1.3,1.8,1.8,3.2.2.8.3,1.5.4,2.1,0,.6,0,1.2,0,1.5h0Z"/>
                <path class="cls-15" d="M27.5,96c-.3.2-.7.4-1.4.6-.6.2-1.4.2-2.4,0-.5-.1-.9-.3-1.3-.6-.4-.2-.9-.5-1.2-.8-.7-.6-1.3-1.2-1.6-1.7.3,0,.8-.1,1.5,0,.7,0,1.5.1,2.3.5.4.1.9.3,1.3.5.2,0,.4.2.6.3.2,0,.4.2.6.3.4.2.7.4.9.6.3.2.5.3.7.4Z"/>
                <path class="cls-15" d="M35.8,99.7c-.8-.2-2.7-.9-3.6-2.3-.1-.2-.2-.3-.3-.5,0-.2-.1-.4-.2-.5-.1-.4-.2-.7-.2-1,0-.6,0-1.1.1-1.4.3.2.7.5,1.2.9.5.4,1.1,1,1.5,1.5.2.3.4.6.6,1,.2.3.3.6.4.9.2.6.3,1.1.4,1.4h0Z"/>
                <path class="cls-15" d="M33.4,99c-.2.2-.6.7-1.1,1-.5.3-1.3.7-2.3.7-1.9.1-4.1-1-4.9-1.6.3-.2.8-.4,1.4-.6.6-.2,1.5-.4,2.4-.3.4,0,.9,0,1.3,0,.4,0,.8.2,1.3.2.8.1,1.5.4,1.9.4h0Z"/>
                <path class="cls-15" d="M42.4,99.8c-.8,0-2.8,0-4.2-1-.7-.5-1.1-1.2-1.3-1.7-.2-.6-.3-1.1-.3-1.4.3.1.9.2,1.5.5.3.1.6.2,1,.4.2,0,.3.2.5.3.2,0,.3.2.5.3,1.3.9,2.1,2.1,2.4,2.7h0Z"/>
                <path class="cls-15" d="M39.9,100c-.2.6-.8,2-2.6,2.8-1.8.8-4.2.4-5.1,0,.4-.5,1.6-1.5,3.3-2.1.2,0,.4-.1.6-.2.2,0,.4-.1.7-.2.4,0,.9-.1,1.3-.2.8-.1,1.5-.1,1.9-.2h0Z"/>
                <g class="cls-16">
                  <path class="cls-15" d="M23.5,80.9v.3c-.6.2-1.9.9-2.5,2.4-.5,1.4-.3,3.1,0,4h0c-.3-.8-.7-2.7,0-4.3.6-1.6,2-2.2,2.6-2.4h0Z"/>
                </g>
                <g class="cls-16">
                  <path class="cls-15" d="M20.2,85.2h0c-.4-.9-.9-2.5-1.8-3.8-1-1.5-2.3-2.3-2.9-2.6,0-.1,0-.3,0-.4.3.2.8.4,1.3.9.3.2.5.5.8.8.3.3.5.6.8,1,.2.4.5.8.7,1.2.2.4.4.8.5,1.2.3.7.5,1.4.7,1.8h0Z"/>
                </g>
                <g class="cls-16">
                  <path class="cls-15" d="M24.8,86c0,0,0,.2,0,.2-.2.2-.6.6-.9,1.1-.3.5-.6,1.2-.7,2,0,.7.2,1.5.4,2.2.3.6.6,1.2.9,1.6h0c-.3-.3-.6-.9-1-1.6-.2-.4-.3-.8-.4-1.2,0-.4-.2-.8-.1-1.3,0-.8.4-1.5.7-2,.3-.5.7-.9,1-1.1Z"/>
                </g>
                <g class="cls-16">
                  <path class="cls-15" d="M23,91.2h0c-.2-.2-.3-.4-.5-.6-.2-.2-.4-.5-.7-.8-.5-.5-1.1-1.1-1.7-1.6-.4-.3-.7-.5-1.1-.7-.3-.2-.7-.3-1-.5-.6-.2-1.2-.3-1.5-.4,0-.1,0-.3-.1-.4.6,0,2.1.5,3.6,1.6.2.1.3.3.5.4.2.2.3.3.5.5.2.2.3.3.4.5.2.2.3.3.4.5.1.2.3.3.4.4.1.1.2.3.3.4.2.2.4.5.5.6h0Z"/>
                </g>
                <g class="cls-16">
                  <path class="cls-15" d="M27.6,90.5c0,0,0,.1.2.2-.2.3-.4.7-.6,1.3-.2.6-.2,1.3,0,2.1.2.7.6,1.4,1.1,1.9.5.5,1,.9,1.4,1.2h0c-.3-.2-.9-.6-1.4-1.2-.3-.3-.5-.6-.7-1-.2-.3-.4-.8-.5-1.2-.2-.8-.2-1.6,0-2.2.2-.6.4-1,.6-1.3h0Z"/>
                </g>
                <g class="cls-16">
                  <path class="cls-15" d="M27.5,96h0c-.2-.1-.5-.3-.7-.4-.3-.2-.6-.4-.9-.5-.7-.3-1.4-.7-2.1-1-.9-.3-1.6-.4-2.3-.4-.7,0-1.2,0-1.5.1,0-.1-.2-.2-.2-.3.3,0,.8-.1,1.5,0,.7,0,1.5.1,2.3.5.4.1.9.3,1.3.5.2,0,.4.2.6.3.2,0,.4.2.6.3.4.2.7.4.9.6.3.2.5.3.7.4h0,0Z"/>
                </g>
                <g class="cls-16">
                  <path class="cls-15" d="M31.6,93.8c0,0,.1,0,.2.1,0,.3-.1.8,0,1.4,0,.3,0,.6.2,1,.1.4.3.7.5,1,.8,1.3,2.4,1.9,3.3,2.2h0c-.8-.2-2.7-.9-3.6-2.3-.1-.2-.2-.3-.3-.5,0-.2-.1-.4-.2-.5-.1-.4-.2-.7-.2-1,0-.6,0-1.1.1-1.4h0Z"/>
                </g>
                <g class="cls-16">
                  <path class="cls-15" d="M33.4,99h0c-.5,0-1.1-.2-1.8-.4-.4,0-.7-.1-1.1-.2-.4,0-.8,0-1.2,0-.9,0-1.7.2-2.3.4-.6.2-1.1.4-1.4.6-.1,0-.2-.1-.3-.2.3-.2.8-.4,1.4-.6.6-.2,1.5-.4,2.4-.3.4,0,.9,0,1.3,0,.4,0,.8.2,1.3.2.8.1,1.5.4,1.9.4h0Z"/>
                </g>
                <g class="cls-16">
                  <path class="cls-15" d="M36.6,95.7c0,0,.2,0,.2,0,0,.3.1.8.4,1.4.2.6.6,1.2,1.3,1.7.3.2.6.4,1,.6.3.1.7.2,1.1.3.7.2,1.4.2,1.8.1h0c-.8.1-2.8,0-4.2-1-.7-.5-1.1-1.2-1.3-1.7-.2-.6-.3-1.1-.3-1.4h0Z"/>
                </g>
                <g class="cls-16">
                  <path class="cls-15" d="M39.9,100h0c-.5,0-1.1.1-1.9.3-.4,0-.7.1-1.1.2-.4,0-.8.2-1.2.3-.8.3-1.5.7-2.1,1.1-.5.4-.9.8-1.1,1-.1,0-.3,0-.4,0,.4-.5,1.6-1.5,3.3-2.1.2,0,.4-.1.6-.2.2,0,.4-.1.7-.2.4,0,.9-.1,1.3-.2.8-.1,1.5-.1,1.9-.2h0Z"/>
                </g>
                <path class="cls-5" d="M19.5,79.9c0,3.2.8,6.4,2.3,9.2.7,1.4,1.7,2.7,2.7,4,.6.6,1.1,1.2,1.7,1.7.3.3.6.6.9.8l1,.7c1.3.9,2.7,1.7,4.2,2.3l.6.2.6.2c.4.1.8.2,1.1.4.8.2,1.6.4,2.3.5,3.2.5,6.4,0,9.4-.9"/>
                <path class="cls-15" d="M19.5,80.6c0-.2-.2-.4-.3-.7-.1-.3-.2-.6-.3-1,0-.4-.2-.8-.2-1.3,0-.5,0-1,0-1.5,0-.5.2-1,.4-1.4,0-.2.2-.4.3-.6.1-.2.2-.4.3-.5.4-.7.9-1.1,1.2-1.4,0,.4,0,1,0,1.8,0,.2,0,.4,0,.6,0,.2,0,.4,0,.6,0,.4,0,.9-.2,1.3,0,.4-.2.9-.3,1.3-.1.4-.2.8-.4,1.2-.1.4-.3.7-.4,1-.1.3-.2.5-.3.7h0Z"/>
                <g class="cls-16">
                  <path class="cls-15" d="M20.8,76.5c0,0,0,.2,0,.2.2-1.7,0-3.3,0-4.1-.1.1-.3.3-.5.5-.2.2-.4.5-.6.8-.4.6-.8,1.5-1,2.4,0,0,0-.2,0-.3,0-.5.2-1,.4-1.4,0-.2.2-.4.3-.6.1-.2.2-.4.3-.5.4-.7.9-1.1,1.2-1.4,0,.4,0,1,0,1.8,0,.2,0,.4,0,.6,0,.2,0,.4,0,.6,0,.4,0,.9-.2,1.3h0Z"/>
                </g>
              </g>
            </g>
          </g>
        </g>
        <path class="cls-17" d="M29.8,68.6h3.6c.7,0,1.3.2,1.7.6.4.4.6.9.6,1.6s-.2,1.3-.6,1.7c-.4.4-1,.6-1.7.6h-2.6v2.8h-1v-7.3ZM33.3,72.3c.4,0,.7-.1,1-.4.2-.2.4-.6.4-1s-.1-.8-.3-1c-.2-.2-.5-.4-1-.4h-2.5v2.8h2.5,0ZM38.3,76.1c-.5,0-.9-.1-1.3-.3-.4-.2-.6-.6-.6-1.2s.3-1.2,1-1.5c.6-.3,1.6-.4,2.8-.4v-.6c0-.3,0-.6-.3-.7-.2-.2-.5-.3-1-.3s-.8,0-1,.3c-.2.2-.3.4-.3.6h0c0,.1-.9.1-.9.1,0,0,0-.1,0-.2,0-.5.2-.9.6-1.2.4-.3,1-.4,1.7-.4s1.2.1,1.6.4c.4.3.5.7.5,1.2v3.1c0,.1,0,.2.1.3,0,0,.2,0,.3,0h.4v.6c-.2,0-.4.1-.7.1s-.4,0-.6-.2c-.2-.2-.3-.3-.3-.6h0c-.2.3-.5.5-.8.6-.3.2-.7.2-1.1.2h0ZM38.6,75.3c.3,0,.5,0,.8-.2.2-.1.5-.3.6-.5.2-.2.2-.5.2-.8v-.4c-.9,0-1.6,0-2.1.2-.5.1-.7.4-.7.8s0,.5.3.7c.2.1.5.2.8.2h0ZM42.8,70.3h.7v.8h.2c.1-.3.3-.5.5-.7.2-.2.5-.3.8-.3s.2,0,.3,0c.1,0,.2,0,.2,0v.9h-.4c-.4,0-.7.1-1,.4-.3.2-.4.6-.4,1.1v3.3h-.9v-5.6h0ZM47.6,76.1c-.4,0-.7-.1-.8-.3-.2-.2-.3-.5-.3-.8v-3.8h-.7v-.8h.7l.2-1.6h.7v1.6h1v.8h-1v3.7c0,.3.2.5.5.5h.5v.6c0,0-.2,0-.4.1-.2,0-.3,0-.4,0ZM49.3,70.3h.7v.8h.2c.4-.6,1-.9,1.9-.9s1,.2,1.3.5c.3.3.5.8.5,1.5v3.8h-.9v-3.8c0-.4-.1-.8-.3-.9-.2-.2-.5-.3-.9-.3s-.5,0-.7.2c-.2.1-.4.3-.5.6-.1.3-.2.5-.2.9v3.3h-.9v-5.6h0ZM57.6,76.1c-.9,0-1.6-.2-2-.7-.4-.5-.7-1.2-.7-2.2s.2-1.7.7-2.2c.4-.5,1.1-.7,2-.7s1.4.2,1.8.7c.4.4.6,1.1.6,2.1v.5h-4.1c0,.6.2,1.1.5,1.4.3.3.7.5,1.3.5s.8-.1,1.1-.3c.3-.2.4-.5.4-1h.9c0,.7-.2,1.2-.7,1.5-.4.4-1,.5-1.7.5h0ZM59.1,72.6c0-1.1-.5-1.6-1.4-1.6s-.9.1-1.2.4c-.3.3-.4.7-.5,1.3h3.1ZM61.2,70.3h.7v.8h.2c.1-.3.3-.5.5-.7.2-.2.5-.3.8-.3s.2,0,.3,0c.1,0,.2,0,.2,0v.9h-.4c-.4,0-.7.1-1,.4-.3.2-.4.6-.4,1.1v3.3h-.9v-5.6h0Z"/>
        <path class="cls-11" d="M36.7,45.8c0,.6,0,1,.2,1.4.1.3.3.7.5,1.1,0,.1.1.2.1.4,0,.2,0,.3-.3.5l-1,.7c-.1,0-.3.1-.4.1s-.3,0-.5-.2c-.2-.2-.4-.5-.6-.7-.2-.3-.3-.6-.5-.9-1.2,1.4-2.7,2.1-4.6,2.1s-2.3-.4-3.1-1.1c-.8-.7-1.1-1.7-1.1-3s.5-2.4,1.4-3.2c.9-.8,2.2-1.2,3.8-1.2s1.1,0,1.6.1c.6,0,1.2.2,1.8.3v-1.1c0-1.2-.2-2-.7-2.5-.5-.5-1.3-.7-2.5-.7s-1.1,0-1.7.2c-.6.1-1.1.3-1.7.5-.2.1-.4.2-.5.2-.1,0-.2,0-.2,0-.2,0-.3-.2-.3-.5v-.8c0-.2,0-.4.1-.5,0-.1.2-.2.4-.3.5-.3,1.2-.5,2-.7.8-.2,1.6-.3,2.4-.3,1.8,0,3.2.4,4.1,1.3.9.8,1.3,2.1,1.3,3.8v5h0,0ZM30.4,48.2c.5,0,1,0,1.6-.3.6-.2,1.1-.5,1.5-1,.2-.3.4-.6.5-1,0-.4.2-.8.2-1.3v-.7c-.4-.1-.9-.2-1.4-.3-.5,0-1,0-1.5,0-1,0-1.8.2-2.3.6-.5.4-.8,1-.8,1.8s.2,1.3.6,1.6c.4.4.9.6,1.6.6h0ZM42.9,49.9c-.3,0-.5,0-.6-.2-.1,0-.2-.3-.3-.6l-3.6-12c0-.3-.1-.5-.1-.6,0-.2.1-.4.4-.4h1.5c.3,0,.5,0,.6.2.1,0,.2.3.3.6l2.6,10.2,2.4-10.2c0-.3.2-.5.3-.6.1,0,.3-.2.6-.2h1.2c.3,0,.5,0,.6.2.1,0,.2.3.3.6l2.4,10.4,2.7-10.4c0-.3.2-.5.3-.6.1,0,.3-.2.6-.2h1.4c.2,0,.4.1.4.4s0,.2,0,.2c0,0,0,.2-.1.4l-3.7,12c0,.3-.2.5-.3.6-.1,0-.3.2-.6.2h-1.3c-.3,0-.5,0-.6-.2-.1-.1-.2-.3-.3-.6l-2.4-10-2.4,10c0,.3-.2.5-.3.6-.1.1-.3.2-.6.2h-1.3ZM62.7,50.3c-.8,0-1.6,0-2.4-.3-.8-.2-1.4-.4-1.8-.6-.2-.1-.4-.3-.5-.4,0-.1,0-.3,0-.4v-.8c0-.3.1-.5.4-.5s.2,0,.3,0c0,0,.2,0,.4.2.5.2,1.1.4,1.7.5.6.1,1.2.2,1.8.2,1,0,1.7-.2,2.3-.5.5-.3.8-.8.8-1.5s-.1-.8-.4-1.1c-.3-.3-.8-.6-1.6-.8l-2.2-.7c-1.1-.4-2-.9-2.5-1.6-.5-.7-.8-1.4-.8-2.2s.1-1.2.4-1.7c.3-.5.7-.9,1.1-1.3.5-.4,1-.6,1.6-.8.6-.2,1.3-.3,2-.3s.7,0,1,0c.4,0,.7.1,1,.2.3,0,.6.2.9.2.3,0,.5.2.7.3.2.1.4.2.5.4,0,.1.1.3.1.5v.7c0,.3-.1.5-.4.5s-.3,0-.6-.2c-.9-.4-1.9-.6-3-.6s-1.6.1-2.1.4c-.5.3-.7.7-.7,1.4s.2.8.5,1.1c.3.3.9.6,1.7.9l2.2.7c1.1.4,1.9.9,2.4,1.5.5.6.7,1.4.7,2.2s-.1,1.3-.4,1.8c-.3.5-.7,1-1.1,1.4-.5.4-1.1.7-1.7.9-.7.2-1.4.3-2.2.3h0Z"/>
        <path class="cls-10" d="M65.7,57.8c-5.1,3.8-12.5,5.8-18.8,5.8s-16.9-3.3-23-8.8c-.5-.4,0-1,.5-.7,6.6,3.8,14.7,6.1,23,6.1s11.9-1.2,17.6-3.6c.9-.4,1.6.6.7,1.2Z"/>
        <path class="cls-10" d="M67.8,55.4c-.7-.8-4.3-.4-6-.2-.5,0-.6-.4-.1-.7,2.9-2,7.7-1.5,8.2-.8.6.7-.2,5.5-2.9,7.8-.4.4-.8.2-.6-.3.6-1.5,2-5,1.3-5.8h0Z"/>
      </g>
    </g>
  </g>
</svg>