<?xml version="1.0" encoding="UTF-8"?>
<svg xmlns="http://www.w3.org/2000/svg" xmlns:xlink="http://www.w3.org/1999/xlink" version="1.1" viewBox="0 0 93.5 140.8">
  <defs>
    <style>
      .cls-1 {
        stroke: #d7d7d7;
      }

      .cls-1, .cls-2, .cls-3, .cls-4, .cls-5, .cls-6 {
        fill: none;
      }

      .cls-7 {
        mask: url(#mask);
      }

      .cls-8 {
        stroke: #353535;
      }

      .cls-8, .cls-9 {
        fill: #fff;
      }

      .cls-10 {
        fill: #292929;
      }

      .cls-2 {
        stroke: #fbbc05;
      }

      .cls-2, .cls-3, .cls-4, .cls-6 {
        stroke-width: 2px;
      }

      .cls-3 {
        stroke: #4285f4;
      }

      .cls-11 {
        isolation: isolate;
      }

      .cls-12 {
        mask: url(#mask-2);
      }

      .cls-13 {
        mask: url(#mask-1);
      }

      .cls-14 {
        fill: #848484;
      }

      .cls-4 {
        stroke: #34a853;
      }

      .cls-15 {
        mix-blend-mode: color-dodge;
      }

      .cls-16 {
        fill: #4a4a4a;
      }

      .cls-5 {
        stroke: #848484;
        stroke-miterlimit: 10;
      }

      .cls-17 {
        fill: #29b5e8;
      }

      .cls-6 {
        stroke: #ea4335;
      }
    </style>
    <mask id="mask" x="0" y="8.3" width="93.5" height="109.6" maskUnits="userSpaceOnUse">
      <g id="mask10_0_1">
        <path class="cls-9" d="M93,8.8H.5v108.6h92.5V8.8Z"/>
      </g>
    </mask>
    <mask id="mask-1" x="46.8" y="67.2" width="34.1" height="40.3" maskUnits="userSpaceOnUse">
      <g id="mask11_0_1">
        <path class="cls-9" d="M57.9,67.2l-11.1,32.4,23,7.9,11.1-32.4-23-7.9Z"/>
      </g>
    </mask>
    <mask id="mask-2" x="12.5" y="67.2" width="34.1" height="40.3" maskUnits="userSpaceOnUse">
      <g id="mask12_0_1">
        <path class="cls-9" d="M35.5,67.2l-23,7.9,11.1,32.4,23-7.9-11.1-32.4Z"/>
      </g>
    </mask>
  </defs>
  <!-- Generator: Adobe Illustrator 28.6.0, SVG Export Plug-In . SVG Version: 1.2.0 Build 709)  -->
  <g class="cls-11">
    <g id="Layer_1">
      <g>
        <path class="cls-1" d="M65.5.5H28.3v139.3l19.2-14.1,18,14.1V.5Z"/>
        <path class="cls-8" d="M46.5,9.5c25.3,0,45.8,20.5,45.8,45.8v16.1c0,25.3-20.5,45.8-45.8,45.8S.8,96.6.8,71.3v-16.1C.8,30,21.2,9.5,46.5,9.5Z"/>
        <g class="cls-7">
          <g>
            <path class="cls-4" d="M10.6,26.9C4.6,34.7,1,44.4,1,55v16.1c0,10.6,3.6,20.3,9.6,28.1"/>
            <path class="cls-3" d="M82.9,26.9c-8.4-10.8-21.4-17.7-36.1-17.7s-27.8,6.9-36.1,17.7"/>
            <path class="cls-2" d="M82.9,99.2c6-7.8,9.6-17.5,9.6-28.1v-16.1c0-10.6-3.6-20.3-9.6-28.1"/>
            <path class="cls-6" d="M10.6,99.2c8.4,10.8,21.4,17.7,36.1,17.7s27.8-6.9,36.1-17.7"/>
            <g class="cls-13">
              <g>
                <path class="cls-14" d="M72.3,87.6c.3-.8.7-2.8,0-4.3-.6-1.6-2-2.2-2.6-2.4,0,.7,0,2.2.5,3.7.5,1.5,1.5,2.6,2,3h0Z"/>
                <path class="cls-14" d="M73.1,85.2c.6,0,2.2-.3,3.3-1.9.3-.4.5-.8.7-1.3,0-.2.2-.5.3-.7,0-.2.1-.5.2-.7.1-.5.2-.9.2-1.3,0-.4,0-.7,0-1-.3.1-.8.4-1.3.9-.3.2-.5.5-.8.8-.3.3-.5.6-.8,1-.2.4-.5.8-.7,1.2-.2.4-.4.8-.5,1.2-.3.7-.5,1.4-.7,1.8h0Z"/>
                <path class="cls-14" d="M68.8,93.2c.3-.3.6-.9,1-1.6.2-.4.3-.8.4-1.2,0-.4.2-.8.1-1.3,0-.8-.4-1.5-.7-2-.3-.5-.7-.9-1-1.1,0,.2-.1.4-.2.6,0,.2-.1.6-.2.9-.1.7-.3,1.4-.3,2.2,0,.8.1,1.5.3,2.1.2.6.4,1.1.6,1.4h0Z"/>
                <path class="cls-14" d="M70.3,91.2c.3,0,.8.2,1.5.1.3,0,.7,0,1.1-.2.4-.1.8-.3,1.2-.6.8-.5,1.5-1.4,2-2.2.5-.8.8-1.6,1-2.1-.6,0-2.1.5-3.6,1.6-.2.1-.3.3-.5.4-.2.2-.3.3-.5.5-.2.2-.3.3-.4.5-.2.2-.3.3-.4.5-.1.2-.3.3-.4.4-.1.1-.2.3-.3.4-.2.2-.4.5-.5.6h0Z"/>
                <path class="cls-14" d="M63.7,97.4c.3-.3.9-.6,1.4-1.2.3-.3.5-.6.7-1,.2-.3.4-.8.5-1.2.2-.8.2-1.6,0-2.2-.2-.6-.4-1.1-.6-1.3-.4.5-1.3,1.8-1.8,3.2-.2.8-.3,1.5-.4,2.1,0,.6,0,1.2,0,1.5Z"/>
                <path class="cls-14" d="M65.8,96c.3.2.7.4,1.4.6.6.2,1.4.2,2.4,0,.5-.1.9-.3,1.3-.6.4-.2.9-.5,1.2-.8.7-.6,1.3-1.2,1.6-1.7-.3,0-.8-.1-1.5,0-.7,0-1.5.1-2.3.5-.4.1-.9.3-1.3.5-.2,0-.4.2-.6.3-.2,0-.4.2-.6.3-.4.2-.7.4-.9.6-.3.2-.5.3-.7.4Z"/>
                <path class="cls-14" d="M57.5,99.7c.8-.2,2.7-.9,3.6-2.3.1-.2.2-.3.3-.5,0-.2.1-.4.2-.5.1-.4.2-.7.2-1,0-.6,0-1.1-.1-1.4-.3.2-.7.5-1.2.9-.5.4-1.1,1-1.5,1.5-.2.3-.4.6-.6,1-.2.3-.3.6-.4.9-.2.6-.3,1.1-.4,1.4h0Z"/>
                <path class="cls-14" d="M60,99c.2.2.6.7,1.1,1,.5.3,1.3.7,2.3.7,1.9.1,4.1-1,4.9-1.6-.3-.2-.8-.4-1.4-.6-.6-.2-1.5-.4-2.4-.3-.4,0-.9,0-1.3,0-.4,0-.8.2-1.3.2-.8.1-1.5.4-1.9.4h0Z"/>
                <path class="cls-14" d="M50.9,99.8c.8,0,2.8,0,4.2-1,.7-.5,1.1-1.2,1.3-1.7.2-.6.3-1.1.3-1.4-.3.1-.9.2-1.5.5-.3.1-.6.2-1,.4-.2,0-.3.2-.5.3-.2,0-.3.2-.5.3-1.3.9-2.1,2.1-2.4,2.7h0Z"/>
                <path class="cls-14" d="M53.5,100c.2.6.8,2,2.6,2.8,1.8.8,4.2.4,5.1,0-.4-.5-1.6-1.5-3.3-2.1-.2,0-.4-.1-.6-.2-.2,0-.4-.1-.7-.2-.4,0-.9-.1-1.3-.2-.8-.1-1.5-.1-1.9-.2h0Z"/>
                <g class="cls-15">
                  <path class="cls-14" d="M69.8,80.9v.3c.6.2,1.9.9,2.5,2.4.6,1.4.3,3.1,0,4h0c.3-.8.7-2.7,0-4.3-.6-1.6-2-2.2-2.6-2.4h0Z"/>
                </g>
                <g class="cls-15">
                  <path class="cls-14" d="M73.1,85.2h0c.4-.9.9-2.5,1.8-3.8,1-1.5,2.3-2.3,2.9-2.6,0-.1,0-.3,0-.4-.3.2-.8.4-1.3.9-.3.2-.5.5-.8.8-.3.3-.5.6-.8,1-.2.4-.5.8-.7,1.2-.2.4-.4.8-.5,1.2-.3.7-.5,1.4-.7,1.8h0Z"/>
                </g>
                <g class="cls-15">
                  <path class="cls-14" d="M68.6,86c0,0,0,.2,0,.2.2.2.6.6.9,1.1.3.5.6,1.2.7,2,0,.7-.2,1.5-.4,2.2-.3.6-.6,1.2-.9,1.6h0c.3-.3.6-.9,1-1.6.2-.4.3-.8.4-1.2,0-.4.2-.8.1-1.3,0-.8-.4-1.5-.7-2-.3-.5-.7-.9-1-1.1Z"/>
                </g>
                <g class="cls-15">
                  <path class="cls-14" d="M70.3,91.2h0c.2-.2.3-.4.5-.6.2-.2.4-.5.7-.8.5-.5,1.1-1.1,1.7-1.6.4-.3.7-.5,1.1-.7.3-.2.7-.3,1-.5.6-.2,1.2-.3,1.5-.4,0-.1,0-.3.1-.4-.6,0-2.1.5-3.6,1.6-.2.1-.4.3-.5.4-.2.2-.3.3-.5.5-.2.2-.3.3-.4.5-.2.2-.3.3-.4.5-.1.2-.3.3-.4.4-.1.1-.2.3-.3.4-.2.2-.4.5-.5.6h0Z"/>
                </g>
                <g class="cls-15">
                  <path class="cls-14" d="M65.8,90.5c0,0,0,.1-.2.2.2.3.4.7.6,1.3.2.6.2,1.3,0,2.1-.2.7-.6,1.4-1.1,1.9-.5.5-1,.9-1.4,1.2h0c.3-.2.9-.6,1.4-1.2.3-.3.5-.6.7-1,.2-.3.4-.8.5-1.2.2-.8.2-1.6,0-2.2-.2-.6-.4-1-.6-1.3h0Z"/>
                </g>
                <g class="cls-15">
                  <path class="cls-14" d="M65.8,96h0c.2-.1.5-.3.7-.4.3-.2.6-.4.9-.5.7-.3,1.4-.7,2.1-1,.9-.3,1.6-.4,2.3-.4.7,0,1.2,0,1.5.1,0-.1.2-.2.2-.3-.3,0-.8-.1-1.5,0-.7,0-1.5.1-2.3.5-.4.1-.9.3-1.3.5-.2,0-.4.2-.6.3-.2,0-.4.2-.6.3-.4.2-.7.4-.9.6-.3.2-.5.3-.7.4h0Z"/>
                </g>
                <g class="cls-15">
                  <path class="cls-14" d="M61.7,93.8c0,0-.1,0-.2.1,0,.3.1.8,0,1.4,0,.3,0,.6-.2,1-.1.4-.3.7-.5,1-.8,1.3-2.4,1.9-3.3,2.2h0c.8-.2,2.7-.9,3.6-2.3.1-.2.2-.3.3-.5,0-.2.1-.4.2-.5.1-.4.2-.7.2-1,0-.6,0-1.1-.1-1.4h0Z"/>
                </g>
                <g class="cls-15">
                  <path class="cls-14" d="M60,99h0c.5,0,1.1-.2,1.8-.4.4,0,.7-.1,1.1-.2s.8,0,1.2,0c.9,0,1.7.2,2.3.4.6.2,1.1.4,1.4.6.1,0,.2-.1.3-.2-.3-.2-.8-.4-1.4-.6-.6-.2-1.5-.4-2.4-.3-.4,0-.9,0-1.3,0-.4,0-.8.2-1.3.2-.8.1-1.5.4-1.9.4h0Z"/>
                </g>
                <g class="cls-15">
                  <path class="cls-14" d="M56.8,95.7c0,0-.2,0-.2,0,0,.3-.1.8-.4,1.4-.2.6-.6,1.2-1.3,1.7-.3.2-.6.4-1,.6-.3.1-.7.2-1.1.3-.7.2-1.4.1-1.8.1h0c.8.1,2.8,0,4.2-1,.7-.5,1.1-1.2,1.3-1.7.2-.6.3-1.1.3-1.4h0Z"/>
                </g>
                <g class="cls-15">
                  <path class="cls-14" d="M53.5,100h0c.5,0,1.1.1,1.9.3.4,0,.7.1,1.1.2.4,0,.8.2,1.2.3.8.3,1.5.7,2.1,1.1.5.4.9.8,1.1,1,.1,0,.3,0,.4,0-.4-.5-1.6-1.5-3.3-2.1-.2,0-.4-.1-.6-.2-.2,0-.4-.1-.7-.2-.4,0-.9-.1-1.3-.2-.8-.1-1.5-.1-1.9-.2Z"/>
                </g>
                <path class="cls-5" d="M73.9,79.9c0,3.2-.8,6.4-2.3,9.2-.7,1.4-1.7,2.7-2.7,4-.6.6-1.1,1.2-1.7,1.7-.3.3-.6.6-.9.8l-1,.7c-1.3.9-2.7,1.7-4.2,2.3l-.6.2-.6.2c-.4.1-.8.2-1.1.4-.8.2-1.6.4-2.3.5-3.2.5-6.4,0-9.4-.9"/>
                <path class="cls-14" d="M73.9,80.6c0-.2.2-.4.3-.7.1-.3.2-.6.3-1,0-.4.2-.8.2-1.3,0-.5,0-1,0-1.5,0-.5-.2-1-.4-1.4,0-.2-.2-.4-.3-.6-.1-.2-.2-.4-.3-.5-.4-.7-.9-1.1-1.2-1.4,0,.4,0,1,0,1.8,0,.2,0,.4,0,.6,0,.2,0,.4,0,.6,0,.4,0,.9.2,1.3,0,.4.2.9.3,1.3.1.4.2.8.4,1.2.1.4.3.7.4,1,.1.3.2.5.3.7h0Z"/>
                <g class="cls-15">
                  <path class="cls-14" d="M72.5,76.5c0,0,0,.2,0,.2-.2-1.7,0-3.3,0-4.1.1.1.3.3.5.5.2.2.4.5.6.8.4.6.8,1.5,1,2.4,0,0,0-.2,0-.3,0-.5-.2-1-.4-1.4,0-.2-.2-.4-.3-.6-.1-.2-.2-.4-.3-.5-.4-.7-.9-1.1-1.2-1.4,0,.4,0,1,0,1.8,0,.2,0,.4,0,.6,0,.2,0,.4,0,.6,0,.4,0,.9.2,1.3h0Z"/>
                </g>
              </g>
            </g>
            <g class="cls-12">
              <g>
                <path class="cls-14" d="M21.1,87.6c-.3-.8-.7-2.8,0-4.3.6-1.6,2-2.2,2.6-2.4,0,.7,0,2.2-.5,3.7-.5,1.5-1.5,2.6-2,3h0Z"/>
                <path class="cls-14" d="M20.2,85.2c-.6,0-2.2-.3-3.3-1.9-.3-.4-.5-.8-.7-1.3,0-.2-.2-.5-.3-.7,0-.2-.1-.5-.2-.7-.1-.5-.2-.9-.2-1.3,0-.4,0-.7,0-1,.3.1.8.4,1.3.9.3.2.5.5.8.8.3.3.5.6.8,1,.2.4.5.8.7,1.2.2.4.4.8.5,1.2.3.7.5,1.4.7,1.8h0Z"/>
                <path class="cls-14" d="M24.6,93.2c-.3-.3-.6-.9-1-1.6-.2-.4-.3-.8-.4-1.2,0-.4-.2-.8-.1-1.3,0-.8.4-1.5.7-2,.3-.5.7-.9,1-1.1,0,.2.1.4.2.6,0,.2.1.6.2.9.1.7.3,1.4.3,2.2,0,.8-.1,1.5-.3,2.1-.2.6-.4,1.1-.6,1.4h0Z"/>
                <path class="cls-14" d="M23,91.2c-.3,0-.8.2-1.5.1-.3,0-.7,0-1.1-.2-.4-.1-.8-.3-1.2-.6-.8-.5-1.5-1.4-2-2.2-.5-.8-.8-1.6-1-2.1.6,0,2.1.5,3.6,1.6.2.1.3.3.5.4.2.2.3.3.5.5.2.2.3.3.4.5.2.2.3.3.4.5.1.2.3.3.4.4.1.1.2.3.3.4.2.2.4.5.5.6h0Z"/>
                <path class="cls-14" d="M29.7,97.4c-.3-.3-.9-.6-1.4-1.2-.3-.3-.5-.6-.7-1-.2-.3-.4-.8-.5-1.2-.2-.8-.2-1.6,0-2.2.2-.6.4-1.1.6-1.3.4.5,1.3,1.8,1.8,3.2.2.8.3,1.5.4,2.1,0,.6,0,1.2,0,1.5h0Z"/>
                <path class="cls-14" d="M27.6,96c-.3.2-.7.4-1.4.6-.6.2-1.4.2-2.4,0-.5-.1-.9-.3-1.3-.6-.4-.2-.9-.5-1.2-.8-.7-.6-1.3-1.2-1.6-1.7.3,0,.8-.1,1.5,0,.7,0,1.5.1,2.3.5.4.1.9.3,1.3.5.2,0,.4.2.6.3.2,0,.4.2.6.3.4.2.7.4.9.6.3.2.5.3.7.4Z"/>
                <path class="cls-14" d="M35.8,99.7c-.8-.2-2.7-.9-3.6-2.3-.1-.2-.2-.3-.3-.5,0-.2-.1-.4-.2-.5-.1-.4-.2-.7-.2-1,0-.6,0-1.1.1-1.4.3.2.7.5,1.2.9.5.4,1.1,1,1.5,1.5.2.3.4.6.6,1,.2.3.3.6.4.9.2.6.3,1.1.4,1.4h0Z"/>
                <path class="cls-14" d="M33.4,99c-.2.2-.6.7-1.1,1-.5.3-1.3.7-2.3.7-1.9.1-4.1-1-4.9-1.6.3-.2.8-.4,1.4-.6.6-.2,1.5-.4,2.4-.3.4,0,.9,0,1.3,0,.4,0,.8.2,1.3.2.8.1,1.5.4,1.9.4h0Z"/>
                <path class="cls-14" d="M42.4,99.8c-.8,0-2.8,0-4.2-1-.7-.5-1.1-1.2-1.3-1.7-.2-.6-.3-1.1-.3-1.4.3.1.9.2,1.5.5.3.1.6.2,1,.4.2,0,.3.2.5.3.2,0,.3.2.5.3,1.3.9,2.1,2.1,2.4,2.7h0Z"/>
                <path class="cls-14" d="M39.9,100c-.2.6-.8,2-2.6,2.8-1.8.8-4.2.4-5.1,0,.4-.5,1.6-1.5,3.3-2.1.2,0,.4-.1.6-.2.2,0,.4-.1.7-.2.4,0,.9-.1,1.3-.2.8-.1,1.5-.1,1.9-.2h0Z"/>
                <g class="cls-15">
                  <path class="cls-14" d="M23.5,80.9v.3c-.6.2-1.9.9-2.5,2.4-.6,1.4-.3,3.1,0,4h0c-.3-.8-.7-2.7,0-4.3.6-1.6,2-2.2,2.6-2.4h0Z"/>
                </g>
                <g class="cls-15">
                  <path class="cls-14" d="M20.2,85.2h0c-.4-.9-.9-2.5-1.8-3.8-1-1.5-2.3-2.3-2.9-2.6,0-.1,0-.3,0-.4.3.2.8.4,1.3.9.3.2.5.5.8.8.3.3.5.6.8,1,.2.4.5.8.7,1.2.2.4.4.8.5,1.2.3.7.5,1.4.7,1.8h0Z"/>
                </g>
                <g class="cls-15">
                  <path class="cls-14" d="M24.8,86c0,0,0,.2,0,.2-.2.2-.6.6-.9,1.1-.3.5-.6,1.2-.7,2,0,.7.2,1.5.4,2.2.3.6.6,1.2.9,1.6h0c-.3-.3-.6-.9-1-1.6-.2-.4-.3-.8-.4-1.2,0-.4-.2-.8-.1-1.3,0-.8.4-1.5.7-2,.3-.5.7-.9,1-1.1Z"/>
                </g>
                <g class="cls-15">
                  <path class="cls-14" d="M23,91.2h0c-.2-.2-.3-.4-.5-.6-.2-.2-.4-.5-.7-.8-.5-.5-1.1-1.1-1.7-1.6-.4-.3-.7-.5-1.1-.7-.3-.2-.7-.3-1-.5-.6-.2-1.2-.3-1.5-.4,0-.1,0-.3-.1-.4.6,0,2.1.5,3.6,1.6.2.1.3.3.5.4.2.2.3.3.5.5.2.2.3.3.4.5.2.2.3.3.4.5.1.2.3.3.4.4.1.1.2.3.3.4.2.2.4.5.5.6h0Z"/>
                </g>
                <g class="cls-15">
                  <path class="cls-14" d="M27.6,90.5c0,0,0,.1.2.2-.2.3-.4.7-.6,1.3-.2.6-.2,1.3,0,2.1.2.7.6,1.4,1.1,1.9.5.5,1,.9,1.4,1.2h0c-.3-.2-.9-.6-1.4-1.2-.3-.3-.5-.6-.7-1-.2-.3-.4-.8-.5-1.2-.2-.8-.2-1.6,0-2.2.2-.6.4-1,.6-1.3h0Z"/>
                </g>
                <g class="cls-15">
                  <path class="cls-14" d="M27.6,96h0c-.2-.1-.5-.3-.7-.4-.3-.2-.6-.4-.9-.5-.7-.3-1.4-.7-2.1-1-.9-.3-1.6-.4-2.3-.4-.7,0-1.2,0-1.5.1,0-.1-.2-.2-.2-.3.3,0,.8-.1,1.5,0,.7,0,1.5.1,2.3.5.4.1.9.3,1.3.5.2,0,.4.2.6.3.2,0,.4.2.6.3.4.2.7.4.9.6.3.2.5.3.7.4h0,0Z"/>
                </g>
                <g class="cls-15">
                  <path class="cls-14" d="M31.6,93.8c0,0,.1,0,.2.1,0,.3-.1.8,0,1.4,0,.3,0,.6.2,1,.1.4.3.7.5,1,.8,1.3,2.4,1.9,3.3,2.2h0c-.8-.2-2.7-.9-3.6-2.3-.1-.2-.2-.3-.3-.5,0-.2-.1-.4-.2-.5-.1-.4-.2-.7-.2-1,0-.6,0-1.1.1-1.4h0Z"/>
                </g>
                <g class="cls-15">
                  <path class="cls-14" d="M33.4,99h0c-.5,0-1.1-.2-1.8-.4-.4,0-.7-.1-1.1-.2-.4,0-.8,0-1.2,0-.9,0-1.7.2-2.3.4-.6.2-1.1.4-1.4.6-.1,0-.2-.1-.3-.2.3-.2.8-.4,1.4-.6.6-.2,1.5-.4,2.4-.3.4,0,.9,0,1.3,0,.4,0,.8.2,1.3.2.8.1,1.5.4,1.9.4h0Z"/>
                </g>
                <g class="cls-15">
                  <path class="cls-14" d="M36.6,95.7c0,0,.2,0,.2,0,0,.3.1.8.4,1.4.2.6.6,1.2,1.3,1.7.3.2.6.4,1,.6.3.1.7.2,1.1.3.7.2,1.4.1,1.8.1h0c-.8.1-2.8,0-4.2-1-.7-.5-1.1-1.2-1.3-1.7-.2-.6-.3-1.1-.3-1.4h0Z"/>
                </g>
                <g class="cls-15">
                  <path class="cls-14" d="M39.9,100h0c-.5,0-1.1.1-1.9.3-.4,0-.7.1-1.1.2-.4,0-.8.2-1.2.3-.8.3-1.5.7-2.1,1.1-.5.4-.9.8-1.1,1-.1,0-.3,0-.4,0,.4-.5,1.6-1.5,3.3-2.1.2,0,.4-.1.6-.2.2,0,.4-.1.7-.2.4,0,.9-.1,1.3-.2.8-.1,1.5-.1,1.9-.2h0Z"/>
                </g>
                <path class="cls-5" d="M19.5,79.9c0,3.2.8,6.4,2.3,9.2.7,1.4,1.7,2.7,2.7,4,.6.6,1.1,1.2,1.7,1.7.3.3.6.6.9.8l1,.7c1.3.9,2.7,1.7,4.2,2.3l.6.2.6.2c.4.1.8.2,1.1.4.8.2,1.6.4,2.3.5,3.2.5,6.4,0,9.4-.9"/>
                <path class="cls-14" d="M19.5,80.6c0-.2-.2-.4-.3-.7-.1-.3-.2-.6-.3-1,0-.4-.2-.8-.2-1.3,0-.5,0-1,0-1.5,0-.5.2-1,.4-1.4,0-.2.2-.4.3-.6.1-.2.2-.4.3-.5.4-.7.9-1.1,1.2-1.4,0,.4,0,1,0,1.8,0,.2,0,.4,0,.6,0,.2,0,.4,0,.6,0,.4,0,.9-.2,1.3,0,.4-.2.9-.3,1.3-.1.4-.2.8-.4,1.2-.1.4-.3.7-.4,1-.1.3-.2.5-.3.7h0Z"/>
                <g class="cls-15">
                  <path class="cls-14" d="M20.9,76.5c0,0,0,.2,0,.2.2-1.7,0-3.3,0-4.1-.1.1-.3.3-.5.5-.2.2-.4.5-.6.8-.4.6-.8,1.5-1,2.4,0,0,0-.2,0-.3,0-.5.2-1,.4-1.4,0-.2.2-.4.3-.6.1-.2.2-.4.3-.5.4-.7.9-1.1,1.2-1.4,0,.4,0,1,0,1.8,0,.2,0,.4,0,.6,0,.2,0,.4,0,.6,0,.4,0,.9-.2,1.3h0Z"/>
                </g>
              </g>
            </g>
          </g>
        </g>
        <path class="cls-16" d="M29.8,68.6h3.6c.7,0,1.3.2,1.7.6.4.4.6.9.6,1.6s-.2,1.3-.6,1.7c-.4.4-1,.6-1.7.6h-2.6v2.8h-1v-7.3ZM33.3,72.3c.4,0,.7-.1,1-.4.2-.2.4-.6.4-1s-.1-.8-.3-1c-.2-.2-.5-.4-1-.4h-2.5v2.8h2.5,0ZM38.4,76.1c-.5,0-.9-.1-1.3-.3-.4-.2-.6-.6-.6-1.2s.3-1.2,1-1.5c.6-.3,1.6-.4,2.8-.4v-.6c0-.3,0-.6-.3-.8-.2-.2-.5-.3-1-.3s-.8,0-1,.3c-.2.2-.3.4-.3.6h0c0,.1-.9.1-.9.1,0,0,0-.1,0-.2,0-.5.2-.9.6-1.2.4-.3,1-.4,1.7-.4s1.2.1,1.6.4c.4.3.5.7.5,1.2v3.1c0,.1,0,.2.1.3,0,0,.2,0,.3,0h.4v.6c-.2,0-.4.1-.7.1s-.4,0-.6-.2c-.2-.2-.3-.3-.3-.6h0c-.2.3-.5.5-.8.6-.3.2-.7.2-1.1.2h0ZM38.6,75.3c.3,0,.5,0,.8-.2.2-.1.5-.3.6-.5.2-.2.2-.5.2-.8v-.4c-.9,0-1.6,0-2.1.2-.5.1-.7.4-.7.8s0,.5.3.7c.2.1.5.2.8.2h0ZM42.8,70.3h.7v.8h.2c.1-.3.3-.5.5-.7.2-.2.5-.3.8-.3s.2,0,.3,0c.1,0,.2,0,.2,0v.9h-.4c-.4,0-.7.1-1,.4-.3.2-.4.6-.4,1.1v3.3h-.9v-5.6h0ZM47.6,76.1c-.4,0-.7-.1-.8-.3-.2-.2-.3-.5-.3-.8v-3.8h-.7v-.8h.7l.2-1.6h.7v1.6h1v.8h-1v3.7c0,.3.2.5.5.5h.5v.6c0,0-.2,0-.4.1-.2,0-.3,0-.4,0ZM49.3,70.3h.7v.8h.2c.4-.6,1-.9,1.9-.9s1,.2,1.3.5c.3.3.5.8.5,1.5v3.8h-.9v-3.8c0-.4-.1-.8-.3-.9-.2-.2-.5-.3-.9-.3s-.5,0-.8.2c-.2.1-.4.3-.5.6-.1.3-.2.5-.2.9v3.3h-.9v-5.6h0ZM57.7,76.1c-.9,0-1.6-.2-2-.7-.4-.5-.7-1.2-.7-2.2s.2-1.7.7-2.2c.4-.5,1.1-.7,2-.7s1.4.2,1.8.7c.4.4.6,1.1.6,2.1v.5h-4.1c0,.6.2,1.1.5,1.4.3.3.7.5,1.3.5s.8-.1,1.1-.3c.3-.2.4-.5.4-1h.9c0,.7-.2,1.2-.7,1.5-.4.4-1,.5-1.7.5h0ZM59.1,72.6c0-1.1-.5-1.6-1.4-1.6s-.9.1-1.2.4c-.3.3-.4.7-.5,1.3h3.1ZM61.2,70.3h.7v.8h.2c.1-.3.3-.5.5-.7.2-.2.5-.3.8-.3s.2,0,.3,0c.1,0,.2,0,.2,0v.9h-.4c-.4,0-.7.1-1,.4-.3.2-.4.6-.4,1.1v3.3h-.9v-5.6h0Z"/>
        <path class="cls-10" d="M80.2,57.2h0c0,.3-.2.5-.5.5h-6.3c0,.1,0,.3,0,.4.3,1.4,1.5,2.4,2.8,2.4h.5c.5,0,.9-.2,1.3-.5,0,0,0,0,0,0,0,0,0,0,0,0,0,0,0,0,0,0,0,0,0,0,0,0,0,0,0,0,0,0,0,0,0,0,0,0,0,0,0,0,0,0,0,0,0,0,0,0s0,0,0,0c0,0,0,0,0,0,0,0,0,0,0,0h0s0,0,0,0h0c0,0,0,0,0,0,0,0,0,0,0,0,0,0,0,0,0,0,0,0,0,0,0,0h0s0,0,0,0,0,0,0,0c0,0,0,0,0,0,0,0,0,0,0,0,0,0,0,0,0,0,0,0,0-.1.1-.2,0,0,0,0,0,0,0,0,0,0,0,0,0,0,0,0,0,0h0s0,0,0,0c0,0,0,0,0,0,0,0,0,0,0,0,0,0,0,0,0,0,0,0,0,0,0,0s0,0,0,0c0,0,0,0,0,0,0,0,0,0,0,0,0,0,0,0,.1,0s0,0,.1,0c0,0,0,0,0,0h0s0,0,0,0h0c.2.2.3.4.1.6,0,0,0,0,0,0h0c-.4.7-1.1,1.2-1.7,1.6,0,0,0,0,0,0h0c-.3.1-.6.2-1,.3h0s0,0,0,0h-.6c-2.1,0-3.8-1.8-3.8-3.9s1.7-4,3.8-4h.2c.7,0,1.4.3,2,.7h0s0,0,0,0c0,0,0,0,0,0,0,0,0,0,0,0,.8.7,1.3,1.7,1.4,2.8h0ZM73.5,56.8h5.7c-.3-1.4-1.5-2.4-2.8-2.4s-2.6,1-2.9,2.4Z"/>
        <path class="cls-10" d="M64.1,53.7c0,0,.1.2.1.3h0v7c0,.2-.2.5-.5.5s-.5-.2-.5-.5v-.9c-.2.2-.4.4-.6.6,0,0,0,0,0,0,0,0,0,0,0,0-.6.5-1.4.8-2.2.8-1.3,0-2.4-.7-3.1-1.7,0,0,0,0,0,0,0,0,0,0,0,0,0,0,0,0,0,0,0,0,0,0,0,0,0,0,0,0,0,0,0,0,0,0,0,0-.2-.5-.4-1.1-.4-1.6,0,0,0-.1,0-.2s0-.1,0-.2c0-.6.2-1.1.4-1.6,0,0,0,0,0,0,0,0,0,0,0,0,0,0,0,0,0,0,0,0,0,0,0,0,0,0,0,0,0,0,0,0,0,0,0,0,.7-1,1.8-1.7,3.1-1.7s1.7.3,2.3.9c.2.2.3.3.5.5v-.9h0c0-.2,0-.2.1-.3,0,0,0,0,0,0,0,0,0,0,0,0,0,0,0,0,0,0,0,0,0,0,0,0,0,0,0,0,0,0,0,0,0,0,0,0h0s0,0,0,0c0,0,0,0,0,0h0s0,0,0,0h0s0,0,0,0h0s0,0,0,0c0,0,0,0,0,0h0s0,0,0,0c0,0,0,0,0,0,0,0,0,0,0,0,0,0,0,0,0,0,0,0,0,0,0,0,0,0,0,0,0,0h0ZM60.5,60.5c1.6,0,2.8-1.4,2.8-3s-1.3-3.1-2.8-3.1-2.8,1.4-2.8,3.1v.2h0c0,0,0,.1,0,.2,0,0,0,0,0,0,0,0,0,0,0,0,0,0,0,0,0,0,0,0,0,0,0,0,0,0,0,0,0,0,0,0,0,0,0,.1,0,0,0,0,0,0,.3,1.3,1.4,2.3,2.7,2.3Z"/>
        <path class="cls-10" d="M52.7,50.2h-.4s0,0-.1,0h0s0,0-.1,0h0s0,0-.1,0c-.2,0-.4.1-.6.2,0,0,0,0,0,0,0,0,0,0,0,0,0,0,0,0,0,0,0,0,0,0,0,0,0,0,0,0,0,0,0,0,0,0,0,0,0,0,0,0,0,0,0,0,0,0,0,0h0s0,0,0,0c0,0,0,0,0,0,0,0,0,0,0,0,0,0,0,0,0,0,0,0,0,0,0,0,0,0,0,0,0,0,0,0,0,0,0,0,0,0,0,0,0,0-.1.2-.2.4-.3.7h0s0,0,0,.1h0c0,0,0,0,0,.1,0,0,0,0,0,0,0,0,0,0,0,0s0,0,0,0h0c0,0,0,.1,0,.2h0v.9h-.9c0,0-.1,0-.2,0-.2,0-.3.2-.3.4s0,.3.2.4c0,0,.1,0,.2,0h.9v6.6h0c0,.2,0,.2.1.3h0s0,0,0,0c0,0,0,0,0,0,0,0,0,0,0,0,0,0,0,0,0,0,0,0,.2,0,.3,0h0c0,0,.2,0,.2-.1,0,0,0,0,0,0,0,0,0,0,0,0,0,0,0,0,0,0,0,0,.1-.2.1-.3v-6.6h1c.3,0,.5-.2.5-.5h0c0-.1,0-.2-.1-.3,0,0,0,0,0,0,0,0,0,0,0,0,0,0,0,0,0,0,0,0,0,0,0,0,0,0,0,0,0,0,0,0,0,0,0,0h0s0,0,0,0h0s0,0,0,0h0s0,0,0,0h-1.1v-.8h0v-.2h0c0,0,0,0,0-.1,0-.4.1-.6.2-.8h0s0,0,0,0c0,0,0,0,0,0,0,0,0,0,0,0,0,0,0,0,0,0,.1-.1.3-.2.6-.2h.6c.3,0,.5-.2.5-.5s-.2-.5-.5-.5"/>
        <path class="cls-10" d="M55.2,50.3s0,0,0,0c0,0,0,0,0,0,0,0,0,0,0,0,0,0,0,0,0,0h0c-.2,0-.5.2-.5.5v10.3c0,.2.2.5.5.5h0s0,0,0,0c0,0,0,0,0,0h0c.2,0,.3-.2.3-.4h0v-10.4h0c0-.2-.1-.3-.3-.4"/>
        <path class="cls-10" d="M20.2,59s0,0,0,0c0,0,0,0,0,0,0,0,0,0,0,0,0,0,0,0,0,0s0,0,0,0c0,0,0,0,0,0,0,0,0,0,0,0,0,0,0,0,0,0,0,0,0,0,0,0,0,0,0,0,0,0,0,0,0,0,0,0,0,0,0,0,0,0h0c-.1-.2-.3-.4-.5-.6,0,0,0,0,0,0h0s0,0,0,0c-.2-.2-.5-.3-.9-.4,0,0,0,0,0,0,0,0,0,0,0,0-.2,0-.4-.2-.7-.2h0s0,0,0,0c0,0,0,0,0,0,0,0-.2,0-.2,0,0,0-.1,0-.2,0,0,0,0,0-.1,0,0,0,0,0,0,0-.2,0-.3-.1-.5-.2-.2,0-.4-.2-.6-.3,0,0,0,0,0,0-.2-.1-.4-.3-.4-.5h0v-.2h0s0,0,0,0h0s0,0,0,0h0s0,0,0,0c0-.3.3-.5.6-.7,0,0,0,0,0,0,0,0,0,0,0,0,0,0,0,0,0,0,0,0,0,0,0,0h0s0,0,0,0c0,0,0,0,0,0,0,0,0,0,0,0,0,0,0,0,0,0,0,0,0,0,0,0,0,0,0,0,0,0,0,0,0,0,0,0,0,0,0,0,.1,0h.3c.3,0,.6.1.8.2,0,0,0,0,0,0,0,0,0,0,0,0,0,0,0,0,0,0,0,0,0,0,0,0,0,0,0,0,0,0,0,0,0,0,0,0,0,0,0,0,0,0,0,0,0,0,0,0,0,0,.1.1.2.2,0,0,0,0,0,0,0,0,.1,0,.2.1,0,0,0,0,0,0h0s0,0,0,0c0,0,0,0,0,0,0,0,0,0,0,0,0,0,0,0,0,0,0,0,0,0,0,0,0,0,0,0,0,0h0s0,0,0,0c0,0,0,0,.1,0h0s0,0,0,0c0,0,0,0,0,0h0s0,0,0,0h0s0,0,0,0c0,0,0,0,0,0,0,0,0,0,0,0h0c0-.1,0-.3-.1-.5,0,0,0,0,0,0,0,0,0,0,0,0-.3-.4-1.1-.9-1.7-1h0s0,0,0,0h0s0,0,0,0h0s0,0,0,0h-.4s0,0-.1,0h0s0,0-.1,0h0s0,0-.1,0h0s0,0-.1,0h0c0,0-.2,0-.2,0,0,0,0,0-.1,0,0,0,0,0-.1,0h0s0,0-.1,0h0s0,0,0,0c0,0,0,0,0,0,0,0,0,0,0,0,0,0,0,0,0,0,0,0,0,0,0,0,0,0,0,0,0,0,0,0,0,0,0,0,0,0,0,0,0,0,0,0,0,0,0,0,0,0,0,0-.1,0h0c-.2.1-.3.2-.4.4,0,0,0,0,0,0,0,0,0,0,0,0,0,0,0,0,0,0,0,0,0,0,0,0,0,0,0,0,0,0,0,0,0,0,0,0-.1.2-.2.4-.2.7h0c0,0,0,.1,0,.2h0c0,.7.3,1.1.7,1.4,0,0,0,0,0,0,0,0,0,0,0,0,0,0,0,0,0,0,0,0,0,0,0,0,.4.3,1,.4,1.4.6.2,0,.4.1.5.1,0,0,0,0,0,0,.3,0,.5.2.6.2,0,0,0,0,0,0,0,0,0,0,0,0,0,0,.2,0,.3.1,0,0,.1,0,.2.1.2.1.3.2.4.4,0,0,0,0,0,0,0,0,0,0,0,0,0,0,0,0,0,0,0,0,0,0,0,0,0,0,0,0,0,0,0,0,0,0,0,0s0,0,0,0c0,0,0,0,0,0,0,0,0,0,0,0s0,0,0,0c0,0,0,0,0,0h0s0,0,0,0h0v.2h0c0,0,0,0,0,.1h0c0,0,0,.2,0,.2h0s0,0,0,0h0c0,0,0,.1-.1.2,0,0,0,0,0,0,0,0-.1,0-.2.1,0,0,0,0,0,0,0,0,0,0,0,0,0,0-.1,0-.2,0,0,0,0,0,0,0,0,0,0,0,0,0,0,0,0,0,0,0,0,0-.1,0-.2,0,0,0,0,0,0,0,0,0,0,0,0,0,0,0,0,0,0,0-.1,0-.2,0-.3,0h0s0,0-.1,0h-.2c0,0-.1,0-.2,0h0s0,0-.1,0c0,0,0,0,0,0,0,0,0,0,0,0,0,0-.1,0-.2,0,0,0,0,0,0,0,0,0,0,0,0,0,0,0,0,0,0,0,0,0,0,0,0,0,0,0-.1,0-.2,0,0,0,0,0,0,0-.1,0-.2,0-.3-.1,0,0,0,0,0,0,0,0-.2,0-.3-.2,0,0,0,0,0,0,0,0-.1,0-.2-.1,0,0,0,0,0,0h0s0,0,0,0c0,0,0,0,0,0,0,0,0,0-.1,0h0c0,0-.1,0-.2,0,0,0,0,0,0,0,0,0,0,0,0,0,0,0,0,0,0,0,0,0,0,0,0,0,0,0,0,0,0,0,0,0,0,0,0,0,0,0,0,0,0,0s0,0,0,0c0,0,0,0,0,0h0s0,0,0,0h0s0,0,0,0h0s0,0,0,0c0,0,0,0,0,0,0,0,0,0,0,0,0,0,0,0,0,0,0,0,0,.1.1.2,0,0,.1.1.2.2,0,0,0,0,0,0,0,0,0,0,0,0,0,0,.1,0,.2.1,0,0,0,0,0,0,0,0,0,0,0,0,0,0,0,0,0,0,0,0,0,0,0,0,0,0,0,0,.1,0,0,0,0,0,0,0,0,0,0,0,.1,0,0,0,0,0,0,0h0c.4.2.9.3,1.4.3h.3c.7,0,1.3-.2,1.8-.6.6-.4.9-1,.9-1.7h0v-.2"/>
        <path class="cls-10" d="M24.9,53.5h0c-.9,0-1.7.4-2.3,1v-.5c0-.3-.2-.5-.4-.5h0c-.1,0-.2,0-.3.1,0,0,0,0,0,0,0,0,0,0,0,0,0,0,0,0,0,0,0,0,0,0,0,0,0,0,0,0,0,0,0,0,0,0,0,0h0s0,0,0,0c0,0,0,0,0,0,0,0,0,0,0,0h0v7.1h0s0,0,0,0h0s0,0,0,0c0,.1.2.2.3.2h.2s0,0,0,0h0s0,0,0,0c0,0,.1,0,.2-.1h0s0,0,0-.1h0s0,0,0,0h0v-4.3c0-1.3,1.1-2.3,2.3-2.3s2.3,1,2.3,2.3v4.2h0c0,.2,0,.3.1.3,0,0,0,0,0,0,0,0,0,0,0,0s0,0,0,0c0,0,0,0,0,0,0,0,0,0,0,0,0,0,0,0,0,0h0s0,0,0,0c0,0,0,0,0,0h0s0,0,0,0h0s0,0,0,0h0s0,0,0,0h0s0,0,0,0c0,0,0,0,0,0,0,0,0,0,0,0,0,0,0,0,0,0,0,0,0,0,0,0,0,0,0,0,0,0,0,0,0,0,0,0,0,0,.1-.2.1-.3h0v-4.3c0-1.8-1.4-3.2-3.2-3.2"/>
        <path class="cls-10" d="M33.1,53.5c2.1,0,3.7,1.8,3.7,3.9s-1.7,3.9-3.7,3.9-.1,0-.2,0h0c0,0-.1,0-.2,0h0c-.8,0-1.6-.5-2.2-1.1,0,0,0,0,0,0,0,0,0,0,0,0,0,0,0,0,0,0,0,0,0,0,0,0,0,0,0,0,0,0,0,0,0,0,0-.1h0c-.4-.5-.6-1.1-.7-1.8,0,0,0-.1,0-.2h0c0,0,0-.1,0-.2h0c0,0,0-.2,0-.2s0-.1,0-.2h0c0,0,0-.1,0-.2h0c0,0,0-.1,0-.2,0-.6.3-1.2.7-1.8,0,0,0,0,0,0,0,0,0,0,0-.1,0,0,0,0,0,0,0,0,0,0,0,0,0,0,0,0,0,0s0,0,0,0c0,0,0,0,0,0,.6-.6,1.4-1,2.2-1.1h0c0,0,.1,0,.2,0h0c0,0,.1,0,.2,0h0ZM35.9,57.2c0-.7-.3-1.3-.8-1.8,0,0,0,0,0,0h0s0,0,0-.1c0,0,0,0,0,0,0,0,0,0,0,0,0,0,0,0-.1,0-.4-.3-.9-.5-1.4-.6h0s0,0-.1,0h-.3s0,0-.1,0h0c-.5,0-1,.3-1.4.6,0,0,0,0-.1,0,0,0,0,0,0,0,0,0,0,0,0,0,0,0,0,0,0,0h0s0,0,0,0c-.4.5-.7,1.1-.8,1.8,0,0,0,0,0,.1h0v.2c0,1.7,1.3,3,2.8,3s2.8-1.4,2.8-3v-.2h0c0,0,0-.1,0-.2h0Z"/>
        <path class="cls-10" d="M47.8,53.7s0,0,0,0c0,0-.1-.1-.2-.1,0,0,0,0,0,0h0c0,0-.1,0-.2,0-.1,0-.3.1-.3.2,0,0,0,0,0,0l-2.2,6-1.7-4.1s0,0,0-.1c0-.1-.2-.2-.4-.2s0,0,0,0h0c-.2,0-.3.1-.4.3l-1.7,4.1-.8-2.3-1.4-3.7s0,0,0,0c0,0-.1-.1-.2-.2,0,0,0,0-.1,0h-.2s0,0,0,0h0s0,0,0,0c0,0-.1,0-.2.2,0,0,0,0,0,0h0c0,0,0,.1,0,.2,0,0,0,.1,0,.2l1.6,4.2,1,2.7c0,.1.1.2.2.2,0,0,0,0,0,0,0,0,0,0,0,0,0,0,0,0,0,0,0,0,0,0,0,0h0s0,0,0,0h0s0,0,.1,0,0,0,0,0c0,0,0,0,0,0h0s0,0,0,0c0,0,0,0,0,0,0,0,0,0,0,0,0,0,0,0,0,0,0,0,0,0,0,0,0,0,0,0,0,0h0s0,0,0,0h0s0,0,0,0c0,0,0,0,0,0h0s1.7-4.1,1.7-4.1l1.7,4.1s0,0,0,.1c0,0,0,0,0,0,0,0,0,0,0,0,0,0,0,0,0,0,0,0,0,0,0,0,0,0,0,0,0,0,0,0,0,0,0,0h0s0,0,0,0h0s0,0,0,0c0,0,0,0,0,0h0s0,0,0,0h0s0,0,0,0c0,0,0,0,0,0,0,0,0,0,0,0h0s0,0,0,0c0,0,.1-.1.2-.2l1.1-2.9,1.5-4.1c0-.1,0-.3,0-.4,0,0,0,0,0,0"/>
        <path class="cls-10" d="M72,53.9h0c0,0,0,0,0,0,0,0,0,0,0,0,0,0,0,0,0,0h0s0,0,0,0c0,0,0,0,0-.1-.2-.2-.4-.2-.6,0,0,0,0,0,0,0,0,0,0,0,0,0,0,0,0,0,0,0l-4.5,4.3v-7.3h0c0-.2-.1-.4-.3-.4,0,0,0,0,0,0,0,0,0,0,0,0,0,0,0,0,0,0,0,0,0,0,0,0h0c-.2,0-.5.2-.5.5v10.3c0,.2.2.5.5.5h0s0,0,0,0h0s0,0,0,0h0c.2,0,.3-.2.3-.4h0v-1.8l1.5-1.5,2.9,3.5s0,0,0,0c0,0,0,0,0,0,0,0,0,0,0,0,0,0,0,0,0,0,0,0,0,0,0,0,0,0,0,0,0,0h0s0,0,0,0h0s0,0,0,0h0s0,0,0,0c0,0,.1,0,.1,0,0,0,0,0,0,0h0c.2-.2.2-.4,0-.6,0,0,0,0,0,0l-3-3.6,2.9-2.8c0,0,.1-.2.1-.3h0"/>
        <path class="cls-17" d="M56.9,40.5l-5-2.9c-.7-.4-1.6-.2-2,.5-.2.3-.2.6-.2.9v5.7c0,.8.7,1.5,1.5,1.5s1.5-.7,1.5-1.5v-3.3l2.8,1.6c.7.4,1.6.2,2-.5.4-.7.2-1.6-.5-2"/>
        <path class="cls-17" d="M44.5,34.3c0-.5-.3-1-.7-1.3l-5-2.9c-.2-.1-.5-.2-.7-.2-.5,0-1,.3-1.2.7-.4.7-.2,1.6.5,2l2.9,1.7-2.9,1.7c-.3.2-.6.5-.7.9s0,.8.1,1.1c.3.4.7.7,1.2.7s.5,0,.7-.2l5-2.9c.4-.3.7-.7.7-1.3"/>
        <path class="cls-17" d="M39.9,28.1l5,2.9c.6.3,1.3.2,1.8-.2.3-.3.5-.7.5-1.1v-5.8c0-.8-.7-1.5-1.5-1.5s-1.5.7-1.5,1.5v3.3l-2.8-1.6c-.7-.4-1.6-.2-2,.5-.4.7-.2,1.6.5,2"/>
        <path class="cls-17" d="M51.1,34.5c0,.1,0,.3-.1.3l-2,2c0,0-.2.1-.3.1h-.5c-.1,0-.3,0-.3-.1l-2-2c0,0-.1-.2-.1-.3v-.5c0-.1,0-.3.1-.3l2-2c0,0,.2-.1.3-.1h.5c.1,0,.3,0,.3.1l2,2c0,0,.1.2.1.3v.5ZM49.4,34.3h0c0-.1,0-.2-.1-.3l-.6-.6c0,0-.2-.1-.3-.1h0c0,0-.2,0-.3.1l-.6.6c0,0-.1.2-.1.3h0c0,.1,0,.2.1.3l.6.6c0,0,.2.1.3.1h0c0,0,.2,0,.3-.1l.6-.6c0,0,.1-.2.1-.3Z"/>
        <path class="cls-17" d="M51.9,31l5-2.9c.7-.4.9-1.3.5-2-.4-.7-1.3-.9-2-.5l-2.8,1.6v-3.3c0-.8-.7-1.5-1.5-1.5s-1.5.7-1.5,1.5v5.7c0,.3,0,.6.2.9.4.7,1.3.9,2,.5"/>
        <path class="cls-17" d="M45.9,37.4c-.3,0-.7,0-1,.2l-5,2.9c-.7.4-.9,1.3-.5,2,.4.7,1.3.9,2,.5l2.8-1.6v3.3c0,.8.7,1.5,1.5,1.5s1.5-.7,1.5-1.5v-5.8c0-.7-.5-1.3-1.2-1.4"/>
        <path class="cls-17" d="M60,30.6c-.4-.7-1.3-.9-2-.5l-5,2.9c-.5.3-.7.8-.7,1.3,0,.5.3,1,.7,1.3l5,2.9c.7.4,1.6.2,2-.5.4-.7.2-1.6-.5-2l-2.8-1.6,2.8-1.6c.7-.4.9-1.3.5-2Z"/>
      </g>
    </g>
  </g>
</svg>