<?xml version="1.0" encoding="UTF-8"?>
<svg xmlns="http://www.w3.org/2000/svg" xmlns:xlink="http://www.w3.org/1999/xlink" version="1.1" viewBox="0 0 93.5 140.8">
  <defs>
    <style>
      .cls-1 {
        stroke: #d7d7d7;
      }

      .cls-1, .cls-2, .cls-3, .cls-4, .cls-5, .cls-6 {
        fill: none;
      }

      .cls-7 {
        mask: url(#mask);
      }

      .cls-8 {
        fill: #4285f4;
      }

      .cls-9 {
        stroke: #353535;
      }

      .cls-9, .cls-10 {
        fill: #fff;
      }

      .cls-11 {
        fill: #292929;
      }

      .cls-12 {
        fill: #fbbc05;
      }

      .cls-2 {
        stroke: #fbbc05;
      }

      .cls-2, .cls-3, .cls-4, .cls-6 {
        stroke-width: 2px;
      }

      .cls-3 {
        stroke: #4285f4;
      }

      .cls-13 {
        isolation: isolate;
      }

      .cls-14 {
        mask: url(#mask-2);
      }

      .cls-15 {
        mask: url(#mask-3);
      }

      .cls-16 {
        mask: url(#mask-1);
      }

      .cls-17 {
        fill: #34a853;
      }

      .cls-18 {
        fill: #848484;
      }

      .cls-4 {
        stroke: #34a853;
      }

      .cls-19 {
        fill: #ea4335;
      }

      .cls-20 {
        mix-blend-mode: color-dodge;
      }

      .cls-21 {
        fill: #4a4a4a;
      }

      .cls-5 {
        stroke: #848484;
        stroke-miterlimit: 10;
      }

      .cls-6 {
        stroke: #ea4335;
      }
    </style>
    <mask id="mask" x="0" y="8.3" width="93.5" height="109.6" maskUnits="userSpaceOnUse">
      <g id="mask3_0_1">
        <path class="cls-10" d="M93,8.8H.5v108.6h92.5V8.8Z"/>
      </g>
    </mask>
    <mask id="mask-1" x="46.8" y="67.2" width="34.1" height="40.3" maskUnits="userSpaceOnUse">
      <g id="mask4_0_1">
        <path class="cls-10" d="M57.9,67.2l-11.1,32.4,23,7.9,11.1-32.4-23-7.9Z"/>
      </g>
    </mask>
    <mask id="mask-2" x="12.5" y="67.2" width="34.1" height="40.3" maskUnits="userSpaceOnUse">
      <g id="mask5_0_1">
        <path class="cls-10" d="M35.5,67.2l-23,7.9,11.1,32.4,23-7.9-11.1-32.4Z"/>
      </g>
    </mask>
    <mask id="mask-3" x="17.1" y="53.6" width="58.5" height="11.8" maskUnits="userSpaceOnUse">
      <g id="mask6_0_1">
        <path class="cls-10" d="M75.6,53.6H17.1v11.8h58.5v-11.8Z"/>
      </g>
    </mask>
  </defs>
  <!-- Generator: Adobe Illustrator 28.6.0, SVG Export Plug-In . SVG Version: 1.2.0 Build 709)  -->
  <g class="cls-13">
    <g id="Layer_1">
      <g>
        <path class="cls-1" d="M65.5.5H28.3v139.3l19.2-14.1,18,14.1V.5Z"/>
        <path class="cls-9" d="M46.5,9.5c25.3,0,45.8,20.5,45.8,45.8v16.1c0,25.3-20.5,45.8-45.8,45.8S.8,96.6.8,71.3v-16.1C.8,30,21.2,9.5,46.5,9.5Z"/>
        <g class="cls-7">
          <g>
            <path class="cls-4" d="M10.6,26.9C4.6,34.7,1,44.4,1,55v16.1c0,10.6,3.6,20.3,9.6,28.1"/>
            <path class="cls-3" d="M82.9,26.9c-8.4-10.8-21.4-17.7-36.1-17.7s-27.8,6.9-36.1,17.7"/>
            <path class="cls-2" d="M82.9,99.2c6-7.8,9.6-17.5,9.6-28.1v-16.1c0-10.6-3.6-20.3-9.6-28.1"/>
            <path class="cls-6" d="M10.6,99.2c8.4,10.8,21.4,17.7,36.1,17.7s27.8-6.9,36.1-17.7"/>
            <g class="cls-16">
              <g>
                <path class="cls-18" d="M72.3,87.6c.3-.8.7-2.8,0-4.3-.6-1.6-2-2.2-2.6-2.4,0,.7,0,2.2.5,3.7.5,1.5,1.5,2.6,2,3h0Z"/>
                <path class="cls-18" d="M73.1,85.2c.6,0,2.2-.3,3.3-1.9.3-.4.5-.8.7-1.3,0-.2.2-.5.3-.7,0-.2.1-.5.2-.7.1-.5.2-.9.2-1.3,0-.4,0-.7,0-1-.3.1-.8.4-1.3.9-.3.2-.5.5-.8.8-.3.3-.5.6-.8,1-.2.4-.5.8-.7,1.2-.2.4-.4.8-.5,1.2-.3.7-.5,1.4-.7,1.8h0Z"/>
                <path class="cls-18" d="M68.8,93.2c.3-.3.6-.9,1-1.6.2-.4.3-.8.4-1.2,0-.4.2-.8.1-1.3,0-.8-.4-1.5-.7-2-.3-.5-.7-.9-1-1.1,0,.2-.1.4-.2.6,0,.2-.1.6-.2.9-.1.7-.3,1.4-.3,2.2,0,.8.1,1.5.3,2.1.2.6.4,1.1.6,1.4h0Z"/>
                <path class="cls-18" d="M70.3,91.2c.3,0,.8.2,1.5.1.3,0,.7,0,1.1-.2.4-.1.8-.3,1.2-.6.8-.5,1.5-1.4,2-2.2.5-.8.8-1.6,1-2.1-.6,0-2.1.5-3.6,1.6-.2.1-.3.3-.5.4-.2.2-.3.3-.5.5-.2.2-.3.3-.4.5-.2.2-.3.3-.4.5-.1.2-.3.3-.4.4-.1.1-.2.3-.3.4-.2.2-.4.5-.5.6h0Z"/>
                <path class="cls-18" d="M63.7,97.4c.3-.3.9-.6,1.4-1.2.3-.3.5-.6.7-1,.2-.3.4-.8.5-1.2.2-.8.2-1.6,0-2.2-.2-.6-.4-1.1-.6-1.3-.4.5-1.3,1.8-1.8,3.2-.2.8-.3,1.5-.4,2.1,0,.6,0,1.2,0,1.5Z"/>
                <path class="cls-18" d="M65.8,96c.3.2.7.4,1.4.6.6.2,1.4.2,2.4,0,.5-.1.9-.3,1.3-.6.4-.2.9-.5,1.2-.8.7-.6,1.3-1.2,1.6-1.7-.3,0-.8-.1-1.5,0-.7,0-1.5.1-2.3.5-.4.1-.9.3-1.3.5-.2,0-.4.2-.6.3-.2,0-.4.2-.6.3-.4.2-.7.4-.9.6-.3.2-.5.3-.7.4Z"/>
                <path class="cls-18" d="M57.5,99.7c.8-.2,2.7-.9,3.6-2.3.1-.2.2-.3.3-.5,0-.2.1-.4.2-.5.1-.4.2-.7.2-1,0-.6,0-1.1-.1-1.4-.3.2-.7.5-1.2.9-.5.4-1.1,1-1.5,1.5-.2.3-.4.6-.6,1-.2.3-.3.6-.4.9-.2.6-.3,1.1-.4,1.4h0Z"/>
                <path class="cls-18" d="M60,99c.2.2.6.7,1.1,1,.5.3,1.3.7,2.3.7,1.9.1,4.1-1,4.9-1.6-.3-.2-.8-.4-1.4-.6-.6-.2-1.5-.4-2.4-.3-.4,0-.9,0-1.3,0-.4,0-.8.2-1.3.2-.8.1-1.5.4-1.9.4h0Z"/>
                <path class="cls-18" d="M50.9,99.8c.8,0,2.8,0,4.2-1,.7-.5,1.1-1.2,1.3-1.7.2-.6.3-1.1.3-1.4-.3.1-.9.2-1.5.5-.3.1-.6.2-1,.4-.2,0-.3.2-.5.3-.2,0-.3.2-.5.3-1.3.9-2.1,2.1-2.4,2.7h0Z"/>
                <path class="cls-18" d="M53.5,100c.2.6.8,2,2.6,2.8,1.8.8,4.2.4,5.1,0-.4-.5-1.6-1.5-3.3-2.1-.2,0-.4-.1-.6-.2-.2,0-.4-.1-.7-.2-.4,0-.9-.1-1.3-.2-.8-.1-1.5-.1-1.9-.2h0Z"/>
                <g class="cls-20">
                  <path class="cls-18" d="M69.8,80.9v.3c.6.2,1.9.9,2.5,2.4.6,1.4.3,3.1,0,4h0c.3-.8.7-2.7,0-4.3-.6-1.6-2-2.2-2.6-2.4h0Z"/>
                </g>
                <g class="cls-20">
                  <path class="cls-18" d="M73.1,85.2h0c.4-.9.9-2.5,1.8-3.8,1-1.5,2.3-2.3,2.9-2.6,0-.1,0-.3,0-.4-.3.2-.8.4-1.3.9-.3.2-.5.5-.8.8-.3.3-.5.6-.8,1-.2.4-.5.8-.7,1.2-.2.4-.4.8-.5,1.2-.3.7-.5,1.4-.7,1.8h0Z"/>
                </g>
                <g class="cls-20">
                  <path class="cls-18" d="M68.6,86c0,0,0,.2,0,.2.2.2.6.6.9,1.1.3.5.6,1.2.7,2,0,.7-.2,1.5-.4,2.2-.3.6-.6,1.2-.9,1.6h0c.3-.3.6-.9,1-1.6.2-.4.3-.8.4-1.2,0-.4.2-.8.1-1.3,0-.8-.4-1.5-.7-2-.3-.5-.7-.9-1-1.1Z"/>
                </g>
                <g class="cls-20">
                  <path class="cls-18" d="M70.3,91.2h0c.2-.2.3-.4.5-.6.2-.2.4-.5.7-.8.5-.5,1.1-1.1,1.7-1.6.4-.3.7-.5,1.1-.7.3-.2.7-.3,1-.5.6-.2,1.2-.3,1.5-.4,0-.1,0-.3.1-.4-.6,0-2.1.5-3.6,1.6-.2.1-.4.3-.5.4-.2.2-.3.3-.5.5-.2.2-.3.3-.4.5-.2.2-.3.3-.4.5-.1.2-.3.3-.4.4-.1.1-.2.3-.3.4-.2.2-.4.5-.5.6h0Z"/>
                </g>
                <g class="cls-20">
                  <path class="cls-18" d="M65.8,90.5c0,0,0,.1-.2.2.2.3.4.7.6,1.3.2.6.2,1.3,0,2.1-.2.7-.6,1.4-1.1,1.9-.5.5-1,.9-1.4,1.2h0c.3-.2.9-.6,1.4-1.2.3-.3.5-.6.7-1,.2-.3.4-.8.5-1.2.2-.8.2-1.6,0-2.2-.2-.6-.4-1-.6-1.3h0Z"/>
                </g>
                <g class="cls-20">
                  <path class="cls-18" d="M65.8,96h0c.2-.1.5-.3.7-.4.3-.2.6-.4.9-.5.7-.3,1.4-.7,2.1-1,.9-.3,1.6-.4,2.3-.4.7,0,1.2,0,1.5.1,0-.1.2-.2.2-.3-.3,0-.8-.1-1.5,0-.7,0-1.5.1-2.3.5-.4.1-.9.3-1.3.5-.2,0-.4.2-.6.3-.2,0-.4.2-.6.3-.4.2-.7.4-.9.6-.3.2-.5.3-.7.4h0Z"/>
                </g>
                <g class="cls-20">
                  <path class="cls-18" d="M61.7,93.8c0,0-.1,0-.2.1,0,.3.1.8,0,1.4,0,.3,0,.6-.2,1-.1.4-.3.7-.5,1-.8,1.3-2.4,1.9-3.3,2.2h0c.8-.2,2.7-.9,3.6-2.3.1-.2.2-.3.3-.5,0-.2.1-.4.2-.5.1-.4.2-.7.2-1,0-.6,0-1.1-.1-1.4h0Z"/>
                </g>
                <g class="cls-20">
                  <path class="cls-18" d="M60,99h0c.5,0,1.1-.2,1.8-.4.4,0,.7-.1,1.1-.2.4,0,.8,0,1.2,0,.9,0,1.7.2,2.3.4.6.2,1.1.4,1.4.6.1,0,.2-.1.3-.2-.3-.2-.8-.4-1.4-.6-.6-.2-1.5-.4-2.4-.3-.4,0-.9,0-1.3,0-.4,0-.8.2-1.3.2-.8.1-1.5.4-1.9.4h0Z"/>
                </g>
                <g class="cls-20">
                  <path class="cls-18" d="M56.8,95.7c0,0-.2,0-.2,0,0,.3-.1.8-.4,1.4-.2.6-.6,1.2-1.3,1.7-.3.2-.6.4-1,.6-.3.1-.7.2-1.1.3-.7.2-1.4.2-1.8.1h0c.8.1,2.8,0,4.2-1,.7-.5,1.1-1.2,1.3-1.7.2-.6.3-1.1.3-1.4h0Z"/>
                </g>
                <g class="cls-20">
                  <path class="cls-18" d="M53.5,100h0c.5,0,1.1.1,1.9.3.4,0,.7.1,1.1.2.4,0,.8.2,1.2.3.8.3,1.5.7,2.1,1.1.5.4.9.8,1.1,1,.1,0,.3,0,.4,0-.4-.5-1.6-1.5-3.3-2.1-.2,0-.4-.1-.6-.2-.2,0-.4-.1-.7-.2-.4,0-.9-.1-1.3-.2-.8-.1-1.5-.1-1.9-.2Z"/>
                </g>
                <path class="cls-5" d="M73.9,79.9c0,3.2-.8,6.4-2.3,9.2-.7,1.4-1.7,2.7-2.7,4-.6.6-1.1,1.2-1.7,1.7-.3.3-.6.6-.9.8l-1,.7c-1.3.9-2.7,1.7-4.2,2.3l-.6.2-.6.2c-.4.1-.8.2-1.1.4-.8.2-1.6.4-2.3.5-3.2.5-6.4,0-9.4-.9"/>
                <path class="cls-18" d="M73.9,80.6c0-.2.2-.4.3-.7.1-.3.2-.6.3-1,0-.4.2-.8.2-1.3,0-.5,0-1,0-1.5,0-.5-.2-1-.4-1.4,0-.2-.2-.4-.3-.6-.1-.2-.2-.4-.3-.5-.4-.7-.9-1.1-1.2-1.4,0,.4,0,1,0,1.8,0,.2,0,.4,0,.6,0,.2,0,.4,0,.6,0,.4,0,.9.2,1.3,0,.4.2.9.3,1.3.1.4.2.8.4,1.2.1.4.3.7.4,1,.1.3.2.5.3.7h0Z"/>
                <g class="cls-20">
                  <path class="cls-18" d="M72.5,76.5c0,0,0,.2,0,.2-.2-1.7,0-3.3,0-4.1.1.1.3.3.5.5.2.2.4.5.6.8.4.6.8,1.5,1,2.4,0,0,0-.2,0-.3,0-.5-.2-1-.4-1.4,0-.2-.2-.4-.3-.6-.1-.2-.2-.4-.3-.5-.4-.7-.9-1.1-1.2-1.4,0,.4,0,1,0,1.8,0,.2,0,.4,0,.6,0,.2,0,.4,0,.6,0,.4,0,.9.2,1.3h0Z"/>
                </g>
              </g>
            </g>
            <g class="cls-14">
              <g>
                <path class="cls-18" d="M21.1,87.6c-.3-.8-.7-2.8,0-4.3.6-1.6,2-2.2,2.6-2.4,0,.7,0,2.2-.5,3.7-.5,1.5-1.5,2.6-2,3h0Z"/>
                <path class="cls-18" d="M20.2,85.2c-.6,0-2.2-.3-3.3-1.9-.3-.4-.5-.8-.7-1.3,0-.2-.2-.5-.3-.7,0-.2-.1-.5-.2-.7-.1-.5-.2-.9-.2-1.3,0-.4,0-.7,0-1,.3.1.8.4,1.3.9.3.2.5.5.8.8.3.3.5.6.8,1,.2.4.5.8.7,1.2.2.4.4.8.5,1.2.3.7.5,1.4.7,1.8h0Z"/>
                <path class="cls-18" d="M24.6,93.2c-.3-.3-.6-.9-1-1.6-.2-.4-.3-.8-.4-1.2,0-.4-.2-.8-.1-1.3,0-.8.4-1.5.7-2,.3-.5.7-.9,1-1.1,0,.2.1.4.2.6,0,.2.1.6.2.9.1.7.3,1.4.3,2.2,0,.8-.1,1.5-.3,2.1-.2.6-.4,1.1-.6,1.4h0Z"/>
                <path class="cls-18" d="M23,91.2c-.3,0-.8.2-1.5.1-.3,0-.7,0-1.1-.2-.4-.1-.8-.3-1.2-.6-.8-.5-1.5-1.4-2-2.2-.5-.8-.8-1.6-1-2.1.6,0,2.1.5,3.6,1.6.2.1.3.3.5.4.2.2.3.3.5.5.2.2.3.3.4.5.2.2.3.3.4.5.1.2.3.3.4.4.1.1.2.3.3.4.2.2.4.5.5.6h0Z"/>
                <path class="cls-18" d="M29.7,97.4c-.3-.3-.9-.6-1.4-1.2-.3-.3-.5-.6-.7-1-.2-.3-.4-.8-.5-1.2-.2-.8-.2-1.6,0-2.2.2-.6.4-1.1.6-1.3.4.5,1.3,1.8,1.8,3.2.2.8.3,1.5.4,2.1,0,.6,0,1.2,0,1.5h0Z"/>
                <path class="cls-18" d="M27.6,96c-.3.2-.7.4-1.4.6-.6.2-1.4.2-2.4,0-.5-.1-.9-.3-1.3-.6-.4-.2-.9-.5-1.2-.8-.7-.6-1.3-1.2-1.6-1.7.3,0,.8-.1,1.5,0,.7,0,1.5.1,2.3.5.4.1.9.3,1.3.5.2,0,.4.2.6.3.2,0,.4.2.6.3.4.2.7.4.9.6.3.2.5.3.7.4Z"/>
                <path class="cls-18" d="M35.8,99.7c-.8-.2-2.7-.9-3.6-2.3-.1-.2-.2-.3-.3-.5,0-.2-.1-.4-.2-.5-.1-.4-.2-.7-.2-1,0-.6,0-1.1.1-1.4.3.2.7.5,1.2.9.5.4,1.1,1,1.5,1.5.2.3.4.6.6,1,.2.3.3.6.4.9.2.6.3,1.1.4,1.4h0Z"/>
                <path class="cls-18" d="M33.4,99c-.2.2-.6.7-1.1,1-.5.3-1.3.7-2.3.7-1.9.1-4.1-1-4.9-1.6.3-.2.8-.4,1.4-.6.6-.2,1.5-.4,2.4-.3.4,0,.9,0,1.3,0,.4,0,.8.2,1.3.2.8.1,1.5.4,1.9.4h0Z"/>
                <path class="cls-18" d="M42.4,99.8c-.8,0-2.8,0-4.2-1-.7-.5-1.1-1.2-1.3-1.7-.2-.6-.3-1.1-.3-1.4.3.1.9.2,1.5.5.3.1.6.2,1,.4.2,0,.3.2.5.3.2,0,.3.2.5.3,1.3.9,2.1,2.1,2.4,2.7h0Z"/>
                <path class="cls-18" d="M39.9,100c-.2.6-.8,2-2.6,2.8-1.8.8-4.2.4-5.1,0,.4-.5,1.6-1.5,3.3-2.1.2,0,.4-.1.6-.2.2,0,.4-.1.7-.2.4,0,.9-.1,1.3-.2.8-.1,1.5-.1,1.9-.2h0Z"/>
                <g class="cls-20">
                  <path class="cls-18" d="M23.5,80.9v.3c-.6.2-1.9.9-2.5,2.4-.6,1.4-.3,3.1,0,4h0c-.3-.8-.7-2.7,0-4.3.6-1.6,2-2.2,2.6-2.4h0Z"/>
                </g>
                <g class="cls-20">
                  <path class="cls-18" d="M20.2,85.2h0c-.4-.9-.9-2.5-1.8-3.8-1-1.5-2.3-2.3-2.9-2.6,0-.1,0-.3,0-.4.3.2.8.4,1.3.9.3.2.5.5.8.8.3.3.5.6.8,1,.2.4.5.8.7,1.2.2.4.4.8.5,1.2.3.7.5,1.4.7,1.8h0Z"/>
                </g>
                <g class="cls-20">
                  <path class="cls-18" d="M24.8,86c0,0,0,.2,0,.2-.2.2-.6.6-.9,1.1-.3.5-.6,1.2-.7,2,0,.7.2,1.5.4,2.2.3.6.6,1.2.9,1.6h0c-.3-.3-.6-.9-1-1.6-.2-.4-.3-.8-.4-1.2,0-.4-.2-.8-.1-1.3,0-.8.4-1.5.7-2,.3-.5.7-.9,1-1.1Z"/>
                </g>
                <g class="cls-20">
                  <path class="cls-18" d="M23,91.2h0c-.2-.2-.3-.4-.5-.6-.2-.2-.4-.5-.7-.8-.5-.5-1.1-1.1-1.7-1.6-.4-.3-.7-.5-1.1-.7-.3-.2-.7-.3-1-.5-.6-.2-1.2-.3-1.5-.4,0-.1,0-.3-.1-.4.6,0,2.1.5,3.6,1.6.2.1.3.3.5.4.2.2.3.3.5.5.2.2.3.3.4.5.2.2.3.3.4.5.1.2.3.3.4.4.1.1.2.3.3.4.2.2.4.5.5.6h0Z"/>
                </g>
                <g class="cls-20">
                  <path class="cls-18" d="M27.6,90.5c0,0,0,.1.2.2-.2.3-.4.7-.6,1.3-.2.6-.2,1.3,0,2.1.2.7.6,1.4,1.1,1.9.5.5,1,.9,1.4,1.2h0c-.3-.2-.9-.6-1.4-1.2-.3-.3-.5-.6-.7-1-.2-.3-.4-.8-.5-1.2-.2-.8-.2-1.6,0-2.2.2-.6.4-1,.6-1.3h0Z"/>
                </g>
                <g class="cls-20">
                  <path class="cls-18" d="M27.6,96h0c-.2-.1-.5-.3-.7-.4-.3-.2-.6-.4-.9-.5-.7-.3-1.4-.7-2.1-1-.9-.3-1.6-.4-2.3-.4-.7,0-1.2,0-1.5.1,0-.1-.2-.2-.2-.3.3,0,.8-.1,1.5,0,.7,0,1.5.1,2.3.5.4.1.9.3,1.3.5.2,0,.4.2.6.3.2,0,.4.2.6.3.4.2.7.4.9.6.3.2.5.3.7.4h0,0Z"/>
                </g>
                <g class="cls-20">
                  <path class="cls-18" d="M31.6,93.8c0,0,.1,0,.2.1,0,.3-.1.8,0,1.4,0,.3,0,.6.2,1,.1.4.3.7.5,1,.8,1.3,2.4,1.9,3.3,2.2h0c-.8-.2-2.7-.9-3.6-2.3-.1-.2-.2-.3-.3-.5,0-.2-.1-.4-.2-.5-.1-.4-.2-.7-.2-1,0-.6,0-1.1.1-1.4h0Z"/>
                </g>
                <g class="cls-20">
                  <path class="cls-18" d="M33.4,99h0c-.5,0-1.1-.2-1.8-.4-.4,0-.7-.1-1.1-.2-.4,0-.8,0-1.2,0-.9,0-1.7.2-2.3.4-.6.2-1.1.4-1.4.6-.1,0-.2-.1-.3-.2.3-.2.8-.4,1.4-.6.6-.2,1.5-.4,2.4-.3.4,0,.9,0,1.3,0,.4,0,.8.2,1.3.2.8.1,1.5.4,1.9.4h0Z"/>
                </g>
                <g class="cls-20">
                  <path class="cls-18" d="M36.6,95.7c0,0,.2,0,.2,0,0,.3.1.8.4,1.4.2.6.6,1.2,1.3,1.7.3.2.6.4,1,.6.3.1.7.2,1.1.3.7.2,1.4.2,1.8.1h0c-.8.1-2.8,0-4.2-1-.7-.5-1.1-1.2-1.3-1.7-.2-.6-.3-1.1-.3-1.4h0Z"/>
                </g>
                <g class="cls-20">
                  <path class="cls-18" d="M39.9,100h0c-.5,0-1.1.1-1.9.3-.4,0-.7.1-1.1.2-.4,0-.8.2-1.2.3-.8.3-1.5.7-2.1,1.1-.5.4-.9.8-1.1,1-.1,0-.3,0-.4,0,.4-.5,1.6-1.5,3.3-2.1.2,0,.4-.1.6-.2.2,0,.4-.1.7-.2.4,0,.9-.1,1.3-.2.8-.1,1.5-.1,1.9-.2h0Z"/>
                </g>
                <path class="cls-5" d="M19.5,79.9c0,3.2.8,6.4,2.3,9.2.7,1.4,1.7,2.7,2.7,4,.6.6,1.1,1.2,1.7,1.7.3.3.6.6.9.8l1,.7c1.3.9,2.7,1.7,4.2,2.3l.6.2.6.2c.4.1.8.2,1.1.4.8.2,1.6.4,2.3.5,3.2.5,6.4,0,9.4-.9"/>
                <path class="cls-18" d="M19.5,80.6c0-.2-.2-.4-.3-.7-.1-.3-.2-.6-.3-1,0-.4-.2-.8-.2-1.3,0-.5,0-1,0-1.5,0-.5.2-1,.4-1.4,0-.2.2-.4.3-.6.1-.2.2-.4.3-.5.4-.7.9-1.1,1.2-1.4,0,.4,0,1,0,1.8,0,.2,0,.4,0,.6,0,.2,0,.4,0,.6,0,.4,0,.9-.2,1.3,0,.4-.2.9-.3,1.3-.1.4-.2.8-.4,1.2-.1.4-.3.7-.4,1-.1.3-.2.5-.3.7h0Z"/>
                <g class="cls-20">
                  <path class="cls-18" d="M20.9,76.5c0,0,0,.2,0,.2.2-1.7,0-3.3,0-4.1-.1.1-.3.3-.5.5-.2.2-.4.5-.6.8-.4.6-.8,1.5-1,2.4,0,0,0-.2,0-.3,0-.5.2-1,.4-1.4,0-.2.2-.4.3-.6.1-.2.2-.4.3-.5.4-.7.9-1.1,1.2-1.4,0,.4,0,1,0,1.8,0,.2,0,.4,0,.6,0,.2,0,.4,0,.6,0,.4,0,.9-.2,1.3h0Z"/>
                </g>
              </g>
            </g>
          </g>
        </g>
        <path class="cls-19" d="M51,30.2h1l2.8-2.9v-1.2c-5.1-4.7-13-4.2-17.7,1.1-1.3,1.5-2.2,3.2-2.7,5.1.3-.1.7-.2,1,0l5.6-.9s.3-.5.4-.5c2.5-2.8,6.7-3.1,9.6-.7h0s0,0,0,0Z"/>
        <path class="cls-8" d="M58.8,32.3c-.6-2.4-2-4.6-3.8-6.2l-3.9,4c1.7,1.4,2.6,3.5,2.6,5.6v.7c1.9,0,3.5,1.6,3.5,3.6s-1.6,3.6-3.5,3.6h-7l-.7.7v4.3l.7.7h7c5,0,9.1-4.1,9.1-9.2,0-3.1-1.5-6-4-7.7h0Z"/>
        <path class="cls-17" d="M39.4,49.2h7.1v-5.5h-7.1c-.5,0-1-.1-1.5-.3l-1,.3-2.8,2.7-.2,1c1.6,1.2,3.5,1.8,5.6,1.8h0Z"/>
        <path class="cls-12" d="M39.7,30.8c-5,0-9.1,4.3-9,9.4,0,2.9,1.3,5.6,3.6,7.4l4.1-4.2c-1.8-.8-2.5-3-1.7-4.8.8-1.8,2.9-2.6,4.6-1.8.8.4,1.4,1,1.7,1.8l4.1-4.2c-1.7-2.3-4.4-3.7-7.3-3.7h0Z"/>
        <g class="cls-15">
          <g>
            <path class="cls-11" d="M22,63.1c-1.1,0-2.1-.4-2.8-1.2-.8-.7-1.2-1.7-1.2-2.8,0-1.1.4-2.1,1.2-2.8.7-.8,1.8-1.2,2.8-1.2,1,0,2,.4,2.7,1.1l-.8.8c-.5-.5-1.2-.8-2-.8-.8,0-1.5.3-2,.9-.5.5-.8,1.3-.8,2,0,.8.3,1.5.8,2,1.1,1.1,2.9,1.1,4,0,.3-.4.5-.8.6-1.3h-2.6v-1.1h3.6c0,.2,0,.4,0,.7,0,.9-.3,1.8-.9,2.5-.7.7-1.7,1.1-2.8,1.1h0ZM30.4,62.4c-1,1-2.6,1-3.6,0-.5-.5-.8-1.1-.7-1.8,0-.7.2-1.3.7-1.8,1-1,2.6-1,3.6,0,.5.5.8,1.1.7,1.8,0,.7-.3,1.3-.7,1.8h0ZM27.6,61.7c.5.6,1.4.6,2,0,0,0,0,0,0,0,.3-.3.4-.7.4-1.1,0-.4-.1-.8-.4-1.1-.5-.6-1.4-.6-2,0,0,0,0,0,0,0-.3.3-.4.7-.4,1.1,0,.4.1.8.4,1.1h0ZM36,62.4c-1,1-2.6,1-3.6,0-.5-.5-.8-1.1-.7-1.8,0-.7.2-1.3.7-1.8,1-1,2.6-1,3.6,0,.5.5.8,1.1.7,1.8,0,.7-.2,1.3-.7,1.8ZM33.2,61.7c.5.6,1.4.6,2,0,0,0,0,0,0,0,.3-.3.4-.7.4-1.1,0-.4-.1-.8-.4-1.1-.5-.6-1.4-.6-2,0,0,0,0,0,0,0-.3.3-.4.7-.4,1.1,0,.4.1.8.4,1.1h0ZM39.7,65.4c-.5,0-1-.1-1.4-.5-.4-.3-.7-.6-.8-1.1l1-.4c.1.2.3.5.5.6.2.2.5.3.8.3.4,0,.7-.1,1-.4.3-.3.4-.7.4-1.1v-.4h0c-.3.4-.8.6-1.3.6-.7,0-1.3-.3-1.7-.7-.5-.5-.7-1.1-.7-1.8,0-.7.3-1.3.7-1.8.4-.5,1.1-.7,1.7-.7s.5,0,.8.2c.2,0,.4.2.6.4h0v-.4h1.1v4.6c0,.7-.2,1.4-.7,2-.5.4-1.1.7-1.7.7h0ZM39.7,62.1c.4,0,.7-.2,1-.4.3-.3.4-.7.4-1.1,0-.4-.1-.8-.4-1.1-.2-.3-.6-.4-1-.4-.4,0-.7.2-1,.4-.3.3-.4.7-.4,1.1,0,.4.1.8.4,1.1.3.3.6.4,1,.4ZM44,55.5v7.5h-1.1v-7.5h1.1ZM47.1,63.1c-.7,0-1.3-.2-1.8-.7-.5-.5-.7-1.1-.7-1.8,0-.7.2-1.3.7-1.8.4-.5,1.1-.7,1.7-.7.3,0,.6,0,.9.2.2,0,.5.2.7.4.2.2.3.3.4.5,0,.2.2.3.3.5v.3c.1,0-3.3,1.4-3.3,1.4.2.5.7.8,1.2.8.5,0,1-.3,1.3-.7l.9.6c-.2.3-.5.6-.8.8-.4.2-.8.4-1.3.4ZM45.6,60.5l2.3-.9c0-.2-.2-.3-.4-.4-.2-.1-.4-.2-.6-.2-.3,0-.7.2-.9.4-.3.3-.4.7-.4,1.1h0Z"/>
            <path class="cls-11" d="M55.1,63.1c-1.9,0-3.6-1.5-3.6-3.5h0c0-2.1,1.5-3.7,3.5-3.7h.1c1,0,1.9.4,2.5,1.1l-.6.6c-.5-.6-1.2-.9-1.9-.9-.7,0-1.4.3-1.9.8-.5.5-.8,1.2-.8,2,0,.7.2,1.5.8,2,.5.5,1.2.8,1.9.8.8,0,1.6-.4,2.1-1l.6.6c-.3.4-.7.7-1.2.9-.5.2-1,.3-1.6.3h0Z"/>
            <path class="cls-11" d="M59.5,63h-.9v-6.9h.9v6.9Z"/>
            <path class="cls-11" d="M61,58.8c1-1,2.5-1,3.5,0,.5.5.7,1.1.7,1.8,0,.7-.2,1.3-.7,1.8-1,1-2.5,1-3.5,0-.5-.5-.7-1.1-.7-1.8,0-.7.2-1.3.7-1.8ZM61.6,61.9c.6.6,1.5.6,2.1,0,0,0,0,0,0,0,.3-.3.5-.8.5-1.2,0-.5-.1-.9-.5-1.2-.6-.6-1.5-.6-2.1,0,0,0,0,0,0,0-.3.3-.5.8-.5,1.2,0,.5.2.9.5,1.2h0Z"/>
            <path class="cls-11" d="M70.1,63h-.9v-.7h0c-.2.2-.4.5-.6.6-.3.2-.6.2-.9.2-.5,0-1-.2-1.3-.5-.3-.4-.5-.9-.5-1.4v-2.9h.9v2.7c0,.9.4,1.3,1.2,1.3.4,0,.7-.2.9-.4.2-.3.4-.6.3-1v-2.6h.9v4.7h0Z"/>
            <path class="cls-11" d="M73.1,63.1c-.6,0-1.2-.3-1.6-.7-.4-.5-.7-1.1-.7-1.8,0-.7.2-1.3.7-1.8.4-.5,1-.7,1.6-.7s.7,0,1,.2c.3.1.5.3.6.6h0v-.7s0-2.2,0-2.2h.9v6.9h-.9v-.7h0c-.2.2-.4.4-.6.6-.3.2-.6.2-1,.2ZM73.2,62.3c.4,0,.8-.2,1.1-.5.3-.3.5-.8.4-1.2,0-.5-.1-.9-.4-1.2-.5-.6-1.4-.6-2,0,0,0,0,0,0,0-.3.3-.5.8-.4,1.2,0,.5.1.9.4,1.2.3.3.7.5,1.1.5Z"/>
          </g>
        </g>
        <path class="cls-21" d="M29.8,68.6h3.6c.7,0,1.3.2,1.7.6.4.4.6.9.6,1.6s-.2,1.3-.6,1.7c-.4.4-1,.6-1.7.6h-2.6v2.8h-1v-7.3ZM33.3,72.3c.4,0,.7-.1,1-.4.2-.2.4-.6.4-1s-.1-.8-.3-1c-.2-.2-.5-.4-1-.4h-2.5v2.8h2.5,0ZM38.4,76.1c-.5,0-.9-.1-1.3-.3-.4-.2-.6-.6-.6-1.2s.3-1.2,1-1.5c.6-.3,1.6-.4,2.8-.4v-.6c0-.3,0-.6-.3-.7-.2-.2-.5-.3-1-.3s-.8,0-1,.3c-.2.2-.3.4-.3.6h0c0,.1-.9.1-.9.1,0,0,0-.1,0-.2,0-.5.2-.9.6-1.2.4-.3,1-.4,1.7-.4s1.2.1,1.6.4c.4.3.5.7.5,1.2v3.1c0,.1,0,.2.1.3,0,0,.2,0,.3,0h.4v.6c-.2,0-.4.1-.7.1s-.4,0-.6-.2c-.2-.2-.3-.3-.3-.6h0c-.2.3-.5.5-.8.6-.3.2-.7.2-1.1.2h0ZM38.6,75.3c.3,0,.5,0,.8-.2.2-.1.5-.3.6-.5.2-.2.2-.5.2-.8v-.4c-.9,0-1.6,0-2.1.2-.5.1-.7.4-.7.8s0,.5.3.7c.2.1.5.2.8.2h0ZM42.8,70.3h.7v.8h.2c.1-.3.3-.5.5-.7.2-.2.5-.3.8-.3s.2,0,.3,0c.1,0,.2,0,.2,0v.9h-.4c-.4,0-.7.1-1,.4-.3.2-.4.6-.4,1.1v3.3h-.9v-5.6h0ZM47.6,76.1c-.4,0-.7-.1-.8-.3-.2-.2-.3-.5-.3-.8v-3.8h-.7v-.8h.7l.2-1.6h.7v1.6h1v.8h-1v3.7c0,.3.2.5.5.5h.5v.6c0,0-.2,0-.4.1-.2,0-.3,0-.4,0ZM49.3,70.3h.7v.8h.2c.4-.6,1-.9,1.9-.9s1,.2,1.3.5c.3.3.5.8.5,1.5v3.8h-.9v-3.8c0-.4-.1-.8-.3-.9-.2-.2-.5-.3-.9-.3s-.5,0-.8.2c-.2.1-.4.3-.5.6-.1.3-.2.5-.2.9v3.3h-.9v-5.6h0ZM57.7,76.1c-.9,0-1.6-.2-2-.7-.4-.5-.7-1.2-.7-2.2s.2-1.7.7-2.2c.4-.5,1.1-.7,2-.7s1.4.2,1.8.7c.4.4.6,1.1.6,2.1v.5h-4.1c0,.6.2,1.1.5,1.4.3.3.7.5,1.3.5s.8-.1,1.1-.3c.3-.2.4-.5.4-1h.9c0,.7-.2,1.2-.7,1.5-.4.4-1,.5-1.7.5h0ZM59.1,72.6c0-1.1-.5-1.6-1.4-1.6s-.9.1-1.2.4c-.3.3-.4.7-.5,1.3h3.1ZM61.2,70.3h.7v.8h.2c.1-.3.3-.5.5-.7.2-.2.5-.3.8-.3s.2,0,.3,0c.1,0,.2,0,.2,0v.9h-.4c-.4,0-.7.1-1,.4-.3.2-.4.6-.4,1.1v3.3h-.9v-5.6h0Z"/>
      </g>
    </g>
  </g>
</svg>