<?xml version="1.0" encoding="UTF-8"?>
<svg xmlns="http://www.w3.org/2000/svg" xmlns:xlink="http://www.w3.org/1999/xlink" version="1.1" viewBox="0 0 190 287.5">
  <defs>
    <style>
      .cls-1 {
        stroke: url(#linear-gradient);
      }

      .cls-1, .cls-2, .cls-3, .cls-4, .cls-5, .cls-6, .cls-7 {
        fill: none;
      }

      .cls-2 {
        stroke: #171717;
        stroke-miterlimit: 10;
      }

      .cls-8 {
        clip-path: url(#clippath);
      }

      .cls-3, .cls-9, .cls-10, .cls-11, .cls-12, .cls-13, .cls-14, .cls-15 {
        stroke-width: 0px;
      }

      .cls-9 {
        fill: #33a852;
      }

      .cls-16 {
        mix-blend-mode: color-dodge;
      }

      .cls-4 {
        stroke: #ea4435;
      }

      .cls-4, .cls-5, .cls-6, .cls-7 {
        stroke-width: 2px;
      }

      .cls-17 {
        clip-path: url(#clippath-1);
      }

      .cls-18 {
        clip-path: url(#clippath-3);
      }

      .cls-19 {
        clip-path: url(#clippath-2);
      }

      .cls-5 {
        stroke: #33a852;
      }

      .cls-10 {
        fill: #f9bc15;
      }

      .cls-20 {
        fill: #000;
        stroke: #353535;
      }

      .cls-6 {
        stroke: #f9bc15;
      }

      .cls-7 {
        stroke: #547dbf;
      }

      .cls-11 {
        fill: #547dbf;
      }

      .cls-12 {
        fill: #ea4435;
      }

      .cls-21 {
        isolation: isolate;
      }

      .cls-13 {
        fill: #171717;
      }

      .cls-14 {
        fill: #949494;
      }

      .cls-15 {
        fill: #fff;
      }
    </style>
    <linearGradient id="linear-gradient" x1=".1" y1="463.8" x2="227.6" y2="410.8" gradientTransform="translate(-8.4 583.5) scale(1 -1)" gradientUnits="userSpaceOnUse">
      <stop offset="0" stop-color="#151515"/>
      <stop offset="1" stop-color="#4a4849"/>
    </linearGradient>
    <clipPath id="clippath">
      <rect class="cls-3" y="17.5" width="190" height="223"/>
    </clipPath>
    <clipPath id="clippath-1">
      <rect class="cls-3" x="94.8" y="153.9" width="70.4" height="49.9" transform="translate(-81.3 243.8) rotate(-71.1)"/>
    </clipPath>
    <clipPath id="clippath-2">
      <rect class="cls-3" x="34.6" y="143.6" width="49.9" height="70.4" transform="translate(-54.7 29) rotate(-18.9)"/>
    </clipPath>
    <clipPath id="clippath-3">
      <rect class="cls-3" x="34" y="109.5" width="120.2" height="24.3"/>
    </clipPath>
  </defs>
  <g class="cls-21">
    <g id="Layer_1" data-name="Layer 1">
      <g>
        <path class="cls-1" d="M133.5.5H57v286l39.5-29,37,29V.5Z"/>
        <path class="cls-20" d="M94.5,19h0c51.9,0,94,42.1,94,94v33c0,51.9-42.1,94-94,94h0C42.6,240,.5,197.9.5,146v-33C.5,61.1,42.6,19,94.5,19Z"/>
        <g class="cls-8">
          <g>
            <path class="cls-5" d="M20.8,54.8C8.4,70.7,1,90.7,1,112.5v33c0,21.8,7.4,41.8,19.8,57.7"/>
            <path class="cls-7" d="M169.2,54.8c-17.2-22.1-44-36.3-74.2-36.3s-57,14.2-74.2,36.3"/>
            <path class="cls-6" d="M169.2,203.2c12.4-15.9,19.8-35.9,19.8-57.7v-33c0-21.8-7.4-41.8-19.8-57.7"/>
            <path class="cls-4" d="M20.8,203.2c17.2,22.1,44,36.3,74.2,36.3s57-14.2,74.2-36.3"/>
            <g class="cls-17">
              <g>
                <path class="cls-13" d="M147.4,179.4c.6-1.6,1.5-5.7.2-8.9-1.3-3.2-4.1-4.5-5.3-4.9,0,1.4,0,4.5,1.1,7.6,1,3,3.1,5.3,4,6.2h0Z"/>
                <path class="cls-13" d="M149.1,174.4c1.3-.1,4.4-.6,6.8-3.8.6-.8,1.1-1.7,1.5-2.6.2-.5.4-1,.5-1.4.1-.5.3-1,.4-1.4.2-.9.4-1.9.4-2.7,0-.8.1-1.5,0-2-.6.3-1.6.9-2.6,1.8-.5.4-1.1,1-1.6,1.6-.6.6-1.1,1.3-1.6,2.1-.5.8-1,1.6-1.4,2.4-.4.8-.8,1.6-1.1,2.4-.7,1.5-1.1,2.9-1.4,3.7Z"/>
                <path class="cls-13" d="M140.2,190.9c.6-.7,1.3-1.9,2-3.4.3-.7.6-1.6.8-2.4.2-.8.3-1.7.2-2.6,0-1.7-.7-3.1-1.4-4.2-.7-1-1.5-1.8-2-2.2,0,.3-.2.8-.4,1.3-.2.5-.3,1.1-.5,1.8-.3,1.3-.6,2.8-.6,4.5,0,1.6.3,3.1.7,4.3.4,1.3.9,2.3,1.2,2.8h0Z"/>
                <path class="cls-13" d="M143.4,186.7c.6.2,1.7.3,3.1.2.7,0,1.4-.2,2.2-.4.8-.3,1.6-.7,2.4-1.2,1.6-1.1,3-2.8,4-4.4,1-1.7,1.7-3.3,2-4.3-1.3.2-4.4,1-7.3,3.3-.4.3-.7.6-1.1.9-.4.3-.7.6-1,.9-.3.3-.6.6-.9,1-.3.3-.6.6-.9.9-.3.3-.5.6-.8.9-.3.3-.5.6-.7.8-.4.5-.8,1-1,1.3h0Z"/>
                <path class="cls-13" d="M129.7,199.5c.7-.5,1.9-1.3,3-2.5.5-.6,1.1-1.3,1.5-2,.5-.7.8-1.6,1-2.4.5-1.6.3-3.2,0-4.4-.3-1.2-.8-2.2-1.2-2.7-.9,1.1-2.7,3.7-3.7,6.7-.5,1.6-.7,3-.7,4.3,0,1.3,0,2.4.2,3.1h0Z"/>
                <path class="cls-13" d="M134.1,196.6c.5.4,1.5.9,2.8,1.3,1.3.3,2.9.4,4.9,0,1-.2,1.9-.7,2.8-1.2.9-.5,1.8-1.1,2.5-1.7,1.4-1.3,2.6-2.5,3.2-3.4-.7-.1-1.7-.2-3.1-.2-1.4,0-3.1.3-4.8.9-.9.3-1.8.7-2.6,1.1-.4.2-.8.4-1.2.6-.4.2-.8.4-1.1.6-.7.4-1.4.8-1.9,1.2-.6.3-1.1.6-1.4.9h0Z"/>
                <path class="cls-13" d="M117.1,204.2c1.6-.4,5.5-1.8,7.4-4.8.2-.4.5-.7.6-1.1.2-.4.3-.7.4-1.1.2-.7.3-1.4.4-2,0-1.3,0-2.3-.2-2.9-.6.4-1.5,1-2.5,1.9-1.1.8-2.2,2-3.2,3.2-.5.6-.9,1.3-1.2,2-.4.6-.6,1.3-.9,1.9-.5,1.2-.7,2.3-.8,3Z"/>
                <path class="cls-13" d="M122.1,202.8c.4.5,1.1,1.4,2.3,2.1,1.1.7,2.7,1.4,4.7,1.5,3.9.2,8.4-2,10-3.3-.6-.3-1.6-.8-2.9-1.2-1.3-.4-3-.7-4.8-.7-.9,0-1.9,0-2.8.2-.9.1-1.7.3-2.6.4-1.6.3-3,.7-3.8.9h0Z"/>
                <path class="cls-13" d="M103.6,204.5c1.7.2,5.8,0,8.6-2.1,1.4-1,2.2-2.4,2.7-3.5.5-1.1.7-2.2.7-2.9-.7.2-1.8.4-3,1-.6.2-1.3.5-2,.8-.3.2-.7.4-1,.6-.3.2-.7.4-1,.6-2.6,1.8-4.3,4.3-4.9,5.5h0Z"/>
                <path class="cls-13" d="M108.7,204.9c.4,1.3,1.7,4.1,5.4,5.6,3.7,1.5,8.5.8,10.5.2-.9-1-3.2-3.1-6.7-4.3-.4-.2-.9-.3-1.3-.4-.4-.1-.9-.2-1.3-.3-.9-.2-1.8-.3-2.6-.4-1.6-.3-3.1-.3-3.9-.4Z"/>
                <g class="cls-16">
                  <path class="cls-13" d="M142.3,165.6c0,.2,0,.3,0,.5,1.2.5,3.9,1.8,5.2,5,1.1,2.8.6,6.4,0,8.2h0c.6-1.5,1.5-5.6.2-8.8-1.3-3.2-4.1-4.5-5.3-4.9Z"/>
                </g>
                <g class="cls-16">
                  <path class="cls-13" d="M149.1,174.4h0c.7-1.8,1.9-5.1,3.8-7.9,2-3,4.7-4.7,5.9-5.3,0-.3,0-.6,0-.8-.6.3-1.6.9-2.6,1.8-.5.4-1.1,1-1.6,1.6-.6.6-1.1,1.3-1.6,2.1-.5.8-1,1.6-1.4,2.4-.4.8-.8,1.6-1.1,2.4-.7,1.5-1.1,2.9-1.4,3.7h0Z"/>
                </g>
                <g class="cls-16">
                  <path class="cls-13" d="M139.8,176.2c0,.1,0,.3-.1.5.5.4,1.2,1.2,1.9,2.2.7,1.1,1.3,2.5,1.3,4.2,0,1.5-.3,3.1-.9,4.5-.6,1.3-1.3,2.5-1.9,3.3h0c.6-.6,1.3-1.9,2-3.3.3-.7.6-1.6.8-2.4.2-.8.3-1.7.2-2.6,0-1.7-.7-3.1-1.4-4.2-.7-1-1.5-1.8-2-2.2Z"/>
                </g>
                <g class="cls-16">
                  <path class="cls-13" d="M143.4,186.7h0c.3-.4.7-.8,1.1-1.3.5-.5.9-1,1.4-1.6,1-1.1,2.2-2.3,3.5-3.3.7-.6,1.5-1,2.2-1.4.7-.4,1.4-.7,2-.9,1.3-.5,2.4-.7,3.1-.8,0-.3.2-.5.3-.7-1.3.2-4.4,1-7.3,3.3-.4.3-.7.6-1.1.9-.4.3-.7.6-1,.9-.3.3-.6.7-.9,1-.3.3-.6.6-.9.9-.3.3-.5.6-.8.9-.3.3-.5.6-.7.8-.4.5-.8,1-1,1.3h0Z"/>
                </g>
                <g class="cls-16">
                  <path class="cls-13" d="M134,185.4c0,.1-.2.3-.3.4.3.6.8,1.5,1.1,2.7.3,1.3.4,2.7,0,4.4-.4,1.5-1.3,2.8-2.2,4-1,1.1-2.1,1.9-2.8,2.5h0c.7-.5,1.9-1.3,3-2.5.5-.6,1.1-1.3,1.5-2,.5-.7.8-1.6,1-2.4.5-1.6.3-3.2,0-4.4-.3-1.2-.8-2.2-1.2-2.7h0Z"/>
                </g>
                <g class="cls-16">
                  <path class="cls-13" d="M134.1,196.6h0c.4-.2.9-.5,1.5-.8.5-.4,1.2-.7,1.8-1.1,1.4-.7,2.8-1.5,4.4-2,1.8-.6,3.3-.8,4.7-.8,1.4,0,2.5.1,3.2.2.2-.2.3-.4.5-.6-.7-.1-1.7-.2-3.1-.2-1.4,0-3.1.3-4.8.9-.9.3-1.8.7-2.6,1.1-.4.2-.8.4-1.2.6-.4.2-.8.4-1.1.6-.7.4-1.4.8-1.9,1.2-.6.3-1.1.6-1.4.9h0Z"/>
                </g>
                <g class="cls-16">
                  <path class="cls-13" d="M125.6,192.2c-.1,0-.3.2-.4.3.1.6.3,1.7.2,2.9,0,.6-.2,1.3-.4,2-.2.7-.6,1.4-1.1,2.1-1.7,2.6-5,4-6.9,4.5h0c1.7-.4,5.5-1.8,7.4-4.8.2-.4.5-.7.6-1.1.2-.4.3-.7.4-1.1.2-.7.3-1.4.4-2,0-1.3,0-2.3-.2-2.9Z"/>
                </g>
                <g class="cls-16">
                  <path class="cls-13" d="M122.1,202.8h0c1-.1,2.3-.5,3.8-.7.8,0,1.5-.2,2.3-.3.8,0,1.6-.1,2.5,0,1.8,0,3.4.3,4.8.7,1.3.4,2.3.9,2.9,1.2.2-.2.5-.3.7-.4-.6-.3-1.6-.8-2.9-1.2-1.3-.4-3-.7-4.8-.7-.9,0-1.9,0-2.8.2-.9.1-1.7.3-2.6.4-1.6.3-3,.7-3.8.9Z"/>
                </g>
                <g class="cls-16">
                  <path class="cls-13" d="M115.5,196c-.1,0-.3.1-.5.2,0,.6-.3,1.7-.8,2.8-.5,1.1-1.3,2.5-2.7,3.4-.6.4-1.3.8-2,1.2-.7.3-1.4.5-2.2.6-1.4.4-2.8.3-3.8.3h0c1.7.2,5.8,0,8.6-2.1,1.4-1,2.2-2.4,2.7-3.5.5-1.1.6-2.2.7-2.9h0Z"/>
                </g>
                <g class="cls-16">
                  <path class="cls-13" d="M108.8,204.9h0c1,.2,2.3.2,3.8.5.7.2,1.5.2,2.3.4.8.2,1.6.5,2.4.7,1.7.6,3.2,1.4,4.3,2.2,1.1.8,1.9,1.6,2.3,2.1.3,0,.5-.1.8-.2-.9-1-3.2-3.1-6.7-4.3-.4-.1-.9-.3-1.3-.4-.4-.1-.9-.2-1.3-.3-.9-.2-1.8-.3-2.6-.4-1.6-.3-3.1-.3-3.9-.4h0Z"/>
                </g>
                <path class="cls-2" d="M150.7,163.7c0,6.6-1.7,13.2-4.8,19-1.5,2.9-3.5,5.6-5.6,8.1-1.1,1.2-2.2,2.4-3.5,3.5-.6.5-1.2,1.1-1.9,1.6l-2,1.5c-2.7,1.8-5.6,3.5-8.7,4.7l-1.1.5-1.2.4c-.8.2-1.6.5-2.3.7-1.6.3-3.2.8-4.8.9-6.5,1-13.2.2-19.3-1.9"/>
                <path class="cls-13" d="M150.6,165c.2-.3.5-.8.7-1.4.2-.6.5-1.3.7-2.1.2-.8.3-1.7.4-2.7,0-1,0-2-.2-3-.2-1-.5-2-.9-2.9-.2-.4-.4-.9-.6-1.3-.2-.4-.5-.8-.7-1.1-.9-1.4-1.9-2.3-2.5-2.8-.1.8-.1,2.1-.2,3.7,0,.4,0,.8,0,1.2,0,.4,0,.9,0,1.3,0,.9.1,1.8.3,2.7.2.9.3,1.8.6,2.7.2.8.5,1.6.8,2.4.2.7.5,1.4.8,2,.2.6.4,1.1.6,1.4h0Z"/>
                <g class="cls-16">
                  <path class="cls-13" d="M147.8,156.6c0,.2,0,.3.1.5-.5-3.5,0-6.9,0-8.4.3.3.6.6,1.1,1.1.4.5.8,1,1.3,1.7.9,1.3,1.6,3,2,5,0-.2,0-.4,0-.5-.2-1-.5-2-.9-2.9-.2-.4-.4-.9-.6-1.3-.2-.4-.5-.8-.7-1.1-.9-1.4-1.9-2.3-2.5-2.8-.1.8-.1,2.1-.2,3.7,0,.4,0,.8,0,1.2,0,.4,0,.9,0,1.3,0,.9.1,1.8.3,2.7h0Z"/>
                </g>
              </g>
            </g>
            <g class="cls-19">
              <g>
                <path class="cls-13" d="M42.2,179.4c-.6-1.6-1.5-5.7-.2-8.9,1.3-3.2,4.1-4.5,5.3-4.9,0,1.4,0,4.5-1.1,7.6-1,3-3.1,5.3-4,6.2h0Z"/>
                <path class="cls-13" d="M40.5,174.4c-1.3-.1-4.4-.6-6.8-3.8-.6-.8-1.1-1.7-1.5-2.6-.2-.5-.4-1-.5-1.4-.1-.5-.3-1-.4-1.4-.2-.9-.4-1.9-.4-2.7,0-.8-.1-1.5,0-2,.6.3,1.6.9,2.6,1.8.5.4,1.1,1,1.6,1.6.6.6,1.1,1.3,1.6,2.1.5.8,1,1.6,1.4,2.4.4.8.8,1.6,1.1,2.4.7,1.5,1.1,2.9,1.4,3.7Z"/>
                <path class="cls-13" d="M49.4,190.9c-.6-.7-1.3-1.9-2-3.4-.3-.7-.6-1.6-.8-2.4-.2-.8-.3-1.7-.2-2.6,0-1.7.7-3.1,1.4-4.2.7-1,1.5-1.8,2-2.2,0,.3.2.8.4,1.3.2.5.3,1.1.5,1.8.3,1.3.6,2.8.6,4.5,0,1.6-.3,3.1-.7,4.3-.4,1.3-.9,2.3-1.2,2.8h0Z"/>
                <path class="cls-13" d="M46.2,186.7c-.6.2-1.7.3-3.1.2-.7,0-1.4-.2-2.2-.4-.8-.3-1.6-.7-2.4-1.2-1.6-1.1-3-2.8-4-4.4-1-1.7-1.7-3.3-2-4.3,1.3.2,4.4,1,7.3,3.3.4.3.7.6,1.1.9.4.3.7.6,1,.9.3.3.6.6.9,1,.3.3.6.6.9.9.3.3.5.6.8.9.3.3.5.6.7.8.4.5.8,1,1,1.3h0Z"/>
                <path class="cls-13" d="M59.9,199.5c-.7-.5-1.9-1.3-3-2.5-.5-.6-1.1-1.3-1.5-2-.5-.7-.8-1.6-1-2.4-.5-1.6-.3-3.2,0-4.4.3-1.2.8-2.2,1.2-2.7.9,1.1,2.7,3.7,3.7,6.7.5,1.6.7,3,.7,4.3,0,1.3,0,2.4-.2,3.1h0Z"/>
                <path class="cls-13" d="M55.5,196.6c-.5.4-1.5.9-2.8,1.3-1.3.3-2.9.4-4.9,0-1-.2-1.9-.7-2.8-1.2-.9-.5-1.8-1.1-2.5-1.7-1.4-1.3-2.6-2.5-3.2-3.4.7-.1,1.7-.2,3.1-.2,1.4,0,3.1.3,4.8.9.9.3,1.8.7,2.6,1.1.4.2.8.4,1.2.6.4.2.8.4,1.1.6.7.4,1.4.8,1.9,1.2.6.3,1.1.6,1.4.9h0Z"/>
                <path class="cls-13" d="M72.5,204.2c-1.6-.4-5.5-1.8-7.4-4.8-.2-.4-.4-.7-.6-1.1-.2-.4-.3-.7-.4-1.1-.2-.7-.3-1.4-.4-2,0-1.3,0-2.3.2-2.9.6.4,1.5,1,2.5,1.9,1.1.8,2.2,2,3.2,3.2.5.6.9,1.3,1.2,2,.4.6.6,1.3.9,1.9.5,1.2.7,2.3.8,3Z"/>
                <path class="cls-13" d="M67.5,202.8c-.4.5-1.1,1.4-2.3,2.1-1.1.7-2.7,1.4-4.7,1.5-3.9.2-8.4-2-10-3.3.6-.3,1.6-.8,2.9-1.2,1.3-.4,3-.7,4.8-.7.9,0,1.9,0,2.8.2.9.1,1.7.3,2.6.4,1.6.3,3,.7,3.8.9h0Z"/>
                <path class="cls-13" d="M86,204.5c-1.7.2-5.8,0-8.6-2.1-1.4-1-2.2-2.4-2.7-3.5-.5-1.1-.7-2.2-.7-2.9.7.2,1.8.4,3,1,.6.2,1.3.5,2,.8.3.2.7.4,1,.6.3.2.7.4,1,.6,2.6,1.8,4.3,4.3,4.9,5.5h0Z"/>
                <path class="cls-13" d="M80.8,204.9c-.4,1.3-1.7,4.1-5.4,5.6-3.7,1.5-8.5.8-10.5.2.9-1,3.2-3.1,6.7-4.3.4-.2.9-.3,1.3-.4.4-.1.9-.2,1.3-.3.9-.2,1.8-.3,2.6-.4,1.6-.3,3.1-.3,3.9-.4Z"/>
                <g class="cls-16">
                  <path class="cls-13" d="M47.3,165.6c0,.2,0,.3,0,.5-1.2.5-3.9,1.8-5.2,5-1.1,2.8-.6,6.4,0,8.2h0c-.6-1.5-1.5-5.6-.2-8.8,1.3-3.2,4.1-4.5,5.3-4.9Z"/>
                </g>
                <g class="cls-16">
                  <path class="cls-13" d="M40.5,174.4h0c-.7-1.8-1.9-5.1-3.8-7.9-2-3-4.7-4.7-5.9-5.3,0-.3,0-.6,0-.8.6.3,1.6.9,2.6,1.8.5.4,1.1,1,1.6,1.6.6.6,1.1,1.3,1.6,2.1.5.8,1,1.6,1.4,2.4.4.8.8,1.6,1.1,2.4.7,1.5,1.1,2.9,1.4,3.7h0Z"/>
                </g>
                <g class="cls-16">
                  <path class="cls-13" d="M49.8,176.2c0,.1,0,.3.1.5-.5.4-1.2,1.2-1.9,2.2-.7,1.1-1.3,2.5-1.4,4.2,0,1.5.3,3.1.9,4.5.6,1.3,1.3,2.5,1.9,3.3h0c-.6-.6-1.3-1.9-2-3.3-.3-.7-.6-1.6-.8-2.4-.2-.8-.3-1.7-.2-2.6,0-1.7.7-3.1,1.4-4.2.7-1,1.5-1.8,2-2.2Z"/>
                </g>
                <g class="cls-16">
                  <path class="cls-13" d="M46.2,186.7h0c-.3-.4-.7-.8-1.1-1.3-.5-.5-.9-1-1.4-1.6-1-1.1-2.2-2.3-3.5-3.3-.7-.6-1.5-1-2.2-1.4-.7-.4-1.4-.7-2-.9-1.3-.5-2.4-.7-3.1-.8,0-.3-.2-.5-.3-.7,1.3.2,4.4,1,7.3,3.3.4.3.7.6,1.1.9.4.3.7.6,1,.9.3.3.6.7.9,1,.3.3.6.6.9.9.3.3.5.6.8.9.3.3.5.6.7.8.4.5.8,1,1,1.3h0Z"/>
                </g>
                <g class="cls-16">
                  <path class="cls-13" d="M55.6,185.4c0,.1.2.3.3.4-.3.6-.8,1.5-1.1,2.7-.3,1.3-.4,2.7,0,4.4.4,1.5,1.3,2.8,2.2,4,1,1.1,2.1,1.9,2.8,2.5h0c-.7-.5-1.9-1.3-3-2.5-.5-.6-1.1-1.3-1.5-2-.5-.7-.8-1.6-1-2.4-.5-1.6-.3-3.2,0-4.4.3-1.2.8-2.2,1.2-2.7h0Z"/>
                </g>
                <g class="cls-16">
                  <path class="cls-13" d="M55.5,196.6h0c-.4-.2-.9-.5-1.5-.8-.5-.4-1.2-.7-1.8-1.1-1.4-.7-2.8-1.5-4.4-2-1.8-.6-3.3-.8-4.7-.8-1.4,0-2.5.1-3.2.2-.2-.2-.3-.4-.5-.6.7-.1,1.7-.2,3.1-.2,1.4,0,3.1.3,4.8.9.9.3,1.8.7,2.6,1.1.4.2.8.4,1.2.6.4.2.8.4,1.1.6.7.4,1.4.8,1.9,1.2.6.3,1.1.6,1.4.9h0Z"/>
                </g>
                <g class="cls-16">
                  <path class="cls-13" d="M63.9,192.2c.1,0,.3.2.4.3-.1.6-.3,1.7-.2,2.9,0,.6.2,1.3.4,2,.2.7.6,1.4,1.1,2.1,1.7,2.6,5,4,6.9,4.5h0c-1.7-.4-5.5-1.8-7.4-4.8-.2-.4-.4-.7-.6-1.1-.2-.4-.3-.7-.4-1.1-.2-.7-.3-1.4-.4-2,0-1.3,0-2.3.2-2.9Z"/>
                </g>
                <g class="cls-16">
                  <path class="cls-13" d="M67.5,202.8h0c-1-.1-2.3-.5-3.8-.7-.8,0-1.5-.2-2.3-.3-.8,0-1.6-.1-2.5,0-1.8,0-3.4.3-4.8.7-1.3.4-2.3.9-2.9,1.2-.2-.2-.5-.3-.7-.4.6-.3,1.6-.8,2.9-1.2,1.3-.4,3-.7,4.8-.7.9,0,1.9,0,2.8.2.9.1,1.7.3,2.6.4,1.6.3,3,.7,3.8.9Z"/>
                </g>
                <g class="cls-16">
                  <path class="cls-13" d="M74.1,196c.1,0,.3.1.5.2,0,.6.3,1.7.8,2.8.5,1.1,1.3,2.5,2.7,3.4.6.4,1.3.8,2,1.2.7.3,1.4.5,2.2.6,1.4.4,2.8.3,3.8.3h0c-1.7.2-5.8,0-8.6-2.1-1.4-1-2.2-2.4-2.7-3.5-.5-1.1-.6-2.2-.7-2.9h0Z"/>
                </g>
                <g class="cls-16">
                  <path class="cls-13" d="M80.8,204.9h0c-1,.2-2.3.2-3.8.5-.7.2-1.5.2-2.3.4-.8.2-1.6.5-2.4.7-1.7.6-3.2,1.4-4.3,2.2-1.1.8-1.9,1.6-2.3,2.1-.3,0-.5-.1-.8-.2.9-1,3.2-3.1,6.7-4.3.4-.1.9-.3,1.3-.4.4-.1.9-.2,1.3-.3.9-.2,1.8-.3,2.6-.4,1.6-.3,3.1-.3,3.9-.4h0Z"/>
                </g>
                <path class="cls-2" d="M38.9,163.7c0,6.6,1.7,13.2,4.8,19,1.5,2.9,3.5,5.6,5.6,8.1,1.1,1.2,2.2,2.4,3.5,3.5.6.5,1.2,1.1,1.9,1.6l2,1.5c2.7,1.8,5.6,3.5,8.7,4.7l1.1.5,1.2.4c.8.2,1.6.5,2.3.7,1.6.3,3.2.8,4.8.9,6.5,1,13.2.2,19.3-1.9"/>
                <path class="cls-13" d="M39,165c-.2-.3-.5-.8-.7-1.4-.2-.6-.5-1.3-.7-2.1-.2-.8-.3-1.7-.4-2.7,0-1,0-2,.2-3,.2-1,.5-2,.9-2.9.2-.4.4-.9.6-1.3.2-.4.5-.8.7-1.1.9-1.4,1.9-2.3,2.5-2.8.1.8.1,2.1.2,3.7,0,.4,0,.8,0,1.2,0,.4,0,.9,0,1.3,0,.9-.1,1.8-.3,2.7-.2.9-.3,1.8-.6,2.7-.2.8-.5,1.6-.8,2.4-.2.7-.5,1.4-.8,2-.2.6-.4,1.1-.6,1.4h0Z"/>
                <g class="cls-16">
                  <path class="cls-13" d="M41.8,156.6c0,.2,0,.3-.1.5.5-3.5,0-6.9,0-8.4-.3.3-.6.6-1.1,1.1-.4.5-.8,1-1.3,1.7-.9,1.3-1.6,3-2,5,0-.2,0-.4,0-.5.2-1,.5-2,.9-2.9.2-.4.4-.9.6-1.3.2-.4.5-.8.7-1.1.9-1.4,1.9-2.3,2.5-2.8.1.8.1,2.1.2,3.7,0,.4,0,.8,0,1.2,0,.4,0,.9,0,1.3,0,.9-.1,1.8-.3,2.7h0Z"/>
                </g>
              </g>
            </g>
          </g>
        </g>
        <path class="cls-12" d="M103.6,61.5h2l5.8-5.9.3-2.5c-10.7-9.6-27.1-8.6-36.5,2.3-2.6,3-4.5,6.6-5.6,10.5.6-.3,1.4-.3,2-.1l11.5-1.9s.6-1,.9-.9c5.1-5.7,13.7-6.4,19.7-1.5h0Z"/>
        <path class="cls-11" d="M119.7,65.8c-1.3-4.9-4-9.4-7.8-12.8l-8.1,8.2c3.4,2.8,5.3,7.1,5.3,11.6v1.5c4,0,7.2,3.3,7.2,7.3s-3.2,7.3-7.2,7.3h-14.3l-1.4,1.5v8.8l1.4,1.5h14.3c10.3,0,18.7-8.3,18.8-18.8,0-6.4-3-12.3-8.2-15.9Z"/>
        <path class="cls-9" d="M79.9,100.5h14.5v-11.2h-14.5c-1,0-2.1-.2-3-.6l-2,.6-5.9,5.6-.5,2c3.3,2.4,7.3,3.7,11.4,3.7Z"/>
        <path class="cls-10" d="M80.6,62.7c-10.3,0-18.6,8.7-18.6,19.4,0,6,2.7,11.5,7.3,15.2l8.3-8.6c-3.6-1.7-5.2-6.1-3.6-9.8,1.6-3.7,5.9-5.4,9.5-3.7,1.6.7,2.9,2.1,3.6,3.7l8.3-8.6c-3.6-4.8-9.1-7.6-14.9-7.6h0Z"/>
        <g class="cls-18">
          <g>
            <path class="cls-15" d="M44,129.1c-2.2,0-4.3-.8-5.8-2.4-1.6-1.5-2.5-3.6-2.4-5.7,0-2.2.9-4.2,2.4-5.7,1.5-1.6,3.6-2.4,5.8-2.4,2.1,0,4.1.8,5.6,2.2l-1.6,1.6c-1.1-1-2.5-1.6-4-1.6-1.6,0-3.1.6-4.1,1.8-1.1,1.1-1.7,2.6-1.7,4.2,0,1.5.6,3,1.7,4.1,2.3,2.3,5.9,2.3,8.2,0,.7-.8,1.1-1.7,1.2-2.7h-5.3v-2.2h7.5c0,.5.1.9,0,1.4,0,1.9-.6,3.8-1.9,5.2-1.5,1.5-3.5,2.4-5.7,2.3ZM61.4,127.6c-2.1,2-5.4,2-7.5,0-1-1-1.6-2.3-1.5-3.7,0-1.4.5-2.8,1.5-3.7,2.1-2,5.4-2,7.5,0,1,1,1.6,2.3,1.5,3.7,0,1.4-.5,2.8-1.5,3.7h0ZM55.6,126.2c1.1,1.2,2.9,1.2,4,.1,0,0,0,0,.1-.1.6-.6.9-1.4.9-2.3,0-.8-.3-1.7-.9-2.3-1.1-1.1-2.9-1.2-4.1,0,0,0,0,0,0,0-.6.6-.9,1.4-.9,2.3,0,.8.3,1.7.9,2.3h0ZM72.9,127.6c-2.1,2-5.4,2-7.5,0-1-1-1.6-2.3-1.5-3.7,0-1.4.5-2.8,1.5-3.7,2.1-2,5.4-2,7.5,0,1,1,1.6,2.3,1.5,3.7,0,1.4-.5,2.8-1.5,3.7ZM67.1,126.2c1.1,1.2,2.9,1.2,4,.1,0,0,0,0,.1-.1.6-.6.9-1.4.9-2.3,0-.8-.3-1.7-.9-2.3-1.1-1.1-2.9-1.2-4.1,0,0,0,0,0,0,0-.6.6-.9,1.4-.9,2.3,0,.8.3,1.7.9,2.3h0ZM80.4,133.8c-1.1,0-2.1-.3-2.9-.9-.7-.6-1.3-1.3-1.7-2.2l2-.8c.2.5.6,1,1,1.3.5.4,1,.6,1.6.6.8,0,1.5-.2,2.1-.8.5-.6.8-1.5.7-2.3v-.8h0c-.7.8-1.7,1.2-2.8,1.2-1.3,0-2.6-.6-3.5-1.5-1-1-1.5-2.3-1.5-3.7,0-1.4.5-2.7,1.5-3.7.9-1,2.2-1.5,3.5-1.5s1.1.1,1.6.4c.4.2.8.5,1.1.8h0v-.8h2.2v9.4c.1,1.5-.4,3-1.4,4.1-1,.9-2.3,1.4-3.6,1.4ZM80.6,127.1c.8,0,1.5-.3,2-.9.5-.6.8-1.4.8-2.2,0-.8-.3-1.7-.8-2.3-.5-.6-1.2-.9-2-.9-.8,0-1.5.3-2.1.9-.6.6-.9,1.4-.9,2.3,0,.8.3,1.6.9,2.2.5.6,1.3.9,2.1.9ZM89.3,113.5v15.3h-2.3v-15.3h2.3ZM95.6,129.1c-1.4,0-2.7-.5-3.7-1.5-1-1-1.5-2.3-1.5-3.7,0-1.4.5-2.7,1.4-3.8.9-1,2.2-1.5,3.5-1.5.6,0,1.2.1,1.8.3.5.2,1,.5,1.3.9.3.3.6.7.9,1.1.2.3.4.7.5,1l.2.6-7,2.9c.4,1,1.4,1.6,2.5,1.6,1.1,0,2-.5,2.6-1.4l1.8,1.2c-.4.6-1,1.2-1.7,1.6-.8.5-1.7.8-2.6.7ZM92.6,123.8l4.7-1.9c-.1-.3-.4-.6-.7-.8-.4-.2-.8-.3-1.2-.3-.7,0-1.4.3-1.9.8-.6.6-.9,1.4-.9,2.2Z"/>
            <path class="cls-15" d="M112.1,129.1c-4,0-7.3-3.1-7.4-7.1v-.3c0-4,3.1-7.3,7.1-7.4h.3c2,0,3.9.8,5.2,2.3l-1.3,1.2c-1-1.2-2.4-1.9-3.9-1.8-1.5,0-2.9.5-3.9,1.6-1.1,1.1-1.7,2.6-1.6,4.1,0,1.5.5,3,1.6,4.1,1,1,2.5,1.6,3.9,1.6,1.7,0,3.3-.7,4.4-2.1l1.3,1.3c-.7.8-1.5,1.4-2.4,1.9-1,.5-2.1.7-3.2.7Z"/>
            <path class="cls-15" d="M121.2,128.8h-1.8v-14.2h1.8v14.2Z"/>
            <path class="cls-15" d="M124.2,120.3c2-2,5.2-2,7.2,0,.9,1,1.5,2.3,1.4,3.7,0,1.4-.5,2.7-1.4,3.7-2,2-5.2,2-7.2,0-.9-1-1.5-2.3-1.4-3.7,0-1.4.5-2.7,1.4-3.7ZM125.5,126.5c1.2,1.2,3.1,1.3,4.3.1,0,0,0,0,.1-.1.6-.7,1-1.6.9-2.5,0-.9-.3-1.9-.9-2.5-1.2-1.2-3.1-1.3-4.3-.1,0,0,0,0-.1.1-.6.7-1,1.6-.9,2.5,0,.9.3,1.9,1,2.5h0Z"/>
            <path class="cls-15" d="M142.9,128.8h-1.8v-1.3h0c-.3.5-.8.9-1.3,1.2-.5.3-1.2.5-1.8.5-1,0-2.1-.3-2.8-1.1-.7-.8-1-1.9-.9-3v-6h1.8v5.6c0,1.8.8,2.7,2.4,2.7.7,0,1.4-.3,1.8-.9.5-.6.7-1.3.7-2.1v-5.4h1.8v9.7Z"/>
            <path class="cls-15" d="M149.1,129.1c-1.2,0-2.4-.5-3.3-1.5-.9-1-1.4-2.3-1.4-3.7,0-1.4.4-2.7,1.4-3.7.8-.9,2-1.5,3.3-1.5.7,0,1.4.1,2,.5.5.3,1,.7,1.3,1.2h0v-1.3c0,0,0-4.5,0-4.5h1.8v14.2h-1.8v-1.3h0c-.3.5-.8.9-1.3,1.2-.6.3-1.3.5-2,.5ZM149.4,127.5c.8,0,1.6-.3,2.2-.9.6-.7.9-1.6.9-2.6,0-.9-.3-1.9-.9-2.6-1.1-1.2-3-1.3-4.2-.2,0,0-.1.1-.2.2-.6.7-.9,1.6-.9,2.5,0,.9.3,1.8.9,2.5.6.6,1.4,1,2.2,1Z"/>
          </g>
        </g>
        <path class="cls-14" d="M60.2,140.4h7.3c1.5,0,2.7.4,3.5,1.3.8.8,1.2,2,1.2,3.3s-.4,2.6-1.3,3.4c-.8.9-2,1.3-3.4,1.3h-5.3v5.8h-2.1v-15.1ZM67.4,147.9c.8,0,1.5-.3,2-.8s.7-1.2.7-2.1-.2-1.6-.7-2.1c-.5-.5-1.1-.7-2-.7h-5.1v5.7h5.1ZM77.7,155.8c-1,0-1.9-.2-2.7-.7-.8-.5-1.2-1.3-1.2-2.6s.7-2.5,2-3c1.3-.6,3.2-.8,5.7-.8v-1.3c0-.7-.2-1.2-.6-1.5-.4-.4-1.1-.6-2.1-.6s-1.6.2-2,.5c-.4.4-.6.8-.6,1.3v.3h-1.9c0,0,0-.2,0-.5,0-1,.4-1.8,1.3-2.4s2-.8,3.4-.8,2.5.3,3.3.9c.7.6,1.1,1.5,1.1,2.6v6.3c0,.3,0,.5.2.6.1.1.3.2.6.2h.9v1.3c-.4.2-.9.3-1.5.3s-.9-.1-1.3-.4c-.3-.3-.6-.7-.7-1.2h-.2c-.4.5-.9,1-1.6,1.3-.7.3-1.4.5-2.2.5ZM78.2,154.2c.6,0,1.1-.1,1.6-.4.5-.2.9-.6,1.3-1,.3-.5.5-1,.5-1.7v-.8c-1.9,0-3.3.2-4.3.5-.9.3-1.4.9-1.4,1.7s.2,1.1.6,1.4c.4.3,1,.4,1.7.4ZM86.8,143.9h1.5l.2,1.7h.1c.2-.6.5-1,1-1.4.4-.4,1-.6,1.7-.6s.5,0,.7,0c.2,0,.3,0,.4,0v1.9h-.8c-.8,0-1.5.2-2,.7-.5.5-.8,1.2-.8,2.2v6.8h-1.9v-11.6ZM96.8,155.7c-.8,0-1.4-.2-1.7-.7-.4-.5-.5-1-.5-1.7v-7.8h-1.4v-1.6h1.4l.4-3.2h1.5v3.2h2v1.6h-2v7.6c0,.7.3,1,1,1h1v1.3c-.2,0-.4.2-.7.2-.3,0-.6,0-.9,0ZM100.3,143.9h1.5l.2,1.6h.2c.9-1.2,2.1-1.8,3.9-1.8s2,.3,2.7.9c.6.6.9,1.6.9,3v7.9h-1.9v-7.8c0-.9-.2-1.6-.6-1.9-.4-.4-1-.6-1.8-.6s-1.1.1-1.5.4c-.5.3-.8.7-1.1,1.2s-.4,1.1-.4,1.8v6.8h-1.9v-11.6ZM117.4,155.8c-1.9,0-3.2-.5-4.2-1.5-.9-1-1.4-2.5-1.4-4.6s.5-3.6,1.4-4.6c.9-1,2.3-1.5,4.2-1.5s2.9.4,3.7,1.3c.8.9,1.3,2.3,1.3,4.3v1h-8.5c0,1.3.4,2.3.9,3,.6.6,1.4.9,2.6.9s1.7-.2,2.2-.6.9-1.1.9-2h1.9c0,1.3-.5,2.4-1.4,3.1-.9.7-2.1,1.1-3.6,1.1ZM120.4,148.6c0-2.2-1-3.4-3-3.4s-1.9.3-2.5.8c-.5.5-.9,1.4-1,2.6h6.4ZM124.7,143.9h1.5l.2,1.7h.1c.2-.6.5-1,1-1.4.4-.4,1-.6,1.7-.6s.5,0,.7,0c.2,0,.3,0,.4,0v1.9h-.8c-.8,0-1.5.2-2,.7-.5.5-.8,1.2-.8,2.2v6.8h-1.9v-11.6Z"/>
      </g>
    </g>
  </g>
</svg>