<?xml version="1.0" encoding="UTF-8"?>
<svg xmlns="http://www.w3.org/2000/svg" xmlns:xlink="http://www.w3.org/1999/xlink" version="1.1" viewBox="0 0 60 60">
  <defs>
    <style>
      .cls-1 {
        fill: url(#linear-gradient-4);
      }

      .cls-2 {
        fill: url(#linear-gradient-3);
      }

      .cls-3 {
        fill: url(#linear-gradient-2);
      }

      .cls-4 {
        fill: url(#linear-gradient);
      }
    </style>
    <linearGradient id="linear-gradient" x1="38.4" y1="-1424.5" x2="38.4" y2="-1484.5" gradientTransform="translate(-8.4 -1424.5) scale(1 -1)" gradientUnits="userSpaceOnUse">
      <stop offset=".3" stop-color="#ce482a"/>
      <stop offset="1" stop-color="#eaba2d"/>
    </linearGradient>
    <linearGradient id="linear-gradient-2" x1="38.4" y1="-1433.6" x2="38.4" y2="-1475.3" xlink:href="#linear-gradient"/>
    <linearGradient id="linear-gradient-3" x1="51.2" y1="-1427.6" x2="51.2" y2="-1455.7" xlink:href="#linear-gradient"/>
    <linearGradient id="linear-gradient-4" x1="38.4" y1="-1442.6" x2="38.4" y2="-1466.2" xlink:href="#linear-gradient"/>
  </defs>
  <!-- Generator: Adobe Illustrator 28.6.0, SVG Export Plug-In . SVG Version: 1.2.0 Build 709)  -->
  <g>
    <g id="DESIGNED_BY_FREEPIK">
      <g>
        <path class="cls-4" d="M57.7,20.2c-.4-.1-.9,0-1.2.4-.4.4-.5,1-.3,1.6,1.8,5.8,1.6,11.7-.5,17.4-4.6,12.5-17.5,19.8-30.6,17.4-5.8-1.1-10.8-3.7-14.8-8-6.3-6.7-8.8-14.8-7.2-23.9,1-5.8,3.7-10.8,8.1-15,5-4.7,11-7.2,17.9-7.5,3-.1,6,.3,9,1.2.4.1.8,0,1.1,0,.3-.1.5-.4.6-.8.2-.8-.2-1.4-1-1.7C34-.1,29.1-.4,24.4.5c-5.7,1.1-10.7,3.7-14.9,7.6C4.5,12.8,1.5,18.6.3,25.5c0,.2,0,.5,0,.7,0,.5,0,.9-.3,1.4v5c.2.5.2.9.3,1.4,0,.2,0,.4,0,.6.8,5.6,3.3,11,7.2,15.4,3.9,4.4,8.9,7.5,14.5,9,1.9.5,3.6.8,5.2.9h0c0,0,.2,0,.3.1h4.5c0,0,.2-.1.3-.1,1,0,2-.2,2.8-.4,7.9-1.5,14.3-5.5,19-11.9,3.4-4.7,5.4-10.1,5.7-16.1.2-3.4-.2-6.9-1.3-10.4-.2-.5-.5-.9-1-1h0Z"/>
        <path class="cls-3" d="M31.3,9.1c-.5,0-.9,0-1.4,0-1.5,0-2.9.2-4.5.5-5.5,1.2-10.1,4.5-13.1,9.4-3,4.9-3.9,10.6-2.5,16.1,1.3,4.9,4.3,9.2,8.5,12.1,4.3,2.9,9.4,4.1,14.5,3.4,4.4-.6,8.2-2.4,11.4-5.4,4.3-4,6.5-9,6.7-15.1,0-.1,0-.3,0-.4,0-.4,0-.8,0-1.2,0-.6-.4-1-.9-1.1-.4-.2-.9,0-1.2.2-.4.3-.5.7-.5,1.2.2,1.6,0,3.2-.3,4.9-1.1,5.2-4.3,9.6-8.9,12.2-4.5,2.6-9.9,3.1-14.9,1.4-8.8-3-13.9-12-12-21.1,1.9-8.9,10.1-15.1,19-14.3.5,0,.9,0,1.1-.3.2-.2.3-.5.4-.8,0-.8-.5-1.4-1.4-1.5h0Z"/>
        <path class="cls-2" d="M39.3,16c0,.7,0,1.5,0,2.3,0,.4-.1.7-.4,1-3,3-6,6-8.9,8.9l-.5.5c-.2.2-.3.4-.5.5-.3.4-.3.8,0,1.3.2.5.6.7,1.1.7h0c.4,0,.8-.2,1.1-.6l2.7-2.7c2.2-2.2,4.5-4.5,6.7-6.7.3-.3.6-.5,1.2-.5.5,0,1.1,0,1.6,0,.2,0,.4,0,.7,0h.7c.6,0,1.1,0,1.7,0,.5,0,.9-.2,1.3-.5,2.4-2.4,4.8-4.8,7.1-7.1l1.6-1.6c.2-.2.4-.4.5-.7.1-.4,0-.8-.2-1.1-.3-.3-.7-.6-1.3-.6-1,0-2.4,0-3.8,0-.2,0-.4,0-.6-.2-.2-.2-.2-.4-.2-.6,0-.8,0-1.6,0-2.4,0-.4,0-.8,0-1.2,0-.8-.2-1.2-.8-1.5-.6-.2-1.1,0-1.6.5-3,3-5.9,5.9-8.6,8.6-.4.4-.6.9-.6,1.5,0,.8,0,1.5,0,2.3h0ZM41.9,14.8v-.5c0-.2,0-.5.2-.7,1.3-1.3,2.6-2.6,3.9-3.9l1.7-1.7s.1,0,.2,0c0,0,0,0,0,0l.3-.2v1.1c0,.5,0,1,0,1.5,0,.8.5,1.3,1.3,1.4.5,0,1,0,1.5,0,.2,0,.5,0,.7,0h.2v.2c0,.3-.2.4-.3.5,0,0,0,0,0,0-.6.6-1.3,1.3-1.9,1.9-1.1,1.1-2.2,2.2-3.3,3.4-.3.3-.5.4-.9.4h0c-1,0-2,0-3,0-.2,0-.4,0-.5-.1-.1-.1-.1-.3-.1-.5,0-.9,0-1.8,0-2.6h0Z"/>
        <path class="cls-1" d="M31.1,20.2c.2-.2.3-.6.3-.9,0-.8-.6-1.3-1.5-1.3h0c-.6,0-1.2,0-1.7.1-6.4,1-10.8,7-9.8,13.4.9,5.9,5.8,10.1,11.8,10.1h0c.1,0,.2,0,.4,0,.4,0,.9,0,1.3-.1,5.6-.8,10-5.8,10.1-11.4,0-.5-.1-1-.4-1.2-.2-.2-.5-.3-.9-.3-.8,0-1.3.6-1.3,1.5,0,2.7-1.3,5.3-3.4,7-2.1,1.7-4.8,2.4-7.5,1.9-3.9-.7-7-3.9-7.5-7.8-.5-4.1,1.6-8,5.3-9.7,1.2-.5,2.4-.8,3.7-.8.5,0,.9-.2,1.1-.5Z"/>
      </g>
    </g>
  </g>
</svg>