<?xml version="1.0" encoding="UTF-8"?>
<svg xmlns="http://www.w3.org/2000/svg" xmlns:xlink="http://www.w3.org/1999/xlink" version="1.1" viewBox="0 0 60.1 60">
  <defs>
    <style>
      .cls-1 {
        fill: url(#linear-gradient);
      }
    </style>
    <linearGradient id="linear-gradient" x1="38.4" y1="-1423.9" x2="38.4" y2="-1483.9" gradientTransform="translate(-8.4 -1423.9) scale(1 -1)" gradientUnits="userSpaceOnUse">
      <stop offset=".3" stop-color="#ce482a"/>
      <stop offset="1" stop-color="#eaba2d"/>
    </linearGradient>
  </defs>
  <!-- Generator: Adobe Illustrator 28.6.0, SVG Export Plug-In . SVG Version: 1.2.0 Build 709)  -->
  <g>
    <g id="DESIGNED_BY_FREEPIK">
      <path class="cls-1" d="M30,60c-9.4,0-18.8,0-28.2,0-.3,0-.6,0-.8,0-.6-.1-1-.6-.9-1.2,0-.6.5-1,1.1-1,.6,0,1.2,0,1.8,0,.4,0,.9-.2,1.1-.5,2.8-2.6,5.4-5.2,8.2-7.7,1-.9,1.5-1.9,1.7-3.2.5-3.3,1.1-6.7,1.7-10,0-.3.3-.7.6-.9,1.9-1.7,3.9-3.4,5.8-5.1.9-.8,1.6-.6,2.2.4,2.4,4.3,4.9,8.5,7.3,12.8.3.6.7,1.1,1,1.7.4.8.3,1.4-.3,1.7-.6.4-1.2.2-1.7-.6-1.8-3-3.5-6-5.3-9.1-.7-1.2-1.4-2.4-2.1-3.5-.4-.7-.7-.7-1.3-.2-1.1,1-2.3,2-3.4,3-.6.5-.8,1-1,1.8-.5,3.5-1.1,7-1.7,10.5,0,.4-.3.9-.6,1.2-2.3,2.2-4.6,4.3-6.9,6.5-.1.1-.3.2-.4.4,0,.2-.2.4-.1.6,0,.2.3.3.5.4.1,0,.3,0,.5,0h26.1c1.1,0,1.2-.2.8-1.2-.7-1.6-1.5-3.1-2.2-4.7-.4-.9-.4-1.2.3-1.9,2.5-2.5,4.9-5.1,7.4-7.6.4-.4.5-.8.3-1.3-1.9-6.6-3.8-13.2-5.7-19.8,0-.3-.4-.5-.5-.8-.3.2-.6.4-.8.6-2,3.3-3.9,6.7-5.8,10.1-.1.2-.3.5-.4.7-.4.4-1,.5-1.5.2-.5-.3-.7-.9-.4-1.4,0-.2.2-.4.3-.6,2.6-4.5,5.3-9.1,7.9-13.6.2-.3.3-.8.3-1.2,0-3,0-6,0-8.9,0-1,.9-1.6,1.7-1.1.3.2.6.7.6,1,0,.6,0,1.3,0,2,0,.7.4.9,1,.7,1.7-.7,3.3-1.4,4.9-2.2.2,0,.5-.4.5-.6,0-.2-.3-.5-.5-.6-2.5-1.1-5-2.2-7.5-3.2-.5-.2-.9-.5-.8-1,0-.4.3-.9.7-1.1.3-.2.9,0,1.3,0,2.5,1.1,5,2.2,7.5,3.3,1.1.5,2.1.9,3.2,1.4.6.2,1.1.5,1.1,1.2s-.5,1-1.1,1.2c-3.2,1.4-6.4,2.8-9.6,4.1-.5.2-.7.5-.7,1,0,1,0,2,0,3.1,0,.4.2.8.4,1,2.1,2.4,4.2,4.7,6.3,7.1.3.3.6.7.7,1.1,5,11.1,10,22.1,15,33.2.6,1.4.2,2.1-1.4,2.1h-28.5ZM47.7,57.7h7.9c1.1,0,1.3-.3.8-1.3-4.5-10-9-20-13.5-30-.7-1.6-2.1-2.6-3.2-3.9-.1-.1-.5-.1-.7,0-.1,0-.2.4-.2.6,0,.2,0,.3.1.5,1.7,6,3.4,11.9,5.2,17.9.2.7,0,1.3-.5,1.8-2.5,2.5-4.9,5-7.3,7.5-.4.4-.4.7-.2,1.2.8,1.7,1.6,3.4,2.4,5.1.3.5.6.8,1.2.7,2.6,0,5.3,0,7.9,0h0Z"/>
    </g>
  </g>
</svg>