<?xml version="1.0" encoding="UTF-8"?>
<svg xmlns="http://www.w3.org/2000/svg" xmlns:xlink="http://www.w3.org/1999/xlink" version="1.1" viewBox="0 0 60 60">
  <defs>
    <style>
      .cls-1 {
        fill: url(#linear-gradient-3);
      }

      .cls-2 {
        fill: url(#linear-gradient-2);
      }

      .cls-3 {
        fill: url(#linear-gradient);
      }
    </style>
    <linearGradient id="linear-gradient" x1="42.3" y1="-1424.5" x2="42.3" y2="-1476.2" gradientTransform="translate(-8.4 -1424.5) scale(1 -1)" gradientUnits="userSpaceOnUse">
      <stop offset=".3" stop-color="#ce482a"/>
      <stop offset="1" stop-color="#eaba2d"/>
    </linearGradient>
    <linearGradient id="linear-gradient-2" x1="19.4" y1="-1460.5" x2="19.4" y2="-1484.5" xlink:href="#linear-gradient"/>
    <linearGradient id="linear-gradient-3" x1="55.3" y1="-1434.6" x2="55.3" y2="-1446.5" xlink:href="#linear-gradient"/>
  </defs>
  <!-- Generator: Adobe Illustrator 28.6.0, SVG Export Plug-In . SVG Version: 1.2.0 Build 709)  -->
  <g>
    <g id="DESIGNED_BY_FREEPIK">
      <g>
        <path class="cls-3" d="M22.7,19.7c.8-.8,1.6-1.6,2.4-2.4.2-.1.4-.3.6-.3.8,0,1.5,0,2.3,0,.4,4.6,2.3,8.4,5.8,11.4,3.6,2.9,7.7,4.1,12.3,3.5,7.3-1,13.3-7,13.8-14.8.5-8.1-5-15.2-12.8-16.8-3.9-.7-7.6-.2-11,1.8-4.9,2.9-7.6,7.3-8.1,12.9-.7,0-1.4,0-2.1,0-.3,0-.6-.1-.8-.3-.8-.8-1.6-1.6-2.4-2.4-.5.5-1,.9-1.6,1.5.4.4.9.7,1.3,1.1-1.4.1-2.8.1-4.1.1-5.3,0-9.9,4.2-10.3,9.5-.5,6.2,4.3,11.4,10.5,11.5,3.5,0,7,0,10.5,0,.4,0,.7.1,1,.4.7.8,1.5,1.5,2.3,2.3.5-.5,1-.9,1.6-1.5-.4-.4-.9-.7-1.4-1.1.3,0,.4,0,.5,0,6.2,0,12.3,0,18.5,0,.5,0,1,0,1.4.2,2.6.6,4.5,3.2,4.2,5.8-.3,2.9-2.5,5-5.4,5-2.9,0-5.8,0-8.7,0-.2,0-.5-.1-.7-.3-.8-.8-1.6-1.6-2.4-2.4-.5.5-1,.9-1.6,1.5.5.4.9.7,1.3,1,0,0,0,0,0,.1h-15.3v2h15.4c0,0,0,.1.1.2-.4.3-.9.7-1.2.9.5.6,1,1.1,1.4,1.6.8-.8,1.5-1.6,2.3-2.3.2-.2.6-.4.9-.4,2.8,0,5.7,0,8.5,0,.3,0,.6,0,.9,0,4.1-.6,6.8-4,6.6-8.1-.2-3.8-3.6-6.8-7.6-6.8-6.1,0-12.1,0-18.2,0h-.6c0,0,0-.1,0-.2.4-.3.8-.7,1.3-1.1-.5-.5-1-1-1.5-1.4-.7.7-1.5,1.5-2.3,2.3-.3.3-.6.4-1,.4-3.4,0-6.9,0-10.3,0-.6,0-1.2,0-1.7-.1-3.9-.7-6.7-4-6.9-8-.2-3.9,2.4-7.4,6.2-8.5.7-.2,1.5-.3,2.2-.3,1.3,0,2.7,0,4.1,0-.5.5-.9.9-1.2,1.2.5.5.9,1,1.4,1.5h0ZM32.9,7.6c2.3-3.1,5.4-5,9.3-5.4,8.3-1,15.3,4.8,15.8,13.1.5,7.7-5.5,14.5-13.6,14.7-8.4.2-14-6.6-14.2-12.9h2.9c.5,3.8,2.3,6.7,5.7,8.6,2.3,1.3,4.7,1.6,7.3,1.2,5.3-1,9.2-5.8,9-11.4-.2-4.9-4.2-9.5-9.1-10.2-3.2-.5-6,.2-8.6,2.1-2.5,1.9-3.9,4.5-4.3,7.7h-2.9c.2-2.8,1.1-5.2,2.8-7.4h0ZM41.8,19.6c.6-.6,1.3-1.3,2-2,.3-.3.6-.6.9-.9.4-.4.5-.9,0-1.4-1-1-2-2-3.1-3-.5.5-.9.9-1.4,1.4.4.3.9.7,1.3,1v.2h-6.3c-.5-3.3,3.8-7.5,8.2-7.9,4.8-.4,9.3,3.3,9.6,8.6.2,5-3.9,9.4-9,9.3-5.6,0-8.7-4.7-8.8-8h6.5c-.5.4-.9.8-1.4,1.1.6.5,1,.9,1.6,1.4Z"/>
        <path class="cls-2" d="M21.2,47c-6.5-3.6-13-7.1-19.5-10.7-.5-.3-1-.4-1.4,0-.4.4-.4.9-.1,1.4.8,1.9,1.6,3.8,2.4,5.7.2.4.2.7-.1,1-.8,1-1.5,2-2.2,2.9-.4.5-.4,1,0,1.5.7,1,1.4,1.9,2.2,2.9.3.4.3.7.1,1.1-.8,1.8-1.6,3.7-2.4,5.5-.2.5-.4,1,0,1.5.5.5,1,.3,1.5,0,2.9-1.6,5.7-3.1,8.6-4.7,3.6-2,7.2-4,10.8-5.9.4-.2.8-.5.8-1.1,0-.5-.3-.8-.8-1h0ZM13.5,45s0,0,0,.1c-.8-.2-1.6-.4-2.4-.5-1.9-.5-3.9-.9-5.8-1.4-.2,0-.5-.2-.6-.4-.5-1.1-1-2.2-1.5-3.5,3.6,2,7,3.8,10.4,5.7h0ZM3.1,56.7c.6-1.3,1-2.5,1.6-3.6,0-.1.2-.2.4-.3,2.7-.7,5.5-1.3,8.2-1.9,0,0,.1,0,.4,0-3.5,2-7,3.8-10.5,5.8h0ZM16.2,48.1c-3.4.8-6.9,1.6-10.3,2.5-1.2.3-1.9.2-2.5-.9-.3-.6-1-1.1-1-1.6,0-.5.7-1,1-1.6.6-1.1,1.3-1.3,2.5-1,3.3.9,6.7,1.6,10,2.4,0,0,.2,0,.3,0,0,0,0,0,0,.1Z"/>
        <path class="cls-1" d="M50,15.6c-.1-3-3.1-5.8-6-5.5v1.9c2.5.5,3.9,1.9,4,3.9,0,.9-.2,1.7-.8,2.5-.8,1.1-1.9,1.6-3.2,1.7v1.9c3.4.1,6.1-2.8,6-6.4Z"/>
      </g>
    </g>
  </g>
</svg>