<?xml version="1.0" encoding="UTF-8"?>
<svg id="Layer_1" data-name="Layer 1" xmlns="http://www.w3.org/2000/svg" version="1.1" viewBox="0 0 53.5 2610.1">
  <defs>
    <style>
      .cls-1 {
        fill: #6e6e6e;
        stroke: #6e6e6e;
      }

      .cls-2 {
        fill: #232323;
        stroke-width: 0px;
      }
    </style>
  </defs>
  <path class="cls-2" d="M26.8,0c14.8,0,26.8,12,26.8,26.8v2556.6c0,14.8-12,26.8-26.8,26.8s-26.8-12-26.8-26.8V26.8C0,12,12,0,26.8,0ZM26.8,2603.5c11.1,0,20.1-9,20.1-20.1V26.8c0-11.1-9-20.1-20.1-20.1S6.7,15.7,6.7,26.8v2556.6c0,11.1,9,20.1,20.1,20.1Z"/>
  <path class="cls-1" d="M26.8,2606.8h0c-12.9,0-23.4-10.5-23.4-23.4h0c0-12.9,10.5-23.4,23.4-23.4h0c12.9,0,23.4,10.5,23.4,23.4h0c0,12.9-10.5,23.4-23.4,23.4Z"/>
  <path class="cls-1" d="M26.8,2064.7h0c-12.9,0-23.4-10.5-23.4-23.4h0c0-12.9,10.5-23.4,23.4-23.4h0c12.9,0,23.4,10.5,23.4,23.4h0c0,12.9-10.5,23.4-23.4,23.4Z"/>
  <path class="cls-1" d="M26.8,1549.4h0c-12.9,0-23.4-10.5-23.4-23.4h0c0-12.9,10.5-23.4,23.4-23.4h0c12.9,0,23.4,10.5,23.4,23.4h0c0,12.9-10.5,23.4-23.4,23.4Z"/>
  <path class="cls-1" d="M26.8,1034h0c-12.9,0-23.4-10.5-23.4-23.4h0c0-12.9,10.5-23.4,23.4-23.4h0c12.9,0,23.4,10.5,23.4,23.4h0c0,12.9-10.5,23.4-23.4,23.4Z"/>
  <path class="cls-1" d="M26.8,518.7h0c-12.9,0-23.4-10.5-23.4-23.4h0c0-12.9,10.5-23.4,23.4-23.4h0c12.9,0,23.4,10.5,23.4,23.4h0c0,12.9-10.5,23.4-23.4,23.4Z"/>
  <path class="cls-1" d="M26.8,50.2h0c-12.9,0-23.4-10.5-23.4-23.4h0C3.3,13.8,13.8,3.3,26.8,3.3h0c12.9,0,23.4,10.5,23.4,23.4h0c0,12.9-10.5,23.4-23.4,23.4Z"/>
</svg>