<?xml version="1.0" encoding="UTF-8"?>
<svg id="Layer_1" data-name="Layer 1" xmlns="http://www.w3.org/2000/svg" version="1.1" viewBox="0 0 61 61">
  <defs>
    <style>
      .cls-1 {
        fill: #000;
      }

      .cls-1, .cls-2 {
        stroke-width: 0px;
      }

      .cls-2 {
        fill: #fff;
      }
    </style>
  </defs>
  <g>
    <circle class="cls-1" cx="30.5" cy="30.5" r="29.5"/>
    <path class="cls-2" d="M30.5,61C13.7,61,0,47.3,0,30.5S13.7,0,30.5,0s30.5,13.7,30.5,30.5-13.7,30.5-30.5,30.5ZM30.5,2C14.8,2,2,14.8,2,30.5s12.8,28.5,28.5,28.5,28.5-12.8,28.5-28.5S46.2,2,30.5,2Z"/>
  </g>
  <path class="cls-2" d="M21.3,21.6h7.4c2.1,0,3.4-.4,4.7-1.2.7-.4,1.7-.4,2.3.3.7.7.8,1.9,0,2.7-.8.8-17.5,17.6-17.5,17.6,0,0,0,0,0,0l1.2,1.2s0,0,0,0l17.5-17.6c1.5-1.5,4,.5,2.9,2.4-.8,1.4-1.2,2.7-1.2,4.9v7.2c0,0,0,0,.1,0h1.6s0,0,0,0v-19.2c.1,0,.1,0,0,0h-19.2c0,0,0,.1,0,.1v1.6s0,0,0,0Z"/>
</svg>