<?xml version="1.0" encoding="UTF-8"?>
<svg xmlns="http://www.w3.org/2000/svg" version="1.1" viewBox="0 0 77.6 1681.2">
  <defs>
    <style>
      .cls-1 {
        fill: #d7d7d7;
      }

      .cls-2 {
        fill: #fff;
      }

      .cls-3 {
        fill: #f54d28;
      }
    </style>
  </defs>
  <!-- Generator: Adobe Illustrator 28.6.0, SVG Export Plug-In . SVG Version: 1.2.0 Build 709)  -->
  <g>
    <g id="Layer_1">
      <rect class="cls-1" x="31.5" y="9.8" width="14.5" height="1651.3" rx="7.3" ry="7.3"/>
      <rect class="cls-3" x="31.5" y="9.8" width="14.5" height="1651.3" rx="7.3" ry="7.3"/>
      <g>
        <path d="M38.8,42h0c-8.9,0-16.1-7.2-16.1-16.1h0c0-8.9,7.1-16.1,16.1-16.1h0c8.9,0,16.1,7.2,16.1,16.1h0c0,8.9-7.2,16.1-16.1,16.1h0Z"/>
        <path class="cls-2" d="M38.8,43.5c-9.7,0-17.6-7.9-17.6-17.6s7.9-17.6,17.6-17.6,17.6,7.9,17.6,17.6-7.1,16.7-16.1,17.5h0c0,0-1.5.1-1.5.1ZM37.4,40.4h1.4c8,0,14.6-6.5,14.6-14.6s-6.5-14.6-14.6-14.6-14.6,6.6-14.6,14.6,5.8,13.8,13.2,14.5Z"/>
      </g>
      <g>
        <path d="M38.8,271.8h0c-8.9,0-16.1-7.2-16.1-16.1h0c0-8.9,7.1-16.1,16.1-16.1h0c8.9,0,16.1,7.2,16.1,16.1h0c0,8.9-7.2,16.1-16.1,16.1h0Z"/>
        <path class="cls-2" d="M38.8,273.3c-9.7,0-17.6-7.9-17.6-17.6s7.9-17.6,17.6-17.6,17.6,7.9,17.6,17.6-7.1,16.7-16.1,17.5h0c0,0-1.5.1-1.5.1ZM37.4,270.3h1.4c8,0,14.6-6.5,14.6-14.6s-6.5-14.6-14.6-14.6-14.6,6.6-14.6,14.6,5.8,13.8,13.2,14.5Z"/>
      </g>
      <g>
        <path d="M38.8,501.7h0c-8.9,0-16.1-7.2-16.1-16.1h0c0-8.9,7.1-16.1,16.1-16.1h0c8.9,0,16.1,7.2,16.1,16.1h0c0,8.9-7.2,16.1-16.1,16.1h0Z"/>
        <path class="cls-2" d="M38.8,503.2c-9.7,0-17.6-7.9-17.6-17.6s7.9-17.6,17.6-17.6,17.6,7.9,17.6,17.6-7.1,16.7-16.1,17.5h0c0,0-1.5.1-1.5.1ZM37.4,500.1h1.4c8,0,14.6-6.5,14.6-14.6s-6.5-14.6-14.6-14.6-14.6,6.6-14.6,14.6,5.8,13.8,13.2,14.5Z"/>
      </g>
      <g>
        <path d="M38.8,741.6h0c-8.9,0-16.1-7.2-16.1-16.1h0c0-8.9,7.1-16.1,16.1-16.1h0c8.9,0,16.1,7.2,16.1,16.1h0c0,8.9-7.2,16.1-16.1,16.1h0Z"/>
        <path class="cls-2" d="M38.8,743.1c-9.7,0-17.6-7.9-17.6-17.6s7.9-17.6,17.6-17.6,17.6,7.9,17.6,17.6-7.1,16.7-16.1,17.5h0c0,0-1.5.1-1.5.1ZM37.4,740h1.4c8,0,14.6-6.5,14.6-14.6s-6.5-14.6-14.6-14.6-14.6,6.6-14.6,14.6,5.8,13.8,13.2,14.5Z"/>
      </g>
      <g>
        <path d="M38.8,971.5h0c-8.9,0-16.1-7.2-16.1-16.1h0c0-8.9,7.1-16.1,16.1-16.1h0c8.9,0,16.1,7.2,16.1,16.1h0c0,8.9-7.2,16.1-16.1,16.1h0Z"/>
        <path class="cls-2" d="M38.8,973c-9.7,0-17.6-7.9-17.6-17.6s7.9-17.6,17.6-17.6,17.6,7.9,17.6,17.6-7.1,16.7-16.1,17.5h0c0,0-1.5.1-1.5.1ZM37.4,969.9h1.4c8,0,14.6-6.5,14.6-14.6s-6.5-14.6-14.6-14.6-14.6,6.6-14.6,14.6,5.8,13.8,13.2,14.5Z"/>
      </g>
      <g>
        <path d="M38.8,1201.3h0c-8.9,0-16.1-7.2-16.1-16.1h0c0-8.9,7.1-16.1,16.1-16.1h0c8.9,0,16.1,7.2,16.1,16.1h0c0,8.9-7.2,16.1-16.1,16.1h0Z"/>
        <path class="cls-2" d="M38.8,1202.8c-9.7,0-17.6-7.9-17.6-17.6s7.9-17.6,17.6-17.6,17.6,7.9,17.6,17.6-7.1,16.7-16.1,17.5h0c0,0-1.5.1-1.5.1ZM37.4,1199.8h1.4c8,0,14.6-6.5,14.6-14.6s-6.5-14.6-14.6-14.6-14.6,6.6-14.6,14.6,5.8,13.8,13.2,14.5Z"/>
      </g>
      <g>
        <path d="M38.8,1431.2h0c-8.9,0-16.1-7.2-16.1-16.1h0c0-8.9,7.1-16.1,16.1-16.1h0c8.9,0,16.1,7.2,16.1,16.1h0c0,8.9-7.2,16.1-16.1,16.1h0Z"/>
        <path class="cls-2" d="M38.8,1432.7c-9.7,0-17.6-7.9-17.6-17.6s7.9-17.6,17.6-17.6,17.6,7.9,17.6,17.6-7.1,16.7-16.1,17.5h0c0,0-1.5.1-1.5.1ZM37.4,1429.6h1.4c8,0,14.6-6.5,14.6-14.6s-6.5-14.6-14.6-14.6-14.6,6.6-14.6,14.6,5.8,13.8,13.2,14.5Z"/>
      </g>
      <g>
        <path d="M38.8,1661.1h0c-8.9,0-16.1-7.2-16.1-16.1h0c0-8.9,7.1-16.1,16.1-16.1h0c8.9,0,16.1,7.2,16.1,16.1h0c0,8.9-7.2,16.1-16.1,16.1h0Z"/>
        <path class="cls-2" d="M38.8,1662.6c-9.7,0-17.6-7.9-17.6-17.6s7.9-17.6,17.6-17.6,17.6,7.9,17.6,17.6-7.1,16.7-16.1,17.5h0c0,0-1.5.1-1.5.1ZM37.4,1659.5h1.4c8,0,14.6-6.5,14.6-14.6s-6.5-14.6-14.6-14.6-14.6,6.6-14.6,14.6,5.8,13.8,13.2,14.5Z"/>
      </g>
    </g>
  </g>
</svg>