<svg width="16" height="16" viewBox="0 0 16 16" fill="none" xmlns="http://www.w3.org/2000/svg">
<g clip-path="url(#clip0_1560_90)">
<path d="M14.7441 0H1.25594C0.562304 0 0 0.562304 0 1.25594V14.7441C0 15.4377 0.562304 16 1.25594 16H14.7441C15.4377 16 16 15.4377 16 14.7441V1.25594C16 0.562304 15.4377 0 14.7441 0Z" fill="#0E76A8"/>
<path d="M3.89834 11.8304H5.5396V6.35962H3.89834V11.8304ZM10.2928 6.17013C9.49633 6.17013 8.78359 6.46099 8.27793 7.10319V6.34164H6.63055V11.8304H8.27793V8.86222C8.27793 8.23484 8.85255 7.62307 9.5724 7.62307C10.2923 7.62307 10.4697 8.23504 10.4697 8.847V11.83H12.111V8.72488C12.111 6.56809 11.0898 6.17032 10.2927 6.17032L10.2928 6.17013ZM4.71146 5.81287C5.16515 5.81287 5.53328 5.44474 5.53328 4.99105C5.53328 4.53736 5.16515 4.16943 4.71146 4.16943C4.25778 4.16943 3.88965 4.53756 3.88965 4.99125C3.88965 5.44494 4.25778 5.81287 4.71146 5.81287Z" fill="white"/>
</g>
<defs>
<clipPath id="clip0_1560_90">
<rect width="16" height="16" fill="white"/>
</clipPath>
</defs>
</svg>
