<svg width="127" height="18" viewBox="0 0 127 18" fill="none" xmlns="http://www.w3.org/2000/svg">
<g clip-path="url(#clip0_1560_3156)">
<path d="M14.4329 18C14.3368 18 14.2527 17.9753 14.1686 17.9384L9.14528 15.3493L4.09796 17.9014C4.01384 17.9507 3.9177 17.963 3.83358 17.963C3.7134 17.963 3.58121 17.926 3.47306 17.8397C3.2928 17.7041 3.19666 17.4699 3.23271 17.2479L4.08594 11.5397L0.168269 7.39726C0.0120423 7.23699 -0.0360273 6.99041 0.0240597 6.76849C0.0961642 6.54657 0.276425 6.3863 0.492739 6.34931L6.04478 5.42466L8.6766 0.332877C8.78475 0.135616 8.98905 0 9.20536 0C9.43369 0 9.63799 0.135616 9.73413 0.332877L12.3059 5.46164L17.8459 6.43562C18.0622 6.4726 18.2425 6.63288 18.3146 6.85479C18.3867 7.07671 18.3266 7.31096 18.1704 7.47123L14.2166 11.5767L15.0218 17.2849C15.0578 17.5068 14.9617 17.7411 14.7814 17.8767C14.6733 17.9507 14.5531 17.9877 14.4329 17.9877V18Z" fill="#FFBB00"/>
<path d="M41.6045 18C41.5084 18 41.4243 17.9753 41.3401 17.9384L36.3169 15.3493L31.2816 17.9014C31.1974 17.9507 31.1013 17.963 31.0172 17.963C30.897 17.963 30.7648 17.926 30.6567 17.8397C30.4764 17.7041 30.3802 17.4822 30.4163 17.2479L31.2695 11.5397L27.3519 7.40959C27.1956 7.24932 27.1476 7.00274 27.2077 6.78082C27.2798 6.5589 27.46 6.39863 27.6763 6.36164L33.2284 5.43699L35.8362 0.332877C35.9443 0.135616 36.1486 0 36.3649 0C36.5933 0 36.7975 0.135616 36.8937 0.332877L39.4654 5.46164L45.0054 6.43562C45.2218 6.4726 45.414 6.63288 45.4741 6.85479C45.5462 7.07671 45.4741 7.31096 45.3299 7.47123L41.3762 11.5767L42.1813 17.2849C42.2174 17.5068 42.1213 17.7411 41.941 17.8767C41.8328 17.9507 41.7127 17.9877 41.5925 17.9877L41.6045 18Z" fill="#FFBB00"/>
<path d="M68.7637 18C68.6676 18 68.5834 17.9753 68.4993 17.9384L63.476 15.3493L58.4287 17.9014C58.3446 17.9507 58.2485 17.963 58.1643 17.963C58.0442 17.963 57.912 17.926 57.8158 17.8397C57.6356 17.7041 57.5394 17.4699 57.5755 17.2479L58.4287 11.5397L54.511 7.40959C54.3548 7.24932 54.3067 7.00274 54.3668 6.78082C54.4389 6.5589 54.6192 6.39863 54.8355 6.36164L60.3876 5.43699L63.0073 0.332877C63.1155 0.135616 63.3198 0 63.5361 0C63.7644 0 63.9687 0.135616 64.0649 0.332877L66.6366 5.46164L72.1766 6.43562C72.393 6.4726 72.5732 6.63288 72.6453 6.85479C72.7174 7.07671 72.6453 7.31096 72.5011 7.47123L68.5474 11.5767L69.3525 17.2849C69.3886 17.5068 69.2925 17.7411 69.1122 17.8767C69.004 17.9507 68.8839 17.9877 68.7637 17.9877V18Z" fill="#FFBB00"/>
<path d="M95.9232 18C95.8271 18 95.743 17.9753 95.6588 17.9384L90.6356 15.3493L85.5883 17.9014C85.5041 17.9507 85.408 17.963 85.3239 17.963C85.2037 17.963 85.0715 17.926 84.9754 17.8397C84.7951 17.7041 84.699 17.4822 84.735 17.2479L85.5883 11.5397L81.6706 7.40959C81.5144 7.24932 81.4543 7.00274 81.5264 6.78082C81.5985 6.5589 81.7787 6.39863 81.9951 6.36164L87.5471 5.43699L90.1669 0.332877C90.275 0.135616 90.4793 0 90.6957 0C90.924 0 91.1283 0.135616 91.2244 0.332877L93.7962 5.46164L99.3362 6.43562C99.5525 6.4726 99.7448 6.63288 99.8049 6.85479C99.877 7.07671 99.8049 7.31096 99.6606 7.47123L95.7069 11.5767L96.5121 17.2849C96.5481 17.5068 96.452 17.7411 96.2717 17.8767C96.1636 17.9507 96.0434 17.9877 95.9232 17.9877V18Z" fill="#FFBB00"/>
<path d="M123.082 18C122.986 18 122.902 17.9753 122.818 17.9384L117.795 15.3493L112.747 17.9014C112.663 17.9507 112.567 17.963 112.483 17.963C112.363 17.963 112.231 17.926 112.135 17.8397C111.954 17.7041 111.858 17.4822 111.894 17.2479L112.747 11.5397L108.83 7.40959C108.674 7.24932 108.613 7.00274 108.686 6.78082C108.758 6.5589 108.938 6.39863 109.154 6.36164L114.706 5.43699L117.326 0.332877C117.434 0.135616 117.639 0 117.855 0C118.083 0 118.287 0.135616 118.384 0.332877L120.955 5.46164L126.495 6.43562C126.712 6.4726 126.892 6.63288 126.964 6.85479C127.036 7.07671 126.964 7.31096 126.82 7.47123L122.866 11.5767L123.671 17.2849C123.707 17.5068 123.611 17.7411 123.431 17.8767C123.323 17.9507 123.203 17.9877 123.082 17.9877V18Z" fill="#FFBB00"/>
</g>
<defs>
<clipPath id="clip0_1560_3156">
<rect width="127" height="18" fill="white"/>
</clipPath>
</defs>
</svg>
