<svg width="110" height="36" viewBox="0 0 110 36" fill="none" xmlns="http://www.w3.org/2000/svg">
<g clip-path="url(#clip0_337_504)">
<path d="M106.328 21.9842L109.376 24.0171C108.387 25.4747 106.019 27.9756 101.927 27.9756C96.8461 27.9756 93.0615 24.045 93.0615 19.0432C93.0615 13.7216 96.8869 10.1108 101.5 10.1108C106.113 10.1108 108.415 13.801 109.149 15.7953L109.55 16.8107L97.5953 21.7588C98.5055 23.5513 99.9223 24.4593 101.927 24.4593C103.932 24.4593 105.323 23.4697 106.328 21.9863V21.9842ZM96.9535 18.762L104.937 15.4454C104.495 14.3355 103.185 13.5455 101.62 13.5455C99.6282 13.5455 96.859 15.3101 96.9535 18.762Z" fill="#FF302F"/>
<path d="M87.2969 1.00244H91.148V27.1599H87.2969V1.00244Z" fill="#20B15A"/>
<path d="M81.2268 10.8044H84.9449V26.6921C84.9449 33.2845 81.0529 36.0001 76.4526 36.0001C72.1205 36.0001 69.5123 33.0849 68.5356 30.7171L71.9466 29.3003C72.5627 30.7579 74.0461 32.4838 76.4526 32.4838C79.4085 32.4838 81.2268 30.6527 81.2268 27.2287V25.945H81.0937C80.2114 27.0141 78.5263 27.9779 76.386 27.9779C71.9187 27.9779 67.8271 24.086 67.8271 19.0713C67.8271 14.0566 71.9187 10.0981 76.386 10.0981C78.5112 10.0981 80.2114 11.047 81.0937 12.0903H81.2268V10.8066V10.8044ZM81.4951 19.0692C81.4951 15.9135 79.3957 13.6123 76.7209 13.6123C74.0461 13.6123 71.747 15.9114 71.747 19.0692C71.747 22.2269 74.0204 24.4445 76.7209 24.4445C79.3957 24.4574 81.4951 22.184 81.4951 19.0692Z" fill="#3686F7"/>
<path d="M46.6841 19.0026C46.6841 24.1503 42.6719 27.935 37.7517 27.935C32.8315 27.935 28.8193 24.1375 28.8193 19.0026C28.8193 13.8677 32.8315 10.0552 37.7517 10.0552C42.6719 10.0552 46.6841 13.8269 46.6841 19.0026ZM42.7793 19.0026C42.7793 15.7933 40.4523 13.5865 37.7517 13.5865C35.0512 13.5865 32.7242 15.7933 32.7242 19.0026C32.7242 22.2119 35.0512 24.4187 37.7517 24.4187C40.4523 24.4187 42.7793 22.1861 42.7793 19.0026Z" fill="#FF302F"/>
<path d="M66.1958 19.0432C66.1958 24.191 62.1836 27.9756 57.2634 27.9756C52.3432 27.9756 48.3311 24.191 48.3311 19.0432C48.3311 13.8955 52.3432 10.1108 57.2634 10.1108C62.1836 10.1108 66.1958 13.8547 66.1958 19.0432ZM62.2781 19.0432C62.2781 15.8339 59.9511 13.6271 57.2506 13.6271C54.55 13.6271 52.223 15.8339 52.223 19.0432C52.223 22.2525 54.55 24.4593 57.2506 24.4593C59.9511 24.4593 62.2781 22.2117 62.2781 19.0432Z" fill="#FFBA40"/>
<path d="M14.136 24.058C8.53309 24.058 4.14741 19.537 4.14741 13.9342C4.14741 8.33131 8.53309 3.81038 14.136 3.81038C17.1585 3.81038 19.3653 4.99964 20.9968 6.52594L23.6844 3.83828C21.4089 1.65724 18.3735 0 14.136 0C6.45939 0 0 6.2576 0 13.9342C0 21.6107 6.45939 27.8683 14.136 27.8683C18.2812 27.8683 21.4111 26.5052 23.8583 23.9635C26.3721 21.4497 27.147 17.9184 27.147 15.0569C27.147 14.1617 27.0397 13.2386 26.9195 12.556H14.136V16.2741H23.2422C22.9739 18.6011 22.2397 20.1918 21.1556 21.2759C19.8462 22.6004 17.7724 24.058 14.136 24.058Z" fill="#3686F7"/>
</g>
<defs>
<clipPath id="clip0_337_504">
<rect width="109.55" height="36" fill="white"/>
</clipPath>
</defs>
</svg>
