<?xml version="1.0" encoding="UTF-8"?>
<svg xmlns="http://www.w3.org/2000/svg" xmlns:xlink="http://www.w3.org/1999/xlink" version="1.1" viewBox="0 0 167 34">
  <defs>
    <style>
      .cls-1 {
        fill: none;
      }

      .cls-2 {
        fill: #4285f4;
      }

      .cls-3 {
        fill: #fbbc05;
      }

      .cls-4 {
        fill: #34a853;
      }

      .cls-5 {
        fill: #ea4335;
      }

      .cls-6 {
        clip-path: url(#clippath);
      }
    </style>
    <clipPath id="clippath">
      <rect class="cls-1" x="46.8" y="4.8" width="120.2" height="24.3"/>
    </clipPath>
  </defs>
  <!-- Generator: Adobe Illustrator 28.6.0, SVG Export Plug-In . SVG Version: 1.2.0 Build 709)  -->
  <g>
    <g id="Layer_1">
      <g class="cls-6">
        <g>
          <path d="M56.9,24.4c-2.2,0-4.3-.8-5.8-2.4-1.6-1.5-2.5-3.6-2.4-5.7,0-2.2.9-4.2,2.4-5.7,1.5-1.6,3.6-2.4,5.8-2.4,2.1,0,4.1.8,5.6,2.2l-1.6,1.6c-1.1-1-2.5-1.6-4-1.6-1.6,0-3.1.6-4.1,1.8-1.1,1.1-1.7,2.6-1.7,4.2,0,1.5.6,3,1.7,4.1,2.3,2.3,5.9,2.3,8.2,0,.7-.8,1.1-1.7,1.2-2.7h-5.3v-2.2h7.5c0,.5.1.9,0,1.4,0,1.9-.6,3.8-1.9,5.2-1.5,1.5-3.5,2.4-5.7,2.3ZM74.3,22.9c-2.1,2-5.4,2-7.5,0-1-1-1.6-2.3-1.5-3.7,0-1.4.5-2.8,1.5-3.7,2.1-2,5.4-2,7.5,0,1,1,1.6,2.3,1.5,3.7,0,1.4-.5,2.8-1.5,3.7h0ZM68.4,21.5c1.1,1.2,2.9,1.2,4,.1h.1c.6-.7.9-1.6.9-2.4,0-.8-.3-1.7-.9-2.3-1.1-1.2-2.9-1.2-4.1,0,0,0,0,0,0,0-.6.6-.9,1.4-.9,2.3,0,.8.3,1.7.9,2.3h0ZM85.7,22.9c-2.1,2-5.4,2-7.5,0-1-1-1.6-2.3-1.5-3.7,0-1.4.5-2.8,1.5-3.7,2.1-2,5.4-2,7.5,0,1,1,1.6,2.3,1.5,3.7,0,1.4-.5,2.8-1.5,3.7ZM79.9,21.5c1.1,1.2,2.9,1.2,4,.1,0,0,0,0,.1-.1.6-.6.9-1.4.9-2.3,0-.8-.3-1.7-.9-2.3-1.1-1.2-2.9-1.2-4.1,0,0,0,0,0,0,0-.6.6-.9,1.4-.9,2.3,0,.8.3,1.7.9,2.3h0ZM93.2,29.1c-1.1,0-2.1-.3-2.9-.9-.7-.6-1.3-1.3-1.7-2.2l2-.8c.2.5.6,1,1,1.3.5.4,1,.6,1.6.6.8,0,1.5-.2,2.1-.8.5-.6.8-1.5.7-2.3v-.8h0c-.7.8-1.7,1.2-2.8,1.2-1.3,0-2.6-.6-3.5-1.5-1-1-1.5-2.3-1.5-3.7,0-1.4.5-2.7,1.5-3.7.9-1,2.2-1.5,3.5-1.5s1.1.1,1.6.4c.4.2.8.5,1.1.8h0v-.8h2.2v9.4c.1,1.5-.4,3-1.4,4.1-1,.9-2.3,1.4-3.6,1.4ZM93.4,22.4c.8,0,1.5-.3,2-.9.5-.6.8-1.4.8-2.2,0-.8-.3-1.7-.8-2.3-.5-.6-1.2-.9-2-.9-.8,0-1.5.3-2.1.9-.6.6-.9,1.4-.9,2.3,0,.8.3,1.6.9,2.2.5.6,1.3.9,2.1.9ZM102.1,8.8v15.3h-2.3v-15.3h2.3ZM108.4,24.4c-1.4,0-2.7-.5-3.7-1.5-1-1-1.5-2.3-1.5-3.7,0-1.4.5-2.7,1.4-3.8.9-1,2.2-1.5,3.5-1.5.6,0,1.2.1,1.8.3.5.2,1,.5,1.3.9.3.3.6.7.9,1.1.2.3.4.7.5,1l.2.6-7,2.9c.4,1,1.4,1.6,2.5,1.6,1.1,0,2-.5,2.6-1.4l1.8,1.2c-.4.6-1,1.2-1.7,1.6-.8.5-1.7.8-2.6.7ZM105.5,19l4.7-1.9c-.1-.3-.4-.6-.7-.8-.4-.2-.8-.3-1.2-.3-.7,0-1.4.3-1.9.8-.6.6-.9,1.4-.9,2.2Z"/>
          <path d="M125,24.4c-4,0-7.3-3.1-7.4-7.1v-.3c0-4,3.1-7.3,7.1-7.4h.3c2,0,3.9.8,5.2,2.3l-1.3,1.2c-1-1.2-2.4-1.9-3.9-1.8-1.5,0-2.9.5-3.9,1.6-1.1,1.1-1.7,2.6-1.6,4.1,0,1.5.5,3,1.6,4.1,1,1,2.5,1.6,3.9,1.6,1.7,0,3.3-.7,4.4-2.1l1.3,1.3c-.7.8-1.5,1.4-2.4,1.9-1,.5-2.1.7-3.2.7Z"/>
          <path d="M134,24.1h-1.8v-14.2h1.8v14.2Z"/>
          <path d="M137,15.6c2-2,5.2-2,7.2,0,.9,1,1.5,2.3,1.4,3.7,0,1.4-.5,2.7-1.4,3.7-2,2-5.2,2-7.2,0-.9-1-1.5-2.3-1.4-3.7,0-1.4.5-2.7,1.4-3.7ZM138.4,21.8c1.2,1.2,3.1,1.3,4.3.1,0,0,0,0,.1-.1.6-.7,1-1.6.9-2.5,0-.9-.3-1.9-.9-2.5-1.2-1.2-3.1-1.3-4.3-.1,0,0,0,0-.1.1-.6.7-1,1.6-.9,2.5,0,.9.3,1.9,1,2.5h0Z"/>
          <path d="M155.7,24.1h-1.8v-1.3h0c-.3.5-.8.9-1.3,1.2-.5.3-1.2.5-1.8.5-1,0-2.1-.3-2.8-1.1-.7-.8-1-1.9-.9-3v-6h1.8v5.6c0,1.8.8,2.7,2.4,2.7.7,0,1.4-.3,1.8-.9.5-.6.7-1.3.7-2.1v-5.4h1.8v9.7Z"/>
          <path d="M161.9,24.4c-1.2,0-2.4-.5-3.3-1.5-.9-1-1.4-2.3-1.4-3.7,0-1.4.4-2.7,1.4-3.7.8-.9,2-1.5,3.3-1.5.7,0,1.4.1,2,.5.5.3,1,.7,1.3,1.2h0v-1.3c0,0,0-4.5,0-4.5h1.8v14.2h-1.8v-1.3h0c-.3.5-.8.9-1.3,1.2-.6.3-1.3.5-2,.5ZM162.2,22.8c.8,0,1.6-.3,2.2-.9.6-.7.9-1.6.9-2.6,0-.9-.3-1.9-.9-2.6-1.1-1.2-3-1.3-4.2-.2,0,0-.1.1-.2.2-.6.7-.9,1.6-.9,2.5,0,.9.3,1.8.9,2.5.6.6,1.4,1,2.2,1Z"/>
        </g>
      </g>
      <path class="cls-5" d="M26.2,9.4h1.3l3.6-3.7.2-1.6C24.5-1.9,14.2-1.3,8.3,5.6c-1.7,1.9-2.9,4.2-3.5,6.6.4-.2.9-.2,1.3,0l7.3-1.2s.4-.6.6-.6c3.2-3.6,8.7-4,12.4-1h0Z"/>
      <path class="cls-2" d="M36.3,12.1c-.8-3.1-2.5-5.9-4.9-8.1l-5.1,5.2c2.1,1.8,3.4,4.5,3.3,7.3v.9c2.5,0,4.5,2.1,4.5,4.6s-2,4.6-4.5,4.6h-9l-.9.9v5.5l.9.9h9c6.5,0,11.8-5.3,11.8-11.9,0-4-1.9-7.8-5.2-10Z"/>
      <path class="cls-4" d="M11.3,34h9.1v-7.1h-9.1c-.7,0-1.3-.1-1.9-.4l-1.3.4-3.7,3.5-.3,1.2c2.1,1.5,4.6,2.3,7.2,2.3Z"/>
      <path class="cls-3" d="M11.7,10.2C5.2,10.3,0,15.7,0,22.4c0,3.7,1.7,7.3,4.6,9.5l5.3-5.4c-2.3-1.1-3.3-3.8-2.3-6.2,1-2.3,3.7-3.4,6-2.3,1,.5,1.8,1.3,2.3,2.3l5.3-5.4c-2.2-3-5.7-4.8-9.4-4.8h0Z"/>
    </g>
  </g>
</svg>