<svg width="168" height="34" viewBox="0 0 168 34" fill="none" xmlns="http://www.w3.org/2000/svg">
<g clip-path="url(#clip0_337_526)">
<path d="M56.8749 24.4204C54.6917 24.4467 52.5967 23.5862 51.065 22.0407C49.4804 20.5567 48.6001 18.4844 48.6266 16.3155C48.6001 14.1465 49.4892 12.0742 51.065 10.5902C52.5879 9.02718 54.6917 8.14908 56.8749 8.16664C58.9611 8.1403 60.9682 8.94815 62.4471 10.4058L60.8802 11.9952C59.8062 10.959 58.3713 10.3882 56.8749 10.4146C55.3079 10.397 53.8115 11.0293 52.7375 12.1708C51.6283 13.2684 51.0121 14.7788 51.0385 16.3418C51.0297 17.8873 51.6371 19.3713 52.7375 20.4601C55.0086 22.7169 58.6618 22.752 60.977 20.5567C61.6636 19.8015 62.095 18.8444 62.183 17.8258H56.9013V15.5779H64.3749C64.4453 16.0345 64.4805 16.4911 64.4629 16.9477C64.5598 18.862 63.8643 20.7411 62.5351 22.1285C61.0562 23.6564 59.0052 24.4906 56.8749 24.4204ZM74.2518 22.9276C72.1655 24.9209 68.882 24.9209 66.7957 22.9276C65.7834 21.9529 65.2376 20.6006 65.2728 19.1956C65.2376 17.7907 65.7834 16.4384 66.7957 15.4637C68.882 13.4792 72.1655 13.4792 74.2518 15.4637C75.2641 16.4384 75.8099 17.7907 75.7746 19.1956C75.8099 20.6006 75.2553 21.9529 74.2429 22.9276H74.2518ZM68.4418 21.4612C69.5158 22.6115 71.3204 22.6642 72.4736 21.5929C72.5176 21.549 72.5616 21.5051 72.6056 21.4612C73.1954 20.8553 73.5123 20.0386 73.4859 19.1956C73.5123 18.3527 73.1954 17.5272 72.6056 16.9214C71.4964 15.771 69.6654 15.7271 68.5123 16.8335C68.4859 16.8599 68.4507 16.8862 68.4242 16.9214C67.8344 17.5272 67.5175 18.3527 67.544 19.1956C67.5175 20.0386 67.8433 20.8553 68.433 21.4612H68.4418ZM85.7131 22.9276C83.6268 24.9209 80.3433 24.9209 78.2571 22.9276C77.2447 21.9529 76.699 20.6006 76.7342 19.1956C76.699 17.7907 77.2447 16.4384 78.2571 15.4637C80.3433 13.4704 83.6268 13.4704 85.7131 15.4637C86.7254 16.4384 87.2712 17.7907 87.236 19.1956C87.2712 20.6006 86.7254 21.9529 85.7131 22.9276ZM79.9032 21.4612C80.9772 22.6115 82.7817 22.6642 83.9349 21.5929C83.9789 21.549 84.0229 21.5051 84.067 21.4612C84.6568 20.8553 84.9737 20.0386 84.9473 19.1956C84.9737 18.3527 84.6568 17.5272 84.067 16.9214C82.9578 15.771 81.1268 15.7271 79.9736 16.8335C79.9472 16.8599 79.912 16.8862 79.8856 16.9214C79.2958 17.5272 78.9789 18.3527 79.0053 19.1956C78.9789 20.0386 79.3046 20.8553 79.8944 21.4612H79.9032ZM93.2484 29.1095C92.192 29.1446 91.1621 28.8109 90.317 28.1787C89.5688 27.6167 88.979 26.8703 88.6093 26.0185L90.6163 25.1843C90.8364 25.6936 91.1797 26.1415 91.611 26.4927C92.0776 26.8703 92.6586 27.0635 93.2572 27.0459C94.023 27.0898 94.7713 26.8 95.3083 26.2556C95.8364 25.6146 96.1005 24.798 96.0389 23.9725V23.2174H95.9597C95.2818 24.0252 94.2607 24.4643 93.2044 24.4028C91.8663 24.4028 90.5899 23.8496 89.6832 22.8749C88.6973 21.909 88.1515 20.5743 88.1779 19.1956C88.1515 17.8082 88.6973 16.4735 89.6832 15.49C90.5899 14.5066 91.8663 13.9534 93.2044 13.9534C93.7677 13.9534 94.3135 14.0763 94.8241 14.3134C95.2642 14.5066 95.6516 14.7876 95.9685 15.1476H96.0477V14.3134H98.2308V23.6652C98.3452 25.158 97.8435 26.6332 96.8311 27.7484C95.8716 28.6616 94.5776 29.1534 93.2484 29.1095ZM93.4068 22.3656C94.1639 22.3832 94.8945 22.0583 95.3963 21.4875C95.9421 20.8641 96.2238 20.065 96.1973 19.2396C96.2326 18.4054 95.9421 17.5799 95.3963 16.9477C94.8945 16.3769 94.1639 16.052 93.4068 16.0696C92.6234 16.052 91.8751 16.3769 91.347 16.9477C90.766 17.5624 90.4491 18.379 90.4667 19.222C90.4491 20.0562 90.766 20.864 91.347 21.4699C91.8751 22.0495 92.6234 22.3744 93.4068 22.3656ZM102.113 8.75497V24.1043H99.8153V8.75497H102.113ZM108.416 24.4204C107.025 24.4555 105.678 23.9111 104.71 22.9188C103.724 21.9353 103.187 20.5918 103.222 19.1956C103.169 17.7995 103.689 16.4472 104.657 15.4374C105.572 14.4714 106.849 13.9446 108.178 13.9709C108.785 13.9709 109.384 14.0851 109.939 14.3134C110.44 14.5153 110.898 14.8139 111.285 15.1915C111.62 15.5076 111.91 15.8676 112.166 16.254C112.368 16.5789 112.544 16.9214 112.685 17.2814L112.923 17.8785L105.881 20.7675C106.321 21.7685 107.324 22.392 108.416 22.348C109.472 22.348 110.449 21.8036 110.995 20.8992L112.756 22.0846C112.307 22.7256 111.734 23.2701 111.065 23.6828C110.273 24.1833 109.349 24.4379 108.416 24.4204ZM105.476 19.0376L110.159 17.097C110.018 16.7545 109.754 16.4735 109.428 16.2979C109.058 16.0872 108.645 15.9818 108.222 15.9906C107.509 16.0081 106.822 16.3067 106.329 16.8248C105.731 17.3955 105.414 18.2122 105.476 19.0376Z" fill="white"/>
<path d="M124.957 24.4203C120.952 24.4905 117.651 21.303 117.58 17.3076C117.58 17.211 117.58 17.1144 117.58 17.0178C117.483 13.0225 120.661 9.71201 124.667 9.61542C124.763 9.61542 124.86 9.61542 124.957 9.61542C126.964 9.55395 128.883 10.4057 130.177 11.9336L128.91 13.163C127.959 11.9687 126.489 11.3014 124.966 11.3628C123.505 11.3277 122.087 11.8985 121.049 12.9259C119.966 14.0059 119.394 15.4899 119.455 17.0178C119.394 18.5458 119.966 20.0297 121.049 21.1098C122.087 22.1372 123.505 22.708 124.966 22.6728C126.674 22.6904 128.293 21.9352 129.367 20.6181L130.635 21.8826C129.975 22.6728 129.138 23.3051 128.197 23.7354C127.184 24.2008 126.075 24.4378 124.957 24.4203Z" fill="white"/>
<path d="M134.041 24.1043H132.219V9.92285H134.041V24.1043Z" fill="white"/>
<path d="M137.017 15.5695C139.006 13.6025 142.21 13.6025 144.2 15.5695C145.142 16.5617 145.652 17.8877 145.608 19.2575C145.652 20.6273 145.142 21.9533 144.2 22.9455C142.21 24.9125 139.006 24.9125 137.017 22.9455C136.075 21.9533 135.564 20.6273 135.608 19.2575C135.564 17.8877 136.075 16.5617 137.017 15.5695ZM138.372 21.804C139.534 23.0334 141.48 23.086 142.712 21.9269C142.756 21.8918 142.791 21.8479 142.835 21.804C143.478 21.1191 143.821 20.1971 143.777 19.2575C143.821 18.3179 143.478 17.3959 142.835 16.711C141.673 15.4816 139.728 15.429 138.495 16.5881C138.451 16.6232 138.416 16.6671 138.372 16.711C137.73 17.3959 137.386 18.3179 137.43 19.2575C137.395 20.1971 137.738 21.1103 138.381 21.7952H138.372V21.804Z" fill="white"/>
<path d="M155.705 24.1044H153.945V22.7609H153.892C153.575 23.2702 153.135 23.6917 152.607 23.9727C152.061 24.2888 151.436 24.4557 150.802 24.4557C149.763 24.5259 148.742 24.122 148.038 23.3493C147.369 22.5063 147.034 21.4526 147.096 20.3813V14.4102H148.918V20.0476C148.918 21.8565 149.719 22.7609 151.321 22.7609C152.043 22.7873 152.73 22.4536 153.17 21.8828C153.645 21.2857 153.892 20.5481 153.883 19.7842V14.4102H155.705V24.1044Z" fill="white"/>
<path d="M161.894 24.4204C160.644 24.4204 159.455 23.8847 158.637 22.9364C157.721 21.9266 157.237 20.6094 157.272 19.2571C157.237 17.9048 157.721 16.5877 158.637 15.5779C159.455 14.6295 160.644 14.0939 161.894 14.0939C162.589 14.0851 163.267 14.2431 163.883 14.568C164.42 14.8402 164.878 15.2442 165.204 15.7535H165.283L165.204 14.41V9.92285H167.026V24.1043H165.265V22.7608H165.186C164.86 23.2701 164.403 23.674 163.866 23.9462C163.258 24.2623 162.58 24.4292 161.894 24.4204ZM162.193 22.7608C163.029 22.7695 163.822 22.4271 164.385 21.8124C165.001 21.1099 165.318 20.1879 165.265 19.2571C165.318 18.3263 165.001 17.4043 164.385 16.7018C163.276 15.49 161.401 15.4022 160.186 16.4999C160.116 16.5613 160.054 16.6316 159.984 16.7018C159.359 17.4043 159.042 18.3175 159.103 19.2483C159.042 20.1791 159.359 21.0924 159.984 21.7948C160.547 22.4183 161.348 22.7695 162.193 22.7608Z" fill="white"/>
</g>
<path d="M26.2023 9.41672H27.4748L31.1016 5.72574L31.2797 4.1587C24.5352 -1.91522 14.2403 -1.25473 8.27201 5.60919C6.61769 7.51295 5.42149 9.79229 4.75977 12.24C5.16698 12.0716 5.61237 12.0457 6.03232 12.1623L13.2859 10.9449C13.2859 10.9449 13.6549 10.3233 13.8458 10.3621C17.0781 6.76181 22.4991 6.33443 26.2277 9.40377H26.2023V9.41672Z" fill="#EA4335"/>
<path d="M36.3185 12.1378C35.4816 9.02579 33.7824 6.22365 31.4111 4.08008L26.3389 9.24531C28.4819 11.0273 29.6993 13.7132 29.6486 16.5283V17.4451C32.1466 17.4451 34.1628 19.4983 34.1628 22.0422C34.1628 24.586 32.1466 26.6392 29.6486 26.6392H20.62L19.7197 27.569V33.0828L20.62 33.9997H29.6486C36.1283 34.0513 41.4287 28.7441 41.4795 22.1326C41.5048 18.1295 39.5774 14.3718 36.3185 12.1378Z" fill="#4285F4"/>
<path d="M11.2578 33.9999H20.4001V26.9176H11.2578C10.6029 26.9176 9.96092 26.7809 9.37027 26.52L8.08624 26.9052L4.40108 30.4463L4.08008 31.6888C6.14736 33.2047 8.66405 34.0123 11.2578 33.9999Z" fill="#34A853"/>
<path d="M11.6971 10.2129C5.20022 10.2522 -0.0379349 15.7184 0.000206984 22.4168C0.0256349 26.1658 1.71659 29.6788 4.58995 31.9597L9.84082 26.5459C7.56502 25.4841 6.5479 22.7183 7.57774 20.3719C8.60757 18.0255 11.2902 16.9768 13.566 18.0386C14.5704 18.5105 15.3714 19.3363 15.8291 20.3719L21.08 14.9581C18.8423 11.9432 15.3714 10.1867 11.6971 10.1998V10.2129Z" fill="#FBBC05"/>
<defs>
<clipPath id="clip0_337_526">
<rect width="120.187" height="24.3323" fill="white" transform="translate(46.8389 4.77734)"/>
</clipPath>
</defs>
</svg>
