<?xml version="1.0" encoding="UTF-8"?>
<svg xmlns="http://www.w3.org/2000/svg" xmlns:xlink="http://www.w3.org/1999/xlink" version="1.1" viewBox="0 0 109.5 36">
  <defs>
    <style>
      .cls-1 {
        fill: none;
      }

      .cls-2 {
        fill: #ff302f;
      }

      .cls-3 {
        fill: #ffba40;
      }

      .cls-4 {
        fill: #3686f7;
      }

      .cls-5 {
        fill: #20b15a;
      }

      .cls-6 {
        clip-path: url(#clippath);
      }
    </style>
    <clipPath id="clippath">
      <rect class="cls-1" y="0" width="109.5" height="36"/>
    </clipPath>
  </defs>
  <!-- Generator: Adobe Illustrator 28.6.0, SVG Export Plug-In . SVG Version: 1.2.0 Build 709)  -->
  <g>
    <g id="Layer_1">
      <g class="cls-6">
        <g>
          <path class="cls-2" d="M106.3,22l3,2c-1,1.5-3.4,4-7.4,4s-8.9-3.9-8.9-8.9,3.8-8.9,8.4-8.9,6.9,3.7,7.6,5.7l.4,1-12,4.9c.9,1.8,2.3,2.7,4.3,2.7s3.4-1,4.4-2.5h0ZM97,18.8l8-3.3c-.4-1.1-1.8-1.9-3.3-1.9s-4.8,1.8-4.7,5.2Z"/>
          <path class="cls-5" d="M87.3,1h3.9v26.2h-3.9V1Z"/>
          <path class="cls-4" d="M81.2,10.8h3.7v15.9c0,6.6-3.9,9.3-8.5,9.3s-6.9-2.9-7.9-5.3l3.4-1.4c.6,1.5,2.1,3.2,4.5,3.2s4.8-1.8,4.8-5.3v-1.3h-.1c-.9,1.1-2.6,2-4.7,2-4.5,0-8.6-3.9-8.6-8.9s4.1-9,8.6-9,3.8.9,4.7,2h.1v-1.3h0ZM81.5,19.1c0-3.2-2.1-5.5-4.8-5.5s-5,2.3-5,5.5,2.3,5.4,5,5.4c2.7,0,4.8-2.3,4.8-5.4Z"/>
          <path class="cls-2" d="M46.7,19c0,5.1-4,8.9-8.9,8.9s-8.9-3.8-8.9-8.9,4-8.9,8.9-8.9,8.9,3.8,8.9,8.9ZM42.8,19c0-3.2-2.3-5.4-5-5.4s-5,2.2-5,5.4,2.3,5.4,5,5.4,5-2.2,5-5.4Z"/>
          <path class="cls-3" d="M66.2,19c0,5.1-4,8.9-8.9,8.9s-8.9-3.8-8.9-8.9,4-8.9,8.9-8.9,8.9,3.7,8.9,8.9ZM62.3,19c0-3.2-2.3-5.4-5-5.4s-5,2.2-5,5.4,2.3,5.4,5,5.4,5-2.2,5-5.4Z"/>
          <path class="cls-4" d="M14.1,24.1c-5.6,0-10-4.5-10-10.1S8.5,3.8,14.1,3.8s5.2,1.2,6.9,2.7l2.7-2.7C21.4,1.7,18.4,0,14.1,0,6.5,0,0,6.3,0,13.9s6.5,13.9,14.1,13.9,7.3-1.4,9.7-3.9c2.5-2.5,3.3-6,3.3-8.9s-.1-1.8-.2-2.5h-12.8v3.7h9.1c-.3,2.3-1,3.9-2.1,5-1.3,1.3-3.4,2.8-7,2.8Z"/>
        </g>
      </g>
    </g>
  </g>
</svg>