<?xml version="1.0" encoding="UTF-8"?>
<svg xmlns="http://www.w3.org/2000/svg" xmlns:xlink="http://www.w3.org/1999/xlink" version="1.1" viewBox="0 0 127.7 36">
  <defs>
    <style>
      .cls-1 {
        fill: none;
      }

      .cls-2 {
        fill: #525252;
      }

      .cls-3 {
        fill: #f8761f;
      }

      .cls-4 {
        clip-path: url(#clippath);
      }
    </style>
    <clipPath id="clippath">
      <rect class="cls-1" x="0" y="0" width="127.7" height="36"/>
    </clipPath>
  </defs>
  <!-- Generator: Adobe Illustrator 28.6.0, SVG Export Plug-In . SVG Version: 1.2.0 Build 709)  -->
  <g>
    <g id="Layer_1">
      <g class="cls-4">
        <g>
          <path class="cls-2" d="M0,6.7h4.5v9.6h9.4V6.7h4.5v23.6h-4.5v-9.8H4.5v9.8H0V6.7Z"/>
          <path class="cls-2" d="M32.4,22.6c0,2-1.7,3.6-3.7,3.6s-3.7-1.6-3.7-3.6v-10.2h-4.2v10.2c0,4.2,3.5,7.7,7.9,7.7s7.9-3.4,7.9-7.7v-10.2h-4.2v10.2Z"/>
          <path class="cls-2" d="M48.4,12.6c-2.1,0-3.6.6-5,1.9v-7.8h-4.2v14.5c0,5.4,4,9.1,8.6,9.1s9.4-3.8,9.4-8.9-4.1-8.9-8.8-8.9h0ZM48.5,26.5c-2.9,0-5.1-2.3-5.1-5.1s2.2-5.1,5.1-5.1,4.6,2.3,4.6,5.1-2.2,5.1-4.6,5.1Z"/>
          <path class="cls-2" d="M64.3,13.6c0-2.1,1.4-2.7,3-2.7s2.9.9,4,2l2.8-3.2c-1.4-1.8-4.2-3.1-6.5-3.1-4.6,0-7.9,2.6-7.9,6.9,0,8,10.1,5.5,10.1,9.9s-1.4,2.6-3,2.6c-2.5,0-3.3-1.2-4.5-2.4l-3.1,3.1c2,2.3,4.4,3.5,7.3,3.5,4.4,0,7.9-2.6,7.9-6.7,0-8.9-10.1-6.1-10.1-10"/>
          <path class="cls-2" d="M85.6,12.4c-4.5,0-8.6,3.7-8.6,9.1v14.5h4.2v-7.9c1.4,1.3,2.9,1.9,5,1.9,4.7,0,8.8-3.8,8.8-8.9s-4.4-8.9-9.4-8.9h0ZM86.3,26.3c-2.9,0-5.1-2.3-5.1-5.1s2.2-5.1,5.1-5.1,4.6,2.3,4.6,5.1-2.2,5.1-4.6,5.1Z"/>
          <path class="cls-2" d="M126.2,26.5c-2.5,0-3.2-1.1-3.2-2.7v-7.1h3.9v-3.6h-3.9v-4.8l-4.3,1.9v14.5c0,3.7,2.6,5.6,6.2,5.6s1.3,0,1.7-.1l1-3.7c-.5,0-1,0-1.5,0"/>
          <path class="cls-3" d="M115.1,16.9c-.8-1.4-2-2.4-3.4-3.3-1.1-.6-2.2-1-3.4-1.2v-4.3c1.2-.5,2-1.7,2-3s-1.5-3.3-3.4-3.3-3.4,1.5-3.4,3.3.7,2.5,2,3v4.3c-1,.1-2,.4-3,.9-1.9-1.4-8.3-6.1-12-8.8,0-.3.2-.6.2-1,0-2-1.7-3.6-3.7-3.6s-3.7,1.6-3.7,3.6,1.7,3.6,3.7,3.6,1.4-.2,1.9-.5l.8.6,10.7,7.5c-.6.5-1.1,1.1-1.5,1.7-.9,1.3-1.4,2.8-1.4,4.4v.3c0,1.1.2,2.2.6,3.1.3.9.8,1.6,1.4,2.3l-3.6,3.5c-.3-.1-.6-.2-1-.2-.8,0-1.5.3-2,.8-.5.5-.8,1.2-.8,2s.3,1.5.8,2c.5.5,1.3.8,2,.8s1.5-.3,2-.8c.5-.5.8-1.2.8-2s0-.6-.1-.8l3.7-3.6c.5.3,1,.6,1.6.9,1.2.5,2.4.8,3.8.8h.3c1.5,0,3-.4,4.4-1.1,1.4-.8,2.6-1.8,3.4-3.1.9-1.3,1.3-2.8,1.3-4.4h0c0-1.7-.4-3.1-1.2-4.5h0ZM110.6,24.4c-1,1.1-2.1,1.7-3.4,1.7h-.2c-.7,0-1.5-.2-2.2-.6-.8-.4-1.4-1-1.9-1.7-.5-.7-.8-1.5-.8-2.3v-.2c0-.8.2-1.6.6-2.3.4-.8,1-1.4,1.8-1.9.8-.5,1.6-.7,2.5-.7h0c.8,0,1.6.2,2.3.5.7.4,1.3.9,1.8,1.6.5.7.7,1.4.8,2.3,0,.2,0,.3,0,.5,0,1.1-.4,2.1-1.3,3.1h0Z"/>
        </g>
      </g>
    </g>
  </g>
</svg>