<svg width="128" height="36" viewBox="0 0 128 36" fill="none" xmlns="http://www.w3.org/2000/svg">
<g clip-path="url(#clip0_337_495)">
<path d="M0 6.7124H4.4528V16.3302H13.8448V6.7124H18.3051V30.3228H13.8448V20.5037H4.4528V30.3228H0V6.7124Z" fill="white"/>
<path d="M32.4118 22.6307C32.4118 24.6071 30.7554 26.2149 28.7223 26.2149C26.6893 26.2149 25.0329 24.6071 25.0329 22.6307V12.4648H20.8096V22.6307C20.8096 26.8721 24.3593 30.3206 28.7223 30.3206C33.0853 30.3206 36.6326 26.8721 36.6326 22.6307V12.4648H32.4118V22.6307Z" fill="white"/>
<path d="M48.4242 12.5859C46.3288 12.5859 44.867 13.1776 43.4551 14.5235V6.7124H39.2168V21.1924C39.2168 26.6124 43.248 30.3228 47.7757 30.3228C52.8097 30.3228 57.2201 26.5445 57.2201 21.4543C57.2201 16.3641 53.1539 12.5859 48.4217 12.5859H48.4242ZM48.529 26.5106C45.6578 26.5106 43.4625 24.1801 43.4625 21.4543C43.4625 18.7286 45.6578 16.3957 48.529 16.3957C50.9612 16.3957 53.1589 18.7261 53.1589 21.4543C53.1589 24.1825 50.9612 26.5106 48.529 26.5106Z" fill="white"/>
<path d="M64.337 13.6239C64.337 11.5529 65.7564 10.8982 67.3105 10.8982C68.5603 10.8982 70.2167 11.8172 71.2968 12.9352L74.0658 9.78263C72.6813 7.97596 69.8774 6.72705 67.5799 6.72705C62.9849 6.72705 59.6746 9.32186 59.6746 13.6239C59.6746 21.6048 69.7776 19.0755 69.7776 23.5424C69.7776 24.9198 68.3931 26.1372 66.8066 26.1372C64.3045 26.1372 63.4938 24.9538 62.3463 23.7073L59.2705 26.7944C61.2312 29.1273 63.6634 30.3108 66.5696 30.3108C70.9276 30.3108 74.4425 27.6844 74.4425 23.5764C74.4425 14.7079 64.3395 17.4676 64.3395 13.6263" fill="white"/>
<path d="M85.594 12.353C81.0664 12.353 77.0352 16.0634 77.0352 21.4834V35.9998H81.2709V28.1498C82.6829 29.4958 84.1447 30.0875 86.2401 30.0875C90.9698 30.0875 95.0384 26.2462 95.0384 21.219C95.0384 16.1919 90.6255 12.3506 85.594 12.3506V12.353ZM86.3474 26.2801C83.4761 26.2801 81.2809 23.9472 81.2809 21.2215C81.2809 18.4957 83.4761 16.1628 86.3474 16.1628C88.7796 16.1628 90.9773 18.4933 90.9773 21.2215C90.9773 23.9496 88.7796 26.2801 86.3474 26.2801Z" fill="white"/>
<path d="M126.227 26.5104C123.728 26.5104 123.019 25.4603 123.019 23.8501V16.7228H126.903V13.1095H123.019V8.34668L118.729 10.2188V24.7352C118.729 28.448 121.363 30.3201 124.977 30.3201C125.519 30.3201 126.262 30.2862 126.669 30.1892L127.716 26.4449C127.242 26.4764 126.704 26.5104 126.23 26.5104" fill="white"/>
<path d="M115.055 16.9342C114.242 15.5762 113.099 14.4873 111.672 13.6676C110.605 13.0638 109.497 12.6806 108.25 12.5157V8.19914C109.497 7.68503 110.27 6.54525 110.27 5.21632C110.27 3.4048 108.776 1.93521 106.913 1.93521C105.049 1.93521 103.527 3.4048 103.527 5.21632C103.527 6.54525 104.256 7.68503 105.503 8.19914V12.5182C104.505 12.6588 103.47 12.962 102.525 13.4251C100.594 11.9992 94.2651 7.32612 90.5632 4.5955C90.6505 4.28752 90.7179 3.96984 90.7179 3.63518C90.7179 1.62723 89.0465 0.00244141 86.981 0.00244141C84.9155 0.00244141 83.2441 1.62966 83.2441 3.63518C83.2441 5.6407 84.918 7.26792 86.981 7.26792C87.6845 7.26792 88.338 7.06664 88.8993 6.73925L89.6801 7.31642L100.417 14.8365C99.8505 15.3434 99.3216 15.9181 98.8975 16.5656C98.0419 17.8824 97.518 19.335 97.518 20.9161V21.246C97.518 22.3566 97.7351 23.4043 98.1043 24.3888C98.4286 25.2497 98.905 26.0306 99.4962 26.7363L95.934 30.209C95.6172 30.095 95.2854 30.0344 94.9387 30.0344C94.1678 30.0344 93.4444 30.3278 92.8981 30.8565C92.3518 31.3876 92.0525 32.0932 92.0525 32.8426C92.0525 33.5919 92.3543 34.2976 92.8981 34.8287C93.4444 35.3598 94.1678 35.6508 94.9412 35.6508C95.7145 35.6508 96.4379 35.3574 96.9842 34.8287C97.528 34.2976 97.8299 33.5919 97.8299 32.8426C97.8299 32.5516 97.785 32.2678 97.6977 31.9987L101.38 28.4193C101.884 28.7588 102.43 29.0425 103.016 29.2899C104.174 29.7749 105.448 30.0707 106.845 30.0707H107.102C108.646 30.0707 110.103 29.7191 111.473 28.9964C112.914 28.235 114.045 27.1922 114.898 25.8608C115.756 24.5271 116.227 23.0526 116.227 21.4303V21.3502C116.227 19.7545 115.848 18.2825 115.05 16.9342H115.055ZM110.555 24.4446C109.554 25.5238 108.407 26.1907 107.107 26.1907H106.893C106.152 26.1907 105.426 25.9918 104.715 25.628C103.914 25.2279 103.305 24.6604 102.807 23.9378C102.293 23.2297 102.013 22.4585 102.013 21.6388V21.389C102.013 20.5839 102.173 19.82 102.572 19.0998C103.001 18.3116 103.58 17.6981 104.348 17.2107C105.104 16.7256 105.91 16.4904 106.808 16.4904H106.89C107.706 16.4904 108.477 16.6456 109.205 17.0094C109.946 17.395 110.552 17.9236 111.024 18.6172C111.48 19.3108 111.752 20.0601 111.839 20.8749C111.852 21.0447 111.859 21.2193 111.859 21.3842C111.859 22.49 111.425 23.5158 110.555 24.447V24.4446Z" fill="#F8761F"/>
</g>
<defs>
<clipPath id="clip0_337_495">
<rect width="127.714" height="36" fill="white"/>
</clipPath>
</defs>
</svg>
