<?xml version="1.0" encoding="UTF-8"?>
<svg xmlns="http://www.w3.org/2000/svg" version="1.1" viewBox="0 0 187.5 32.5">
  <defs>
    <style>
      .cls-1 {
        fill: #15759b;
      }
    </style>
  </defs>
  <!-- Generator: Adobe Illustrator 28.6.0, SVG Export Plug-In . SVG Version: 1.2.0 Build 709)  -->
  <g>
    <g id="Layer_1">
      <g>
        <path class="cls-1" d="M79,5.1c-.4-1.7-.8-3.4-1.3-5,.2,0,.4,0,.6,0,7.3,0,14.6,0,21.9,0,2.6,0,5.1.3,7.5,1.5,2.3,1.2,4,2.9,4.4,5.6.8,4.5-1.2,7.9-5.5,9.4-.5.2-1.1.3-1.6.5-.1,0-.3.1-.4.2,0,0,0,.1,0,.2.2,0,.5.2.7.2,1.6.4,2.9,1.1,4,2.3.4.4.7.9,1.1,1.5,0-.1.1-.2.2-.3,2.4-6.7,4.7-13.5,7.1-20.2C117.7.2,118,0,118.6,0c5.2,0,10.4,0,15.6,0,.5,0,.7.1.9.6,2.2,6.4,4.5,12.7,6.8,19.1,0,.2.2.4.3.7,0,0,0,0,.1,0,0-.2,0-.4,0-.7,0-6.3,0-12.7,0-19,0-.5.1-.7.7-.7,5.7,0,11.4,0,17.1,0,.5,0,.6.1.7.6,1.3,5.6,2.7,11.1,4,16.7,0,.1,0,.3.2.4,0-.3.2-.7.3-1,1.2-5.3,2.5-10.6,3.7-15.8.2-.8.2-.8,1-.8h16.6q.8,0,.8.8v30.8q0,.8-.8.8c-3.2,0-6.4,0-9.6,0-.5,0-.6-.1-.6-.6,0-8,0-16.1,0-24.1,0-.3,0-.5,0-.8,0,0-.1,0-.2,0,0,.2-.2.3-.2.5-1,3.8-1.9,7.6-2.9,11.4-1.1,4.3-2.2,8.7-3.3,13.1-.1.5-.3.6-.8.6-3,0-6.1,0-9.1,0-.4,0-.5-.1-.6-.4-.8-3.2-1.6-6.4-2.4-9.7-1.2-4.9-2.5-9.9-3.7-14.8,0-.2-.1-.4-.2-.6,0,0-.1,0-.2,0,0,.2-.1.4-.1.5,0,.8,0,1.6,0,2.4v21.8c0,.5-.2.7-.7.7-6,0-12,0-18.1,0-.5,0-.7-.2-.8-.6-.5-1.9-1.1-3.9-1.6-5.8-.1-.5-.3-.6-.8-.6-3.2,0-6.3,0-9.5,0-.4,0-.6.1-.7.5-.5,2-1.1,3.9-1.6,5.9-.1.4-.3.6-.8.6-5.8,0-11.6,0-17.5,0-.4,0-.5-.1-.6-.5-.3-2.2-.6-4.5-.9-6.7,0-.6-.3-1.2-.5-1.7-.6-1.4-1.7-2.1-3.1-2.1-1,0-2,0-3,0-.5,0-.7.1-.7.7,0,3.2,0,6.4,0,9.6s-.2.8-.8.8h-17.6c1.2-.4,2.4-.7,3.6-1.1,3-1,5.8-2.4,8.5-3.9.5-.3.6-.6.4-1.1-.9-3.4-1.8-6.8-2.7-10.1-.4-1.4-.7-2.8-1.1-4.1,0-.4-.2-.5-.7-.4-3.3.9-6.6,1.8-9.9,2.6-.4.1-.4.3-.3.6.7,2.6,1.3,5.1,2,7.7.1.5,0,.7-.4.9-1.9.8-3.8,1.3-5.9.6-2.2-.7-3.6-2.4-4.4-4.4-1-2.5-1.3-5.1-.5-7.8.7-2,2-3.4,3.7-4.5,2.7-1.7,5.8-2.3,8.9-2.3,1.2,0,2.3,0,3.5,0,.2,0,.4,0,.7,0h0ZM91.8,10.7h0v3.1c0,.3,0,.5.4.5,1.3,0,2.7,0,4,0,1.2,0,2.4-.5,3.2-1.6,1.4-2.1.3-4.8-2.2-5.2-1.6-.3-3.3-.2-5-.2-.4,0-.4.3-.4.5v3h0ZM129.7,17.7c-1.2-3.7-2.4-7.3-3.5-10.9,0,0-.2,0-.3,0-1.2,3.6-2.3,7.2-3.5,10.9h7.3Z"/>
        <path class="cls-1" d="M41.9,22.9V0c.2,0,.4,0,.5,0,3.2,0,6.3,0,9.5,0,.5,0,.6.1.6.6,0,1.3,0,2.6,0,3.8,0,.2-.1.5-.3.7-2.4,2.7-3.7,5.9-3.8,9.5-.2,5.5,1.5,10.2,5.4,14,1.7,1.7,3.8,2.9,6,3.7h-1.9c-7.6,0-15.3,0-22.9,0-.5,0-.7-.2-.9-.7-1.8-6.9-3.7-13.8-5.5-20.7-.2-.7-.4-1.4-.6-2.1,0,0-.1,0-.2,0,0,.2,0,.4,0,.6,0,7.4,0,14.8,0,22.2,0,.7,0,.7-.7.7-3.1,0-6.2,0-9.3,0-.4,0-.6-.1-.6-.6,0-10.4,0-20.8,0-31.3,0-.5.1-.6.6-.6,5.7,0,11.4,0,17.1,0,.5,0,.7,0,.8.6,1.9,7.3,3.8,14.6,5.8,21.8,0,.2,0,.3.2.4,0,0,0,0,.1,0h0Z"/>
        <path class="cls-1" d="M0,16.2C0,11,0,5.8,0,.5,0,.1,0,0,.5,0c3.8,0,7.6,0,11.3,0,.4,0,.5.2.5.5,0,1.1,0,2.3,0,3.4v27.8c0,.5-.2.8-.8.8-3.6,0-7.3,0-10.9,0-.5,0-.6-.1-.6-.6,0-5.2,0-10.4,0-15.7H0Z"/>
      </g>
    </g>
  </g>
</svg>