<svg width="188" height="33" viewBox="0 0 188 33" fill="none" xmlns="http://www.w3.org/2000/svg">
<g clip-path="url(#clip0_337_517)">
<path d="M78.993 5.60323C78.552 3.87519 78.1378 2.25033 77.7075 0.563566C77.9635 0.550533 78.1378 0.533154 78.311 0.533154C85.6045 0.532068 92.8979 0.52881 100.191 0.533154C102.776 0.535327 105.303 0.876373 107.646 2.05483C109.965 3.22025 111.616 4.99825 112.062 7.63538C112.817 12.0972 110.883 15.4925 106.573 17.0489C106.036 17.2433 105.47 17.3541 104.919 17.5105C104.775 17.5518 104.638 17.618 104.498 17.6734C104.492 17.7299 104.487 17.7864 104.481 17.844C104.715 17.9243 104.943 18.0243 105.182 18.0796C106.742 18.4424 108.094 19.1777 109.171 20.3779C109.562 20.8145 109.886 21.3131 110.281 21.8355C110.352 21.7019 110.416 21.6074 110.453 21.5042C112.811 14.7702 115.174 8.03834 117.507 1.29562C117.714 0.698247 117.985 0.511432 118.612 0.51469C123.809 0.54293 129.006 0.537499 134.202 0.520121C134.687 0.519035 134.92 0.650457 135.09 1.13379C137.328 7.50939 139.588 13.8752 141.846 20.2432C141.925 20.467 142.033 20.6799 142.128 20.8982C142.176 20.8895 142.225 20.8819 142.274 20.8732C142.296 20.6527 142.336 20.4322 142.336 20.2117C142.34 13.872 142.344 7.53111 142.327 1.19135C142.326 0.675438 142.448 0.519035 142.976 0.520121C148.675 0.538585 154.374 0.536413 160.072 0.521207C160.517 0.520121 160.685 0.662404 160.788 1.09469C162.115 6.66655 163.459 12.2341 164.802 17.8027C164.834 17.9384 164.891 18.0677 165.052 18.2165C165.149 17.8722 165.261 17.5311 165.342 17.1836C166.577 11.9017 167.808 6.61985 169.038 1.33689C169.225 0.533155 169.221 0.532068 170.055 0.532068C175.592 0.532068 181.129 0.532068 186.666 0.532068C187.473 0.532068 187.471 0.532068 187.471 1.36839C187.471 11.628 187.471 21.8876 187.471 32.1483C187.471 32.9847 187.473 32.9847 186.624 32.9847C183.435 32.9847 180.245 32.9749 177.056 32.9999C176.56 33.0031 176.425 32.8706 176.426 32.371C176.441 24.3325 176.437 16.2951 176.434 8.25665C176.434 8.00141 176.404 7.74617 176.388 7.49201C176.333 7.48333 176.277 7.47355 176.222 7.46486C176.156 7.62778 176.069 7.78636 176.026 7.95471C175.063 11.7464 174.102 15.5381 173.146 19.3309C172.05 23.6798 170.955 28.0286 169.877 32.3829C169.761 32.8532 169.562 33.002 169.077 32.9977C166.03 32.9738 162.984 32.9792 159.938 32.9955C159.584 32.9977 159.433 32.8902 159.349 32.5469C158.556 29.3276 157.752 26.1105 156.945 22.8945C155.706 17.9515 154.464 13.0096 153.222 8.06658C153.171 7.86456 153.1 7.66905 153.038 7.4692C152.982 7.46703 152.926 7.46486 152.87 7.46269C152.828 7.64516 152.755 7.82654 152.752 8.0101C152.738 8.82253 152.743 9.63604 152.743 10.4485C152.743 17.7277 152.743 25.007 152.744 32.2863C152.744 32.7504 152.504 32.9828 152.023 32.9836C146.002 32.9836 139.982 32.976 133.961 32.9977C133.447 32.9999 133.238 32.838 133.11 32.3558C132.597 30.4225 132.037 28.5033 131.525 26.57C131.404 26.1127 131.217 25.9335 130.724 25.9378C127.57 25.9606 124.416 25.9552 121.263 25.9411C120.853 25.9389 120.664 26.0692 120.554 26.4809C120.032 28.449 119.47 30.4051 118.942 32.371C118.824 32.812 118.646 32.9999 118.144 32.9977C112.32 32.976 106.496 32.9792 100.672 32.9944C100.256 32.9944 100.128 32.8739 100.074 32.4633C99.7794 30.2302 99.4696 27.9993 99.1221 25.7738C99.0317 25.1927 98.823 24.6225 98.609 24.0718C98.055 22.6447 96.9491 21.9973 95.4743 21.955C94.4717 21.9256 93.4659 21.9723 92.4644 21.9322C91.9265 21.9104 91.7523 22.0734 91.7566 22.6305C91.7813 25.827 91.7684 29.0246 91.7695 32.2222C91.7695 32.7298 91.5167 32.9839 91.0111 32.9847C85.1516 32.9847 79.2921 32.9847 73.4379 32.9847C74.6202 32.6132 75.8196 32.2722 76.9954 31.8616C79.9612 30.8233 82.7936 29.4873 85.5259 27.9244C86.0444 27.6278 86.11 27.3379 85.9691 26.8132C85.0644 23.4365 84.1856 20.0532 83.2981 16.672C82.9366 15.2959 82.5677 13.9208 82.2245 12.5404C82.1245 12.1385 81.9706 12.031 81.5522 12.145C78.2712 13.0356 74.9859 13.9111 71.6963 14.7669C71.308 14.8679 71.2563 15.0276 71.3478 15.3719C72.0266 17.9319 72.6828 20.4985 73.3766 23.0541C73.5057 23.5277 73.4347 23.7732 72.9646 23.9643C71.0509 24.7463 69.1135 25.2351 67.0653 24.5476C64.8633 23.809 63.5046 22.1841 62.6559 20.0977C61.6285 17.5724 61.3187 14.9776 62.1987 12.3318C62.8549 10.3605 64.1726 8.92354 65.9003 7.85152C68.6359 6.1539 71.6587 5.53263 74.8245 5.50873C75.9874 5.50004 77.1514 5.56956 78.3142 5.60214C78.4896 5.60649 78.666 5.60214 78.993 5.60214V5.60323ZM91.7684 11.1675H91.7705C91.7705 12.1961 91.7749 13.2257 91.7684 14.2543C91.7663 14.5758 91.8566 14.7615 92.2245 14.7561C93.5498 14.7387 94.8783 14.7941 96.1993 14.7181C97.4472 14.6453 98.6047 14.2521 99.3469 13.1301C100.742 11.023 99.6643 8.33377 97.1019 7.88519C95.4807 7.60171 93.7908 7.71358 92.1309 7.65819C91.7652 7.64625 91.7673 7.92538 91.7684 8.18931C91.7695 9.18204 91.7684 10.1748 91.7684 11.1686V11.1675ZM129.703 18.2469C128.493 14.5399 127.32 10.9513 126.148 7.36168C126.06 7.36168 125.972 7.36168 125.884 7.36276C124.718 10.9655 123.552 14.5682 122.361 18.2469H129.703Z" fill="white"/>
<path d="M41.9512 23.4169V0.572285C42.162 0.555993 42.3169 0.533184 42.4718 0.533184C45.6259 0.531012 48.7789 0.541873 51.9329 0.521236C52.4127 0.517978 52.5504 0.665692 52.5407 1.13382C52.516 2.41545 52.5472 3.69818 52.5213 4.9809C52.516 5.22311 52.4116 5.51528 52.2535 5.69558C49.8707 8.42286 48.554 11.5813 48.4056 15.2231C48.1829 20.6875 49.9159 25.4002 53.7735 29.2723C55.485 30.9895 57.5547 32.1418 59.8234 32.9879C59.1909 32.9879 58.5594 32.9879 57.9269 32.9879C50.2935 32.9879 42.6612 32.9803 35.0278 32.9999C34.4888 33.001 34.3038 32.8218 34.1715 32.3221C32.3352 25.4111 30.4764 18.5054 28.625 11.5976C28.4357 10.8916 28.2528 10.1835 28.0678 9.47641C28.0151 9.47858 27.9624 9.47967 27.9086 9.48184C27.8785 9.67734 27.8215 9.87176 27.8215 10.0673C27.8215 17.4725 27.8247 24.8778 27.8333 32.282C27.8333 32.963 27.8301 32.9858 27.1706 32.9858C24.0704 32.9858 20.9712 32.9782 17.8709 32.9966C17.4331 32.9988 17.29 32.8891 17.29 32.4297C17.3029 22.0082 17.3029 11.5868 17.2922 1.16531C17.2922 0.681984 17.4084 0.516892 17.9161 0.519064C23.6315 0.537528 29.3479 0.536442 35.0633 0.523409C35.5452 0.522322 35.7636 0.621161 35.9002 1.14794C37.7956 8.43589 39.7234 15.7162 41.6457 22.9977C41.6855 23.1497 41.7457 23.2964 41.7963 23.4452C41.8479 23.4365 41.8985 23.4278 41.9501 23.4191L41.9512 23.4169Z" fill="white"/>
<path d="M0.010783 16.7091C0.010783 11.4913 0.0150859 6.27463 0.00110143 1.05684C0.00110143 0.654975 0.10222 0.524639 0.507771 0.525725C4.28682 0.537672 8.06586 0.536586 11.8449 0.522466C12.2451 0.52138 12.3215 0.6843 12.315 1.03729C12.2946 2.17448 12.2956 3.31166 12.2946 4.44884C12.2935 13.7103 12.2946 22.9707 12.2946 32.2321C12.2946 32.7347 12.0425 32.9852 11.5383 32.9837C7.90235 32.9837 4.26745 32.974 0.63148 32.9968C0.130189 33 -0.00212577 32.8577 2.56987e-05 32.3592C0.0172374 27.1425 0.010783 21.9247 0.010783 16.7069V16.7091Z" fill="white"/>
</g>
<defs>
<clipPath id="clip0_337_517">
<rect width="187.324" height="33" fill="white"/>
</clipPath>
</defs>
</svg>
