<?xml version="1.0" encoding="UTF-8"?>
<svg xmlns="http://www.w3.org/2000/svg" xmlns:xlink="http://www.w3.org/1999/xlink" version="1.1" viewBox="0 0 168.6 36">
  <defs>
    <style>
      .cls-1 {
        fill: none;
      }

      .cls-2 {
        fill: #fbbc09;
      }

      .cls-3 {
        fill: #f1511b;
      }

      .cls-4 {
        fill: #343434;
      }

      .cls-5 {
        fill: #00adef;
      }

      .cls-6 {
        fill: #80cc28;
      }

      .cls-7 {
        clip-path: url(#clippath);
      }
    </style>
    <clipPath id="clippath">
      <rect class="cls-1" x="0" width="168.6" height="36"/>
    </clipPath>
  </defs>
  <!-- Generator: Adobe Illustrator 28.6.0, SVG Export Plug-In . SVG Version: 1.2.0 Build 709)  -->
  <g>
    <g id="Layer_1">
      <g class="cls-7">
        <g>
          <path class="cls-4" d="M168.6,16.3v-3h-3.7v-4.6h-.1s-3.5,1.1-3.5,1.1h0v3.5h-5.5v-1.9c0-.9.2-1.6.6-2.1.4-.5,1-.7,1.7-.7s1.1.1,1.6.4h.1c0,0,0-3.1,0-3.1h0c-.5-.2-1.2-.3-2-.3s-2.1.2-2.9.7c-.8.5-1.5,1.1-2,2-.5.8-.7,1.8-.7,2.9v2.1h-2.6v3h2.6v12.5h3.7v-12.5h5.5v7.9c0,3.3,1.5,4.9,4.6,4.9s1,0,1.6-.2c.5-.1.9-.2,1.1-.4h0v-3h-.2c-.2.2-.4.3-.7.4-.3,0-.5.1-.7.1-.7,0-1.2-.2-1.6-.6-.3-.4-.5-1.1-.5-2v-7.3h3.7ZM141.4,26.1c-1.3,0-2.4-.4-3.1-1.3-.8-.9-1.1-2.1-1.1-3.7s.4-2.9,1.1-3.8c.7-.9,1.8-1.3,3.1-1.3s2.3.4,3,1.3c.7.9,1.1,2.1,1.1,3.8s-.3,3-1,3.8c-.7.9-1.7,1.3-3.1,1.3h0ZM141.5,12.9c-2.6,0-4.6.7-6,2.2-1.4,1.5-2.2,3.5-2.2,6.1s.7,4.4,2.1,5.8c1.4,1.4,3.3,2.1,5.7,2.1s4.5-.8,5.9-2.2c1.4-1.5,2.2-3.5,2.2-6s-.7-4.4-2-5.8c-1.4-1.4-3.3-2.1-5.7-2.1h0ZM127.4,12.9c-1.7,0-3.2.4-4.3,1.3-1.1.9-1.7,2-1.7,3.4s.1,1.4.4,1.9c.2.6.6,1,1.1,1.4.5.4,1.2.8,2.2,1.3.8.3,1.5.6,1.9.9.4.2.7.5.8.7.2.2.2.5.2.9,0,1-.8,1.5-2.4,1.5s-1.3-.1-2-.4c-.7-.2-1.4-.6-2.1-1h-.2c0-.1,0,3.4,0,3.4h0c.5.3,1.2.5,1.9.6.8.2,1.5.2,2.1.2,1.9,0,3.4-.4,4.5-1.3,1.1-.9,1.7-2.1,1.7-3.5s-.3-1.9-.9-2.7c-.6-.7-1.6-1.4-3.1-2-1.2-.5-1.9-.8-2.2-1.1-.3-.3-.4-.7-.4-1.2s.2-.8.6-1.1c.4-.3.9-.4,1.6-.4s1.2,0,1.9.3c.6.2,1.2.4,1.6.8h.2c0,.1,0-3.3,0-3.3h0c-.4-.2-1-.4-1.7-.5-.7-.1-1.3-.2-1.8-.2ZM111.9,26.1c-1.3,0-2.4-.4-3.1-1.3-.8-.9-1.1-2.1-1.1-3.7s.4-2.9,1.1-3.8c.7-.9,1.8-1.3,3.1-1.3s2.3.4,3,1.3c.7.9,1.1,2.1,1.1,3.8s-.3,3-1,3.8c-.7.9-1.7,1.3-3.1,1.3h0ZM112,12.9c-2.6,0-4.6.7-6,2.2-1.5,1.5-2.2,3.5-2.2,6.1s.7,4.4,2.1,5.8c1.4,1.4,3.3,2.1,5.7,2.1s4.4-.8,5.9-2.2c1.4-1.5,2.2-3.5,2.2-6s-.7-4.4-2-5.8c-1.3-1.4-3.2-2.1-5.6-2.1h0ZM98.3,16v-2.7h-3.6v15.5h3.6v-7.9c0-1.3.3-2.4.9-3.3.6-.8,1.4-1.2,2.3-1.2s.7,0,1.1.2c.4.1.7.2.8.3h.2c0,.1,0-3.6,0-3.6h0c-.3-.2-.8-.2-1.4-.2-.9,0-1.7.3-2.4.9-.6.5-1.1,1.2-1.4,2.1h0,0ZM88.1,12.9c-1.7,0-3.2.4-4.4,1.1-1.3.7-2.2,1.7-2.9,3-.7,1.3-1,2.8-1,4.4s.3,2.8,1,4c.7,1.2,1.6,2.1,2.7,2.8,1.2.6,2.5,1,4,1s3.2-.3,4.4-1h0v-3.4h-.2c-.5.5-1.1.8-1.8,1-.6.2-1.2.3-1.7.3-1.4,0-2.6-.4-3.4-1.3-.8-.9-1.3-2.1-1.3-3.7s.4-2.8,1.3-3.8c.9-.9,2-1.4,3.4-1.4s2.4.4,3.5,1.2h.2c0,.1,0-3.4,0-3.4h0c-.4-.3-1-.5-1.7-.6-.7-.1-1.4-.2-2-.2ZM77.3,13.3h-3.6v15.5h3.6v-15.5ZM75.5,6.7c-.6,0-1.1.2-1.6.6-.4.4-.6.9-.6,1.5s.2,1.1.6,1.5c.4.4,1,.6,1.6.6s1.1-.2,1.6-.6c.4-.4.6-.9.6-1.5s-.2-1.1-.6-1.5c-.4-.4-.9-.6-1.6-.6h0ZM66.4,12.2v16.6h3.7V7.2h-5.1l-6.5,16-6.3-16h-5.3v21.6h3.5V12.2h.1l6.7,16.6h2.6l6.6-16.6h.1Z"/>
          <path class="cls-3" d="M17.1,17.1H0V0h17.1v17.1Z"/>
          <path class="cls-6" d="M36,17.1h-17.1V0h17.1v17.1Z"/>
          <path class="cls-5" d="M17.1,36H0v-17.1h17.1v17.1Z"/>
          <path class="cls-2" d="M36,36h-17.1v-17.1h17.1v17.1Z"/>
        </g>
      </g>
    </g>
  </g>
</svg>