<svg width="169" height="36" viewBox="0 0 169 36" fill="none" xmlns="http://www.w3.org/2000/svg">
<g clip-path="url(#clip0_337_511)">
<path d="M168.625 16.2868V13.3219H164.942V8.70992L164.817 8.74945L161.358 9.80692L161.288 9.82668V13.3186H155.83V11.3717C155.83 10.4658 156.034 9.77068 156.433 9.30948C156.828 8.85157 157.398 8.62097 158.119 8.62097C158.64 8.62097 159.177 8.74286 159.72 8.98664L159.855 9.04594V5.92295L159.793 5.89989C159.289 5.7187 158.6 5.62646 157.747 5.62646C156.673 5.62646 155.698 5.86036 154.845 6.32485C153.992 6.78935 153.323 7.4515 152.855 8.29155C152.387 9.13159 152.15 10.1034 152.15 11.1806V13.3186H149.587V16.2835H152.15V28.7754H155.83V16.2835H161.288V24.2227C161.288 27.494 162.83 29.151 165.871 29.151C166.372 29.151 166.895 29.0917 167.432 28.9764C167.979 28.8578 168.351 28.7425 168.572 28.614L168.622 28.5844V25.5899L168.473 25.6887C168.272 25.8205 168.025 25.9292 167.732 26.0115C167.439 26.0939 167.195 26.1367 167.004 26.1367C166.292 26.1367 165.765 25.9456 165.436 25.5668C165.107 25.1847 164.939 24.5159 164.939 23.5803V16.2835H168.622L168.625 16.2868ZM141.368 26.1433C140.03 26.1433 138.98 25.7019 138.235 24.8289C137.487 23.9526 137.108 22.7008 137.108 21.1129C137.108 19.5251 137.487 18.1909 138.235 17.2981C138.976 16.412 140.021 15.9607 141.335 15.9607C142.649 15.9607 143.628 16.3889 144.356 17.2388C145.087 18.0921 145.459 19.3637 145.459 21.024C145.459 22.6843 145.11 23.9921 144.422 24.8552C143.74 25.7118 142.712 26.1466 141.365 26.1466L141.368 26.1433ZM141.529 12.9464C138.98 12.9464 136.957 13.6942 135.511 15.1667C134.068 16.6393 133.336 18.6784 133.336 21.2282C133.336 23.778 134.051 25.5965 135.458 27.013C136.868 28.4328 138.782 29.151 141.154 29.151C143.526 29.151 145.608 28.3933 147.054 26.901C148.497 25.4087 149.228 23.3893 149.228 20.9021C149.228 18.4149 148.543 16.4811 147.189 15.0745C145.835 13.6645 143.931 12.9497 141.529 12.9497V12.9464ZM127.403 12.9464C125.671 12.9464 124.234 13.3911 123.141 14.2641C122.037 15.1437 121.48 16.2967 121.48 17.6934C121.48 18.4182 121.602 19.0639 121.839 19.6107C122.08 20.1609 122.449 20.6418 122.94 21.047C123.427 21.4489 124.178 21.8706 125.176 22.2989C126.013 22.6448 126.639 22.9347 127.038 23.1653C127.426 23.3893 127.703 23.6166 127.858 23.8373C128.01 24.0547 128.085 24.3479 128.085 24.7136C128.085 25.7513 127.308 26.2586 125.707 26.2586C125.114 26.2586 124.435 26.1334 123.694 25.8896C122.953 25.6459 122.258 25.2934 121.632 24.8454L121.48 24.7366V28.2813L121.536 28.3077C122.057 28.5481 122.712 28.7491 123.486 28.9105C124.261 29.0686 124.962 29.151 125.572 29.151C127.453 29.151 128.968 28.7063 130.075 27.8267C131.189 26.9405 131.752 25.7612 131.752 24.315C131.752 23.274 131.449 22.3779 130.849 21.6598C130.256 20.9449 129.225 20.2893 127.786 19.7096C126.639 19.2484 125.904 18.8662 125.601 18.573C125.308 18.2897 125.16 17.8878 125.16 17.3838C125.16 16.9358 125.344 16.5734 125.72 16.2835C126.099 15.9903 126.626 15.8421 127.288 15.8421C127.901 15.8421 128.53 15.9376 129.153 16.1287C129.775 16.3197 130.325 16.5734 130.78 16.8831L130.932 16.9852V13.6217L130.872 13.5954C130.451 13.4142 129.894 13.2593 129.219 13.1342C128.547 13.009 127.934 12.9464 127.403 12.9464ZM111.881 26.1433C110.546 26.1433 109.492 25.7019 108.748 24.8289C108 23.9526 107.624 22.7008 107.624 21.1129C107.624 19.5251 108.003 18.1909 108.751 17.2981C109.492 16.412 110.537 15.9607 111.851 15.9607C113.165 15.9607 114.144 16.3889 114.872 17.2388C115.603 18.0921 115.975 19.3637 115.975 21.024C115.975 22.6843 115.626 23.9921 114.938 24.8552C114.256 25.7118 113.228 26.1466 111.881 26.1466V26.1433ZM112.045 12.9464C109.496 12.9464 107.47 13.6942 106.027 15.1667C104.584 16.6393 103.853 18.6784 103.853 21.2282C103.853 23.778 104.567 25.5965 105.974 27.013C107.384 28.4328 109.298 29.151 111.67 29.151C114.042 29.151 116.124 28.3933 117.57 26.901C119.013 25.4087 119.744 23.3893 119.744 20.9021C119.744 18.4149 119.059 16.4811 117.705 15.0745C116.351 13.6645 114.447 12.9497 112.045 12.9497V12.9464ZM98.2654 15.9969V13.3186H94.6285V28.7754H98.2654V20.8691C98.2654 19.5251 98.5718 18.4215 99.1713 17.5847C99.7643 16.7612 100.558 16.3428 101.523 16.3428C101.85 16.3428 102.219 16.3955 102.617 16.5042C103.012 16.6096 103.296 16.7249 103.464 16.8468L103.615 16.9588V13.2923L103.556 13.2659C103.217 13.121 102.739 13.0485 102.133 13.0485C101.22 13.0485 100.4 13.3417 99.7017 13.9215C99.0857 14.4288 98.6409 15.1272 98.3016 15.9936H98.2621L98.2654 15.9969ZM88.119 12.9464C86.4521 12.9464 84.963 13.3055 83.698 14.0104C82.4297 14.7187 81.448 15.7268 80.7826 17.0082C80.1171 18.2897 79.7811 19.782 79.7811 21.4522C79.7811 22.9116 80.1073 24.2524 80.7529 25.435C81.3986 26.6177 82.3144 27.5434 83.474 28.1858C84.6303 28.8281 85.9678 29.151 87.4502 29.151C89.1797 29.151 90.6523 28.8051 91.8382 28.1232L91.8844 28.0968V24.7663L91.7328 24.8783C91.1958 25.267 90.5996 25.58 89.9539 25.804C89.3115 26.028 88.7251 26.14 88.2112 26.14C86.7848 26.14 85.6384 25.692 84.8082 24.8124C83.9748 23.9295 83.5531 22.6942 83.5531 21.136C83.5531 19.5778 83.9945 18.2996 84.8609 17.364C85.7273 16.4317 86.8737 15.9574 88.2705 15.9574C89.4663 15.9574 90.6292 16.3626 91.7328 17.1598L91.8844 17.2718V13.7601L91.8349 13.7337C91.4198 13.5031 90.8532 13.3087 90.1516 13.1638C89.4532 13.0189 88.7679 12.9464 88.119 12.9464ZM77.2742 13.3186H73.6373V28.7754H77.2742V13.3186ZM75.492 6.73335C74.8924 6.73335 74.3719 6.93759 73.9436 7.3395C73.5121 7.74469 73.2947 8.25531 73.2947 8.85487C73.2947 9.45443 73.5121 9.94857 73.9371 10.3406C74.362 10.7326 74.8858 10.9336 75.492 10.9336C76.0981 10.9336 76.6252 10.7359 77.0535 10.3406C77.485 9.94528 77.7024 9.44455 77.7024 8.85487C77.7024 8.26519 77.4883 7.77105 77.0699 7.35597C76.6516 6.94089 76.1179 6.73335 75.4887 6.73335H75.492ZM66.4195 12.1788V28.7787H70.1289V7.20772H64.9931L58.4638 23.2311L52.1289 7.20772H46.7822V28.7787H50.2709V12.1788H50.3895L57.0802 28.7787H59.7123L66.2976 12.1788H66.4162H66.4195Z" fill="#B0B0B0"/>
<path d="M17.1072 17.1072H0V0H17.1072V17.1072Z" fill="#F1511B"/>
<path d="M35.993 17.1072H18.8857V0H35.993V17.1072Z" fill="#80CC28"/>
<path d="M17.1072 35.9998H0V18.8926H17.1072V35.9998Z" fill="#00ADEF"/>
<path d="M35.993 35.9998H18.8857V18.8926H35.993V35.9998Z" fill="#FBBC09"/>
</g>
<defs>
<clipPath id="clip0_337_511">
<rect width="168.625" height="36" fill="white"/>
</clipPath>
</defs>
</svg>
