<?xml version="1.0" encoding="UTF-8"?>
<svg xmlns="http://www.w3.org/2000/svg" xmlns:xlink="http://www.w3.org/1999/xlink" version="1.1" viewBox="0 0 80 80">
  <defs>
    <style>
      .cls-1 {
        fill: none;
      }

      .cls-2 {
        fill: url(#linear-gradient);
      }

      .cls-3 {
        fill: #fff;
      }

      .cls-4 {
        clip-path: url(#clippath);
      }
    </style>
    <mask id="mask" x="-368.8" y="-125.4" width="630" height="714" maskUnits="userSpaceOnUse"/>
    <filter id="drop-shadow-1" filterUnits="userSpaceOnUse">
      <feOffset dx="6" dy="-1"/>
      <feGaussianBlur result="blur" stdDeviation="3"/>
      <feFlood flood-color="#777" flood-opacity=".1"/>
      <feComposite in2="blur" operator="in"/>
      <feComposite in="SourceGraphic"/>
    </filter>
    <linearGradient id="linear-gradient" x1="8.4" y1="-1259.8" x2="88.4" y2="-1259.8" gradientTransform="translate(-8.4 -1219.8) scale(1 -1)" gradientUnits="userSpaceOnUse">
      <stop offset="0" stop-color="#e9a757"/>
      <stop offset=".2" stop-color="#d03b26"/>
      <stop offset=".5" stop-color="#5784f2"/>
      <stop offset=".8" stop-color="#67ae60"/>
      <stop offset="1" stop-color="#db3333"/>
    </linearGradient>
    <clipPath id="clippath">
      <rect class="cls-1" x="29.4" y="29.4" width="21.2" height="21.2" transform="translate(-16.6 40) rotate(-45)"/>
    </clipPath>
  </defs>
  <!-- Generator: Adobe Illustrator 28.6.0, SVG Export Plug-In . SVG Version: 1.2.0 Build 709)  -->
  <g>
    <g id="DESIGNED_BY_FREEPIK">
      <g>
        <circle class="cls-3" cx="40" cy="40" r="39"/>
        <path class="cls-2" d="M40,80C17.9,80,0,62.1,0,40S17.9,0,40,0s40,17.9,40,40-17.9,40-40,40ZM40,2C19,2,2,19,2,40s17,38,38,38,38-17,38-38S61,2,40,2Z"/>
      </g>
      <g class="cls-4">
        <g>
          <path d="M41.1,38.9h-14.6c-.6,0-1.1.5-1.1,1.1s.5,1.1,1.1,1.1h12.4v12.4c0,.6.5,1.1,1.1,1.1s1.1-.5,1.1-1.1v-12.4h12.4c.6,0,1.1-.5,1.1-1.1s-.5-1.1-1.1-1.1h-12.4Z"/>
          <path d="M41.1,26.5c0-.6-.5-1.1-1.1-1.1s-1.1.5-1.1,1.1v11.4h2.2v-11.4Z"/>
        </g>
      </g>
    </g>
  </g>
</svg>