<?xml version="1.0" encoding="UTF-8"?>
<svg xmlns="http://www.w3.org/2000/svg" xmlns:xlink="http://www.w3.org/1999/xlink" version="1.1" viewBox="0 0 37.2 37.2">
  <defs>
    <style>
      .cls-1 {
        fill: none;
      }

      .cls-2 {
        mask: url(#mask);
      }

      .cls-3 {
        filter: url(#drop-shadow-1);
      }

      .cls-4 {
        fill: #fff;
      }

      .cls-5 {
        fill: #f5f5f7;
      }

      .cls-6 {
        clip-path: url(#clippath);
      }

      .cls-7 {
        fill: #1b1b1b;
      }
    </style>
    <mask id="mask" x="-516.7" y="-119.3" width="630" height="714" maskUnits="userSpaceOnUse"/>
    <filter id="drop-shadow-1" filterUnits="userSpaceOnUse">
      <feOffset dx="6" dy="-1"/>
      <feGaussianBlur result="blur" stdDeviation="3"/>
      <feFlood flood-color="#777" flood-opacity=".1"/>
      <feComposite in2="blur" operator="in"/>
      <feComposite in="SourceGraphic"/>
    </filter>
    <clipPath id="clippath">
      <rect class="cls-1" x="10.8" y="10.2" width="15.6" height="15.6"/>
    </clipPath>
  </defs>
  <!-- Generator: Adobe Illustrator 28.6.0, SVG Export Plug-In . SVG Version: 1.2.0 Build 709)  -->
  <g>
    <g id="BACKGROUND_1">
      <g class="cls-2">
        <g class="cls-3">
          <path class="cls-4" d="M97.8,3.6C-106-18.5-295-65.7-513.2-100.1c.3-2.8.6-5.6.9-8.5C-309.2-73.2-106.2-37.9,96.9-2.6c.3,2.1.6,4.2.9,6.2Z"/>
        </g>
      </g>
    </g>
    <g id="DESIGNED_BY_FREEPIK">
      <rect class="cls-7" width="37.2" height="37.2" rx="7" ry="7"/>
      <g class="cls-6">
        <g>
          <path class="cls-5" d="M19.5,25.8h-3.2v-10.4h3.1v1.4c.2-.3.4-.5.6-.7.6-.5,1.3-.8,2-.9.7,0,1.3,0,2,.2,1.1.3,1.7,1.1,2,2.1.2.7.3,1.4.3,2.1,0,2,0,4,0,6,0,0,0,0,0,.1h-3.2v-.2c0-1.7,0-3.4,0-5.2,0-.4,0-.7,0-1.1-.2-1.1-.9-1.4-1.9-1.3-.9.1-1.4.6-1.5,1.6,0,.4,0,.7,0,1.1,0,1.6,0,3.2,0,4.9v.2h0Z"/>
          <path class="cls-5" d="M11.1,15.4h3.2v10.4h-3.2v-10.4Z"/>
          <path class="cls-5" d="M14.5,12.1c0,1-.8,1.9-1.9,1.9-1,0-1.9-.9-1.9-1.9,0-1,.8-1.9,1.9-1.9,1,0,1.9.8,1.9,1.9Z"/>
        </g>
      </g>
    </g>
  </g>
</svg>