<svg width="80" height="80" viewBox="0 0 80 80" fill="none" xmlns="http://www.w3.org/2000/svg">
<g clip-path="url(#clip0_984_1594)">
<path d="M76.8762 26.9178C76.3111 26.7758 75.7025 26.9555 75.291 27.3872C74.8042 27.9001 74.6651 28.6652 74.9143 29.4881C77.2703 37.2833 77.0384 45.09 74.2189 52.6881C68.0407 69.3476 50.8654 79.1335 33.377 75.9546C25.5906 74.5405 18.9604 70.9704 13.669 65.3428C5.22186 56.3625 1.9879 45.6261 4.05984 33.4408C5.37255 25.721 9.01221 19.0125 14.8774 13.498C21.5192 7.25321 29.5577 3.90043 38.7641 3.53531C42.7109 3.37882 46.7534 3.91202 50.7813 5.12331C51.2971 5.27979 51.8129 5.25081 52.2302 5.04507C52.633 4.84512 52.9315 4.48579 53.0648 4.03373C53.3662 3.02239 52.8359 2.12117 51.7434 1.78792C45.3334 -0.159408 38.8539 -0.515839 32.4874 0.727323C24.8922 2.21101 18.2186 5.61594 12.649 10.8436C6.04195 17.042 1.93864 24.8169 0.449161 33.9508C0.399899 34.2551 0.37092 34.5738 0.34484 34.881C0.289782 35.504 0.234723 36.1444 0 36.7675V43.4179C0.260803 44.0381 0.312964 44.6843 0.365125 45.3073C0.388307 45.5739 0.408592 45.826 0.443366 46.0752C1.51846 53.6038 4.86253 60.6947 10.1076 66.5831C15.3555 72.4715 22.0379 76.624 29.4302 78.5887C31.9281 79.2523 34.2029 79.6638 36.385 79.8406H36.4284C36.5154 79.8464 36.7066 79.8551 36.8399 79.9971H42.8065C42.8848 79.9159 43.0094 79.8551 43.1977 79.8522C44.5047 79.8232 45.8261 79.5943 46.962 79.3798C57.4666 77.4064 65.9862 72.0831 72.286 63.5607C76.882 57.3419 79.4494 50.1177 79.9131 42.0878C80.1768 37.5238 79.6001 32.8641 78.1976 28.2392C77.9773 27.5147 77.5455 27.083 76.8704 26.912L76.8762 26.9178Z" fill="#EF4623"/>
<path d="M41.7484 12.1477C41.1428 12.1042 40.5342 12.0811 39.9228 12.0811C37.9871 12.0811 36.0194 12.3042 33.9591 12.7591C26.6653 14.3616 20.4553 18.8098 16.4708 25.2777C12.4573 31.792 11.2779 39.4046 13.1441 46.7128C14.8248 53.288 18.8586 59.0286 24.5035 62.874C30.1919 66.7483 37.054 68.3682 43.8262 67.4351C49.6769 66.6295 54.7857 64.2186 59.0049 60.2746C64.7687 54.8905 67.6926 48.2864 67.9505 40.0913C67.9418 39.932 67.9331 39.732 67.9273 39.5205C67.9099 39.0163 67.8867 38.4425 67.823 37.8803C67.736 37.1182 67.3419 36.6053 66.6494 36.359C66.0669 36.1532 65.4728 36.2372 65.0179 36.5908C64.5368 36.9646 64.3021 37.5731 64.3688 38.2541C64.5745 40.3434 64.4412 42.5284 63.9718 44.7452C62.5113 51.6652 58.2051 57.6086 52.1574 61.0541C46.1502 64.4794 38.8999 65.1545 32.2639 62.9087C20.5857 58.9532 13.7265 46.8519 16.3114 34.7594C18.8412 22.9131 29.7225 14.6891 41.6238 15.6309C42.244 15.6801 42.7858 15.5324 43.1481 15.2136C43.4465 14.9499 43.6146 14.5848 43.6378 14.1501C43.6929 13.0547 42.9162 12.2317 41.7513 12.1477H41.7484Z" fill="#EF4623"/>
<path d="M52.4067 21.3048C52.4067 22.2959 52.4038 23.3217 52.4154 24.3272C52.4212 24.8865 52.2531 25.2951 51.8503 25.6979C47.8658 29.6592 43.832 33.7017 39.9287 37.6108L39.2796 38.2628C39.0333 38.5091 38.813 38.7352 38.645 38.9873C38.2827 39.5263 38.2538 40.1174 38.5638 40.697C38.8913 41.3113 39.3926 41.6127 40.0939 41.6243C40.1026 41.6243 40.1113 41.6243 40.117 41.6243C40.7169 41.6243 41.1458 41.3142 41.6442 40.8158L45.3041 37.153C48.2222 34.2349 51.2418 31.2153 54.2004 28.2393C54.5482 27.8886 55.006 27.5351 55.7797 27.5757C56.4723 27.6105 57.1823 27.6047 57.8691 27.596C58.1646 27.5931 58.4602 27.5902 58.7529 27.5902H59.686C60.4249 27.5873 61.1639 27.5844 61.9028 27.5931C62.5664 27.5931 63.1054 27.3815 63.5894 26.8947C66.7596 23.7187 69.9327 20.5456 73.1058 17.3725L75.2647 15.2136C75.5052 14.9731 75.7631 14.6775 75.8703 14.3008C76.0268 13.7473 75.9456 13.217 75.6414 12.8084C75.2965 12.3419 74.6851 12.0695 73.9664 12.0579C72.5929 12.0347 70.7817 12.0144 68.9474 12.0666C68.6895 12.0724 68.3678 12.055 68.1563 11.8434C67.9448 11.6348 67.9245 11.3247 67.9303 11.0176C67.9564 9.94248 67.9506 8.8471 67.9477 7.7894C67.9477 7.24171 67.9448 6.69402 67.9477 6.14924C67.9506 5.09733 67.6144 4.49168 66.861 4.18741C66.096 3.87735 65.4324 4.0686 64.7021 4.79885C60.7466 8.77466 56.8722 12.649 53.1891 16.309C52.6298 16.8654 52.3835 17.4739 52.3922 18.2737C52.4067 19.285 52.4038 20.3109 52.4009 21.3048H52.4067ZM55.8928 19.7893V19.1083C55.887 18.8127 55.9275 18.4997 56.226 18.2041C57.9618 16.4799 59.6918 14.75 61.4218 13.02L63.7313 10.7104C63.7951 10.6466 63.8646 10.6119 63.9371 10.5771C63.969 10.5626 64.0066 10.5423 64.053 10.5191L64.4819 10.2844V10.7741C64.4819 11.0929 64.4819 11.4059 64.4819 11.7159C64.4819 12.4056 64.4761 13.0547 64.4877 13.7125C64.508 14.8282 65.1513 15.486 66.2553 15.515C66.916 15.5324 67.5623 15.5295 68.249 15.5237C68.5533 15.5237 68.8576 15.5208 69.1647 15.5208H69.4545V15.8106C69.4545 16.1728 69.2343 16.3582 69.101 16.4713C69.0749 16.4944 69.0488 16.5147 69.0257 16.5379C68.1621 17.4044 67.2957 18.2679 66.4321 19.1343C64.9455 20.6209 63.4561 22.1075 61.9753 23.6028C61.6159 23.965 61.2595 24.1244 60.7901 24.1244C60.7756 24.1244 60.7611 24.1244 60.7437 24.1244C59.4513 24.0983 58.1067 24.0983 56.7476 24.1244C56.5129 24.1273 56.255 24.1099 56.0753 23.9273C55.8928 23.7448 55.8754 23.4811 55.8812 23.2753C55.9072 22.1191 55.8986 20.9397 55.8928 19.7979V19.7893Z" fill="#EF4623"/>
<path d="M41.4158 26.9758C41.7258 26.6513 41.8794 26.2398 41.862 25.7906C41.8243 24.7822 41.0477 24.1128 39.9234 24.1128C39.9031 24.1128 39.8828 24.1128 39.8625 24.1128C38.9961 24.1302 38.2861 24.1852 37.6312 24.2838C29.1377 25.5733 23.2522 33.58 24.5128 42.1285C25.6661 49.9613 32.2645 55.6352 40.2074 55.6352H40.2508C40.3928 55.6265 40.5551 55.6178 40.7232 55.6121C41.2854 55.586 41.8649 55.557 42.4561 55.4788C49.9498 54.4645 55.8498 47.7677 55.8846 40.2304C55.8874 39.5466 55.6846 38.9612 55.3137 38.5903C55.0152 38.2918 54.6153 38.1324 54.1574 38.1324C53.1432 38.1324 52.4361 38.9525 52.4014 40.1696C52.2971 43.8092 50.6424 47.1939 47.8605 49.4484C45.0902 51.6942 41.4563 52.6128 37.8949 51.9666C32.7136 51.0277 28.6074 46.7505 27.909 41.5692C27.1759 36.1387 30.0244 30.9632 35 28.6942C36.559 27.9814 38.205 27.6105 39.8886 27.5873C40.5058 27.5786 41.0477 27.3612 41.4158 26.9758Z" fill="#EF4623"/>
</g>
<defs>
<clipPath id="clip0_984_1594">
<rect width="79.9826" height="80" fill="white"/>
</clipPath>
</defs>
</svg>
