<svg width="80" height="80" viewBox="0 0 80 80" fill="none" xmlns="http://www.w3.org/2000/svg">
<g clip-path="url(#clip0_984_1607)">
<path d="M30.2645 26.3271C31.3501 25.237 32.3957 24.1714 33.4636 23.128C33.6638 22.9322 33.9552 22.7209 34.2133 22.7098C35.2344 22.6608 36.26 22.6897 37.3412 22.6897C37.8685 28.8388 40.3957 33.9378 45.1299 37.831C49.8929 41.7487 55.408 43.2971 61.5192 42.4895C71.2834 41.1992 79.2678 33.1569 79.9041 22.7832C80.5693 11.9245 73.2545 2.45838 62.7717 0.425006C57.6304 -0.571657 52.6983 0.160268 48.1599 2.8032C41.5837 6.6319 38.0731 12.4762 37.3123 20.029C36.3156 20.029 35.3991 20.0668 34.4892 20.009C34.1443 19.9867 33.735 19.8332 33.4881 19.5996C32.4024 18.5741 31.3635 17.4973 30.3334 16.4651C29.6638 17.1035 29.0498 17.6909 28.2444 18.4584C28.8251 18.9345 29.3924 19.3972 29.9597 19.8622C28.0642 20.029 26.2689 20.0246 24.4736 20.029C17.3879 20.0535 11.299 25.6708 10.6894 32.7365C9.97971 40.9701 16.4002 47.9912 24.6605 48.0068C29.3234 48.0157 33.9864 48.0179 38.6493 47.9956C39.1944 47.9934 39.577 48.1491 39.9508 48.5407C40.9408 49.5841 41.973 50.5874 42.9764 51.5952C43.6438 50.9434 44.2533 50.3494 45.0565 49.564C44.4602 49.0902 43.8885 48.6364 43.1499 48.049C43.5704 48.0246 43.7038 48.009 43.8351 48.009C52.0509 48.009 60.2667 48.0023 68.4847 48.0179C69.1165 48.0179 69.7617 48.1047 70.3757 48.2559C73.864 49.1169 76.3156 52.534 75.9219 55.94C75.4747 59.8065 72.5337 62.5941 68.6961 62.6542C64.8117 62.7164 60.923 62.6809 57.0387 62.6542C56.7294 62.6542 56.3579 62.4562 56.1265 62.2337C55.0476 61.2014 54.0086 60.1269 52.9786 59.0924C52.3023 59.7443 51.6905 60.3338 50.8629 61.1325C51.468 61.6063 52.042 62.0557 52.6182 62.5073C52.5782 62.5674 52.5403 62.6275 52.5003 62.6875H32.0398V65.3572H52.5248C52.5848 65.4395 52.6427 65.524 52.7027 65.6063C52.1154 66.0513 51.5281 66.494 51.0431 66.8611C51.7639 67.6419 52.3379 68.2671 52.9675 68.95C54.0109 67.8911 54.9986 66.8388 56.0509 65.8599C56.3535 65.5774 56.8473 65.3594 57.2567 65.3549C61.032 65.3171 64.8073 65.3327 68.5826 65.3305C68.9986 65.3305 69.4191 65.3416 69.8284 65.286C75.2478 64.534 78.9497 59.96 78.6004 54.4628C78.2778 49.4016 73.7884 45.3527 68.4892 45.3505C60.4113 45.3483 52.3334 45.3505 44.2556 45.3505H43.4013C43.3657 45.2726 43.3323 45.1925 43.2967 45.1147C43.844 44.6519 44.3913 44.1914 44.9697 43.7042C44.2511 43.0146 43.6371 42.425 42.963 41.7776C41.9775 42.7654 40.9475 43.7709 39.9552 44.8121C39.5837 45.2014 39.2033 45.3661 38.656 45.3616C34.0754 45.3394 29.497 45.3594 24.9163 45.3416C24.1421 45.3394 23.359 45.2837 22.5982 45.1436C17.428 44.1892 13.5993 39.7732 13.3346 34.5029C13.0765 29.3416 16.5136 24.5785 21.5859 23.1592C22.5359 22.8922 23.5437 22.7498 24.5314 22.7098C26.3134 22.6386 28.0998 22.6897 30.042 22.6897C29.3991 23.3616 28.8963 23.8889 28.4536 24.3516C29.0809 25.0368 29.6438 25.6464 30.2645 26.3249V26.3271ZM43.8017 10.118C46.9297 6.02456 51.0631 3.49508 56.1755 2.90109C67.2389 1.61299 76.5292 9.28151 77.2255 20.3894C77.8707 30.6786 69.8485 39.7198 59.1099 39.9867C47.9063 40.2671 40.4847 31.1903 40.1332 22.7609H43.9886C44.6605 27.7887 47.1165 31.7109 51.6193 34.2292C54.6627 35.9333 57.9419 36.425 61.3523 35.7776C68.478 34.425 73.606 28.029 73.299 20.5407C73.032 14.0223 67.6772 7.90443 61.1366 6.89664C56.9274 6.24703 53.0787 7.13913 49.695 9.75093C46.3446 12.336 44.4981 15.8043 44.0086 20.0045H40.0932C40.329 16.296 41.5837 13.0212 43.8017 10.1202V10.118ZM55.7483 26.1647C56.5381 25.3705 57.4658 24.4361 58.398 23.4995C58.7895 23.1058 59.1988 22.7298 59.5704 22.316C60.082 21.7465 60.1799 21.0679 59.6482 20.514C58.3245 19.1369 56.9363 17.8243 55.5615 16.4695C54.9541 17.0768 54.3535 17.6775 53.6527 18.3805C54.2267 18.8455 54.7873 19.2971 55.3479 19.7487L55.2122 19.9578H46.8852C46.2244 15.5107 51.9174 9.89553 57.7995 9.41945C64.2467 8.89664 70.2645 13.7798 70.6093 20.9144C70.9341 27.6197 65.3546 33.415 58.6026 33.3438C51.121 33.2637 46.9653 27.039 46.8362 22.7365H55.448C54.7339 23.3327 54.1888 23.7865 53.626 24.2582C54.3957 24.95 55.0253 25.5151 55.7483 26.1647Z" fill="#EF4623"/>
<path d="M28.3135 62.6428C19.6461 57.8842 10.9832 53.1189 2.32467 48.3492C1.66616 47.9865 1.02767 47.8086 0.418103 48.3803C-0.162542 48.9231 -0.0513078 49.5594 0.235678 50.2157C1.32578 52.7296 2.39363 55.2524 3.49708 57.7596C3.724 58.2735 3.71287 58.6495 3.34802 59.11C2.33134 60.3914 1.37695 61.7218 0.386957 63.0232C-0.122498 63.6906 -0.118049 64.3247 0.391406 64.9921C1.36805 66.2713 2.2913 67.5883 3.30353 68.8386C3.72177 69.3547 3.71287 69.7641 3.46148 70.3336C2.38696 72.7629 1.36582 75.2168 0.304643 77.6506C-0.00236451 78.3536 -0.215935 79.0299 0.429226 79.635C1.07661 80.2424 1.7418 79.9888 2.41365 79.6172C6.2201 77.5149 10.0332 75.4237 13.8419 73.328C18.6472 70.6851 23.4504 68.0399 28.2579 65.4014C28.8163 65.0944 29.2969 64.7518 29.3213 63.9754C29.3258 63.3302 28.8897 62.9543 28.3202 62.6428H28.3135ZM17.9643 60.0288C17.942 60.0933 17.922 60.1578 17.8997 60.2223C16.8208 59.9799 15.7396 59.7418 14.6606 59.4904C12.0777 58.8875 9.49263 58.2891 6.91643 57.6528C6.61832 57.5794 6.2557 57.3236 6.13112 57.0566C5.45703 55.6061 4.84747 54.1222 4.11109 52.4092C8.87194 55.0299 13.417 57.5305 17.9643 60.031V60.0288ZM4.12222 75.5994C4.86749 73.8464 5.51488 72.3024 6.19341 70.7696C6.26682 70.6028 6.51154 70.4515 6.70286 70.4048C10.3603 69.5349 14.0199 68.6806 17.6817 67.8286C17.7574 67.8108 17.8441 67.8419 18.1623 67.8731C13.4326 70.476 8.87861 72.9832 4.12667 75.5972L4.12222 75.5994ZM21.6395 64.1156C17.0677 65.1923 12.4715 66.1867 7.93312 67.3925C6.35359 67.813 5.36137 67.6372 4.60275 66.1534C4.20676 65.377 3.23679 64.7096 3.21899 63.9776C3.20342 63.2946 4.18451 62.6317 4.58718 61.8842C5.35025 60.4626 6.27795 60.1667 7.89975 60.6094C12.3269 61.8152 16.8208 62.7696 21.2902 63.8241C21.4125 63.853 21.5304 63.8975 21.6506 63.9354C21.6461 63.9954 21.6417 64.0555 21.6395 64.1156Z" fill="#EF4623"/>
<path d="M66.6163 20.8298C66.4739 16.7876 62.4939 13.0567 58.6785 13.4349V15.9666C62.0245 16.5985 63.8777 18.4405 63.9511 21.2236C63.9822 22.4205 63.624 23.5195 62.9166 24.4917C61.871 25.9288 60.3849 26.5651 58.6719 26.723V29.3215C63.1635 29.4639 66.7809 25.5484 66.6163 20.8298Z" fill="#EF4623"/>
</g>
<defs>
<clipPath id="clip0_984_1607">
<rect width="79.9466" height="80" fill="white"/>
</clipPath>
</defs>
</svg>
