<?xml version="1.0" encoding="UTF-8"?>
<svg xmlns="http://www.w3.org/2000/svg" xmlns:xlink="http://www.w3.org/1999/xlink" version="1.1" viewBox="0 0 115 147">
  <defs>
    <style>
      .cls-1 {
        fill: #2b2b2b;
      }

      .cls-2 {
        fill: url(#linear-gradient-8);
      }

      .cls-3 {
        fill: url(#linear-gradient-7);
      }

      .cls-4 {
        fill: url(#linear-gradient-5);
      }

      .cls-5 {
        fill: url(#linear-gradient-6);
      }

      .cls-6 {
        fill: url(#linear-gradient-9);
      }

      .cls-7 {
        fill: url(#linear-gradient-4);
      }

      .cls-8 {
        fill: url(#linear-gradient-3);
      }

      .cls-9 {
        fill: url(#linear-gradient-2);
      }

      .cls-10 {
        fill: #f2aa3c;
      }

      .cls-11 {
        fill: url(#linear-gradient);
      }

      .cls-12 {
        fill: url(#linear-gradient-10);
      }

      .cls-13 {
        fill: url(#linear-gradient-11);
      }

      .cls-14 {
        fill: url(#linear-gradient-12);
      }

      .cls-15 {
        fill: url(#linear-gradient-13);
      }

      .cls-16 {
        fill: url(#linear-gradient-19);
      }

      .cls-17 {
        fill: url(#linear-gradient-14);
      }

      .cls-18 {
        fill: url(#linear-gradient-21);
      }

      .cls-19 {
        fill: url(#linear-gradient-20);
      }

      .cls-20 {
        fill: url(#linear-gradient-22);
      }

      .cls-21 {
        fill: url(#linear-gradient-23);
      }

      .cls-22 {
        fill: url(#linear-gradient-28);
      }

      .cls-23 {
        fill: url(#linear-gradient-25);
      }

      .cls-24 {
        fill: url(#linear-gradient-30);
      }

      .cls-25 {
        fill: url(#linear-gradient-15);
      }

      .cls-26 {
        fill: url(#linear-gradient-16);
      }

      .cls-27 {
        fill: url(#linear-gradient-17);
      }

      .cls-28 {
        fill: url(#linear-gradient-18);
      }

      .cls-29 {
        fill: url(#linear-gradient-27);
      }

      .cls-30 {
        fill: url(#linear-gradient-24);
      }

      .cls-31 {
        fill: url(#linear-gradient-26);
      }

      .cls-32 {
        fill: url(#linear-gradient-29);
      }

      .cls-33 {
        fill: #eceeef;
      }
    </style>
    <linearGradient id="linear-gradient" x1="49.9" y1="-2969.4" x2="75.8" y2="-2969.4" gradientTransform="translate(-8.4 -2948.2) scale(1 -1)" gradientUnits="userSpaceOnUse">
      <stop offset="0" stop-color="#ffc16a"/>
      <stop offset=".1" stop-color="#ffb567"/>
      <stop offset=".3" stop-color="#ff975f"/>
      <stop offset=".6" stop-color="#ff6552"/>
      <stop offset=".9" stop-color="#ff2240"/>
      <stop offset="1" stop-color="#ff0038"/>
    </linearGradient>
    <linearGradient id="linear-gradient-2" x1="49.6" y1="-2957" x2="75.5" y2="-2957" xlink:href="#linear-gradient"/>
    <linearGradient id="linear-gradient-3" x1="8.4" y1="-3023.3" x2="68" y2="-3023.3" xlink:href="#linear-gradient"/>
    <linearGradient id="linear-gradient-4" x1="35.3" y1="-3022.7" x2="64.3" y2="-3022.7" xlink:href="#linear-gradient"/>
    <linearGradient id="linear-gradient-5" x1="26.2" y1="-3019.5" x2="62.8" y2="-3019.5" xlink:href="#linear-gradient"/>
    <linearGradient id="linear-gradient-6" x1="26.2" y1="-3051.4" x2="64.6" y2="-3051.4" xlink:href="#linear-gradient"/>
    <linearGradient id="linear-gradient-7" x1="14.6" y1="-3046.9" x2="64.3" y2="-3046.9" xlink:href="#linear-gradient"/>
    <linearGradient id="linear-gradient-8" x1="43" y1="-3002.9" x2="62.8" y2="-3002.9" xlink:href="#linear-gradient"/>
    <linearGradient id="linear-gradient-9" x1="35.3" y1="-3000.4" x2="60" y2="-3000.4" xlink:href="#linear-gradient"/>
    <linearGradient id="linear-gradient-10" x1="60.2" y1="-3024" x2="123.4" y2="-3024" xlink:href="#linear-gradient"/>
    <linearGradient id="linear-gradient-11" x1="65.9" y1="-3024" x2="90.3" y2="-3024" xlink:href="#linear-gradient"/>
    <linearGradient id="linear-gradient-12" x1="64.5" y1="-3021.1" x2="101.6" y2="-3021.1" xlink:href="#linear-gradient"/>
    <linearGradient id="linear-gradient-13" x1="69.5" y1="-3052.7" x2="101.6" y2="-3052.7" xlink:href="#linear-gradient"/>
    <linearGradient id="linear-gradient-14" x1="65.9" y1="-3048.6" x2="116.5" y2="-3048.6" xlink:href="#linear-gradient"/>
    <linearGradient id="linear-gradient-15" x1="64.5" y1="-3004.3" x2="81.3" y2="-3004.3" xlink:href="#linear-gradient"/>
    <linearGradient id="linear-gradient-16" x1="65.3" y1="-3002" x2="90.3" y2="-3002" xlink:href="#linear-gradient"/>
    <linearGradient id="linear-gradient-17" x1="55" y1="-2952.5" x2="65.3" y2="-2952.5" xlink:href="#linear-gradient"/>
    <linearGradient id="linear-gradient-18" x1="31.2" y1="-2977.6" x2="90.6" y2="-2977.6" xlink:href="#linear-gradient"/>
    <linearGradient id="linear-gradient-19" x1="30.5" y1="-2959.9" x2="48.3" y2="-2959.9" xlink:href="#linear-gradient"/>
    <linearGradient id="linear-gradient-20" x1="30.9" y1="-2965.3" x2="90.3" y2="-2965.3" xlink:href="#linear-gradient"/>
    <linearGradient id="linear-gradient-21" x1="30.5" y1="-2976.4" x2="74.9" y2="-2976.4" xlink:href="#linear-gradient"/>
    <linearGradient id="linear-gradient-22" x1="72" y1="-2984.2" x2="109.2" y2="-2984.2" xlink:href="#linear-gradient"/>
    <linearGradient id="linear-gradient-23" x1="101.7" y1="-2992.3" x2="105.1" y2="-2992.3" xlink:href="#linear-gradient"/>
    <linearGradient id="linear-gradient-24" x1="97.8" y1="-2989.1" x2="105" y2="-2989.1" xlink:href="#linear-gradient"/>
    <linearGradient id="linear-gradient-25" x1="97.8" y1="-2992.3" x2="101.9" y2="-2992.3" xlink:href="#linear-gradient"/>
    <linearGradient id="linear-gradient-26" x1="99.8" y1="-2974.9" x2="101.6" y2="-2974.9" xlink:href="#linear-gradient"/>
    <linearGradient id="linear-gradient-27" x1="76.3" y1="-2999" x2="100.3" y2="-2999" xlink:href="#linear-gradient"/>
    <linearGradient id="linear-gradient-28" x1="78.5" y1="-2982.6" x2="100.4" y2="-2982.6" xlink:href="#linear-gradient"/>
    <linearGradient id="linear-gradient-29" x1="59.1" y1="-2983.1" x2="67.3" y2="-2983.1" xlink:href="#linear-gradient"/>
    <linearGradient id="linear-gradient-30" x1="33.5" y1="-2969.3" x2="41.7" y2="-2969.3" xlink:href="#linear-gradient"/>
  </defs>
  <!-- Generator: Adobe Illustrator 28.6.0, SVG Export Plug-In . SVG Version: 1.2.0 Build 709)  -->
  <g>
    <g id="Layer_1">
      <g>
        <path class="cls-11" d="M41.6,13.4v1.6s25.9,13.9,25.9,13.9v-1.6s-25.9-13.9-25.9-13.9Z"/>
        <path class="cls-9" d="M41.2,1.1v1.6s25.9,13.9,25.9,13.9v-1.6S41.2,1.1,41.2,1.1Z"/>
        <path class="cls-8" d="M57.5,147h0c0,0,0,0,0,0L1.3,112.8l-1.3-3.5L48.4,3.2l3.3,2,7.8,140.2-2.1,1.5h0ZM4.2,110.1l51.8,31.5L48.7,12.6,4.2,110.1Z"/>
        <path class="cls-7" d="M55.9,96.1l-1.7.2v-.2c-.1,0-15.3-24.1-15.3-24.1l-1.3-2.1-9.3-14.8-1.4-2.2,1.7-.3,27.3,43.4Z"/>
        <path class="cls-4" d="M54.4,69.7l-1.8.3-12.1,1.8-1.7.2-19.7,2.9h-.1s-1.3-2.1-1.3-2.1l35.3-5.3,1.3,2.1Z"/>
        <path class="cls-5" d="M56.2,133.9l-38.4-61,1.7-.2.5.8h0s.8,1.3.8,1.3l14,22.2,1.3,2.1,19.9,31.6.2,3.2Z"/>
        <path class="cls-3" d="M54.6,94l1.3,2.1-49.7,7.4,1.1-2.4,25.8-3.8,1.7-.2,18.1-2.7h1.1c0-.1,0-.2,0-.2h.6Z"/>
        <path class="cls-2" d="M53.1,67.6l1.3,2.1-1.7.3v-.2c-.1,0-1.3-1.9-1.3-1.9l-9.4-14.9-7.4-11.7.8-1.7,7,11.1,1.3,2.1,8.7,13.8h0s.7,1.1.7,1.1Z"/>
        <path class="cls-6" d="M51.6,51.6l-9.6,1.4-12.1,1.8-1.5.2h-.2s-1.3-2.1-1.3-2.1l1.7-.3h.9c0-.1,11.2-1.8,11.2-1.8l1.7-.2,9.1-1.4v2.2Z"/>
        <path class="cls-12" d="M59.2,145.2L51.9,6.7l3.1-1.9,60,107.4-.9,3.4-52.7,31.1h0s0,0,0,0l-2.2-1.6h0ZM55.7,14.1l6.7,127.4,48.5-28.6L55.7,14.1Z"/>
        <path class="cls-13" d="M57.5,96.5l1.7.3v-.2c0,0,12.7-23.2,12.7-23.2l1.1-2,7.7-14.2,1.1-2.1-1.7-.3-22.7,41.6Z"/>
        <path class="cls-14" d="M56.2,70.4l1.8.4,12.3,2.4,1.7.3,20,3.9h.1s1.1-2,1.1-2l-36-6.9-1.1,2Z"/>
        <path class="cls-15" d="M61.3,133.9l31.9-58.5-1.7-.3-.4.7h0s-.7,1.3-.7,1.3l-11.6,21.3-1.1,2-16.6,30.3.2,3.2Z"/>
        <path class="cls-17" d="M58.6,94.5l-1.1,2,50.6,9.8-1.4-2.5-26.2-5.1-1.7-.3-18.5-3.6-1.1-.2h0s-.6-.1-.6-.1Z"/>
        <path class="cls-25" d="M57.2,68.5l-1.1,2,1.7.3v-.2c0,0,1.1-1.8,1.1-1.8l7.8-14.3,6.1-11.3-1-1.7-5.8,10.7-1.1,2-7.2,13.3h0s-.6,1-.6,1Z"/>
        <path class="cls-26" d="M57,52.6l9.8,1.9,12.4,2.4,1.6.3h.2s1.1-2,1.1-2l-1.7-.3-.9-.2-11.5-2.2-1.7-.3-9.2-1.8v2.2Z"/>
        <path class="cls-27" d="M51.9,7.3l-5.2-2.8,5-3.1,5.2,2.8-5,3.1Z"/>
        <path class="cls-1" d="M81.9,23l-14.8-8v1.6s13.8,7.4,13.8,7.4l.3,10.8-13.8-7.4v1.6s14.2,7.6,14.2,7.6l1-.6-.3-12.4-.4-.6Z"/>
        <path class="cls-1" d="M39.9,12.5l-.3-10.8,1.7.9v-1.6s-2-1.1-2-1.1l-1,.6.3,12.4.4.6,2.7,1.5v-1.6s-1.7-.9-1.7-.9Z"/>
        <path class="cls-1" d="M81.2,23.1l-16,9.9-.3.6.3,12.4,1.1.6,16-9.9.3-.6-.3-12.4-1.1-.6ZM81.2,35.6l-14.6,9.1-.3-10.8,14.7-9.1.3,10.8Z"/>
        <path class="cls-28" d="M82.2,35.4l-14.8-8v1.6s13.1,7,13.1,7l-14.7,9.1L24.6,22.9l14.7-9.1,2.4,1.3v-1.6s-2.1-1.1-2.1-1.1h-.7s-16,10-16,10v1.2s42.7,23,42.7,23h.7s16-9.9,16-9.9v-1.2Z"/>
        <path class="cls-16" d="M23.6,23.5l-1.1-.6-.3-12.4.3-.6L38.5,0l1.1.6.3,12.4-.3.6-16,9.9h0ZM23.6,10.9l.3,10.8,14.7-9.1-.3-10.8-14.7,9.1Z"/>
        <path class="cls-19" d="M81.9,23l-14.8-8v1.6s13.1,7.1,13.1,7.1l-14.7,9.1L24.2,10.5,38.9,1.4l2.3,1.3v-1.6s-2-1.1-2-1.1h-.7s-16,10-16,10v1.2s42.7,23,42.7,23h.7s16-9.9,16-9.9v-1.2Z"/>
        <path class="cls-18" d="M65.9,33L23.2,9.9l-1,.6.3,12.4.4.6,42.7,23,1-.6-.3-12.4-.4-.6h0ZM65.2,44.8L23.9,22.5l-.3-10.8,41.3,22.3.3,10.8Z"/>
        <path class="cls-20" d="M100.8,24.7c.3,11.9-7.7,26.7-17.9,33-7.7,4.7-14.5,3.3-17.5-2.8-.8-3.1-1.4-6.1-1.6-9-1.4-15.8,6-27.6,20.1-32.6,1.8-.7,3.8-1.2,5.8-1.6,6.3-.3,10.8,4.4,11.1,13Z"/>
        <path class="cls-10" d="M100.8,24.7c.3,11.9-7.7,26.7-17.9,33-7.7,4.7-14.5,3.3-17.5-2.8-1-2-1.6-4.5-1.6-7.4,0-.5,0-1,0-1.5.3-11.6,8.1-25.4,17.9-31.4.8-.5,1.5-.9,2.2-1.2,2.1-1,4-1.5,5.8-1.6,6.3-.3,10.8,4.4,11,13h0Z"/>
        <path class="cls-33" d="M74.5,59.5c-3.6.1-6.6-1.7-8.2-5.1-1-1.9-1.5-4.3-1.6-7,0-.5,0-1,0-1.5.3-11.4,8-24.8,17.4-30.7.7-.4,1.4-.8,2.1-1.2,1.9-.9,3.8-1.4,5.5-1.5,0,0,.2,0,.3,0,5.8-.2,9.6,4.5,9.8,12.1.3,11.6-7.5,26-17.4,32.1-2.7,1.7-5.5,2.6-7.9,2.7h0Z"/>
        <path class="cls-21" d="M93.4,42.9l3.2-2v4.4c.1,0-3.1,2-3.1,2v-4.4Z"/>
        <path class="cls-30" d="M89.5,40.8l3.2-2,3.9,2.1-3.2,2-3.9-2.1Z"/>
        <path class="cls-23" d="M93.4,42.9v4.4c.1,0-3.8-2.1-3.8-2.1v-4.4c-.1,0,3.8,2.1,3.8,2.1Z"/>
        <path class="cls-31" d="M92.8,41.2c-.2,0-.5-.2-.5-.4l-.8-28c0-.3.2-.5.5-.5.3,0,.5.2.5.4l.8,28c0,.3-.2.5-.4.5Z"/>
        <path class="cls-29" d="M68.4,57.8c-.2,0-.3,0-.4-.2-.1-.2,0-.5.2-.6l23.1-13.1c.2-.1.5,0,.6.2.1.2,0,.5-.2.6l-23.1,13.1c0,0-.1,0-.2,0Z"/>
        <path class="cls-22" d="M91.6,42.4c0,0-.2,0-.3,0l-21-15.1c-.2-.1-.3-.4-.1-.6.2-.2.4-.3.7-.1l21,15.1c.2.1.3.4,0,.6,0,.1-.2.2-.4.2Z"/>
        <path class="cls-33" d="M61.5,22.2h0v-.2h0c0,0,0,0,0-.1,0,0,0,0,0-.1,0,0,0,0,0-.1h0c0,0,0,0,0-.1,0,0,0,0,0-.1,0,0,0,0,0-.1,0,0,0,0,0,0h0s0,0,0,0c0,0,0,0,0-.1,0,0,0,0,0-.1,0,0,0,0,0,0h0s0,0,0-.1c0,0,0,0,0-.1,0,0,0,0,0-.1,0,0,0,0,0,0h0c0,0,0,0,0-.1,0,0,0,0,0-.1,0,0,0,0,0-.1,0,0,0,0,0,0s0,0,0,0c0,0-.1-.2-.2-.3,0,0,0,0,0,0,0-.1-.2-.3-.3-.4,0,0-.1-.2-.2-.3,0,0,0,0,0,0,0,0,0,0,0,0,0,0,0,0,0,0,0,0-.1-.1-.2-.2,0,0,0,0,0,0,0,0,0,0,0,0,0,0,0,0,0-.1,0,0-.1-.1-.2-.2,0,0,0,0,0,0,0,0,0,0,0,0,0,0,0,0-.1-.1,0,0-.1-.1-.2-.2,0,0,0,0,0,0,0,0-.1-.1-.2-.2,0,0,0,0-.1-.1,0,0,0,0,0,0,0,0,0,0,0,0,0,0-.1-.1-.2-.2,0,0,0,0,0,0,0,0,0,0,0,0,0,0,0,0,0,0,0,0-.1,0-.2-.1,0,0,0,0,0,0s0,0,0,0c0,0,0,0-.1,0,0,0-.1,0-.2-.1,0,0,0,0,0,0h0c0,0-.1,0-.2-.1,0,0,0,0,0,0,0,0,0,0,0,0,0,0,0,0,0,0,0,0,0,0,0,0,0,0,0,0,0,0,0,0,0,0,0,0s0,0,0,0c0,0,0,0,0,0,0,0,0,0,0,0,0,0,0,0,0,0,0,0,0,0,0,0h0s0,0-.1,0c0,0,0,0,0,0,0,0-.1,0-.2,0h0s0,0-.2,0h0s0,0,0,0c0,0,0,0,0,0h-.4c0,0-.1,0-.2,0h0s0,0-.2,0h0c0,0-.1,0-.2,0,0,0-.2,0-.2.1l-3.2,2c0,0,.2,0,.2-.1h0c0,0,.1,0,.2,0,0,0,0,0,0,0,0,0,0,0,.2,0h0c0,0,.1,0,.2,0h.4s0,0,.1,0c0,0,0,0,0,0,0,0,0,0,.2,0h0c0,0,.1,0,.2,0,0,0,0,0,0,0,0,0,0,0,.1,0,0,0,0,0,0,0,0,0,0,0,.1,0,0,0,0,0,0,0,0,0,0,0,.1,0,0,0,0,0,0,0,0,0,0,0,.1,0,0,0,0,0,0,0,0,0,.1,0,.2,0h0c.1.1.2.2.4.2,0,0,0,0,0,0,.1,0,.2.1.3.2,0,0,0,0,0,0,.1,0,.2.2.3.2,0,0,0,0,0,0,.1,0,.2.2.3.3,0,0,0,0,0,0,0,0,.2.2.3.3,0,0,0,0,0,0,0,0,.2.2.3.3,0,0,0,0,0,0,0,0,.2.2.3.3,0,0,0,0,0,0,0,.1.2.2.2.3,0,.1.2.3.3.4,0,.1.1.2.2.3,0,0,0,0,0,0,0,.1.1.2.2.3h0c0,.1.1.2.2.4h0c0,.1,0,.2.1.4h0c0,.1,0,.2,0,.4h0c0,.1,0,.2,0,.4h0c0,.1,0,.2,0,.4l.6,25.3v.3h0c0,.1,0,.2,0,.2h0c0,0,0,.2,0,.2,0,0,0,0,0,0,0,0,0,.1,0,.2,0,0,0,0,0,0,0,0,0,0,0,.1,0,0,0,0,0,0,0,0,0,0,0,.1,0,0,0,0,0,0,0,0,0,0-.1,0,0,0,0,0,0,0,0,0-.1,0-.2.1l3.2-2c0,0,.1,0,.2-.1,0,0,0,0,0,0,0,0,0,0,0,0,0,0,0,0,0,0,0,0,0,0,0-.1,0,0,0,0,0,0,0,0,0,0,0,0,0,0,0,0,0,0,0,0,0,0,0,0h0c0,0,0-.1,0-.2h0c0,0,0-.1,0-.1,0,0,0,0,0-.1h0c0,0,0,0,0-.1,0,0,0,0,0-.1h0v-.2h0c0-.1-.7-25.4-.7-25.4h0c0-.1,0,0,0,0Z"/>
        <path class="cls-32" d="M54.5,19c2.1,1.1,3.8,3.5,3.8,5.3l.7,25.3c0,1.8-1.6,2.4-3.6,1.3h0c-2-1.2-3.8-3.5-3.8-5.3l-.7-25.3c0-1.8,1.6-2.4,3.6-1.3h0Z"/>
        <path class="cls-33" d="M35.8,8.4h0c0-.1,0-.2,0-.2h0c0,0,0,0,0-.1,0,0,0,0,0-.1s0,0,0-.1h0c0,0,0,0,0-.1,0,0,0,0,0-.1,0,0,0,0,0-.1h0c0,0,0-.1,0-.1,0,0,0,0,0-.1,0,0,0,0,0-.1h0c0,0,0,0,0-.1,0,0,0,0,0-.1,0,0,0,0,0-.1,0,0,0,0,0,0h0c0,0,0,0,0-.1,0,0,0,0,0-.1,0,0,0,0,0-.1,0,0,0,0,0,0s0,0,0,0c0,0-.1-.2-.2-.3,0,0,0,0,0,0,0-.1-.2-.3-.3-.4,0,0-.1-.2-.2-.3,0,0,0,0,0,0,0,0,0,0,0,0,0,0,0,0,0,0,0,0,0-.1-.2-.2,0,0,0,0,0,0,0,0,0,0,0,0,0,0,0,0-.1-.1,0,0-.1-.1-.2-.2,0,0,0,0,0,0,0,0,0,0,0,0,0,0,0,0-.1-.1,0,0-.1-.1-.2-.2h0c0,0-.1-.1-.2-.2,0,0,0,0-.1-.1,0,0,0,0,0,0,0,0,0,0,0,0,0,0-.1-.1-.2-.2,0,0,0,0,0,0,0,0,0,0,0,0,0,0,0,0,0,0,0,0-.1,0-.2-.1,0,0,0,0,0,0,0,0,0,0,0,0,0,0,0,0,0,0,0,0-.1,0-.2-.1,0,0,0,0,0,0h0c0,0,0,0-.2-.1,0,0,0,0,0,0,0,0,0,0,0,0,0,0,0,0,0,0,0,0,0,0,0,0,0,0,0,0,0,0,0,0,0,0,0,0,0,0,0,0,0,0,0,0,0,0,0,0,0,0,0,0,0,0,0,0,0,0-.1,0,0,0,0,0,0,0h0c0,0,0,0-.1,0,0,0,0,0,0,0h0c0,0-.1,0-.2,0h0s0,0-.2,0c0,0,0,0,0,0,0,0,0,0,0,0h-.4c0,0-.1,0-.2,0h0c0,0-.1,0-.2,0h0c0,0-.2,0-.2,0,0,0-.2,0-.2.1l-3.2,2c0,0,.2,0,.2-.1h0c0,0,.1,0,.2,0,0,0,0,0,0,0,0,0,.1,0,.2,0h0c0,0,.1,0,.2,0h.4s0,0,.1,0c0,0,0,0,0,0,0,0,.1,0,.2,0h0c0,0,.1,0,.2,0,0,0,0,0,0,0,0,0,0,0,.1,0,0,0,0,0,0,0,0,0,0,0,.1,0,0,0,0,0,0,0,0,0,0,0,.1,0,0,0,0,0,0,0,0,0,0,0,.1,0,0,0,0,0,0,0,0,0,.1,0,.2,0h0c.1.1.2.2.3.2,0,0,0,0,0,0,.1,0,.2.1.3.2,0,0,0,0,0,0,.1,0,.2.2.3.2,0,0,0,0,0,0,0,0,.2.2.3.3,0,0,0,0,0,0,0,0,.2.2.3.3,0,0,0,0,0,0,.1,0,.2.2.3.3,0,0,0,0,0,0,0,0,.2.2.3.3,0,0,0,0,0,0,0,.1.2.2.2.3,0,.1.2.3.3.4,0,.1.1.2.2.3,0,0,0,0,0,0,0,.1.1.2.2.3h0c0,.1.1.3.2.4h0c0,.1,0,.2.1.4h0c0,.1,0,.2,0,.4h0c0,.1,0,.2,0,.4h0c0,.1,0,.2,0,.4l.7,25.3v.3h0c0,.1,0,.2,0,.2h0c0,0,0,.2,0,.2,0,0,0,0,0,0,0,0,0,.1,0,.2,0,0,0,0,0,0,0,0,0,0,0,.1,0,0,0,0,0,0,0,0,0,0,0,.1,0,0,0,0,0,0,0,0,0,0,0,0,0,0,0,0,0,0,0,0-.1,0-.2.1l3.2-2c0,0,0,0,.2-.1,0,0,0,0,0,0,0,0,0,0,0,0,0,0,0,0,0,0,0,0,0,0,0-.1,0,0,0,0,0,0,0,0,0,0,0,0,0,0,0,0,0,0,0,0,0,0,0,0,0,0,0,0,0,0,0,0,0,0,0-.1,0,0,0,0,0,0,0,0,0,0,0,0,0,0,0,0,0,0s0,0,0-.1h0c0,0,0,0,0-.1,0,0,0,0,0-.1h0v-.2h0c0-.1-.7-25.4-.7-25.4h0c0-.1,0,0,0,0Z"/>
        <path class="cls-24" d="M28.8,5.2c2.1,1.1,3.8,3.5,3.8,5.3l.7,25.3c0,1.8-1.6,2.4-3.6,1.3h0c-2.1-1.2-3.8-3.5-3.8-5.3l-.7-25.3c0-1.8,1.6-2.4,3.6-1.3h0s0,0,0,0Z"/>
      </g>
    </g>
  </g>
</svg>