<?xml version="1.0" encoding="UTF-8"?>
<svg xmlns="http://www.w3.org/2000/svg" xmlns:xlink="http://www.w3.org/1999/xlink" version="1.1" viewBox="0 0 102 126">
  <defs>
    <style>
      .cls-1 {
        fill: #899cad;
      }

      .cls-2 {
        fill: url(#linear-gradient-8);
      }

      .cls-3 {
        fill: url(#linear-gradient-7);
      }

      .cls-4 {
        fill: url(#linear-gradient-5);
      }

      .cls-5 {
        fill: url(#linear-gradient-6);
      }

      .cls-6 {
        fill: url(#linear-gradient-9);
      }

      .cls-7 {
        fill: url(#linear-gradient-4);
      }

      .cls-8 {
        fill: url(#linear-gradient-3);
      }

      .cls-9 {
        fill: url(#linear-gradient-2);
      }

      .cls-10 {
        fill: #7a7a7b;
      }

      .cls-11 {
        fill: url(#linear-gradient);
      }

      .cls-12 {
        fill: #979899;
      }

      .cls-13 {
        fill: #fff;
      }

      .cls-14 {
        fill: #d9e6f4;
      }

      .cls-15 {
        fill: #959597;
      }

      .cls-16 {
        fill: #7e7e7c;
      }

      .cls-17 {
        fill: url(#linear-gradient-10);
      }

      .cls-18 {
        fill: url(#linear-gradient-11);
      }

      .cls-19 {
        fill: url(#linear-gradient-12);
      }

      .cls-20 {
        fill: url(#linear-gradient-13);
      }

      .cls-21 {
        fill: url(#linear-gradient-19);
      }

      .cls-22 {
        fill: url(#linear-gradient-14);
      }

      .cls-23 {
        fill: url(#linear-gradient-21);
      }

      .cls-24 {
        fill: url(#linear-gradient-20);
      }

      .cls-25 {
        fill: url(#linear-gradient-22);
      }

      .cls-26 {
        fill: url(#linear-gradient-15);
      }

      .cls-27 {
        fill: url(#linear-gradient-16);
      }

      .cls-28 {
        fill: url(#linear-gradient-17);
      }

      .cls-29 {
        fill: url(#linear-gradient-18);
      }

      .cls-30 {
        fill: #959595;
      }

      .cls-31 {
        fill: #7d7d7c;
      }

      .cls-32 {
        fill: #787879;
      }

      .cls-33 {
        fill: #a0b4c9;
      }

      .cls-34 {
        fill: #f7f8fb;
      }
    </style>
    <linearGradient id="linear-gradient" x1="91.6" y1="-3087" x2="110.4" y2="-3087" gradientTransform="translate(-8.4 -2968.2) scale(1 -1)" gradientUnits="userSpaceOnUse">
      <stop offset="0" stop-color="#ffc16a"/>
      <stop offset=".1" stop-color="#ffb567"/>
      <stop offset=".3" stop-color="#ff975f"/>
      <stop offset=".6" stop-color="#ff6552"/>
      <stop offset=".9" stop-color="#ff2240"/>
      <stop offset="1" stop-color="#ff0038"/>
    </linearGradient>
    <linearGradient id="linear-gradient-2" x1="8.4" y1="-3068.5" x2="91.6" y2="-3068.5" xlink:href="#linear-gradient"/>
    <linearGradient id="linear-gradient-3" x1="92.9" y1="-3082.5" x2="105.1" y2="-3082.5" xlink:href="#linear-gradient"/>
    <linearGradient id="linear-gradient-4" x1="14.3" y1="-3063.4" x2="92.9" y2="-3063.4" xlink:href="#linear-gradient"/>
    <linearGradient id="linear-gradient-5" x1="18.2" y1="-3043.1" x2="30.3" y2="-3043.1" xlink:href="#linear-gradient"/>
    <linearGradient id="linear-gradient-6" x1="37.7" y1="-3054.4" x2="49.9" y2="-3054.4" xlink:href="#linear-gradient"/>
    <linearGradient id="linear-gradient-7" x1="19.2" y1="-3019.9" x2="29.4" y2="-3019.9" xlink:href="#linear-gradient"/>
    <linearGradient id="linear-gradient-8" x1="29.3" y1="-3019.2" x2="41.7" y2="-3019.2" xlink:href="#linear-gradient"/>
    <linearGradient id="linear-gradient-9" x1="57.3" y1="-3065.6" x2="69.4" y2="-3065.6" xlink:href="#linear-gradient"/>
    <linearGradient id="linear-gradient-10" x1="38.7" y1="-3031.1" x2="49" y2="-3031.1" xlink:href="#linear-gradient"/>
    <linearGradient id="linear-gradient-11" x1="48.9" y1="-3030.5" x2="61.2" y2="-3030.5" xlink:href="#linear-gradient"/>
    <linearGradient id="linear-gradient-12" x1="76.9" y1="-3076.9" x2="89" y2="-3076.9" xlink:href="#linear-gradient"/>
    <linearGradient id="linear-gradient-13" x1="58.3" y1="-3042.4" x2="68.5" y2="-3042.4" xlink:href="#linear-gradient"/>
    <linearGradient id="linear-gradient-14" x1="68.4" y1="-3041.7" x2="80.8" y2="-3041.7" xlink:href="#linear-gradient"/>
    <linearGradient id="linear-gradient-15" x1="88" y1="-3053" x2="100.4" y2="-3053" xlink:href="#linear-gradient"/>
    <linearGradient id="linear-gradient-16" x1="26.2" y1="-3002.7" x2="93.5" y2="-3002.7" xlink:href="#linear-gradient"/>
    <linearGradient id="linear-gradient-17" x1="77.9" y1="-3053.6" x2="88.1" y2="-3053.6" xlink:href="#linear-gradient"/>
    <linearGradient id="linear-gradient-18" x1="13.8" y1="-2976.9" x2="66.1" y2="-2976.9" xlink:href="#linear-gradient"/>
    <linearGradient id="linear-gradient-19" x1="53.8" y1="-2999.9" x2="105.9" y2="-2999.9" xlink:href="#linear-gradient"/>
    <linearGradient id="linear-gradient-20" x1="13.8" y1="-3005.5" x2="93.7" y2="-3005.5" xlink:href="#linear-gradient"/>
    <linearGradient id="linear-gradient-21" x1="13.8" y1="-3002.7" x2="93.7" y2="-3002.7" xlink:href="#linear-gradient"/>
    <linearGradient id="linear-gradient-22" x1="26.2" y1="-3002.7" x2="81.2" y2="-3002.7" gradientTransform="translate(-8.4 -2968.2) scale(1 -1)" gradientUnits="userSpaceOnUse">
      <stop offset="0" stop-color="#ff0038"/>
      <stop offset=".1" stop-color="#ff2240"/>
      <stop offset=".5" stop-color="#ff6552"/>
      <stop offset=".7" stop-color="#ff975f"/>
      <stop offset=".9" stop-color="#ffb567"/>
      <stop offset="1" stop-color="#ffc16a"/>
    </linearGradient>
  </defs>
  <!-- Generator: Adobe Illustrator 28.6.0, SVG Export Plug-In . SVG Version: 1.2.0 Build 709)  -->
  <g>
    <g id="Layer_1">
      <g>
        <path class="cls-14" d="M83.3,122.5l18.7-10.8L18.7,63.7,0,74.6l83.3,47.9Z"/>
        <path class="cls-11" d="M83.3,126l18.7-10.8v-3.5s-18.7,10.8-18.7,10.8v3.5Z"/>
        <path class="cls-9" d="M83.3,122.5L0,74.6v3.5l83.3,47.9v-3.5Z"/>
        <path class="cls-30" d="M84.5,119.3l12.3-7.1L18.2,67l-12.3,7.1,78.6,45.2Z"/>
        <path class="cls-8" d="M84.5,119.3l12.3-7.1v-2.9s-12.3,7.1-12.3,7.1v2.9Z"/>
        <path class="cls-1" d="M84.5,116.4l12.3-7.1L18.2,64.1l-12.3,7.1,78.6,45.2Z"/>
        <path class="cls-7" d="M84.5,116.4L5.9,71.2v2.9s78.6,45.2,78.6,45.2v-2.9Z"/>
        <path class="cls-1" d="M10.8,70.1l12.3-7.1-1-.6-12.3,7.1,1,.6Z"/>
        <path class="cls-1" d="M20.9,75.9l12.3-7.1-10.1-5.8-12.3,7.1,10.1,5.8Z"/>
        <path class="cls-1" d="M21.9,76.5l12.3-7.1-1-.6-12.3,7.1,1,.6Z"/>
        <path class="cls-33" d="M21.9,80.4l12.3-7.1v-3.9s-12.3,7.1-12.3,7.1v3.9Z"/>
        <path class="cls-4" d="M9.8,69.5v3.9s12.1,7,12.1,7v-3.9s-1-.6-1-.6l-10.1-5.8-1-.6Z"/>
        <path class="cls-1" d="M13.7,70.2l12.3-7.1-1.5-.9-12.3,7.1,1.5.9Z"/>
        <path class="cls-1" d="M16.6,71.9l12.3-7.1-1.5-.9-12.3,7.1,1.5.9Z"/>
        <path class="cls-1" d="M19.6,73.6l12.3-7.1-1.5-.9-12.3,7.1,1.5.9Z"/>
        <path class="cls-1" d="M30.4,81.3l12.3-7.1-1-.6-12.3,7.1,1,.6Z"/>
        <path class="cls-1" d="M40.5,87.1l12.3-7.1-10.1-5.8-12.3,7.1,10.1,5.8Z"/>
        <path class="cls-1" d="M33.2,81.4l12.3-7.1-1.5-.9-12.3,7.1,1.5.9Z"/>
        <path class="cls-1" d="M36.2,83.1l12.3-7.1-1.5-.9-12.3,7.1,1.5.9Z"/>
        <path class="cls-1" d="M39.2,84.9l12.3-7.1-1.5-.9-12.3,7.1,1.5.9Z"/>
        <path class="cls-5" d="M29.4,80.8v3.9s12.1,7,12.1,7v-3.9s-1-.6-1-.6l-10.1-5.8-1-.6Z"/>
        <path class="cls-33" d="M41.5,91.6l12.3-7.1v-3.9s-12.3,7.1-12.3,7.1v3.9Z"/>
        <path class="cls-1" d="M41.5,87.7l12.3-7.1-1-.6-12.3,7.1,1,.6Z"/>
        <path class="cls-33" d="M12.1,69.3l12.3-7.1V22.3c.1,0-12.2,7.1-12.2,7.1v39.9Z"/>
        <path class="cls-1" d="M49.9,92.6l12.3-7.1-1-.6-12.3,7.1,1,.6Z"/>
        <path class="cls-31" d="M13.8,30.2l12.3-7.1-1.5-.9-12.3,7.1,1.5.9Z"/>
        <path class="cls-1" d="M13.7,70.2l12.3-7.1V23.1c.1,0-12.2,7.1-12.2,7.1v39.9Z"/>
        <path class="cls-34" d="M12.3,29.4v39.9c-.1,0,1.4.9,1.4.9V30.2c.1,0-1.4-.9-1.4-.9Z"/>
        <path class="cls-33" d="M15.1,71l12.3-7.1V24c.1,0-12.2,7.1-12.2,7.1v39.9Z"/>
        <path class="cls-31" d="M16.7,32l12.3-7.1-1.5-.9-12.3,7.1,1.5.9Z"/>
        <path class="cls-34" d="M15.2,31.1v39.9c-.1,0,1.4.9,1.4.9V32c.1,0-1.4-.9-1.4-.9Z"/>
        <path class="cls-1" d="M16.6,71.9l12.3-7.1V24.9c.1,0-12.2,7.1-12.2,7.1v39.9Z"/>
        <path class="cls-1" d="M60.1,98.4l12.3-7.1-10.1-5.8-12.3,7.1,10.1,5.8Z"/>
        <path class="cls-1" d="M52.8,92.7l12.3-7.1-1.5-.9-12.3,7.1,1.5.9Z"/>
        <path class="cls-33" d="M18.1,72.8l12.3-7.1V25.7c.1,0-12.2,7.1-12.2,7.1v39.9Z"/>
        <path class="cls-1" d="M19.6,73.6l12.3-7.1V26.6c.1,0-12.2,7.1-12.2,7.1v39.9Z"/>
        <path class="cls-31" d="M19.7,33.7l12.3-7.1-1.5-.9-12.3,7.1,1.5.9Z"/>
        <path class="cls-3" d="M20.9,75.9l-10.1-5.8V27.4c.1,0,10.2,5.8,10.2,5.8v42.6ZM15.1,71l1.5.9V32c.1,0-1.4-.9-1.4-.9v39.9ZM12.2,69.3l1.5.9V30.2c.1,0-1.4-.9-1.4-.9v39.9ZM18.1,72.8l1.5.9v-39.9c.1,0-1.4-.9-1.4-.9v39.9Z"/>
        <path class="cls-34" d="M18.2,32.8v39.9c-.1,0,1.4.9,1.4.9v-39.9c.1,0-1.4-.9-1.4-.9Z"/>
        <path class="cls-1" d="M55.8,94.4l12.3-7.1-1.5-.9-12.3,7.1,1.5.9Z"/>
        <path class="cls-1" d="M21,33.3l12.3-7.1-10.1-5.8-12.3,7.1,10.1,5.8Z"/>
        <path class="cls-2" d="M20.9,75.9l12.3-7.1V26.1c.1,0-12.2,7.1-12.2,7.1v42.6Z"/>
        <path class="cls-1" d="M58.7,96.1l12.3-7.1-1.5-.9-12.3,7.1,1.5.9Z"/>
        <path class="cls-33" d="M61,102.9l12.3-7.1v-3.9s-12.3,7.1-12.3,7.1v3.9Z"/>
        <path class="cls-1" d="M61.1,99l12.3-7.1-1-.6-12.3,7.1,1,.6Z"/>
        <path class="cls-6" d="M48.9,92v3.9s12.1,7,12.1,7v-3.9s-1-.6-1-.6l-10.1-5.8-1-.6Z"/>
        <path class="cls-1" d="M22.1,29.9l12.3-7.1-12.1-7-12.3,7.1,12.1,7Z"/>
        <path class="cls-33" d="M22,33.8l12.3-7.1v-3.9s-12.3,7.1-12.3,7.1v3.9Z"/>
        <path class="cls-34" d="M9.9,22.9v3.9s1,.6,1,.6l10.1,5.8,1,.6v-3.9s-12.1-7-12.1-7Z"/>
        <path class="cls-33" d="M31.7,80.6l12.3-7.1v-39.9c.1,0-12.2,7.1-12.2,7.1v39.9Z"/>
        <path class="cls-1" d="M69.5,103.8l12.3-7.1-1-.6-12.3,7.1,1,.6Z"/>
        <path class="cls-31" d="M33.3,41.5l12.3-7.1-1.5-.9-12.3,7.1,1.5.9Z"/>
        <path class="cls-1" d="M33.2,81.4l12.3-7.1v-39.9c.1,0-12.2,7.1-12.2,7.1v39.9Z"/>
        <path class="cls-33" d="M34.7,82.3l12.3-7.1v-39.9c.1,0-12.1,7.1-12.1,7.1v39.9Z"/>
        <path class="cls-1" d="M36.2,83.1l12.3-7.1v-39.9c.1,0-12.2,7.1-12.2,7.1v39.9Z"/>
        <path class="cls-31" d="M36.3,43.2l12.3-7.1-1.5-.9-12.3,7.1,1.5.9Z"/>
        <path class="cls-33" d="M37.7,84l12.3-7.1v-39.9c.1,0-12.2,7.1-12.2,7.1v39.9Z"/>
        <path class="cls-1" d="M39.2,84.9l12.3-7.1v-39.9c.1,0-12.2,7.1-12.2,7.1v39.9Z"/>
        <path class="cls-31" d="M39.3,44.9l12.3-7.1-1.5-.9-12.3,7.1,1.5.9Z"/>
        <path class="cls-34" d="M37.8,44.1v39.9c-.1,0,1.4.9,1.4.9v-39.9c.1,0-1.4-.9-1.4-.9Z"/>
        <path class="cls-17" d="M40.5,87.1l-10.1-5.8v-42.6c.1,0,10.2,5.8,10.2,5.8v42.6c-.1,0-.1,0-.1,0ZM31.7,80.6l1.5.9v-39.9c.1,0-1.4-.9-1.4-.9v39.9c-.1,0-.1,0-.1,0ZM34.7,82.3l1.5.9v-39.9c.1,0-1.4-.9-1.4-.9v39.9ZM37.7,84l1.5.9v-39.9c.1,0-1.4-.9-1.4-.9v39.9Z"/>
        <path class="cls-34" d="M31.8,40.6v39.9c-.1,0,1.4.9,1.4.9v-39.9c.1,0-1.4-.9-1.4-.9Z"/>
        <path class="cls-34" d="M34.8,42.4v39.9c-.1,0,1.4.9,1.4.9v-39.9c.1,0-1.4-.9-1.4-.9Z"/>
        <path class="cls-1" d="M79.6,109.7l12.3-7.1-10.1-5.8-12.3,7.1,10.1,5.8Z"/>
        <path class="cls-1" d="M72.3,103.9l12.3-7.1-1.5-.9-12.3,7.1,1.5.9Z"/>
        <path class="cls-1" d="M75.3,105.7l12.3-7.1-1.5-.9-12.3,7.1,1.5.9Z"/>
        <path class="cls-18" d="M40.5,87.1l12.3-7.1v-42.6c.1,0-12.2,7.1-12.2,7.1v42.6Z"/>
        <path class="cls-1" d="M40.6,44.5l12.3-7.1-10.1-5.8-12.3,7.1,10.1,5.8Z"/>
        <path class="cls-1" d="M78.3,107.4l12.3-7.1-1.5-.9-12.3,7.1,1.5.9Z"/>
        <path class="cls-19" d="M80.6,110.2l-1-.6-10.1-5.8-1-.6v3.9s12.1,7,12.1,7v-3.9Z"/>
        <path class="cls-33" d="M80.6,114.2l12.3-7.1v-3.9s-12.3,7.1-12.3,7.1v3.9Z"/>
        <path class="cls-1" d="M80.6,110.2l12.3-7.1-1-.6-12.3,7.1,1,.6Z"/>
        <path class="cls-34" d="M41.6,41.2l-12.1-7v3.9s1,.6,1,.6l10.1,5.8,1,.6v-3.9Z"/>
        <path class="cls-1" d="M41.6,41.2l12.3-7.1-12.1-7-12.3,7.1,12.1,7Z"/>
        <path class="cls-33" d="M41.6,45.1l12.3-7.1v-3.9s-12.3,7.1-12.3,7.1v3.9Z"/>
        <path class="cls-33" d="M51.3,91.8l12.3-7.1v-39.9c.1,0-12.1,7.1-12.1,7.1v39.9Z"/>
        <path class="cls-31" d="M52.9,52.8l12.3-7.1-1.5-.9-12.3,7.1,1.5.9Z"/>
        <path class="cls-1" d="M52.8,92.7l12.3-7.1v-39.9c.1,0-12.1,7.1-12.1,7.1v39.9Z"/>
        <path class="cls-33" d="M54.2,93.5l12.3-7.1v-39.9c.1,0-12.2,7.1-12.2,7.1v39.9Z"/>
        <path class="cls-31" d="M55.9,54.5l12.3-7.1-1.5-.9-12.3,7.1,1.5.9Z"/>
        <path class="cls-1" d="M55.8,94.4l12.3-7.1v-39.9c.1,0-12.2,7.1-12.2,7.1v39.9Z"/>
        <path class="cls-34" d="M54.4,53.6v39.9c-.1,0,1.4.9,1.4.9v-39.9c.1,0-1.4-.9-1.4-.9Z"/>
        <path class="cls-33" d="M57.2,95.2l12.3-7.1v-39.9c.1,0-12.2,7.1-12.2,7.1v39.9Z"/>
        <path class="cls-1" d="M58.7,96.1l12.3-7.1v-39.9c.1,0-12.2,7.1-12.2,7.1v39.9Z"/>
        <path class="cls-31" d="M58.8,56.2l12.3-7.1-1.5-.9-12.3,7.1,1.5.9Z"/>
        <path class="cls-20" d="M60.1,98.4l-10.1-5.8v-42.6c.1,0,10.2,5.8,10.2,5.8v42.6ZM57.2,95.2l1.5.9v-39.9c.1,0-1.4-.9-1.4-.9v39.9c-.1,0-.1,0-.1,0ZM51.3,91.8l1.5.9v-39.9c.1,0-1.4-.9-1.4-.9v39.9ZM54.2,93.5l1.5.9v-39.9c.1,0-1.4-.9-1.4-.9v39.9Z"/>
        <path class="cls-34" d="M51.4,51.9v39.9c-.1,0,1.4.9,1.4.9v-39.9c.1,0-1.4-.9-1.4-.9Z"/>
        <path class="cls-1" d="M60.2,55.8l12.3-7.1-10.1-5.8-12.3,7.1,10.1,5.8Z"/>
        <path class="cls-22" d="M60.1,98.4l12.3-7.1v-42.6c.1,0-12.1,7.1-12.1,7.1v42.6Z"/>
        <path class="cls-1" d="M61.2,52.4l12.3-7.1-12.1-7-12.3,7.1,12.1,7Z"/>
        <path class="cls-33" d="M61.2,56.3l12.3-7.1v-3.9s-12.3,7.1-12.3,7.1v3.9Z"/>
        <path class="cls-33" d="M70.8,103.1l12.3-7.1v-39.9c.1,0-12.2,7.1-12.2,7.1v39.9Z"/>
        <path class="cls-1" d="M72.3,103.9l12.3-7.1v-39.9c.1,0-12.2,7.1-12.2,7.1v39.9Z"/>
        <path class="cls-31" d="M72.4,64l12.3-7.1-1.5-.9-12.3,7.1,1.5.9Z"/>
        <path class="cls-33" d="M73.8,104.8l12.3-7.1v-39.9c.1,0-12.2,7.1-12.2,7.1v39.9Z"/>
        <path class="cls-31" d="M75.4,65.7l12.3-7.1-1.5-.9-12.3,7.1,1.5.9Z"/>
        <path class="cls-1" d="M75.3,105.7l12.3-7.1v-39.9c.1,0-12.2,7.1-12.2,7.1v39.9Z"/>
        <path class="cls-33" d="M76.8,106.5l12.3-7.1v-39.9c.1,0-12.2,7.1-12.2,7.1v39.9Z"/>
        <path class="cls-1" d="M78.3,107.4l12.3-7.1v-39.9c.1,0-12.2,7.1-12.2,7.1v39.9Z"/>
        <path class="cls-16" d="M78.4,67.4l12.3-7.1-1.5-.9-12.3,7.1,1.5.9Z"/>
        <path class="cls-26" d="M79.6,109.7l12.3-7.1v-42.6c.1,0-12.2,7.1-12.2,7.1v42.6Z"/>
        <path class="cls-1" d="M79.7,67l12.3-7.1-10.1-5.8-12.3,7.1,10.1,5.8Z"/>
        <path class="cls-33" d="M80.7,67.6l12.3-7.1v-3.9s-12.3,7.1-12.3,7.1v3.9Z"/>
        <path class="cls-1" d="M80.7,63.7l12.3-7.1-12.1-7-12.3,7.1,12.1,7Z"/>
        <path class="cls-30" d="M85.3,65.4l12.3-7.1L17.7,12.4l-12.3,7.1,79.9,46Z"/>
        <path class="cls-27" d="M72.8,53.9l12.3-7.1L30.2,15.2l-12.3,7.1,55,31.6Z"/>
        <path class="cls-34" d="M57.3,55.3v39.9c-.1,0,1.4.9,1.4.9v-39.9c.1,0-1.4-.9-1.4-.9Z"/>
        <path class="cls-32" d="M45.4,15.2l12.3-7.1-27.5,7.1-12.3,7.1,27.5-7.1Z"/>
        <path class="cls-10" d="M72.8,53.9l12.3-7.1L57.7,8.1l-12.3,7.1,27.4,38.8Z"/>
        <path class="cls-13" d="M85.3,65.4L5.4,19.5v.9l4.6,2.6,12.1,7,7.5,4.3,12.1,7,7.5,4.3,12.1,7,7.5,4.3,12.1,7,4.6,2.6v-.9Z"/>
        <path class="cls-34" d="M49.1,45.5v3.9s1,.6,1,.6l10.1,5.8,1,.6v-3.9s-12.1-7-12.1-7Z"/>
        <path class="cls-34" d="M70.9,63.2v39.9c-.1,0,1.4.9,1.4.9v-39.9c.1,0-1.4-.9-1.4-.9Z"/>
        <path class="cls-34" d="M73.9,64.9v39.9c-.1,0,1.4.9,1.4.9v-39.9c.1,0-1.4-.9-1.4-.9Z"/>
        <path class="cls-34" d="M78.4,67.4l-1.5-.9v39.9c-.1,0,1.4.9,1.4.9v-39.9Z"/>
        <path class="cls-15" d="M45.4,9.1l12.3-7.1L17.7,12.4l-12.3,7.1,40-10.4Z"/>
        <path class="cls-28" d="M79.6,109.7l-10.1-5.8v-42.6c.1,0,10.2,5.8,10.2,5.8v42.6ZM76.8,106.5l1.5.9v-39.9c.1,0-1.4-.9-1.4-.9v39.9ZM70.8,103.1l1.5.9v-39.9c.1,0-1.4-.9-1.4-.9v39.9ZM73.8,104.8l1.5.9v-39.9c.1,0-1.4-.9-1.4-.9v39.9Z"/>
        <path class="cls-29" d="M45.4,7.1L57.7,0,17.7,10.4l-12.3,7.1L45.4,7.1Z"/>
        <path class="cls-34" d="M68.6,56.7v3.9s1,.6,1,.6l10.1,5.8,1,.6v-3.9s-12.1-7-12.1-7Z"/>
        <path class="cls-12" d="M85.3,65.5l12.3-7.1L57.7,2l-12.3,7.1,39.9,56.4Z"/>
        <path class="cls-14" d="M85.3,66.3l12.3-7.1v-.9l-12.3,7.1v.9Z"/>
        <path class="cls-13" d="M45.4,7.1L5.4,17.5v2s40-10.4,40-10.4l39.9,56.4v-2L45.4,7.1Z"/>
        <path class="cls-21" d="M85.3,63.5l12.3-7.1L57.7,0l-12.3,7.1,39.9,56.4Z"/>
        <path class="cls-1" d="M85.3,65.5l12.3-7.1v-2s-12.3,7.1-12.3,7.1v2Z"/>
        <path class="cls-24" d="M45.4,9.1L5.4,19.5l79.9,46L45.4,9.1ZM45.4,15.2l27.4,38.8L17.9,22.3l5.7-1.5,21.9-5.7h0Z"/>
        <path class="cls-23" d="M72.8,53.9L45.4,15.2l-21.9,5.7,21.9-5.7,27.4,38.8Z"/>
        <path class="cls-25" d="M72.8,53.9L45.4,15.2l-21.9,5.7,21.9-5.7,27.4,38.8Z"/>
      </g>
    </g>
  </g>
</svg>