<?xml version="1.0" encoding="UTF-8"?>
<svg xmlns="http://www.w3.org/2000/svg" xmlns:xlink="http://www.w3.org/1999/xlink" version="1.1" viewBox="0 0 117 128">
  <defs>
    <style>
      .cls-1 {
        fill: url(#radial-gradient);
        mix-blend-mode: color-dodge;
      }

      .cls-1, .cls-2 {
        isolation: isolate;
      }

      .cls-3 {
        fill: url(#linear-gradient-4);
      }

      .cls-4 {
        fill: url(#linear-gradient-3);
      }

      .cls-5 {
        fill: url(#linear-gradient-2);
      }

      .cls-6 {
        fill: url(#linear-gradient);
      }

      .cls-7 {
        fill: #8bc4cb;
      }

      .cls-8 {
        fill: #d8d8d8;
      }

      .cls-9 {
        fill: #da6561;
      }

      .cls-10 {
        fill: #fff;
      }

      .cls-11 {
        fill: #e08488;
      }
    </style>
    <linearGradient id="linear-gradient" x1="18.1" y1="-2984" x2="76.9" y2="-2984" gradientTransform="translate(-8.4 -2966.2) scale(1 -1)" gradientUnits="userSpaceOnUse">
      <stop offset="0" stop-color="#ffc16a"/>
      <stop offset=".1" stop-color="#ffb567"/>
      <stop offset=".3" stop-color="#ff975f"/>
      <stop offset=".6" stop-color="#ff6552"/>
      <stop offset=".9" stop-color="#ff2240"/>
      <stop offset="1" stop-color="#ff0038"/>
    </linearGradient>
    <linearGradient id="linear-gradient-2" x1="58.3" y1="-3030.2" x2="125.4" y2="-3030.2" xlink:href="#linear-gradient"/>
    <radialGradient id="radial-gradient" cx="-1967.8" cy="-1114" fx="-1967.8" fy="-1114" r="1" gradientTransform="translate(94335.1 -53173.5) scale(47.9 -47.8)" gradientUnits="userSpaceOnUse">
      <stop offset="0" stop-color="#8f8f8f"/>
      <stop offset="1" stop-color="#fff"/>
    </radialGradient>
    <linearGradient id="linear-gradient-3" x1="11.2" y1="-3025.8" x2="105.4" y2="-3025.8" xlink:href="#linear-gradient"/>
    <linearGradient id="linear-gradient-4" x1="22.5" y1="-3063.5" x2="93.4" y2="-3063.5" xlink:href="#linear-gradient"/>
  </defs>
  <!-- Generator: Adobe Illustrator 28.6.0, SVG Export Plug-In . SVG Version: 1.2.0 Build 709)  -->
  <g class="cls-2">
    <g id="Layer_1">
      <g>
        <path class="cls-6" d="M29.9,14.7c7.3,4.2,14.5,11.5,20,21l18.6-10.8c-5.5-9.5-12.8-16.8-20-21C41.2-.3,33.9-1.3,28.3,1.9L9.8,12.6c5.6-3.2,12.9-2.2,20.2,2h0Z"/>
        <path class="cls-5" d="M70.1,37.8c7.3,4.2,14.6,11.6,20.1,21.2,11.1,19.1,11,39.7,0,46.1l4.4-2.5,3.5-2,3-1.7,5.7-3.3,2-1.2c4-2.3,6.6-6.5,7.7-11.9,1.9-9.3-.6-22.1-7.6-34.2-5.5-9.6-12.8-17-20.1-21.2-7.3-4.2-14.5-5.2-20.1-2.1l-18.6,10.8c5.6-3.1,12.8-2.1,20.1,2.1h0Z"/>
        <path class="cls-1" d="M5.8,51c.7,1.7,1.5,3.4,2.4,5.1.3.6.6,1.2.9,1.7h.1C.1,40.3.7,21.9,11,16.1c5.4-3.1,12.5-2.1,19.5,2,7,4.1,14.1,11.2,19.4,20.4,5.4-3,12.4-2,19.5,2,7.1,4.1,14.1,11.2,19.5,20.5,10.4,17.9,10.7,37.1,1,44h0s0,0,0,0c11.1-6.4,11.1-27,0-46.1-5.5-9.6-12.8-17-20.1-21.2-7.3-4.2-14.5-5.2-20.1-2.1-5.5-9.5-12.8-16.8-20-21-7.3-4.2-14.6-5.2-20.2-2C3.3,16.3.6,24.7,1.5,34.9c.5,5.1,1.9,10.6,4.2,16.2h0Z"/>
        <path class="cls-11" d="M49.7,128L14.1,66.5h0l2.9,5.1,2.2,3.9,9.5,16.4,6.2,10.7,10.2,17.7,4.4,7.7h0Z"/>
        <path class="cls-4" d="M39.2,75.2l5.7-17.9c0-.3.3-.5.5-.5h-.1c0,0,2.1-1.2,2.1-1.2.3-.2.6-.1,1,.1.7.5,1.3,1.3,1.4,2.1l7.3,43.5,4.4-22.4c0-.3.2-.5.5-.6h0s2.1-1.2,2.1-1.2c.3-.2.6-.1,1,0,.7.4,1.3,1.3,1.4,2.1l3.3,22.2,1.2-3.8c0-.3.3-.5.5-.5h-.1c0,0,2.1-1.2,2.1-1.2.3-.2.6-.1,1,0l15.5,9c9.7-6.9,9.3-26.1-1-44-5.4-9.3-12.4-16.4-19.5-20.5-7-4.1-14.1-5-19.5-2-5.4-9.2-12.4-16.3-19.4-20.4-7.1-4.1-14.1-5-19.5-2C.7,21.9.1,40.3,9.3,58l30,17.2Z"/>
        <path class="cls-3" d="M74.9,102.1l-3.4,11.4c0,.2-.2.4-.4.5l-2.1,1.2h.1c-.3.2-.7.2-1.1,0-.7-.5-1.3-1.3-1.4-2.1l-2.8-18.9-4.2,21.7c0,.3-.2.5-.4.6l-2.1,1.2h.1c-.3.1-.7.2-1.1,0-.7-.4-1.3-1.3-1.4-2.1l-7.8-46.9-3.5,11.1c0,.2-.2.4-.4.5l-2.1,1.2h.1c-.3.1-.7.2-1.1-.1l-25.5-14.7,35.6,61.5,4.5-2.5,7.6-4.3,3.2-1.8,2.1-1.2,3.2-1.8,2.1-1.2,3.2-1.8,2.1-1.2,3.2-1.8,4.2-2.4-10.2-5.9h0Z"/>
        <path class="cls-9" d="M41,80.8c0,.1,0,.2-.1.3,0,0,.1-.2.1-.3Z"/>
        <path class="cls-10" d="M3.6,54.7c-.4-.2-.8-.3-1-.1l-2.1,1.2h.1c0,0,0,0,0,0h.2s.2,0,.2,0h0l.3.2,3.6,2,3.2,1.8,3.1,1.8h0l27.3,15.7.3-1,.3-1-30-17.2h-.1c0,0-2-1.2-2-1.2l-3.6-2h0Z"/>
        <path class="cls-10" d="M42.8,80.1c.2,0,.3-.3.4-.5l3.5-11.1-.6-3.6-5.1,15.9c0,.1,0,.2-.1.3,0,0,0,0,0,0h0c0,0-.1.2-.1.2l2.1-1.2h0Z"/>
        <path class="cls-7" d="M59,116.4c.2-.1.3-.3.4-.6l4.2-21.7-.8-5.5-5.6,28.4c0,.2,0,.3-.2.4h0c0,0-.1.2-.1.2l2.1-1.2h0Z"/>
        <path class="cls-10" d="M45.9,56.8c.1,0,.2,0,.3.1,0,0,0,0,.1,0,0,0,.2.1.3.2.6.5,1,1.2,1.1,1.9l8.1,48.7,1.3-6.5-7.3-43.5c-.1-.8-.7-1.7-1.4-2.1-.4-.2-.8-.3-1-.1l-2.1,1.2h.1c0,0,0,0,0,0h.3s0,0,0,0h0Z"/>
        <path class="cls-10" d="M62,78.3s0,0,0,0c0,0,.2,0,.3,0h0c.1,0,.3,0,.4.2.7.4,1.3,1.3,1.4,2.1l3.9,26.1,1.5-5.1-3.3-22.2c-.1-.8-.7-1.7-1.4-2.1-.4-.2-.8-.2-1,0l-2.1,1.2h0s0,0,0,0h0s0,0,0,0Z"/>
        <path class="cls-8" d="M10.5,64.4l3.6,2.1h0l25.5,14.7c.4.3.9.2,1.1,0h0c0,0,0-.1,0-.1,0,0,.1-.2.1-.3l5.1-15.9.6,3.6,7.8,46.9c.1.8.7,1.7,1.4,2.1.5.3.9.2,1.1,0h0c0-.2.1-.3.2-.5l5.6-28.4.8,5.5,2.8,18.9c.1.8.7,1.7,1.4,2.1.4.3.8.2,1.1,0h0c0,0,0,0,0-.1,0,0,.1-.2.2-.3l4.1-13.5,1.5.9,10.2,5.9,12,6.9c.4.3.8.3,1.1,0,0,0,0,0,0,0h0c0,0,0-.2,0-.2h0c0,0,0-.2,0-.2h0c0-.1,0-.4,0-.4,0-.3,0-.7-.2-1.1-.3-.6-.7-1.1-1.2-1.4l-24.7-14.2c-.1,0-.2-.1-.4-.2h-.1c-.1,0-.2,0-.4,0h0c-.2.1-.4.3-.5.6l-1.2,3.8-1.5,5.1-3.9-26.1c-.1-.8-.7-1.7-1.4-2.1-.2,0-.3-.1-.4-.2h0c-.1,0-.2,0-.3,0,0,0,0,0,0,0h0s0,0,0,0c-.2.1-.4.3-.5.6l-4.4,22.4-1.3,6.5-8.1-48.7c-.1-.7-.6-1.4-1.1-1.9,0,0-.2-.1-.3-.2,0,0,0,0-.1,0-.1,0-.2,0-.3-.1h-.5c-.2,0-.4.3-.5.5l-5.7,17.9-.3,1-.3,1-27.3-15.7h0l-3.1-1.8-3.2-1.8-3.6-2h-.3c0-.1,0-.1,0-.1h-.2c0,0,0,0,0,0h-.2s0,0,0,0h-.1c-.3.2-.4.5-.4,1,0,.9.6,2,1.4,2.5l.7.4,3.2,1.8,5.2,3h0Z"/>
      </g>
    </g>
  </g>
</svg>