<?xml version="1.0" encoding="UTF-8"?>
<svg xmlns="http://www.w3.org/2000/svg" xmlns:xlink="http://www.w3.org/1999/xlink" version="1.1" viewBox="0 0 98 128">
  <defs>
    <style>
      .cls-1, .cls-2 {
        opacity: .2;
      }

      .cls-1, .cls-2, .cls-3, .cls-4 {
        isolation: isolate;
      }

      .cls-5 {
        fill: url(#linear-gradient-8);
      }

      .cls-6 {
        fill: url(#linear-gradient-7);
      }

      .cls-7 {
        fill: url(#linear-gradient-5);
      }

      .cls-8 {
        fill: url(#linear-gradient-6);
      }

      .cls-9 {
        fill: url(#linear-gradient-9);
      }

      .cls-10 {
        fill: url(#linear-gradient-4);
      }

      .cls-11 {
        fill: url(#linear-gradient-3);
      }

      .cls-12 {
        fill: url(#linear-gradient-2);
      }

      .cls-13 {
        fill: #e2e2e2;
      }

      .cls-14 {
        fill: url(#linear-gradient);
      }

      .cls-15 {
        fill: #d8d8d8;
      }

      .cls-2 {
        fill: #353535;
      }

      .cls-3 {
        fill: #9e9e9e;
      }

      .cls-3, .cls-4 {
        opacity: .7;
      }

      .cls-16, .cls-4 {
        fill: #fff;
      }

      .cls-17 {
        fill: url(#linear-gradient-10);
      }

      .cls-18 {
        fill: url(#linear-gradient-11);
      }

      .cls-19 {
        fill: url(#linear-gradient-12);
      }

      .cls-20 {
        fill: url(#linear-gradient-13);
      }

      .cls-21 {
        fill: url(#linear-gradient-19);
      }

      .cls-22 {
        fill: url(#linear-gradient-14);
      }

      .cls-23 {
        fill: url(#linear-gradient-21);
      }

      .cls-24 {
        fill: url(#linear-gradient-20);
      }

      .cls-25 {
        fill: url(#linear-gradient-22);
      }

      .cls-26 {
        fill: url(#linear-gradient-15);
      }

      .cls-27 {
        fill: url(#linear-gradient-16);
      }

      .cls-28 {
        fill: url(#linear-gradient-17);
      }

      .cls-29 {
        fill: url(#linear-gradient-18);
      }

      .cls-30 {
        fill: #6adac0;
      }
    </style>
    <linearGradient id="linear-gradient" x1="23.7" y1="-3034.3" x2="36.3" y2="-3034.3" gradientTransform="translate(-8.4 -2966.2) scale(1 -1)" gradientUnits="userSpaceOnUse">
      <stop offset="0" stop-color="#ffc16a"/>
      <stop offset=".1" stop-color="#ffb567"/>
      <stop offset=".3" stop-color="#ff975f"/>
      <stop offset=".6" stop-color="#ff6552"/>
      <stop offset=".9" stop-color="#ff2240"/>
      <stop offset="1" stop-color="#ff0038"/>
    </linearGradient>
    <linearGradient id="linear-gradient-2" x1="15.9" y1="-3081.5" x2="64.9" y2="-3081.5" xlink:href="#linear-gradient"/>
    <linearGradient id="linear-gradient-3" x1="15.9" y1="-3074.1" x2="64.9" y2="-3074.1" gradientTransform="translate(-8.4 -2966.2) scale(1 -1)" gradientUnits="userSpaceOnUse">
      <stop offset="0" stop-color="#ff0038"/>
      <stop offset=".1" stop-color="#ff2240"/>
      <stop offset=".5" stop-color="#ff6552"/>
      <stop offset=".7" stop-color="#ff975f"/>
      <stop offset=".9" stop-color="#ffb567"/>
      <stop offset="1" stop-color="#ffc16a"/>
    </linearGradient>
    <linearGradient id="linear-gradient-4" x1="24.4" y1="-3054.1" x2="56.3" y2="-3054.1" xlink:href="#linear-gradient"/>
    <linearGradient id="linear-gradient-5" x1="43.1" y1="-3045.4" x2="55.8" y2="-3045.4" xlink:href="#linear-gradient-3"/>
    <linearGradient id="linear-gradient-6" x1="47.2" y1="-3063.7" x2="51.4" y2="-3063.7" xlink:href="#linear-gradient-3"/>
    <linearGradient id="linear-gradient-7" x1="47.2" y1="-3073" x2="51.4" y2="-3073" xlink:href="#linear-gradient-3"/>
    <linearGradient id="linear-gradient-8" x1="25.4" y1="-3000.1" x2="32" y2="-3000.1" xlink:href="#linear-gradient"/>
    <linearGradient id="linear-gradient-9" x1="14.5" y1="-3009.4" x2="29.5" y2="-3009.4" xlink:href="#linear-gradient"/>
    <linearGradient id="linear-gradient-10" x1="14.5" y1="-3013.8" x2="18.3" y2="-3013.8" xlink:href="#linear-gradient"/>
    <linearGradient id="linear-gradient-11" x1="18.3" y1="-3004.5" x2="34.2" y2="-3004.5" xlink:href="#linear-gradient"/>
    <linearGradient id="linear-gradient-12" x1="60.8" y1="-2986.1" x2="81.8" y2="-2986.1" xlink:href="#linear-gradient"/>
    <linearGradient id="linear-gradient-13" x1="70.2" y1="-2988.5" x2="83.9" y2="-2988.5" xlink:href="#linear-gradient"/>
    <linearGradient id="linear-gradient-14" x1="24.9" y1="-2988.5" x2="39.8" y2="-2988.5" xlink:href="#linear-gradient"/>
    <linearGradient id="linear-gradient-15" x1="31.6" y1="-2990.4" x2="41.3" y2="-2990.4" xlink:href="#linear-gradient"/>
    <linearGradient id="linear-gradient-16" x1="24.5" y1="-2978.9" x2="32.3" y2="-2978.9" xlink:href="#linear-gradient"/>
    <linearGradient id="linear-gradient-17" x1="14.1" y1="-2977.4" x2="33.9" y2="-2977.4" xlink:href="#linear-gradient"/>
    <linearGradient id="linear-gradient-18" x1="8.4" y1="-2977.1" x2="14.1" y2="-2977.1" xlink:href="#linear-gradient"/>
    <linearGradient id="linear-gradient-19" x1="8.4" y1="-2971.8" x2="28.2" y2="-2971.8" xlink:href="#linear-gradient"/>
    <linearGradient id="linear-gradient-20" x1="85.1" y1="-3053.7" x2="106.3" y2="-3053.7" xlink:href="#linear-gradient"/>
    <linearGradient id="linear-gradient-21" x1="69.9" y1="-3043.2" x2="87" y2="-3043.2" xlink:href="#linear-gradient"/>
    <linearGradient id="linear-gradient-22" x1="66" y1="-3056.5" x2="83" y2="-3056.5" xlink:href="#linear-gradient"/>
  </defs>
  <!-- Generator: Adobe Illustrator 28.6.0, SVG Export Plug-In . SVG Version: 1.2.0 Build 709)  -->
  <g>
    <g id="Layer_1">
      <g>
        <path class="cls-30" d="M56.6,27.1c1.9-1.8,6.3,1.5,6.3,3.4l-21.1,38.3-10.4-5,25.2-36.7h0Z"/>
        <path class="cls-4" d="M56.6,27.1c1.9-1.8,6.3,1.5,6.3,3.4l-21.1,38.3-10.4-5,25.2-36.7h0Z"/>
        <path class="cls-30" d="M26.4,63.5c0-1.1-.2-2.1-.7-2.8l.3-.5-1.4-.8c-1.2-.7-2.8-.6-4.6.5-3.5,2.1-6.3,7.1-6.2,11.2,0,2.1.8,3.6,2,4.2l1.4.8.3-.5c.8,0,1.7-.3,2.7-.9,3.5-2.1,6.3-7.1,6.2-11.2Z"/>
        <path class="cls-15" d="M26.4,63.5c0-1.1-.2-2.1-.7-2.8l.3-.5-1.4-.8c-1.2-.7-2.8-.6-4.6.5-3.5,2.1-6.3,7.1-6.2,11.2,0,2.1.8,3.6,2,4.2l1.4.8.3-.5c.8,0,1.7-.3,2.7-.9,3.5-2.1,6.3-7.1,6.2-11.2Z"/>
        <path class="cls-30" d="M21.6,60.8c-3.5,2.1-6.3,7.1-6.2,11.2,0,4.1,2.9,5.7,6.4,3.6,3.5-2.1,6.3-7.1,6.2-11.2,0-4.1-2.9-5.7-6.4-3.6Z"/>
        <path class="cls-14" d="M21.6,60.8c-3.5,2.1-6.3,7.1-6.2,11.2,0,4.1,2.9,5.7,6.4,3.6,3.5-2.1,6.3-7.1,6.2-11.2,0-4.1-2.9-5.7-6.4-3.6Z"/>
        <path class="cls-12" d="M56.5,115.1h0v-7.2h-5.4c-.6-.4-1.1-.7-1.8-1.1-9.6-5.6-25.1-5.6-34.6,0-.6.4-1.2.7-1.8,1.1h-5.4v7.2h0c0,2.9,2.3,5.9,7.2,8.7,9.6,5.6,25.1,5.6,34.6,0,4.9-2.8,7.3-5.8,7.2-8.7Z"/>
        <path class="cls-11" d="M14.7,118c-9.6-5.6-9.6-14.6,0-20.2,9.6-5.6,25.1-5.6,34.6,0,9.6,5.6,9.6,14.6,0,20.2-9.6,5.6-25.1,5.6-34.6,0Z"/>
        <path class="cls-10" d="M48,107.9v-33.2c0-8.9-7.2-16.1-16-16.1s-16,7.2-16,16.1v33.3c0,2.4,1.6,4.7,4.7,6.5,6.3,3.6,16.4,3.6,22.6,0,3.1-1.8,4.6-4.1,4.7-6.5h0Z"/>
        <path class="cls-30" d="M45.9,74.6c0-1.1-.2-2.1-.6-2.8l.3-.5-1.4-.8c-1.2-.7-2.8-.6-4.6.4-3.5,2.1-6.3,7-6.3,11.1,0,2.1.8,3.6,2,4.2l1.4.8.3-.5c.8,0,1.7-.3,2.7-.9,3.5-2.1,6.3-7,6.3-11.1Z"/>
        <path class="cls-15" d="M45.9,74.6c0-1.1-.2-2.1-.6-2.8l.3-.5-1.4-.8c-1.2-.7-2.8-.6-4.6.4-3.5,2.1-6.3,7-6.3,11.1,0,2.1.8,3.6,2,4.2l1.4.8.3-.5c.8,0,1.7-.3,2.7-.9,3.5-2.1,6.3-7,6.3-11.1Z"/>
        <path class="cls-30" d="M41.1,71.8c-3.5,2.1-6.3,7-6.3,11.1,0,4.1,2.9,5.7,6.4,3.7,3.5-2.1,6.3-7,6.3-11.1,0-4.1-2.9-5.7-6.4-3.7Z"/>
        <path class="cls-7" d="M41.1,71.8c-3.5,2.1-6.3,7-6.3,11.1,0,4.1,2.9,5.7,6.4,3.7,3.5-2.1,6.3-7,6.3-11.1,0-4.1-2.9-5.7-6.4-3.7Z"/>
        <path class="cls-16" d="M38.1,81c0,.5,0,.9.2,1.2.5,1,1.5,1.3,2.8.5,1.7-1,3-3.4,3-5.3,0-1.3-.6-2-1.4-2.2-.5,0-1,0-1.6.4-1.7,1-3,3.4-3,5.3h0Z"/>
        <path class="cls-3" d="M38.1,81c0,.5,0,.9.2,1.2.5,0,1,0,1.6-.4,1.7-1,3-3.4,3-5.3,0-.5,0-.9-.2-1.2-.5,0-1,0-1.6.4-1.7,1-3,3.4-3,5.3Z"/>
        <path class="cls-30" d="M37.8,98.2c0-1.4,1-3,2.1-3.7.6-.4,1.2-.4,1.5-.1l1,.6-.4.7h0c0,1.4-1,3.1-2.1,3.8l-.4.8-1.1-.6h0c-.4-.3-.6-.7-.6-1.4Z"/>
        <path class="cls-15" d="M37.8,98.2c0-1.4,1-3,2.1-3.7.6-.4,1.2-.4,1.5-.1l1,.6-.4.7h0c0,1.4-1,3.1-2.1,3.8l-.4.8-1.1-.6h0c-.4-.3-.6-.7-.6-1.4Z"/>
        <path class="cls-8" d="M43.1,96.3c0,1.4-1,3-2.1,3.7-1.2.7-2.1.1-2.1-1.2s1-3,2.1-3.7c1.2-.7,2.1-.1,2.1,1.2h0Z"/>
        <path class="cls-15" d="M37.8,107.4c0-1.4,1-3,2.1-3.7.6-.4,1.2-.4,1.5-.1l1,.6-.4.7h0c0,1.4-1,3.1-2.1,3.8l-.4.8-1.1-.6h0c-.4-.3-.6-.7-.6-1.4Z"/>
        <path class="cls-6" d="M43.1,105.5c0,1.4-1,3-2.1,3.7-1.2.7-2.1.1-2.1-1.2s1-3,2.1-3.7c1.2-.7,2.1-.1,2.1,1.2h0Z"/>
        <path class="cls-5" d="M23.6,28l-2.7,14.2-3.9-2.2,2.7-14.2,3.9,2.2Z"/>
        <path class="cls-9" d="M10,47.7l11.1-6.6-3.8-2.5-11.2,6.8,3.9,2.2Z"/>
        <path class="cls-17" d="M6.1,47.6l3.9,2.2v-2.1l-3.9-2.2v2.1Z"/>
        <path class="cls-18" d="M25.8,26.7l-2.2,1.3-2.5,13.2-11.1,6.6v2.2l12.9-7.8.4-2.3,2.5-13.1Z"/>
        <path class="cls-30" d="M57.8,9.2c1.9-1.6,3.7-2,5.2-1.4l9.2,4.5-.2.6c.6.8,1.1,1.8,1.3,3.2.8,4.8-1.5,11.2-5.2,14.3-1,.9-2,1.3-3,1.6l-.2.6-9.2-4.5c-1.5-.5-2.7-2-3.2-4.5-.8-4.8,1.5-11.2,5.2-14.3h0Z"/>
        <path class="cls-19" d="M57.8,9.2c1.9-1.6,3.7-2,5.2-1.4l9.2,4.5-.2.6c.6.8,1.1,1.8,1.3,3.2.8,4.8-1.5,11.2-5.2,14.3-1,.9-2,1.3-3,1.6l-.2.6-9.2-4.5c-1.5-.5-2.7-2-3.2-4.5-.8-4.8,1.5-11.2,5.2-14.3h0Z"/>
        <path class="cls-20" d="M67.2,13.7c-3.7,3.1-6,9.5-5.2,14.3.8,4.8,4.5,6.1,8.2,3,3.7-3.1,6-9.5,5.2-14.3-.8-4.8-4.5-6.1-8.2-3Z"/>
        <path class="cls-16" d="M65.5,25c0,.6.3,1,.5,1.4.7,1.1,2.1,1.2,3.4,0,1.8-1.5,2.9-4.5,2.5-6.8-.3-1.5-1.1-2.3-2.1-2.2-.6,0-1.2.3-1.8.8-1.8,1.5-2.9,4.5-2.5,6.8Z"/>
        <path class="cls-3" d="M65.5,25c0,.6.3,1,.5,1.4.6,0,1.2-.3,1.8-.8,1.8-1.5,2.9-4.5,2.5-6.8,0-.6-.3-1-.5-1.4-.6,0-1.2.3-1.8.8-1.8,1.5-2.9,4.5-2.5,6.8Z"/>
        <path class="cls-30" d="M27.9,25.3l30.4-2.5c1.7-.3,2.9-1.9,2.6-3.6-.3-1.7-1.9-2.9-3.6-2.6,0,0,0,0-.1,0l-30.1,4c-1.3.3-2.1,1.5-1.9,2.8.2,1.3,1.5,2.1,2.7,1.9Z"/>
        <path class="cls-4" d="M27.9,25.3l30.4-2.5c1.7-.3,2.9-1.9,2.6-3.6-.3-1.7-1.9-2.9-3.6-2.6,0,0,0,0-.1,0l-30.1,4c-1.3.3-2.1,1.5-1.9,2.8.2,1.3,1.5,2.1,2.7,1.9Z"/>
        <path class="cls-30" d="M20.3,14.6c1.3-1.1,2.7-1.4,3.7-1l6.5,3.4-.2.4c.4.5.8,1.3.9,2.2.6,3.4-1.1,7.9-3.7,10.1-.7.6-1.4,1-2.1,1.1l-.2.4-6.5-3.4c-1.1-.4-1.9-1.5-2.2-3.2-.6-3.4,1.1-7.9,3.7-10.1h0Z"/>
        <path class="cls-22" d="M20.3,14.6c1.3-1.1,2.7-1.4,3.7-1l6.5,3.4-.2.4c.4.5.8,1.3.9,2.2.6,3.4-1.1,7.9-3.7,10.1-.7.6-1.4,1-2.1,1.1l-.2.4-6.5-3.4c-1.1-.4-1.9-1.5-2.2-3.2-.6-3.4,1.1-7.9,3.7-10.1h0Z"/>
        <path class="cls-26" d="M27,18c-2.6,2.2-4.3,6.7-3.7,10.1.6,3.4,3.2,4.4,5.8,2.2,2.6-2.2,4.3-6.7,3.7-10.1-.6-3.4-3.2-4.4-5.8-2.2Z"/>
        <path class="cls-16" d="M25.8,26.1c0,.4.2.7.4,1,.5.8,1.5.8,2.4,0,1.3-1.1,2-3.2,1.8-4.9-.2-1.1-.8-1.6-1.5-1.6-.4,0-.8.2-1.3.6-1.3,1.1-2,3.2-1.8,4.8h0Z"/>
        <path class="cls-3" d="M25.8,26.1c0,.4.2.7.4,1,.4,0,.8-.2,1.3-.6,1.3-1.1,2-3.2,1.8-4.8,0-.4-.2-.7-.4-1-.4,0-.8.2-1.3.6-1.3,1.1-2,3.2-1.8,4.8h0Z"/>
        <path class="cls-27" d="M24,19.1l-3.9-2.3-4-9.8,3.1-.6,4.7,12.7Z"/>
        <path class="cls-28" d="M24,19.1l1.5-1.7-4.7-11.6-1-2.4-14.1,7.8v2.8l13.2-7.2,4.9,12.3Z"/>
        <path class="cls-29" d="M5.8,14L0,10.6v-2.8l5.8,3.4v2.8Z"/>
        <path class="cls-21" d="M0,7.8L14.1,0l5.8,3.4-14.1,7.8L0,7.8Z"/>
        <path class="cls-13" d="M98,87.9v-1.2c0-.1-.1-.3-.2-.3h-1.8v-2.7c0,0,0-.1,0-.1l-1.9-1.1c-.1,0-.3,0-.4,0l-2,.9c-.1,0-.3,0-.4,0-.5-.2-1-.3-1.5-.4-.1,0-.3-.1-.3-.3l-.2-1.3c0-.1-.2-.2-.3-.2h-2.8c-.1,0-.3.1-.3.2l-.2,1.3c0,.1-.2.3-.3.3-.5,0-1,.2-1.5.4-.1,0-.3,0-.4,0l-2-.9c-.1,0-.3,0-.4,0l-1.9,1.1c0,0,0,0,0,.1v2.6h-1.8c-.1.1-.2.2-.2.4v3.9s0,0,0,0c0,0,0,0,0,0,0,0,0,0,.1,0,0,0,0,0,0,0h1.8v1.6h0v1.1s0,0,0,0c0,0,0,0,0,0l1.9,1.1c0,0,.1,0,.2,0h.1s0,0,.1,0l2-.9c.1,0,.3,0,.4,0,.5.2,1,.3,1.5.4.1,0,.3.1.3.3l.2,1.3s0,0,0,0h0s0,0,0,0c0,0,0,0,0,0,0,0,.1,0,.2,0h2.8c0,0,.1,0,.2,0,0,0,0-.1.1-.2l.2-1.3c0-.1.1-.3.3-.3.5,0,1-.2,1.5-.4.1,0,.3,0,.4,0l2,.9c0,0,.1,0,.2,0s.2,0,.2,0l1.9-1.1c0,0,0,0,0-.1v-2.6h1.8c.1-.1.2-.2.2-.4v-2.7h0c0,0,0,0,0,0ZM91,89.2c-.1,0-.2.2-.4.3-1.8,1-4.7,1-6.5,0-.1,0-.3-.2-.4-.3.1,0,.2-.2.4-.2,1.8-1,4.7-1,6.5,0,.1,0,.3.2.4.2Z"/>
        <path class="cls-16" d="M98,88v2.7c0,.1-.1.3-.2.3h-1.8v2.7c0,0,0,0,0,.1l-1.9,1.1c0,0-.2,0-.2,0s-.1,0-.2,0l-2-.9c0,0-.1,0-.2,0,0,0-.2,0-.3,0-.5.2-1,.3-1.5.4,0,0,0,0-.1,0h0c0,0-.1.1-.2.2l-.2,1.3c0,0,0,.1-.1.2,0,0-.1,0-.2,0h-2.9c0,0-.1,0-.2-.1h0s0,0,0-.1l-.2-1.3c0,0,0-.1-.1-.2,0,0-.1,0-.2,0-.5,0-1-.2-1.5-.4,0,0-.2,0-.3,0,0,0-.1,0-.1,0l-2,.9s0,0-.1,0h0c-.1,0-.2,0-.3,0l-1.9-1.1s0,0,0,0c0,0,0,0,0,0,0,0,0,0,0,0v-2.6h-.3s-1.5-.1-1.5-.1h0c-.1,0-.2-.1-.2-.3v-2.5c0,.1.1.3.2.3l2.6.2c.1,0,.3.1.3.2.1.3.3.5.5.8,0,0,0,.2,0,.3l-1.5,1.1c-.1,0-.1.2,0,.3l1.9,1.1c.1,0,.3,0,.4,0l2-.9c.1,0,.3,0,.4,0,.5.1,1,.3,1.5.4.1,0,.3.1.3.3l.2,1.3c0,.1.2.2.3.2h2.8c.1,0,.3-.1.3-.2l.2-1.3c0-.1.1-.3.3-.3.5,0,1-.2,1.5-.4.1,0,.3,0,.4,0l2,.9c.1,0,.3,0,.4,0l1.9-1.1c.1,0,.1-.2,0-.3l-1.5-1.1c-.1,0-.1-.2,0-.3.2-.2.4-.5.5-.8,0-.1.2-.2.3-.2l2.6-.2c.1,0,.2-.1.2-.3v-.3h0c0,0,0,0,0,0Z"/>
        <path class="cls-1" d="M95.9,83.8v2.6h-.7c-.1,0-.3-.2-.3-.3-.1-.3-.3-.5-.5-.8,0,0,0-.2,0-.3l1.5-1.1s0,0,0-.1h0Z"/>
        <path class="cls-1" d="M80.4,85.4c-.2.2-.4.5-.5.8,0,.1-.2.2-.3.2h-.7s0-2.5,0-2.5c0,0,0,0,0,.1l1.5,1.1c.1,0,.1.2,0,.3Z"/>
        <path class="cls-24" d="M80.8,82.6l-1.9,1.1c-.1,0-.1.2,0,.3l1.5,1.1c.1,0,.1.2,0,.3-.2.2-.4.5-.5.8,0,.1-.2.2-.3.2l-2.6.2c-.1,0-.2.1-.2.3v1.4c0,.1.1.3.2.3l2.6.2c.1,0,.3.1.3.2.1.3.3.5.5.8,0,0,0,.2,0,.3l-1.5,1.1c-.1,0-.1.2,0,.3l1.9,1.1c.1,0,.3,0,.4,0l2-.9c.1,0,.3,0,.4,0,.5.2,1,.3,1.5.4.1,0,.3.1.3.3l.2,1.3c0,.1.2.2.3.2h2.8c.1,0,.3-.1.3-.2l.2-1.3c0-.1.1-.3.3-.3.5,0,1-.2,1.5-.4.1,0,.3,0,.4,0l2,.9c.1,0,.3,0,.4,0l1.9-1.1c.1,0,.1-.2,0-.3l-1.5-1.1c-.1,0-.1-.2,0-.3.2-.2.4-.5.5-.8,0-.1.2-.2.3-.2l2.6-.2c.1,0,.2-.1.2-.3v-1.4c0-.1-.1-.3-.2-.3l-2.6-.2c-.1,0-.3-.1-.3-.2-.1-.3-.3-.5-.5-.8,0,0,0-.2,0-.3l1.5-1.1c.1,0,.1-.2,0-.3l-1.9-1.1c-.1,0-.3,0-.4,0l-2,.9c-.1,0-.3,0-.4,0-.5-.2-1-.3-1.5-.4-.1,0-.3-.1-.3-.3l-.2-1.3c0-.1-.2-.2-.3-.2h-2.8c-.1,0-.3.1-.3.2l-.2,1.3c0,.1-.2.3-.3.3-.5,0-1,.2-1.5.4-.1,0-.3,0-.4,0l-2-.9c-.1,0-.3,0-.4,0h0ZM90.6,85.6c1.8,1,1.8,2.7,0,3.8-1.8,1-4.7,1-6.5,0-1.8-1-1.8-2.7,0-3.8,1.8-1,4.7-1,6.5,0Z"/>
        <path class="cls-1" d="M78.8,91.2s0,0,0-.1l.8-.6v-1.8s0,0-.1,0l-2.6-.2c-.1,0-.2-.1-.2-.3v2.5c0,.1.1.2.2.3h1.5c0,0,.3.1.3.1,0,0,0,.2,0,.1h0Z"/>
        <path class="cls-1" d="M83.3,91.5c0,0-.1,0-.1,0l-2,.9c0,0-.2,0-.3,0v2.5h.1s0,0,.1,0l2-.9s0,0,.1,0v-2.5Z"/>
        <path class="cls-1" d="M85.7,93.6s0,0,0,0l-.2-1.3s0,0,0,0v2.5s0,0,0,0l.2,1.3s0,0,0,0v-2.4Z"/>
        <path class="cls-1" d="M89.3,92.1s0,0,0,0l-.2,1.3s0,0,0,0v2.5s0,0,0,0l.2-1.3s0,0,0,0v-2.5Z"/>
        <path class="cls-1" d="M93.7,92.5c0,0-.2,0-.2,0l-2-.9s0,0-.1,0v2.5c0,0,.1,0,.1,0l2,.9c0,0,.1,0,.2,0h0v-2.5h0Z"/>
        <path class="cls-1" d="M97.7,88.5l-2.6.2s0,0-.1,0v1.8l.8.6c0,0,0,0,0,.1s0-.1,0-.1h1.8c.1-.1.2-.2.2-.4v-2.7h0c0,0,0,.2,0,.2,0,.1-.1.3-.2.3h0Z"/>
        <path class="cls-13" d="M61.6,78.3v2.2s0,0,0,0l.9,1.2c0,0,.2.1.3,0l2-.3c.1,0,.3,0,.4,0,.1.1.3.2.5.3v1.7c0,0,0,.1.1.1l2.1.5c.1,0,.3,0,.3-.1l.9-.9c0,0,.2-.2.4-.2.4,0,.9,0,1.3,0,.1,0,.3,0,.3.1l1,1c0,0,.2,0,.3,0l2.1-.5c.1,0,.2,0,.2-.2v-1.6c.1,0,.3-.2.4-.3.1,0,.3-.1.4-.1l2,.3c.1,0,.2,0,.3-.1l.8-1.1s0,0,0-.1v-1.6s0,0,0,0v-3.1h0s0,0,0,0l-.9-1.2c0,0-.2-.1-.3,0l-2,.3c-.1,0-.3,0-.4,0-.1-.1-.3-.2-.5-.3v-1.6c0,0,0-.1-.1-.1l-2.1-.5c-.1,0-.3,0-.3.1l-.9.9c0,0-.2.2-.4.2-.4,0-.9,0-1.3,0-.1,0-.3,0-.3-.1l-1-1c0,0-.2,0-.3,0l-2.1.5c-.1,0-.2,0-.2.2v1.6c-.1,0-.3.2-.4.3-.1,0-.3.1-.4.1l-2-.3c-.1,0-.2,0-.3.1l-.8,1.1s0,0,0,.1v2.5s0,0,0,0h0ZM72.7,78.6c-.3.2-.7.4-1.2.5-1.5.3-3,.1-4.1-.5-.1,0-.2-.1-.3-.2,0,0,.2-.1.3-.2,1.5-.9,3.9-.9,5.3,0,.1,0,.2.1.3.2,0,0-.2.1-.3.2h0Z"/>
        <path class="cls-1" d="M74.1,74.1c.2,0,.3.2.5.2v-1.6s0,0,0,0l-.5,1c0,.1,0,.2,0,.3h0Z"/>
        <path class="cls-1" d="M76.5,76.7c0,.2,0,.5,0,.7,0,.1,0,.2.1.2l1.9.6c0,0,0,0,0,.1v.6s0,0,0,0v-3h0c0,0,0,0-.1,0l-1.8.6c-.1,0-.2.1-.2.2h0Z"/>
        <path class="cls-1" d="M75.3,79.3v2.2h0l2,.3h.1v-2.2s0,0-.1,0l-2-.3h0Z"/>
        <path class="cls-1" d="M74.6,81.9c.1,0,.3-.2.4-.3,0,0,.2-.1.3-.1v-2.2c-.1,0-.2,0-.3.1-.3.2-.5.3-.8.5-.1,0-.2.2-.1.2l.6,1.1s0,0,0,0v.6h0Z"/>
        <path class="cls-1" d="M71,80.8v2.2c0,0,0,0,.1,0l1,1s.1,0,.2,0v-2.2c0,0-.1,0-.2,0l-1-1.1s0,0-.1,0h0Z"/>
        <path class="cls-1" d="M69.3,80.8v2.2s0,0,.1,0c.4,0,.9,0,1.3,0,0,0,.1,0,.2,0v-2.2c0,0-.1,0-.2,0-.4,0-.9,0-1.3,0,0,0,0,0-.1,0h0Z"/>
        <path class="cls-1" d="M68,82v2.2c0,0,.1,0,.2-.1l.9-.9c0,0,.1-.1.2-.1v-2.2c0,0-.2,0-.2.1l-.9.9c0,0-.1,0-.2.1Z"/>
        <path class="cls-1" d="M65.6,81.4v2.2c0,0,0,.1.1.1l2.1.5s0,0,.1,0v-2.2c0,0-.1,0-.2,0l-2.2-.5c0,0-.1,0-.1-.1h0Z"/>
        <path class="cls-1" d="M64.9,79.3v2.2c0,0,.2,0,.2,0,.1.1.3.2.5.3v-.6s0,0,0,0l.5-1c0-.1,0-.2,0-.3-.3-.2-.7-.3-1-.5,0,0-.1,0-.2,0h0Z"/>
        <path class="cls-1" d="M61.6,78.3v2.2s0,0,0,0l.9,1.2s0,0,.1,0v-2.2c0,0-.1,0-.2,0l-.9-1.2s0,0,0,0h0Z"/>
        <path class="cls-23" d="M74.5,72.6l-2.2-.5c-.1,0-.3,0-.3.1l-.9.9c0,0-.2.2-.4.2-.4,0-.9,0-1.3,0-.1,0-.3,0-.3-.1l-1-1c0,0-.2,0-.3,0l-2.1.5c-.1,0-.2,0-.2.2s0,0,0,0l.6,1.1c0,0,0,.2-.1.2-.1,0-.3.1-.4.2s-.3.2-.4.3c-.1,0-.3.1-.4.1l-2-.3c-.1,0-.3,0-.3.1l-.8,1.1s0,0,0,.1c0,0,0,0,0,.1l1.9.6c0,0,.2.1.1.2,0,.2,0,.5,0,.7,0,0,0,.2-.2.2l-1.8.6c0,0-.1,0-.1,0,0,0,0,0,0,0,0,0,0,0,0,0l.9,1.2c0,0,.2.1.3,0l2-.3c.1,0,.3,0,.4,0,.3.2.6.4,1,.5,0,0,.1.2,0,.3l-.5,1c0,.1,0,.2,0,.2l2.2.5c.1,0,.3,0,.3-.1l.9-.9c0,0,.3-.2.4-.2.4,0,.9,0,1.3,0,.1,0,.3,0,.3.1l1,1.1c0,0,.2,0,.3,0l2.1-.5c.1,0,.2-.1.2-.2l-.6-1.1c0,0,0-.2.1-.2.3-.1.6-.3.8-.5.1,0,.3-.1.4-.1l2,.3c.1,0,.2,0,.3-.1l.8-1.1s0,0,0-.1c0,0,0-.1,0-.1l-1.9-.6c0,0-.2-.1-.1-.2,0-.2,0-.5,0-.7,0,0,0-.2.2-.2l1.8-.6c0,0,.1,0,.1-.1h0s0,0,0,0l-.9-1.2c0,0-.2-.1-.3,0l-2,.3c-.1,0-.3,0-.4,0-.1-.1-.3-.2-.5-.3-.1,0-.3-.2-.5-.2,0,0-.1-.2,0-.3l.5-1s0,0,0,0c0,0,0-.1-.1-.1h0ZM68.6,75c1.9-.5,4.1,0,4.9,1.2.3.4.4.9.2,1.3,0,0,0,0,0,0,0,0,0,0,0,0,0,0,0,0,0,0h0c-.1.3-.4.5-.6.7,0,0-.2.1-.3.2-.3.2-.7.4-1.2.5-1.5.3-3,.1-4.1-.5-.1,0-.2-.1-.3-.2-.2-.1-.4-.3-.5-.5-.4-.5-.4-1-.1-1.5,0,0,0,0,0,0,0,0,0,0,0,0,0,0,0,0,0-.1,0,0,0,0,0,0,0,0,0,0,0,0,0,0,0,0,0,0,.4-.4,1-.7,1.8-.9Z"/>
        <path class="cls-13" d="M57.6,91.6v2.2s0,0,0,0l.9,1.2c0,0,.2.1.3,0l2-.3c.1,0,.3,0,.4,0,.1.1.3.2.5.3v1.7c0,0,0,.1.1.1l2.1.5c.1,0,.3,0,.3-.1l.9-.9c0,0,.2-.2.4-.2.4,0,.9,0,1.3,0,.1,0,.3,0,.3.1l1,1c0,0,.2,0,.3,0l2.1-.5c.1,0,.2,0,.2-.2v-1.6c.1,0,.3-.2.4-.3.1,0,.3-.1.4-.1l2,.3c.1,0,.2,0,.3-.1l.8-1.1s0,0,0-.1v-1.6s0,0,0,0v-3.1h0s0,0,0,0l-.9-1.2c0,0-.2-.1-.3,0l-2,.3c-.1,0-.3,0-.4,0-.1-.1-.3-.2-.5-.3v-1.6c0,0,0-.1-.1-.1l-2.1-.5c-.1,0-.3,0-.3.1l-.9.9c0,0-.2.2-.4.2-.4,0-.9,0-1.3,0-.1,0-.3,0-.3-.1l-1-1c0,0-.2,0-.3,0l-2.1.5c-.1,0-.2,0-.2.2v1.6c-.1,0-.3.2-.4.3-.1,0-.3.1-.4.1l-2-.3c-.1,0-.2,0-.3.1l-.8,1.1s0,0,0,.1v2.5s0,0,0,0h0ZM68.8,91.9c-.3.2-.7.4-1.2.5-1.5.3-3,.1-4.1-.5-.1,0-.2-.1-.3-.2,0,0,.2-.1.3-.2,1.5-.9,3.9-.9,5.3,0,.1,0,.2.1.3.2,0,0-.2.1-.3.2h0Z"/>
        <path class="cls-16" d="M70.2,87.4c.2,0,.3.2.5.2v-1.6s0,0,0,0l-.5,1c0,.1,0,.2,0,.3h0Z"/>
        <path class="cls-1" d="M72.6,90c0,.2,0,.5,0,.7,0,.1,0,.2.1.2l1.9.6c0,0,0,0,0,.1v.6s0,0,0,0v-3h0c0,0,0,0-.1,0l-1.8.6c-.1,0-.2.1-.2.2h0Z"/>
        <path class="cls-1" d="M71.4,92.7v2.2h0l2,.3h.1v-2.2s0,0-.1,0l-2-.3h0Z"/>
        <path class="cls-16" d="M70.7,95.2c.1,0,.3-.2.4-.3,0,0,.2-.1.3-.1v-2.2c-.1,0-.2,0-.3.1-.3.2-.5.3-.8.5-.1,0-.2.2-.1.2l.6,1.1s0,0,0,0v.6h0Z"/>
        <path class="cls-1" d="M67,94.1v2.2c0,0,0,0,.1,0l1,1s.1,0,.2,0v-2.2c0,0-.1,0-.2,0l-1-1.1s0,0-.1,0h0Z"/>
        <path class="cls-16" d="M65.4,94.1v2.2s0,0,.1,0c.4,0,.9,0,1.3,0,0,0,.1,0,.2,0v-2.2c0,0-.1,0-.2,0-.4,0-.9,0-1.3,0,0,0,0,0-.1,0h0Z"/>
        <path class="cls-1" d="M64,95.3v2.2c0,0,.1,0,.2-.1l.9-.9c0,0,.1-.1.2-.1v-2.2c0,0-.2,0-.2.1l-.9.9c0,0-.1,0-.2.1Z"/>
        <path class="cls-2" d="M61.6,94.7v2.2c0,0,0,.1.1.1l2.1.5s0,0,.1,0v-2.2c0,0-.1,0-.2,0l-2.2-.5c0,0-.1,0-.1-.1h0Z"/>
        <path class="cls-1" d="M60.9,92.7v2.2c0,0,.2,0,.2,0,.1.1.3.2.5.3v-.6s0,0,0,0l.5-1c0-.1,0-.2,0-.3-.3-.2-.7-.3-1-.5,0,0-.1,0-.2,0h0Z"/>
        <path class="cls-2" d="M57.6,91.6v2.2s0,0,0,0l.9,1.2s0,0,.1,0v-2.2c0,0-.1,0-.2,0l-.9-1.2s0,0,0,0h0Z"/>
        <path class="cls-25" d="M70.6,85.9l-2.2-.5c-.1,0-.3,0-.3.1l-.9.9c0,0-.2.2-.4.2-.4,0-.9,0-1.3,0-.1,0-.3,0-.3-.1l-1-1c0,0-.2,0-.3,0l-2.1.5c-.1,0-.2,0-.2.2s0,0,0,0l.6,1.1c0,0,0,.2-.1.2-.1,0-.3.1-.4.2-.1,0-.3.2-.4.3-.1,0-.3.1-.4.1l-2-.3c-.1,0-.3,0-.3.1l-.8,1.1s0,0,0,.1c0,0,0,0,0,.1l1.9.6c0,0,.2.1.1.2,0,.2,0,.5,0,.7,0,0,0,.2-.2.2l-1.8.6c0,0-.1,0-.1,0,0,0,0,0,0,0,0,0,0,0,0,0l.9,1.2c0,0,.2.1.3,0l2-.3c.1,0,.3,0,.4,0,.3.2.6.4,1,.5,0,0,.1.2,0,.3l-.5,1c0,.1,0,.2,0,.2l2.1.5c.1,0,.3,0,.3-.1l.9-.9c0,0,.3-.2.4-.2.4,0,.9,0,1.3,0,.1,0,.3,0,.3.1l1,1.1c0,0,.2,0,.3,0l2.1-.5c.1,0,.2-.1.2-.2l-.6-1.1c0,0,0-.2.1-.2.3-.1.6-.3.8-.5.1,0,.3-.1.4-.1l2,.3c.1,0,.3,0,.3-.1l.8-1.1s0,0,0-.1c0,0,0-.1,0-.1l-1.9-.6c0,0-.2-.1-.1-.2,0-.2,0-.5,0-.7,0,0,0-.2.2-.2l1.8-.6c0,0,.1,0,.1-.1h0s0,0,0,0l-.9-1.2c0,0-.2-.1-.3,0l-2,.3c-.1,0-.3,0-.4,0-.1-.1-.3-.2-.5-.3-.1,0-.3-.2-.5-.2,0,0-.1-.2,0-.3l.5-1s0,0,0,0c0,0,0-.1-.1-.1h0ZM64.7,88.3c1.9-.5,4.1,0,4.9,1.2.3.4.4.9.2,1.3,0,0,0,0,0,0,0,0,0,0,0,0,0,0,0,0,0,0h0c-.1.3-.4.5-.6.7,0,0-.2.1-.3.2-.3.2-.7.4-1.2.5-1.5.3-3,.1-4.1-.5-.1,0-.2-.1-.3-.2-.2-.1-.4-.3-.5-.5-.4-.5-.4-1-.1-1.5,0,0,0,0,0,0,0,0,0,0,0,0,0,0,0,0,0-.1s0,0,0,0c0,0,0,0,0,0,0,0,0,0,0,0,.4-.4,1-.7,1.8-.9Z"/>
      </g>
    </g>
  </g>
</svg>