<?xml version="1.0" encoding="UTF-8"?>
<svg xmlns="http://www.w3.org/2000/svg" version="1.1" viewBox="0 0 62 62">
  <!-- Generator: Adobe Illustrator 28.6.0, SVG Export Plug-In . SVG Version: 1.2.0 Build 709)  -->
  <g>
    <g id="Layer_1">
      <g>
        <path d="M52.9,9.1C47.1,3.2,39.3,0,31,0S14.9,3.2,9.1,9.1C3.2,14.9,0,22.7,0,31s3.2,16.1,9.1,21.9c6,6,14,9.1,21.9,9.1s15.9-3,21.9-9.1c12.1-12.1,12.1-31.8,0-43.8ZM50.8,50.8c-10.9,10.9-28.7,10.9-39.6,0C.3,39.9.3,22.1,11.2,11.2,22.1.3,39.9.3,50.8,11.2c10.9,10.9,10.9,28.7,0,39.6Z"/>
        <path d="M21.3,28.9c0-.5.1-1.1.9-1.3,1.6-.4,2.9-1,4.6-2.8l5.6-5.6-2.3-2.3-14.5,14.5h.1c0,.1-.2.3-.2.3l14.5,14.5,2.3-2.3-5.9-5.9c-1.5-1.5-2.8-2.3-4.5-2.7-.5-.1-.9-.5-.9-1.1,0-.6.4-1.2,1.2-1.2,1.1,0,24.8,0,24.8,0h.8v-3.2h-25.6c-.9,0-1-.7-1-.9Z"/>
      </g>
    </g>
  </g>
</svg>