<svg width="245" height="52" viewBox="0 0 245 52" fill="none" xmlns="http://www.w3.org/2000/svg">
    <g clip-path="url(#clip0_1560_2814)">
        <path d="M245 23.5257V19.2431H239.649V12.5813L239.467 12.6384L234.442 14.1659L234.341 14.1944V19.2383H226.41V16.4261C226.41 15.1176 226.707 14.1135 227.286 13.4474C227.86 12.7859 228.688 12.4528 229.737 12.4528C230.493 12.4528 231.273 12.6289 232.063 12.981L232.259 13.0667V8.5557L232.168 8.52239C231.436 8.26068 230.436 8.12744 229.196 8.12744C227.635 8.12744 226.219 8.46529 224.979 9.13623C223.739 9.80716 222.768 10.7636 222.088 11.977C221.408 13.1904 221.064 14.5941 221.064 16.1501V19.2383H217.34V23.5209H221.064V41.5648H226.41V23.5209H234.341V34.9887C234.341 39.7138 236.581 42.1073 240.999 42.1073C241.727 42.1073 242.488 42.0217 243.268 41.8551C244.062 41.6838 244.603 41.5173 244.924 41.3317L244.996 41.2889V36.9635L244.78 37.1062C244.488 37.2965 244.129 37.4536 243.703 37.5725C243.277 37.6915 242.923 37.7534 242.646 37.7534C241.612 37.7534 240.846 37.4774 240.367 36.9301C239.889 36.3782 239.644 35.4122 239.644 34.0608V23.5209H244.996L245 23.5257ZM205.398 37.7629C203.455 37.7629 201.928 37.1252 200.846 35.8643C199.76 34.5985 199.209 32.7903 199.209 30.4968C199.209 28.2032 199.76 26.2761 200.846 24.9865C201.923 23.7065 203.44 23.0546 205.35 23.0546C207.26 23.0546 208.681 23.6732 209.739 24.9009C210.802 26.1333 211.343 27.97 211.343 30.3683C211.343 32.7665 210.835 34.6556 209.835 35.9023C208.844 37.1395 207.351 37.7676 205.393 37.7676L205.398 37.7629ZM205.633 18.7006C201.928 18.7006 198.989 19.7808 196.888 21.9078C194.791 24.0348 193.729 26.9803 193.729 30.6633C193.729 34.3463 194.767 36.973 196.811 39.0191C198.86 41.07 201.641 42.1073 205.087 42.1073C208.533 42.1073 211.558 41.0129 213.659 38.8573C215.756 36.7017 216.818 33.7848 216.818 30.1922C216.818 26.5996 215.823 23.8064 213.855 21.7746C211.888 19.738 209.122 18.7054 205.633 18.7054V18.7006ZM185.109 18.7006C182.591 18.7006 180.504 19.343 178.915 20.604C177.312 21.8745 176.503 23.54 176.503 25.5575C176.503 26.6044 176.68 27.537 177.024 28.3269C177.374 29.1216 177.91 29.8163 178.623 30.4016C179.331 30.9821 180.423 31.5912 181.873 32.2098C183.089 32.7094 183.998 33.1282 184.577 33.4613C185.142 33.7848 185.544 34.1132 185.769 34.432C185.989 34.746 186.099 35.1695 186.099 35.6977C186.099 37.1966 184.97 37.9294 182.644 37.9294C181.782 37.9294 180.796 37.7486 179.719 37.3965C178.642 37.0443 177.632 36.5352 176.723 35.8881L176.503 35.731V40.8511L176.584 40.8892C177.34 41.2365 178.293 41.5268 179.418 41.7599C180.542 41.9883 181.562 42.1073 182.447 42.1073C185.18 42.1073 187.382 41.4649 188.99 40.1944C190.608 38.9144 191.427 37.2109 191.427 35.122C191.427 33.6183 190.986 32.324 190.115 31.2867C189.254 30.2541 187.755 29.3072 185.664 28.4697C183.998 27.8035 182.931 27.2515 182.49 26.828C182.064 26.4188 181.849 25.8383 181.849 25.1102C181.849 24.4631 182.117 23.9397 182.663 23.5209C183.213 23.0974 183.979 22.8833 184.941 22.8833C185.831 22.8833 186.745 23.0213 187.65 23.2973C188.555 23.5733 189.354 23.9397 190.015 24.387L190.235 24.5345V19.6761L190.149 19.6381C189.536 19.3763 188.727 19.1527 187.746 18.9719C186.769 18.7911 185.879 18.7006 185.109 18.7006ZM162.555 37.7629C160.617 37.7629 159.085 37.1252 158.003 35.8643C156.917 34.5985 156.371 32.7903 156.371 30.4968C156.371 28.2032 156.922 26.2761 158.008 24.9865C159.085 23.7065 160.602 23.0546 162.512 23.0546C164.422 23.0546 165.843 23.6732 166.901 24.9009C167.964 26.1333 168.505 27.97 168.505 30.3683C168.505 32.7665 167.997 34.6556 166.997 35.9023C166.006 37.1395 164.513 37.7676 162.555 37.7676V37.7629ZM162.794 18.7006C159.09 18.7006 156.146 19.7808 154.05 21.9078C151.953 24.0348 150.891 26.9803 150.891 30.6633C150.891 34.3463 151.929 36.973 153.973 39.0191C156.022 41.07 158.803 42.1073 162.249 42.1073C165.695 42.1073 168.72 41.0129 170.821 38.8573C172.918 36.7017 173.98 33.7848 173.98 30.1922C173.98 26.5996 172.985 23.8064 171.017 21.7746C169.05 19.738 166.284 18.7054 162.794 18.7054V18.7006ZM142.773 23.1069V19.2383H137.489V41.5648H142.773V30.1446C142.773 28.2032 143.218 26.6091 144.089 25.4005C144.951 24.2109 146.104 23.6066 147.507 23.6066C147.981 23.6066 148.517 23.6827 149.096 23.8397C149.67 23.992 150.082 24.1586 150.326 24.3346L150.546 24.4964V19.2003L150.46 19.1622C149.967 18.9528 149.273 18.8482 148.392 18.8482C147.066 18.8482 145.875 19.2717 144.86 20.1091C143.965 20.8419 143.319 21.8507 142.826 23.1022H142.768L142.773 23.1069ZM128.031 18.7006C125.609 18.7006 123.446 19.2193 121.608 20.2376C119.765 21.2607 118.339 22.7168 117.372 24.5678C116.405 26.4188 115.917 28.5744 115.917 30.9869C115.917 33.0949 116.391 35.0315 117.329 36.7398C118.267 38.4481 119.597 39.7852 121.282 40.7131C122.962 41.641 124.906 42.1073 127.059 42.1073C129.572 42.1073 131.712 41.6077 133.435 40.6227L133.502 40.5846V35.7739L133.282 35.9356C132.502 36.4971 131.635 36.9492 130.697 37.2728C129.764 37.5963 128.912 37.7581 128.165 37.7581C126.093 37.7581 124.427 37.111 123.221 35.8405C122.01 34.5652 121.397 32.7808 121.397 30.5301C121.397 28.2793 122.039 26.4331 123.297 25.0817C124.556 23.7351 126.222 23.0498 128.251 23.0498C129.989 23.0498 131.678 23.6351 133.282 24.7867L133.502 24.9485V19.876L133.43 19.8379C132.827 19.5048 132.004 19.2241 130.984 19.0147C129.97 18.8053 128.974 18.7006 128.031 18.7006ZM112.274 19.2383H106.99V41.5648H112.274V19.2383ZM109.685 9.72627C108.814 9.72627 108.058 10.0213 107.435 10.6018C106.808 11.1871 106.492 11.9247 106.492 12.7907C106.492 13.6567 106.808 14.3705 107.426 14.9367C108.043 15.503 108.804 15.7933 109.685 15.7933C110.566 15.7933 111.331 15.5077 111.954 14.9367C112.581 14.3657 112.897 13.6424 112.897 12.7907C112.897 11.9389 112.585 11.2252 111.978 10.6256C111.37 10.0261 110.594 9.72627 109.68 9.72627H109.685ZM96.5032 17.5919V41.5696H101.893V10.4115H94.4307L84.9442 33.5564L75.74 10.4115H67.9717V41.5696H73.0405V17.5919H73.2128L82.9339 41.5696H86.7582L96.3261 17.5919H96.4985H96.5032Z" fill="#343434" />
        <path d="M24.8556 24.7105H0V0H24.8556V24.7105Z" fill="#F1511B" />
        <path d="M52.2951 24.7105H27.4395V0H52.2951V24.7105Z" fill="#80CC28" />
        <path d="M24.8556 52H0V27.2896H24.8556V52Z" fill="#00ADEF" />
        <path d="M52.2951 51.9995H27.4395V27.2891H52.2951V51.9995Z" fill="#FBBC09" />
    </g>
    <defs>
        <clipPath id="clip0_1560_2814">
            <rect width="245" height="52" fill="white" />
        </clipPath>
    </defs>
</svg>
