<?xml version="1.0" encoding="UTF-8"?>
<svg xmlns="http://www.w3.org/2000/svg" version="1.1" viewBox="0 0 55.8 55.8">
  <defs>
    <style>
      .cls-1 {
        fill: #000;
      }
    </style>
  </defs>
  <!-- Generator: Adobe Illustrator 28.6.0, SVG Export Plug-In . SVG Version: 1.2.0 Build 709)  -->
  <g>
    <g id="Layer_1">
      <g>
        <path class="cls-1" d="M31.9,27.9l-4-4L4.8.8C3.7-.3,1.9-.3.8.8S-.3,3.7.8,4.8l23.1,23.1L.8,51c-1.1,1.1-1.1,2.9,0,4s2.9,1.1,4,0l23.1-23.1,23.1,23.1c1.1,1.1,2.9,1.1,4,0s1.1-2.9,0-4l-23.1-23.1Z"/>
        <path class="cls-1" d="M55,4.8c1.1-1.1,1.1-2.9,0-4s-2.9-1.1-4,0l-21.2,21.2,4,4L55,4.8Z"/>
      </g>
    </g>
  </g>
</svg>