<?xml version="1.0" encoding="UTF-8"?>
<svg xmlns="http://www.w3.org/2000/svg" version="1.1" viewBox="0 0 383.7 383.1">
  <defs>
    <style>
      .cls-1 {
        fill: #fff;
      }
    </style>
  </defs>
  <!-- Generator: Adobe Illustrator 28.6.0, SVG Export Plug-In . SVG Version: 1.2.0 Build 709)  -->
  <g>
    <g id="Layer_1">
      <g>
        <path class="cls-1" d="M383.1,170.3c-1-17.9-3.8-35.7-8.3-53.1-4.4-16.8-10.3-33-19-48.1-1.6-2.7-3.6-4.6-6.9-3.8-4,1-5.4,4.9-3,9,5.1,8.9,9.3,18.1,12.7,27.8,8.3,23.7,12.3,48.2,13.6,73.2,1.8,34.7-1.9,68.6-12.3,101.8-12.3,39.5-37,66.9-76.8,80.2-24.5,8.2-49.4,12.8-75.1,14.1-38.3,1.8-75.8-2.2-111.8-16-21.8-8.4-41-20.4-54.2-40.5-8.7-13.3-14.9-27.8-19.5-43-9.4-31.6-12.4-64-10.7-96.8,1.4-27.3,6.2-53.9,16.1-79.4,10.5-27.2,27.2-48.7,54-61.7,24.8-12,51.1-18.3,78.3-21.1,29.6-3.1,59.1-2.2,88.4,3.7,30,6,58.6,15.4,81.6,37,2.6,2.5,5.8,2.3,8,0,2.2-2.3,2.1-5.4-.3-8-.8-.8-1.6-1.6-2.4-2.3-7.6-7.1-16.2-12.9-25.4-17.7-27.2-14.4-56.7-20.8-87-24-31.1-3.3-61.7,0-61.7,0-30.7,3.1-60.4,9.9-88,24.3-27.6,14.4-44.8,37.3-55.9,65.6-8.9,22.8-13.6,46.5-16,70.7-3.4,31.1.8,67.1.8,67.1,3.1,24.7,8.8,48.6,18.9,71.5,14.2,32,38.4,52.9,70.7,65.2,26.7,10.2,54.4,15.1,82.8,16.7,31,1.7,61.6-.9,91.7-8.5,14.4-3.6,28.2-8.8,41.6-15.4,26.2-13,44.1-33.6,55.7-60.1,11.7-26.7,17.1-54.7,19.4-83.6,0,0,1.5-20.5,0-44.9Z"/>
        <path class="cls-1" d="M128.9,191.4c0-24.6,0-49.1,0-73.7,0-8.2,2.8-14.7,10-18.7,7.3-4,14.3-2.9,21.2,1.5,16.1,10.4,32.3,20.8,48.4,31.1,1.4.9,2.8,1.7,3.5,3.3,1,2.4.7,4.7-1.2,6.5-2.2,2-4.7,2-7.2.4-7.2-4.6-14.5-9.3-21.7-13.9-9.3-6-18.7-11.9-28-18-3-2-6.1-3-9.4-1.1-3.3,1.8-4.3,4.8-4.3,8.5,0,49.3,0,98.5,0,147.8,0,3.6.8,6.7,4.1,8.6,3.5,2,6.6.9,9.8-1.2,38.2-24.5,76.4-49,114.5-73.5,7.2-4.6,7.2-10.9-.1-15.5-13.6-8.8-27.3-17.5-40.9-26.3-3.3-2.1-4-5.2-2.3-8,1.8-2.9,5.1-3.4,8.5-1.3.2.1.4.3.6.4,13.6,8.7,27.3,17.4,40.9,26.2,13.2,8.6,13.2,25-.1,33.6-38.4,24.7-76.8,49.3-115.1,73.9-6.9,4.4-13.9,5.5-21.2,1.4-7.1-4-10-10.3-9.9-18.4,0-24.6,0-49.1,0-73.7Z"/>
      </g>
    </g>
  </g>
</svg>