<svg width="71" height="71" viewBox="0 0 71 71" fill="none" xmlns="http://www.w3.org/2000/svg">
<circle cx="35.3555" cy="35.3553" r="26" transform="rotate(45 35.3555 35.3553)" fill="black" stroke="white" stroke-width="2"/>
<path d="M35.1962 24.1341L39.7643 28.749C41.0695 30.0033 42.095 30.5815 43.4105 30.9067C44.1149 31.0822 44.6794 31.7016 44.6794 32.4862C44.6794 33.3844 44.0113 34.1639 43.0687 34.1639C42.126 34.1639 21.3107 34.1794 21.3107 34.1794C21.29 34.1794 21.2744 34.1949 21.2744 34.2155V35.6918C21.2744 35.6918 21.29 35.728 21.3055 35.728L43.0635 35.7125C44.9798 35.7125 45.2025 38.5309 43.3898 38.9645C42.0328 39.2897 40.9659 39.8834 39.5727 41.2616L35.1755 45.7474C35.1755 45.7474 35.1651 45.7835 35.1755 45.7938L36.1647 46.8004C36.1647 46.8004 36.201 46.8159 36.2114 46.8004L48.1909 34.9743C48.1909 34.9743 48.2013 34.9382 48.1909 34.9279L36.2321 23.0811C36.2321 23.0811 36.1958 23.0656 36.1855 23.0811L35.1962 24.0877C35.1962 24.0877 35.1859 24.1238 35.1962 24.1341Z" fill="white"/>
</svg>
