<svg width="71" height="71" viewBox="0 0 71 71" fill="none" xmlns="http://www.w3.org/2000/svg">
<circle cx="35.3555" cy="35.3551" r="26" transform="rotate(-135 35.3555 35.3551)" fill="black" stroke="white" stroke-width="2"/>
<path d="M35.5147 46.5763L30.9466 41.9615C29.6415 40.7071 28.616 40.129 27.3004 39.8038C26.5961 39.6283 26.0315 39.0088 26.0315 38.2242C26.0315 37.326 26.6996 36.5466 27.6423 36.5466C28.5849 36.5466 49.4003 36.5311 49.4003 36.5311C49.421 36.5311 49.4365 36.5156 49.4365 36.4949L49.4365 35.0186C49.4365 35.0186 49.421 34.9825 49.4054 34.9825L27.6474 34.998C25.7311 34.998 25.5084 32.1795 27.3212 31.7459C28.6781 31.4207 29.745 30.8271 31.1383 29.4488L35.5354 24.9631C35.5354 24.9631 35.5458 24.9269 35.5354 24.9166L34.5462 23.91C34.5462 23.91 34.5099 23.8945 34.4996 23.91L22.52 35.7361C22.52 35.7361 22.5096 35.7723 22.52 35.7826L34.4789 47.6293C34.4789 47.6293 34.5151 47.6448 34.5255 47.6293L35.5147 46.6228C35.5147 46.6228 35.5251 46.5866 35.5147 46.5763Z" fill="white"/>
</svg>
