<svg width="19" height="20" viewBox="0 0 19 20" fill="none" xmlns="http://www.w3.org/2000/svg">
<g clip-path="url(#clip0_1823_301)">
<path d="M2.82234 20C2.77963 19.9745 2.73692 19.9474 2.69369 19.9229C2.364 19.738 2.26348 19.3484 2.47286 19.0156C2.74994 18.5755 3.03796 18.1422 3.32078 17.7057C3.3588 17.6469 3.39421 17.5854 3.42963 17.5266C-0.912037 14.0776 -1.12558 7.6052 2.75515 3.84062C6.49109 0.21666 12.2734 0.35416 15.8369 4.16926C19.3505 7.9302 19.1067 14.0396 14.8411 17.5229C14.9395 17.676 15.04 17.8318 15.1406 17.988C15.3312 18.2828 15.5218 18.5776 15.7124 18.8724C16.052 19.3963 15.9635 19.7318 15.4145 20H15.1416C14.9093 19.9172 14.7645 19.7437 14.6374 19.5406C14.3661 19.1062 14.0833 18.6786 13.8052 18.2484C10.9744 19.9625 7.26609 19.9338 4.47234 18.2505C4.1864 18.6901 3.89525 19.1266 3.61713 19.5713C3.49578 19.7656 3.34994 19.9187 3.13432 19.9995H2.82234V20ZM9.13692 18.2641C13.4734 18.2661 17.0083 14.7276 17.0124 10.3807C17.0166 6.03281 13.4984 2.50208 9.1489 2.48958C4.80619 2.47708 1.2614 6.02395 1.264 10.3792C1.26661 14.725 4.79838 18.262 9.13692 18.2646V18.2641Z" fill="black"/>
<path d="M4.07065 0C4.49826 0.196354 4.67482 0.505208 4.52222 0.848958C4.46336 0.981771 4.34878 1.11875 4.22326 1.18906C3.29982 1.70625 2.46649 2.33854 1.71805 3.08646C1.4519 3.3526 1.06284 3.34583 0.812841 3.09271C0.574299 2.85104 0.566487 2.46719 0.811799 2.21458C1.64513 1.35625 2.58836 0.642708 3.64201 0.0760417C3.69305 0.0489583 3.74565 0.0255208 3.79774 0C3.88888 0 3.97951 0 4.07065 0Z" fill="black"/>
<path d="M14.48 -2.8483e-05C15.5826 0.562992 16.5602 1.29737 17.429 2.17862C17.704 2.45778 17.7118 2.84737 17.4545 3.10101C17.2013 3.35049 16.818 3.34737 16.5482 3.07653C15.804 2.3307 14.979 1.69424 14.0508 1.19372C13.818 1.0682 13.6977 0.864034 13.7076 0.602576C13.7201 0.282263 13.9206 0.101013 14.2071 -0.000549316H14.48V-2.8483e-05Z" fill="black"/>
<path d="M8.51113 7.68643C8.51113 6.79477 8.50852 5.9031 8.51269 5.01143C8.51425 4.6807 8.74706 4.42341 9.06425 4.38174C9.36269 4.34216 9.66738 4.54581 9.7429 4.84685C9.76634 4.93956 9.76477 5.04008 9.76477 5.13695C9.76581 6.72497 9.76686 8.31299 9.76321 9.90102C9.76321 10.0281 9.79654 10.1166 9.89498 10.2021C10.6023 10.8151 11.3028 11.4359 12.009 12.0505C12.2038 12.2198 12.3236 12.4187 12.2804 12.6812C12.196 13.1911 11.6195 13.3817 11.2132 13.0323C10.6861 12.5786 10.1663 12.1161 9.64342 11.6578C9.37467 11.4218 9.11269 11.1776 8.83508 10.9531C8.60383 10.7661 8.50279 10.5442 8.50696 10.2442C8.51894 9.39164 8.51113 8.53904 8.51113 7.68643Z" fill="black"/>
</g>
<defs>
<clipPath id="clip0_1823_301">
<rect width="18.275" height="20" fill="white"/>
</clipPath>
</defs>
</svg>
