<svg width="40" height="40" viewBox="0 0 40 40" fill="none" xmlns="http://www.w3.org/2000/svg">
<circle cx="20" cy="20" r="19.5" stroke="#6E6E6E"/>
<g clip-path="url(#clip0_1823_721)">
<path d="M21.6711 14.6792C22.2433 14.6314 22.8156 14.6649 23.3878 14.6572C23.4718 14.6572 23.5157 14.6533 23.5157 14.5448C23.5106 13.7684 23.5119 12.9934 23.5157 12.217C23.5157 12.1266 23.4834 12.1008 23.4008 12.0969C23.2341 12.0891 23.0675 12.0814 22.9034 12.0581C22.7226 12.0323 22.5353 12.0646 22.3596 12H22.2653C22.2356 12.0271 22.1994 12.0116 22.1671 12.0155C22.1464 12.0155 22.1258 12.0155 22.1051 12.0155C22.0651 12.009 22.0211 12.0297 21.985 12H21.7667C21.6943 12.0258 21.6207 12.0258 21.5484 12H20.8921C20.7281 12.0646 20.5498 12.0555 20.3806 12.093C19.7037 12.239 19.103 12.5245 18.6212 13.0321C17.983 13.7039 17.7169 14.5293 17.6808 15.431C17.6511 16.1905 17.6666 16.9514 17.6691 17.711C17.6691 17.8298 17.6368 17.8582 17.5206 17.8569C16.7972 17.8518 16.0725 17.8569 15.3491 17.8518C15.2315 17.8518 15.2031 17.8802 15.2031 17.9977C15.2083 18.8516 15.2096 19.7055 15.2031 20.5593C15.2031 20.6808 15.238 20.7027 15.3504 20.7014C16.0635 20.6963 16.7765 20.7027 17.4909 20.695C17.6355 20.6937 17.6691 20.7324 17.6691 20.8745C17.664 23.192 17.6678 25.5082 17.6627 27.8256C17.6627 27.9729 17.7053 28 17.8422 27.9987C18.7013 27.9922 19.5603 27.9922 20.4193 27.9987C20.564 27.9987 20.6079 27.9729 20.6079 27.8166C20.6015 25.4939 20.6054 23.1726 20.6015 20.85C20.6015 20.7273 20.6325 20.695 20.7552 20.695C21.4683 20.7014 22.1813 20.695 22.8957 20.7001C23.0094 20.7001 23.0572 20.6756 23.0714 20.5555C23.1747 19.7093 23.2806 18.8619 23.3982 18.0171C23.4189 17.8686 23.3788 17.8479 23.2445 17.8492C22.4113 17.8556 21.5781 17.8531 20.7449 17.8518C20.679 17.8518 20.6002 17.8815 20.6015 17.7562C20.6092 17.0896 20.5937 16.4231 20.617 15.7565C20.6402 15.0925 21.0148 14.7321 21.6749 14.6779L21.6711 14.6792Z" fill="#232323"/>
</g>
<defs>
<clipPath id="clip0_1823_721">
<rect width="8.3152" height="16" fill="white" transform="translate(15.2002 12)"/>
</clipPath>
</defs>
</svg>
