<svg width="40" height="40" viewBox="0 0 40 40" fill="none" xmlns="http://www.w3.org/2000/svg">
<circle cx="20" cy="20" r="19.5" stroke="#6E6E6E"/>
<g clip-path="url(#clip0_1823_715)">
<path d="M20.9799 27.2H17.6748V16.5319H20.8411V17.962C21.0717 17.6922 21.2647 17.423 21.5011 17.1992C22.0844 16.6472 22.797 16.3603 23.59 16.2873C24.2818 16.2236 24.9689 16.2742 25.6362 16.4855C26.7297 16.8319 27.3725 17.6041 27.6954 18.6767C27.9109 19.3936 27.9881 20.1323 27.9933 20.8747C28.0074 22.9318 28.0022 24.9895 28.0037 27.0471C28.0037 27.0847 27.997 27.1223 27.9923 27.1692H24.6846C24.6846 27.0894 24.6846 27.0143 24.6846 26.9386C24.6835 25.1742 24.6882 23.4097 24.6773 21.6453C24.6752 21.2764 24.6418 20.9024 24.5755 20.5398C24.3742 19.4358 23.6594 19.0612 22.6363 19.1854C21.7108 19.2976 21.2032 19.8417 21.0613 20.8455C21.0096 21.2112 20.9856 21.5843 20.9841 21.9541C20.9762 23.621 20.9804 25.2879 20.9804 26.9548C20.9804 27.0315 20.9804 27.1082 20.9804 27.2011L20.9799 27.2Z" fill="#0A0909"/>
<path d="M12.2812 16.5319H15.5733V27.1927H12.2812V16.5319Z" fill="#0A0909"/>
<path d="M15.8388 13.1178C15.8424 14.1795 14.9821 15.0565 13.9319 15.0612C12.877 15.0664 11.9984 14.1832 12 13.1194C12.0016 12.0723 12.8624 11.2073 13.911 11.2C14.9691 11.1927 15.8357 12.0546 15.8388 13.1178Z" fill="#0A0909"/>
</g>
<defs>
<clipPath id="clip0_1823_715">
<rect width="16.0031" height="16" fill="white" transform="translate(12 11.2)"/>
</clipPath>
</defs>
</svg>
