<svg width="40" height="40" viewBox="0 0 40 40" fill="none" xmlns="http://www.w3.org/2000/svg">
<circle cx="20" cy="20" r="19.5" stroke="#6E6E6E"/>
<g clip-path="url(#clip0_1823_711)">
<path d="M26.7327 12.8C25.9463 13.6956 25.1603 14.5918 24.3734 15.487C23.4052 16.5883 22.436 17.689 21.4674 18.79C21.4394 18.8218 21.4125 18.8547 21.3753 18.8983C23.3128 21.6556 25.2508 24.4135 27.1996 27.1868C27.1473 27.1914 27.1122 27.197 27.0772 27.197C25.7306 27.1975 24.3839 27.1962 23.0373 27.1998C22.9425 27.2001 22.8932 27.167 22.8422 27.0942C21.5937 25.3137 20.3428 23.5347 19.0921 21.7556C19.0602 21.7102 19.0269 21.6658 18.9867 21.6105C18.6204 22.0264 18.2643 22.4306 17.9084 22.835C16.6554 24.2593 15.4031 25.6842 14.1469 27.1056C14.1043 27.1537 14.0219 27.1918 13.957 27.1934C13.5841 27.2017 13.2107 27.1975 12.7998 27.1975C14.6849 25.0546 16.5507 22.934 18.4213 20.8078C18.3938 20.7662 18.3696 20.7274 18.3432 20.69C16.5344 18.1154 14.7253 15.5411 12.9168 12.9662C12.8794 12.9128 12.8477 12.8556 12.8134 12.8C14.2418 12.8 15.6701 12.8 17.0985 12.8C17.1097 12.8203 17.1193 12.8421 17.1326 12.861C18.3392 14.5785 19.546 16.2957 20.7524 18.0133C20.7704 18.0388 20.7838 18.0675 20.8029 18.1007C22.3739 16.3151 23.9207 14.5575 25.4672 12.8C25.889 12.8 26.3109 12.8 26.7327 12.8Z" fill="black"/>
</g>
<defs>
<clipPath id="clip0_1823_711">
<rect width="14.4" height="14.4" fill="white" transform="translate(12.7998 12.8)"/>
</clipPath>
</defs>
</svg>
