<?xml version="1.0" encoding="UTF-8"?>
<svg id="Layer_1" data-name="Layer 1" xmlns="http://www.w3.org/2000/svg" version="1.1" viewBox="0 0 122.1 122.1">
  <defs>
    <style>
      .cls-1 {
        fill: #efefe5;
        stroke-width: 0px;
      }
    </style>
  </defs>
  <path class="cls-1" d="M17.6,11.5l39.2.2c10.9-.2,17.8-2.1,24.8-6.4,3.8-2.3,8.8-2,12.2,1.3,3.8,3.8,4.3,10,.3,14C90.1,24.7,1.2,113.7,1.2,113.7c0,0,0,.2,0,.3l6.3,6.3s.2,0,.3,0L100.7,27.3c8.2-8.2,21.2,2.9,15.3,12.5-4.4,7.2-6.4,14.3-6.5,26.1l.4,37.9s.1.2.2.2h8.5c0,0,.2,0,.2-.1l.7-101.7s-.1-.2-.2-.2l-101.7.5s-.2,0-.2.2v8.5c0,0,.2.2.3.2Z"/>
</svg>