<?xml version="1.0" encoding="UTF-8"?>
<svg xmlns="http://www.w3.org/2000/svg" xmlns:xlink="http://www.w3.org/1999/xlink" version="1.1" viewBox="0 0 394.2 398.2">
  <defs>
    <style>
      .cls-1 {
        fill: url(#linear-gradient);
      }

      .cls-2 {
        fill: #d7d7d7;
      }
    </style>
    <linearGradient id="linear-gradient" x1="469.1" y1="1377.8" x2="665.1" y2="1377.8" gradientTransform="translate(-274 -1081.5)" gradientUnits="userSpaceOnUse">
      <stop offset="0" stop-color="#ffaf52" stop-opacity="0"/>
      <stop offset=".4" stop-color="#fb8841" stop-opacity=".3"/>
      <stop offset="1" stop-color="#f2361e"/>
    </linearGradient>
  </defs>
  <!-- Generator: Adobe Illustrator 28.6.0, SVG Export Plug-In . SVG Version: 1.2.0 Build 709)  -->
  <g>
    <g id="Layer_1">
      <path class="cls-2" d="M197.2,397.7C88.9,397.7.7,308.5.7,198.9S88.9,0,197.2,0s196.5,89.2,196.5,198.9-88.1,198.9-196.5,198.9h0ZM197.2,9C93.8,9,9.7,94.2,9.7,198.9s84.1,189.9,187.5,189.9,187.5-85.2,187.5-189.9S300.6,9,197.2,9Z"/>
      <path class="cls-2" d="M384.8,199.1c0-2.6,2.1-4.7,4.7-4.7s4.7,2.1,4.7,4.7h-9.4ZM197.1,9.5C93.4,9.5,9.4,94.4,9.4,199.1H0C0,89.2,88.2,0,197.1,0v9.5ZM9.4,199.1c0,104.7,84,189.6,187.7,189.6v9.5C88.2,398.2,0,309.1,0,199.1h9.4ZM197.1,388.7c103.7,0,187.7-84.9,187.7-189.6h9.4c0,109.9-88.2,199.1-197.1,199.1v-9.5h0Z"/>
      <path class="cls-1" d="M384.7,199.1c0-2.6,2.1-4.7,4.7-4.7s4.7,2.1,4.7,4.7h-9.5,0ZM195.1,388.7c104.7,0,189.6-84.9,189.6-189.6h9.5c0,109.9-89.1,199.1-199.1,199.1v-9.5Z"/>
    </g>
  </g>
</svg>