<?xml version="1.0" encoding="UTF-8"?>
<svg id="Layer_1" data-name="Layer 1" xmlns="http://www.w3.org/2000/svg" version="1.1" viewBox="0 0 51.1 51.1">
  <defs>
    <style>
      .cls-1 {
        fill: #fbbc05;
      }

      .cls-1, .cls-2, .cls-3, .cls-4, .cls-5 {
        stroke-width: 0px;
      }

      .cls-2 {
        fill: #34a853;
      }

      .cls-3 {
        fill: #4285f4;
      }

      .cls-4 {
        fill: #ea4335;
      }

      .cls-5 {
        fill: #fff;
      }
    </style>
  </defs>
  <path class="cls-5" d="M12.8,3.4c7.9-4.6,17.6-4.6,25.5,0,7.9,4.6,12.8,13,12.8,22.1s-4.9,17.6-12.8,22.1-17.6,4.6-25.5,0C4.9,43.1,0,34.7,0,25.5S4.9,8,12.8,3.4Z"/>
  <path class="cls-4" d="M31.4,18.8l3.2-3.3.2-1.4c-5.9-5.4-15.2-4.8-20.5,1.3-1.5,1.7-2.6,3.8-3.1,5.9l1.2-.2,6.4-1.1.5-.5c2.9-3.2,7.7-3.6,11-.9h1.1c0,0,0,0,0,0Z"/>
  <path class="cls-3" d="M39.2,21.3c-.7-2.8-2.3-5.2-4.4-7.1l-4.5,4.6c1.9,1.6,3,3.9,3,6.4v.8c2.2,0,4,1.8,4,4.1s-1.8,4-4,4h-8.1l-.8.9v4.9l.8.8h8.1c5.8,0,10.5-4.6,10.5-10.4,0-3.5-1.7-6.9-4.6-8.8"/>
  <path class="cls-2" d="M17.2,40.6h8v-6.5h-8c-.6,0-1.1-.1-1.7-.4l-1.1.4-3.2,3.3-.3,1.1c1.8,1.4,4,2.2,6.3,2.2"/>
  <path class="cls-1" d="M17.2,19.5c-5.8,0-10.4,4.8-10.4,10.6,0,3.3,1.5,6.3,4.1,8.3l4.7-4.7c-2-.9-2.9-3.3-2-5.4.9-2,3.3-3,5.3-2,.9.4,1.6,1.1,2,2l4.7-4.7c-2-2.6-5.1-4.2-8.3-4.1"/>
</svg>