<svg width="21" height="10" viewBox="0 0 21 10" fill="none" xmlns="http://www.w3.org/2000/svg">
<g clip-path="url(#clip0_691_2741)">
<path d="M20.8015 0.200171C20.5368 -0.0667237 20.1075 -0.0667237 19.8411 0.200171L12.1697 7.93499C11.7234 8.38494 11.1312 8.63302 10.5 8.63302C9.86878 8.63302 9.27658 8.38494 8.83032 7.93499L1.15894 0.200171C0.894231 -0.0667237 0.463235 -0.0667237 0.198529 0.200171C-0.0661765 0.467066 -0.0661765 0.901625 0.198529 1.16852L7.86991 8.90334C8.59446 9.63388 9.54638 10 10.5 10C11.4536 10 12.4038 9.63388 13.1301 8.90334L20.8015 1.16852C21.0662 0.901625 21.0662 0.468777 20.8015 0.200171Z" fill="black"/>
</g>
<defs>
<clipPath id="clip0_691_2741">
<rect width="21" height="10" fill="white"/>
</clipPath>
</defs>
</svg>
