<?xml version="1.0" encoding="UTF-8"?>
<svg xmlns="http://www.w3.org/2000/svg" xmlns:xlink="http://www.w3.org/1999/xlink" version="1.1" viewBox="0 0 47.3 46.1">
  <defs>
    <style>
      .cls-1 {
        fill: url(#linear-gradient-5);
      }

      .cls-2 {
        fill: url(#linear-gradient-4);
      }

      .cls-3 {
        fill: url(#linear-gradient-3);
      }

      .cls-4 {
        fill: url(#linear-gradient-2);
      }

      .cls-5 {
        fill: url(#linear-gradient);
      }
    </style>
    <linearGradient id="linear-gradient" x1="-2.5" y1="6.2" x2="27.7" y2="6.2" gradientTransform="translate(0 48) scale(1 -1)" gradientUnits="userSpaceOnUse">
      <stop offset="0" stop-color="#ee3a24"/>
      <stop offset="1" stop-color="#fbaf54"/>
    </linearGradient>
    <linearGradient id="linear-gradient-2" x1="0" y1="28.2" x2="47.3" y2="28.2" gradientTransform="translate(0 48) scale(1 -1)" gradientUnits="userSpaceOnUse">
      <stop offset="0" stop-color="#ee3a24"/>
      <stop offset="1" stop-color="#fbaf54"/>
    </linearGradient>
    <linearGradient id="linear-gradient-3" x1="10" y1="37.1" x2="37.5" y2="37.1" gradientTransform="translate(0 48) scale(1 -1)" gradientUnits="userSpaceOnUse">
      <stop offset="0" stop-color="#ee3a24"/>
      <stop offset="1" stop-color="#fbaf54"/>
    </linearGradient>
    <linearGradient id="linear-gradient-4" x1="10" y1="27.7" x2="37.5" y2="27.7" gradientTransform="translate(0 48) scale(1 -1)" gradientUnits="userSpaceOnUse">
      <stop offset="0" stop-color="#ee3a24"/>
      <stop offset="1" stop-color="#fbaf54"/>
    </linearGradient>
    <linearGradient id="linear-gradient-5" x1="10" y1="18.5" x2="37.5" y2="18.5" gradientTransform="translate(0 48) scale(1 -1)" gradientUnits="userSpaceOnUse">
      <stop offset="0" stop-color="#ee3a24"/>
      <stop offset="1" stop-color="#fbaf54"/>
    </linearGradient>
  </defs>
  <!-- Generator: Adobe Illustrator 28.6.0, SVG Export Plug-In . SVG Version: 1.2.0 Build 709)  -->
  <g>
    <g id="Layer_1">
      <polygon class="cls-5" points="4.3 46.1 27.7 46.1 27.7 43 5.5 43 0 37.5 0 37.5 0 41.8 4.3 46.1"/>
      <polygon class="cls-4" points="44 36.4 8.4 36.4 3.1 31.2 3.1 3.1 38.6 3.1 45.1 9.2 47.3 7.1 39.8 0 0 0 0 12 0 32.5 7.2 39.5 47 39.5 47 20.2 44 20.2 44 36.4"/>
      <rect class="cls-3" x="10" y="9.4" width="27.5" height="3.1"/>
      <rect class="cls-2" x="10" y="18.7" width="27.5" height="3.1"/>
      <rect class="cls-1" x="10" y="28" width="27.5" height="3.1"/>
    </g>
  </g>
</svg>