<?xml version="1.0" encoding="UTF-8"?>
<svg xmlns="http://www.w3.org/2000/svg" xmlns:xlink="http://www.w3.org/1999/xlink" version="1.1" viewBox="0 0 39.7 33.8">
  <defs>
    <style>
      .cls-1 {
        fill: url(#linear-gradient-5);
      }

      .cls-2 {
        fill: url(#linear-gradient-4);
      }

      .cls-3 {
        fill: url(#linear-gradient-3);
      }

      .cls-4 {
        fill: url(#linear-gradient-2);
      }

      .cls-5 {
        fill: url(#linear-gradient);
      }
    </style>
    <linearGradient id="linear-gradient" x1=".1" y1="31" x2="16.4" y2="31" gradientUnits="userSpaceOnUse">
      <stop offset="0" stop-color="#ee3a24"/>
      <stop offset="1" stop-color="#fbaf54"/>
    </linearGradient>
    <linearGradient id="linear-gradient-2" x1="0" y1="15.4" x2="29.9" y2="15.4" xlink:href="#linear-gradient"/>
    <linearGradient id="linear-gradient-3" x1="9.2" y1="8.2" x2="25.5" y2="8.2" xlink:href="#linear-gradient"/>
    <linearGradient id="linear-gradient-4" x1="9.2" y1="15" x2="25.5" y2="15" xlink:href="#linear-gradient"/>
    <linearGradient id="linear-gradient-5" x1="9.2" y1="21.7" x2="25.5" y2="21.7" xlink:href="#linear-gradient"/>
  </defs>
  <!-- Generator: Adobe Illustrator 28.6.0, SVG Export Plug-In . SVG Version: 1.2.0 Build 709)  -->
  <g>
    <g id="Layer_1">
      <g>
        <polygon class="cls-5" points=".8 28.1 .1 28.8 5.1 33.8 21.7 33.8 21.7 32.8 5.5 32.8 .8 28.1"/>
        <polygon class="cls-4" points="38.7 16.8 38.7 29.9 6.5 29.9 1 24.6 1 1 33.2 1 38.8 6.3 39.5 5.6 33.6 0 0 0 0 25 6.1 30.9 39.7 30.9 39.7 16.8 38.7 16.8"/>
        <rect class="cls-3" x="9.2" y="7.7" width="21.7" height="1"/>
        <rect class="cls-2" x="9.2" y="14.5" width="21.7" height="1"/>
        <rect class="cls-1" x="9.2" y="21.2" width="21.7" height="1"/>
      </g>
    </g>
  </g>
</svg>