<?xml version="1.0" encoding="UTF-8"?>
<svg id="Layer_1" xmlns="http://www.w3.org/2000/svg" xmlns:xlink="http://www.w3.org/1999/xlink" viewBox="0 0 47.26 46.09">
  <defs>
    <style>
      .cls-1 {
        fill: url(#linear-gradient-4);
      }

      .cls-2 {
        fill: url(#linear-gradient-3);
      }

      .cls-3 {
        fill: url(#linear-gradient-2);
      }

      .cls-4 {
        fill: url(#linear-gradient);
      }
    </style>
    <linearGradient id="linear-gradient" x1="-2.51" y1="6.21" x2="27.68" y2="6.21" gradientTransform="translate(0 48) scale(1 -1)" gradientUnits="userSpaceOnUse">
      <stop offset="0" stop-color="#ee3a24"/>
      <stop offset="1" stop-color="#fbaf54"/>
    </linearGradient>
    <linearGradient id="linear-gradient-2" x1="0" y1="28.25" x2="47.26" y2="28.25" gradientTransform="translate(0 48) scale(1 -1)" gradientUnits="userSpaceOnUse">
      <stop offset="0" stop-color="#ee3a24"/>
      <stop offset="1" stop-color="#fbaf54"/>
    </linearGradient>
    <linearGradient id="linear-gradient-3" x1="3.38" y1="30.52" x2="30.91" y2="30.52" gradientTransform="translate(6.59 50.73) scale(1 -1)" gradientUnits="userSpaceOnUse">
      <stop offset="0" stop-color="#ee3a24"/>
      <stop offset="1" stop-color="#fbaf54"/>
    </linearGradient>
    <linearGradient id="linear-gradient-4" x1="3.38" y1="25.07" x2="30.91" y2="25.07" gradientTransform="translate(-1.33 3.06) rotate(90) scale(1 -1)" gradientUnits="userSpaceOnUse">
      <stop offset="0" stop-color="#ee3a24"/>
      <stop offset="1" stop-color="#fbaf54"/>
    </linearGradient>
  </defs>
  <polygon class="cls-4" points="4.27 46.09 27.68 46.09 27.68 43 5.53 43 .02 37.49 0 37.52 0 41.82 4.27 46.09"/>
  <polygon class="cls-3" points="43.96 36.42 8.45 36.42 3.08 31.25 3.08 3.08 38.59 3.08 45.08 9.23 47.26 7.05 39.83 0 0 0 0 12 0 32.53 7.21 39.5 47.04 39.5 47.04 20.21 43.96 20.21 43.96 36.42"/>
  <rect class="cls-2" x="9.97" y="18.66" width="27.53" height="3.08" transform="translate(-7.34 22.7) rotate(-45)"/>
  <rect class="cls-1" x="22.2" y="6.44" width="3.08" height="27.53" transform="translate(-7.34 22.7) rotate(-45)"/>
</svg>