<?xml version="1.0" encoding="UTF-8"?>
<svg id="Layer_1" data-name="Layer 1" xmlns="http://www.w3.org/2000/svg" version="1.1" viewBox="0 0 120 120">
  <defs>
    <style>
      .cls-1 {
        fill: #756d6d;
        stroke-width: 0px;
      }
    </style>
  </defs>
  <path class="cls-1" d="M97.9,48.1c-.1,11.2-3.1,20.6-9,28.9-.9,1.3-.7,1.8.3,2.8,6.6,6.5,22.1,22,28.6,28.6,1.9,1.9,2.7,4.2,1.9,6.9-.8,2.5-2.5,4-5,4.5-2.5.5-4.5-.4-6.3-2.1-6.5-6.6-22-21.9-28.5-28.5-1.1-1.1-1.7-1.1-2.9-.2C47.6,109.6,6.8,92.6.7,57.1-3.7,31.3,13.3,6.4,39,1c27.9-5.8,55.2,13.7,58.5,41.9.2,2,.4,4.1.4,5.2ZM48.9,84.7c19.8,0,35.8-15.9,35.7-35.7,0-19.8-16-35.7-35.8-35.7-19.8,0-35.6,15.9-35.7,35.7,0,19.8,15.9,35.8,35.7,35.8Z"/>
</svg>