<?xml version="1.0" encoding="UTF-8"?>
<svg id="Layer_1" xmlns="http://www.w3.org/2000/svg" viewBox="0 0 60.95 60.95">
  <defs>
    <style>
      .cls-1 {
        fill: #fff;
      }
    </style>
  </defs>
  <path class="cls-1" d="M52.04,8.91c-11.88-11.88-31.25-11.88-43.13,0s-11.88,31.25,0,43.13,31.25,11.88,43.13,0,11.88-31.25,0-43.13ZM50.63,50.63c-11.1,11.1-29.2,11.1-40.31,0C-.78,39.53-.78,21.43,10.32,10.32,21.43-.78,39.53-.78,50.63,10.32c11.1,11.1,11.1,29.2,0,40.31Z"/>
  <path class="cls-1" d="M31.33,15.98l-1.56,1.55,5.55,5.55c1.42,1.42,2.66,2.15,4.28,2.54.66.18,1.29.78,1.23,1.6,0,.82-.62,1.66-1.66,1.66-1.13,0-24.82.07-24.82.07h-.25v2.2l25.07-.07c.98,0,1.43.75,1.51,1.38.1.74-.24,1.61-1.22,1.87-1.48.4-2.74.99-4.42,2.68l-5.27,5.27,1.56,1.56,13.75-13.75-.12-.12.18-.18-13.81-13.81Z"/>
</svg>